<svg width="1250" height="1301" viewBox="0 0 1250 1301" fill="none" xmlns="http://www.w3.org/2000/svg">
<path d="M683.272 -359.493C691.723 -371.006 705.671 -377.14 719.869 -375.586L1421.52 -298.804C1435.73 -297.249 1448.03 -288.229 1453.79 -275.144L1737.75 370.601C1743.51 383.686 1741.84 398.848 1733.38 410.372L1315.72 979.378C1307.27 990.891 1293.32 997.025 1279.12 995.471L577.472 918.689C563.261 917.134 550.961 908.114 545.207 895.028L261.238 249.284C255.484 236.199 257.15 221.037 265.608 209.513L683.272 -359.493Z" fill="#1C63ED" fill-opacity="0.5"/>
<path d="M674.862 -378.618C683.313 -390.131 697.261 -396.265 711.458 -394.711L1413.11 -317.929C1427.32 -316.374 1439.62 -307.354 1445.37 -294.269L1729.34 351.475C1735.1 364.561 1733.43 379.723 1724.97 391.246L1307.31 960.252C1298.86 971.766 1284.91 977.9 1270.71 976.346L569.061 899.564C554.851 898.009 542.551 888.989 536.797 875.903L252.828 230.159C247.073 217.074 248.739 201.912 257.198 190.388L674.862 -378.618Z" fill="#1C63ED" fill-opacity="0.7"/>
</svg>
