<svg width="2480" height="2291" viewBox="0 0 2480 2291" fill="none" xmlns="http://www.w3.org/2000/svg">
<rect x="375" y="638" width="1728" height="1016" fill="white"/>
<path d="M1225.55 652.476C1232.62 639.832 1245.97 632 1260.46 632L1301 632L1473 632L1809 632L2060.51 632C2082 632 2099.65 648.985 2100.48 670.463L2103 736L2103 1080L2103 1570.54C2103 1593.94 2083 1612.34 2059.69 1610.4L1431.23 1558.15C1416.61 1556.93 1403.83 1547.82 1397.92 1534.39L1112.96 886.375C1107.91 874.889 1108.54 861.7 1114.66 850.749L1225.55 652.476Z" fill="#1C63ED" fill-opacity="0.5"/>
<path d="M1261 650.481C1268.6 641.309 1279.89 636 1291.81 636L1595 636L1850 636L2065 636C2087.09 636 2105 653.909 2105 676L2105 771L2105 1233.5L2105 1567.53C2105 1591.29 2084.41 1609.81 2060.78 1607.3L1422.15 1539.5C1407.89 1537.99 1395.53 1528.95 1389.76 1515.83L1106.47 871.617C1100.38 857.761 1102.63 841.652 1112.28 829.996L1261 650.481Z" fill="#1C63ED" fill-opacity="0.7"/>
</svg>
