<svg width="2256" height="1912" viewBox="0 0 2256 1912" fill="none" xmlns="http://www.w3.org/2000/svg">
<rect x="213" y="678" width="1728" height="576" fill="white"/>
<path d="M1171.87 686.152C1178.19 678.808 1188.85 674.614 1201.2 674.614L1237.75 674.614L1388.11 674.614L1681.84 674.614L1884.08 674.614C1910.95 674.614 1936.5 693.898 1937.75 715.132L1938.85 733.632L1938.85 928.846L1938.85 1202.2C1938.85 1219.22 1922.5 1231 1900.52 1229.81L1360.46 1200.66C1342.56 1199.7 1324.91 1190.28 1315.8 1176.84L1079.41 827.875C1071.34 815.97 1071.32 802.862 1079.35 793.543L1171.87 686.152Z" fill="#1C63ED" fill-opacity="0.5"/>
<path d="M1203.33 684.677C1209.77 679.635 1218.73 676.884 1228.73 676.884L1494.76 676.884L1717.68 676.884L1886.88 676.884C1914.56 676.884 1940.6 697.285 1940.6 718.974L1940.6 753.494L1940.6 1015.95L1940.6 1200.49C1940.6 1217.76 1923.78 1229.59 1901.42 1228.04L1352.57 1190.22C1334.93 1189 1317.71 1179.66 1308.76 1166.44L1074.51 820.652C1065.18 806.878 1066.73 791.716 1078.39 782.575L1203.33 684.677Z" fill="#1C63ED" fill-opacity="0.7"/>
</svg>
