<svg width="353" height="308" viewBox="0 0 353 308" fill="none" xmlns="http://www.w3.org/2000/svg">
<path d="M47.6791 234.948C58.5786 241.241 58.5786 251.449 47.6791 257.726C36.7796 264.002 19.0889 264.019 8.18097 257.726C-2.72699 251.432 -2.72699 241.216 8.18097 234.948C19.0889 228.68 36.7121 228.646 47.6791 234.948Z" fill="#E0E0E0"/>
<path d="M71.5869 249.415L170.509 306.528C172.804 307.692 175.52 307.692 177.815 306.528L345.273 209.849C347.289 208.685 347.289 206.795 345.273 205.631L246.35 148.51C244.056 147.346 241.339 147.346 239.045 148.51L71.5869 245.197C69.5622 246.361 69.5622 248.251 71.5869 249.415Z" fill="#E0E0E0"/>
<path d="M74.9609 238.92C75.1718 241.763 76.7241 244.336 79.1368 245.846L170.003 298.294C172.626 299.619 175.723 299.619 178.346 298.294L338.304 205.943C342.126 203.927 343.594 199.194 341.578 195.364C340.844 193.964 339.696 192.825 338.304 192.091L247.455 139.627C244.832 138.294 241.736 138.294 239.112 139.627L79.1368 231.986C76.7241 233.504 75.1718 236.077 74.9609 238.92Z" fill="#37474F"/>
<path d="M79.1365 236.803L170.002 289.267C172.626 290.6 175.722 290.6 178.346 289.267L338.304 196.908C340.615 195.575 340.615 193.416 338.304 192.091L247.455 139.627C244.831 138.294 241.735 138.294 239.112 139.627L79.1365 231.986C76.8334 233.336 76.8334 235.478 79.1365 236.803Z" fill="#455A64"/>
<path d="M174.162 290.269V299.305C172.694 299.338 171.243 299.001 169.944 298.309L79.1367 245.845C75.3152 243.837 73.8473 239.113 75.8551 235.291C76.5131 234.034 77.5001 232.988 78.7149 232.254C76.8421 233.595 77.0277 235.561 79.1367 236.809L170.003 289.274C171.285 289.949 172.711 290.295 174.162 290.269Z" fill="#263238"/>
<path d="M71.0466 232.138C68.8869 230.89 69.0051 228.764 69.0051 226.123V100.635C69.1822 97.6911 70.7513 95.0084 73.2231 93.4055L233.156 1.04634C235.67 -0.286576 238.673 -0.345629 241.238 0.894488C243.406 2.14304 243.288 4.26895 243.288 6.91791V132.397C243.128 135.333 241.575 138.024 239.112 139.627L79.1369 231.986C76.6145 233.328 73.6112 233.378 71.0466 232.138Z" fill="#37474F"/>
<path d="M243.287 6.9086C243.287 4.25121 241.415 3.17981 239.112 4.50429L79.1365 96.8719C77.8964 97.6396 76.884 98.711 76.1838 99.9848L70.2363 96.526C70.9365 95.2521 71.9573 94.1723 73.189 93.4046L233.147 1.04546C235.67 -0.295886 238.673 -0.346503 241.237 0.893613C243.397 2.18435 243.287 4.25121 243.287 6.9086Z" fill="#455A64"/>
<path d="M78.6474 232.24C76.2262 233.328 73.4423 233.294 71.0548 232.139C68.8952 230.89 69.0048 228.764 69.0048 226.124V100.636C69.0555 99.1847 69.4773 97.7675 70.2281 96.5273L76.184 99.9777C75.4332 101.218 75.0114 102.635 74.9608 104.086V229.583C74.9608 232.046 76.5721 233.16 78.6474 232.24Z" fill="#263238"/>
<path d="M81.4225 101.68L235.619 12.653C237.002 11.8094 238.15 12.5012 238.15 14.0956V123.665C238.048 125.428 237.112 127.047 235.619 128.001L81.4225 217.002C80.0389 217.795 78.8916 217.154 78.8916 215.551V106.016C78.9928 104.253 79.9377 102.642 81.4225 101.68Z" fill="#FAFAFA"/>
<path d="M90.702 232.239L239.179 146.502C240.486 145.835 242.038 145.835 243.346 146.502L245.818 147.86C246.974 148.526 246.974 149.606 245.818 150.273L97.3413 235.984C96.0168 236.668 94.4476 236.668 93.1232 235.984L90.6767 234.643C89.5294 233.976 89.5294 232.897 90.702 232.239Z" fill="#263238"/>
<path d="M102.329 239.157L250.805 153.428C251.969 152.762 253.387 152.686 254.618 153.217L293.264 175.539C294.218 176.088 294.057 177.075 292.91 177.741L144.611 263.352C143.438 264.018 142.029 264.102 140.789 263.571L101.983 241.358C101.021 240.81 101.181 239.823 102.329 239.157Z" fill="#263238"/>
<path d="M230.996 189.468L235.653 186.786C235.847 186.676 235.864 186.499 235.653 186.398L231.207 183.867C230.996 183.757 230.743 183.757 230.532 183.867L225.884 186.558C225.681 186.668 225.665 186.845 225.884 186.946L230.33 189.477C230.541 189.578 230.785 189.578 230.996 189.468ZM224.247 180.189L219.599 182.871C219.397 182.981 219.38 183.158 219.557 183.259L224.003 185.79C224.214 185.9 224.467 185.9 224.678 185.79L229.326 183.099C229.528 182.989 229.545 182.812 229.368 182.711L224.922 180.18C224.703 180.062 224.433 180.062 224.214 180.189H224.247ZM209.222 188.861L201.36 193.4C201.158 193.509 201.141 193.686 201.318 193.788L205.764 196.361C205.975 196.47 206.228 196.47 206.439 196.361L214.31 191.814C214.504 191.704 214.52 191.527 214.31 191.426L209.855 188.895C209.653 188.768 209.408 188.743 209.189 188.827L209.222 188.861ZM217.448 184.111L212.799 186.794C212.605 186.904 212.589 187.081 212.757 187.182L217.212 189.713C217.422 189.823 217.676 189.823 217.886 189.713L222.535 187.022C222.729 186.912 222.746 186.735 222.535 186.634L218.08 184.103C217.878 183.985 217.625 183.976 217.414 184.078L217.448 184.111ZM199.209 194.64L194.56 197.322C194.366 197.441 194.35 197.609 194.518 197.711L198.973 200.241C199.183 200.343 199.437 200.343 199.647 200.241L204.296 197.559C204.49 197.441 204.507 197.272 204.338 197.162L199.884 194.631C199.664 194.505 199.403 194.496 199.175 194.606L199.209 194.64ZM192.418 198.563L187.719 201.212C187.516 201.33 187.499 201.498 187.719 201.6L192.165 204.173C192.375 204.282 192.629 204.282 192.839 204.173L197.488 201.49C197.69 201.372 197.707 201.203 197.53 201.093L193.084 198.563C192.873 198.436 192.612 198.419 192.384 198.529L192.418 198.563ZM209.847 209.04L214.504 206.358C214.698 206.239 214.714 206.071 214.504 205.97L210.058 203.439C209.847 203.329 209.594 203.329 209.383 203.439L204.734 206.121C204.532 206.239 204.515 206.408 204.692 206.509L209.138 209.082C209.366 209.167 209.611 209.133 209.813 209.007L209.847 209.04ZM203.056 212.963L207.704 210.28C207.898 210.162 207.923 209.994 207.746 209.892L203.3 207.319C203.089 207.21 202.828 207.21 202.617 207.319L197.969 210.002C197.775 210.12 197.758 210.289 197.969 210.39L202.414 212.921C202.609 213.005 202.828 213.014 203.022 212.921L203.056 212.955V212.963ZM196.256 216.886L200.913 214.203C201.107 214.085 201.124 213.916 200.913 213.815L196.467 211.242C196.256 211.132 196.003 211.132 195.792 211.242L191.144 213.933C190.941 214.051 190.924 214.22 191.102 214.321L195.547 216.894C195.767 216.987 196.02 216.979 196.222 216.852L196.256 216.886ZM189.406 220.775L194.054 218.092C194.257 217.974 194.274 217.805 194.054 217.704L189.608 215.131C189.397 215.022 189.144 215.022 188.933 215.131L184.344 217.839C184.15 217.957 184.133 218.126 184.344 218.227L188.79 220.8C188.993 220.885 189.212 220.876 189.406 220.775ZM224.18 193.357L228.828 190.675C229.022 190.565 229.047 190.388 228.87 190.287L224.424 187.756C224.214 187.646 223.96 187.646 223.75 187.756L219.093 190.447C218.899 190.557 218.882 190.734 219.093 190.835L223.539 193.366C223.75 193.467 223.994 193.467 224.205 193.357H224.18ZM216.587 205.084L226.955 199.094C227.158 198.984 227.175 198.807 226.955 198.706L216.157 192.472C215.938 192.362 215.693 192.362 215.474 192.472L210.117 195.568C209.914 195.686 209.897 195.863 210.075 195.964L215.794 199.263C215.971 199.364 215.946 199.541 215.752 199.651L211.526 202.123C211.332 202.241 211.315 202.409 211.526 202.511L215.971 205.084C216.174 205.177 216.41 205.177 216.613 205.084H216.587ZM185.559 202.452L180.97 205.134C180.776 205.252 180.759 205.421 180.97 205.522L185.416 208.095C185.627 208.205 185.88 208.205 186.091 208.095L190.739 205.413C190.933 205.295 190.95 205.126 190.781 205.025L186.327 202.452C186.099 202.317 185.812 202.317 185.584 202.452H185.559ZM178.793 206.341L174.145 209.023C173.942 209.142 173.926 209.31 174.145 209.411L178.591 211.985C178.802 212.094 179.055 212.094 179.266 211.985L183.914 209.302C184.116 209.184 184.133 209.015 183.956 208.914L179.468 206.341C179.257 206.231 179.004 206.231 178.793 206.341ZM141.193 248.226C141.404 248.336 141.657 248.336 141.868 248.226L146.516 245.544C146.71 245.434 146.727 245.257 146.559 245.156L142.104 242.625C141.893 242.515 141.64 242.515 141.429 242.625L136.781 245.307C136.587 245.425 136.57 245.603 136.739 245.704L141.193 248.226ZM124.447 237.757L119.799 240.44C119.605 240.558 119.58 240.735 119.757 240.836L124.211 243.367C124.422 243.477 124.675 243.477 124.886 243.367L129.534 240.684C129.728 240.575 129.745 240.398 129.534 240.296L125.089 237.765C124.886 237.664 124.65 237.664 124.447 237.757ZM133.061 245.628C133.28 245.729 133.525 245.729 133.744 245.628L138.392 242.945C138.586 242.827 138.603 242.65 138.392 242.549L133.947 240.018C133.736 239.908 133.483 239.908 133.272 240.018L128.666 242.667C128.471 242.777 128.446 242.954 128.623 243.055L133.061 245.628ZM151.814 249.846L156.463 247.163C156.657 247.054 156.674 246.877 156.463 246.775L152.008 244.244C151.798 244.135 151.544 244.135 151.334 244.244L146.685 246.936C146.491 247.045 146.474 247.222 146.685 247.324L151.131 249.854C151.342 249.956 151.595 249.947 151.798 249.838H151.814V249.846ZM144.34 253.794C144.551 253.904 144.804 253.904 145.015 253.794L149.663 251.111C149.866 251.002 149.882 250.825 149.663 250.723L145.217 248.193C145.006 248.083 144.753 248.083 144.542 248.193L139.894 250.884C139.692 250.993 139.675 251.171 139.852 251.272L144.34 253.794ZM131.196 233.834L126.54 236.517C126.346 236.635 126.329 236.812 126.54 236.913L130.985 239.444C131.196 239.554 131.449 239.554 131.66 239.444L136.309 236.762C136.511 236.652 136.528 236.475 136.351 236.373L131.905 233.8C131.677 233.691 131.416 233.708 131.196 233.834ZM165.169 214.22L160.52 216.903C160.318 217.021 160.301 217.19 160.478 217.291L164.924 219.822C165.135 219.931 165.388 219.931 165.599 219.822L170.256 217.139C170.45 217.021 170.467 216.852 170.256 216.751L165.81 214.178C165.607 214.102 165.388 214.119 165.203 214.22H165.169ZM137.987 229.911L133.339 232.594C133.145 232.712 133.12 232.889 133.297 232.991L137.743 235.521C137.954 235.631 138.215 235.631 138.426 235.521L143.074 232.839C143.269 232.721 143.285 232.552 143.074 232.451L138.629 229.92C138.435 229.835 138.215 229.827 138.021 229.911H137.987ZM171.96 210.297L167.312 212.98C167.118 213.098 167.101 213.267 167.312 213.368L171.757 215.941C171.968 216.051 172.221 216.051 172.432 215.941L177.081 213.258C177.275 213.14 177.292 212.972 177.123 212.87L172.669 210.339C172.466 210.213 172.213 210.204 171.994 210.297H171.96ZM158.403 218.151L153.755 220.834C153.561 220.952 153.544 221.121 153.755 221.222L158.201 223.795C158.411 223.905 158.665 223.905 158.875 223.795L163.524 221.112C163.718 220.994 163.743 220.826 163.566 220.724L159.086 218.151C158.875 218.042 158.614 218.042 158.403 218.151ZM151.612 222.074L146.964 224.757C146.761 224.875 146.744 225.044 146.921 225.145L151.367 227.718C151.578 227.828 151.831 227.828 152.042 227.718L156.699 225.035C156.893 224.917 156.91 224.748 156.699 224.647L152.287 222.04C152.067 221.939 151.823 221.956 151.612 222.066V222.074ZM144.863 225.997L140.206 228.68C140.012 228.798 139.995 228.975 140.206 229.076L144.652 231.607C144.863 231.717 145.116 231.717 145.327 231.607L149.975 228.924C150.178 228.806 150.195 228.638 150.017 228.536L145.538 225.963C145.31 225.854 145.04 225.862 144.821 225.989H144.863V225.997ZM175.883 228.629L180.531 225.946C180.734 225.828 180.75 225.66 180.531 225.558L176.085 223.027C175.874 222.918 175.621 222.918 175.41 223.027L170.754 225.71C170.56 225.828 170.543 225.997 170.754 226.098L175.199 228.671C175.41 228.756 175.647 228.739 175.841 228.621H175.883V228.629ZM239.272 171.491L234.624 174.174C234.43 174.283 234.413 174.46 234.582 174.562L239.036 177.093C239.247 177.202 239.5 177.202 239.711 177.093L244.359 174.401C244.553 174.292 244.57 174.115 244.401 174.013L239.947 171.482C239.728 171.356 239.449 171.356 239.23 171.482H239.272V171.491ZM231.047 176.232L226.399 178.923C226.204 179.033 226.188 179.21 226.356 179.311L230.811 181.842C231.022 181.952 231.275 181.952 231.486 181.842L236.134 179.151C236.328 179.041 236.345 178.864 236.176 178.763L231.722 176.232C231.502 176.106 231.232 176.106 231.005 176.232H231.047ZM246.029 167.534L241.381 170.217C241.179 170.327 241.162 170.504 241.339 170.605L245.785 173.136C245.996 173.246 246.249 173.246 246.46 173.136L251.108 170.445C251.311 170.335 251.327 170.158 251.15 170.057L246.704 167.526C246.493 167.416 246.24 167.425 246.029 167.534ZM208.472 202.443L213.12 199.761C213.314 199.651 213.331 199.474 213.162 199.372L208.708 196.842C208.497 196.732 208.244 196.732 208.033 196.842L203.385 199.533C203.191 199.642 203.174 199.82 203.342 199.921L207.797 202.452C208.008 202.561 208.261 202.553 208.472 202.443ZM253.495 163.637C253.285 163.527 253.032 163.527 252.821 163.637L248.172 166.328C247.978 166.438 247.961 166.615 248.13 166.716L252.584 169.247C252.795 169.357 253.048 169.357 253.259 169.247L257.908 166.556C258.102 166.446 258.118 166.269 257.95 166.168L253.495 163.637ZM182.632 224.723L187.28 222.04C187.474 221.922 187.491 221.754 187.28 221.652L182.834 219.079C182.623 218.97 182.37 218.97 182.159 219.079L177.595 221.762C177.401 221.88 177.376 222.049 177.595 222.15L182.041 224.723C182.244 224.799 182.463 224.791 182.657 224.698L182.632 224.723ZM265.956 176.637L270.604 173.954C270.807 173.845 270.823 173.667 270.646 173.566L266.175 170.909C265.964 170.799 265.711 170.799 265.5 170.909L260.852 173.592C260.649 173.71 260.632 173.887 260.81 173.988L265.256 176.519C265.466 176.662 265.728 176.688 265.964 176.586V176.637H265.956ZM252.804 176.89L257.46 174.207C257.655 174.098 257.671 173.921 257.46 173.819L253.015 171.288C252.804 171.179 252.551 171.179 252.34 171.288L247.691 173.98C247.489 174.089 247.472 174.266 247.649 174.368L252.095 176.899C252.331 177 252.601 176.966 252.812 176.814V176.89H252.804ZM259.839 167.332C259.629 167.222 259.375 167.222 259.165 167.332L254.516 170.023C254.322 170.133 254.305 170.31 254.516 170.411L258.962 172.942C259.173 173.052 259.426 173.052 259.637 172.942L264.285 170.259C264.479 170.15 264.505 169.972 264.285 169.871L259.839 167.332ZM261.274 166.488L272.072 172.723C272.283 172.832 272.544 172.832 272.755 172.723L277.404 170.04C277.598 169.93 277.614 169.753 277.404 169.652L266.605 163.418C266.394 163.308 266.141 163.308 265.93 163.418L261.282 166.1C261.113 166.176 261.113 166.353 261.282 166.455V166.488H261.274ZM245.582 175.127L240.934 177.818C240.74 177.928 240.723 178.105 240.934 178.206L245.38 180.737C245.591 180.847 245.844 180.847 246.055 180.737L250.703 178.054C250.897 177.945 250.922 177.767 250.745 177.666L246.299 175.135C246.08 175.017 245.81 175.009 245.582 175.127ZM194.468 204.653L189.819 207.345C189.625 207.454 189.608 207.631 189.819 207.733L194.274 210.264C194.484 210.373 194.738 210.373 194.948 210.264L199.529 207.606C199.723 207.496 199.74 207.319 199.572 207.218L195.117 204.687C194.915 204.578 194.679 204.569 194.468 204.653ZM258.523 180.518C258.734 180.627 258.987 180.627 259.198 180.518L263.847 177.835C264.041 177.725 264.058 177.548 263.847 177.447L259.426 174.865C259.215 174.756 258.962 174.756 258.751 174.865L254.103 177.548C253.909 177.666 253.892 177.843 254.061 177.945L258.523 180.518ZM201.267 200.764L196.619 203.456C196.416 203.565 196.4 203.742 196.619 203.844L201.065 206.374C201.276 206.484 201.529 206.484 201.74 206.374L206.388 203.692C206.59 203.582 206.607 203.405 206.43 203.304L201.984 200.773C201.748 200.629 201.461 200.613 201.217 200.748L201.267 200.764ZM147.984 244.303C148.195 244.413 148.448 244.413 148.659 244.303L153.308 241.621C153.51 241.511 153.527 241.334 153.308 241.233L148.912 238.668C148.701 238.558 148.448 238.558 148.237 238.668L143.589 241.351C143.387 241.469 143.37 241.646 143.547 241.747L147.984 244.303ZM140.088 236.028L135.414 238.744C135.22 238.854 135.204 239.031 135.414 239.132L139.86 241.663C140.071 241.773 140.324 241.773 140.535 241.663L145.184 238.98C145.386 238.862 145.403 238.685 145.226 238.584L140.78 236.053C140.561 235.943 140.299 235.943 140.088 236.061V236.028ZM155.459 240.355L160.107 237.673C160.301 237.563 160.318 237.386 160.107 237.285L155.661 234.745C155.45 234.636 155.197 234.636 154.986 234.745L150.338 237.428C150.144 237.546 150.127 237.723 150.338 237.825L154.792 240.355C154.995 240.473 155.248 240.482 155.459 240.389V240.355ZM162.25 236.433L166.898 233.75C167.101 233.632 167.118 233.463 166.94 233.362L162.495 230.806C162.284 230.696 162.031 230.696 161.82 230.806L157.171 233.488C156.969 233.606 156.952 233.784 157.171 233.885L161.617 236.416C161.811 236.525 162.039 236.542 162.25 236.466V236.433ZM169.049 232.51L173.698 229.827C173.892 229.709 173.909 229.54 173.698 229.439L169.252 226.866C169.041 226.756 168.788 226.756 168.577 226.866L163.929 229.549C163.735 229.667 163.709 229.844 163.887 229.937L168.341 232.468C168.552 232.611 168.813 232.645 169.049 232.543V232.51ZM146.879 232.105L142.231 234.787C142.037 234.897 142.012 235.074 142.189 235.176L146.635 237.706C146.854 237.816 147.099 237.816 147.318 237.706L151.966 235.024C152.16 234.906 152.177 234.728 151.966 234.627L147.52 232.096C147.309 232.012 147.073 232.029 146.879 232.139V232.105ZM153.679 228.182L149.022 230.865C148.828 230.974 148.811 231.151 149.022 231.253L153.468 233.784C153.679 233.893 153.932 233.893 154.143 233.784L158.791 231.092C158.985 230.983 159.01 230.806 158.833 230.704L154.387 228.174C154.16 228.064 153.89 228.081 153.679 228.216V228.182ZM180.852 212.491L176.203 215.173C176.009 215.283 175.992 215.46 176.203 215.561L180.649 218.092C180.86 218.202 181.113 218.202 181.324 218.092L185.972 215.401C186.166 215.292 186.183 215.114 186.015 215.013L181.56 212.482C181.333 212.373 181.063 212.389 180.852 212.524V212.491ZM174.061 216.464L169.412 219.147C169.21 219.256 169.193 219.434 169.37 219.535L173.816 222.066C174.027 222.175 174.28 222.175 174.491 222.066L179.139 219.375C179.342 219.265 179.358 219.088 179.139 218.987L174.693 216.456C174.491 216.363 174.263 216.363 174.061 216.464ZM187.651 208.61L183.003 211.301C182.8 211.411 182.784 211.588 183.003 211.689L187.449 214.22C187.66 214.33 187.913 214.33 188.124 214.22L192.772 211.529C192.974 211.419 192.991 211.242 192.814 211.141L188.368 208.61C188.149 208.484 187.879 208.475 187.651 208.593V208.61ZM160.47 224.293L155.822 226.976C155.619 227.085 155.602 227.262 155.779 227.364L160.225 229.895C160.436 230.004 160.689 230.004 160.9 229.895L165.557 227.203C165.751 227.094 165.768 226.917 165.557 226.815L161.111 224.284C160.909 224.192 160.672 224.192 160.47 224.293ZM167.261 220.37L162.613 223.053C162.419 223.162 162.402 223.34 162.613 223.441L167.059 225.972C167.269 226.081 167.523 226.081 167.733 225.972L172.382 223.281C172.576 223.171 172.601 222.994 172.424 222.892L167.97 220.362C167.75 220.244 167.48 220.244 167.261 220.37ZM158.589 245.915L163.237 243.232C163.439 243.122 163.456 242.945 163.279 242.844L158.833 240.313C158.622 240.203 158.369 240.203 158.158 240.313L153.51 242.996C153.308 243.114 153.291 243.291 153.51 243.392L157.956 245.923C158.158 246.016 158.386 246.016 158.589 245.915ZM122.76 244.228L118.314 241.697C118.103 241.587 117.85 241.587 117.639 241.697L112.991 244.379C112.789 244.498 112.772 244.675 112.991 244.776L117.437 247.307C117.648 247.416 117.901 247.416 118.112 247.307L122.76 244.624C122.92 244.506 122.937 244.303 122.76 244.228ZM131.618 246.446L127.172 243.915C126.961 243.806 126.708 243.806 126.497 243.915L119.386 248.032C119.183 248.15 119.166 248.328 119.386 248.429L123.832 250.96C124.043 251.069 124.296 251.069 124.506 250.96L131.66 246.834C131.778 246.725 131.795 246.548 131.618 246.446ZM116.121 239.157L111.675 236.627C111.464 236.517 111.211 236.517 111 236.627L105.272 239.934C105.078 240.043 105.061 240.22 105.272 240.322L109.718 242.852C109.929 242.962 110.182 242.962 110.393 242.852L116.113 239.545C116.281 239.427 116.298 239.242 116.113 239.157H116.121ZM120.508 236.627C120.719 236.736 120.972 236.736 121.183 236.627L125.831 233.944C126.033 233.826 126.05 233.649 125.873 233.547L121.427 231.017C121.216 230.907 120.963 230.907 120.752 231.017L116.104 233.699C115.902 233.809 115.885 233.986 116.062 234.087L120.508 236.627ZM139.759 249.095L135.313 246.564C135.102 246.455 134.849 246.455 134.638 246.564L125.696 251.727C125.502 251.845 125.477 252.014 125.696 252.115L130.142 254.646C130.353 254.756 130.614 254.756 130.825 254.646L139.759 249.483C139.919 249.365 139.936 249.188 139.759 249.087V249.095ZM142.897 254.621L138.443 252.09C138.232 251.98 137.979 251.98 137.768 252.09L132.04 255.372C131.846 255.49 131.829 255.659 132.04 255.76L136.494 258.333C136.705 258.434 136.958 258.434 137.169 258.333L142.889 255.026C143.049 254.891 143.074 254.714 142.889 254.612L142.897 254.621ZM171.032 207.463C171.243 207.572 171.496 207.572 171.707 207.463L176.355 204.78C176.549 204.662 176.566 204.493 176.397 204.392L171.943 201.861C171.732 201.76 171.479 201.76 171.268 201.861L166.628 204.493C166.434 204.611 166.417 204.78 166.586 204.881L171.032 207.463ZM157.441 215.308C157.652 215.418 157.905 215.418 158.116 215.308L162.765 212.626C162.959 212.516 162.984 212.339 162.807 212.238L158.352 209.665C158.141 209.563 157.888 209.563 157.677 209.665L153.029 212.347C152.835 212.465 152.818 212.643 153.029 212.744L157.441 215.308ZM127.299 232.704C127.518 232.813 127.763 232.813 127.982 232.704L132.631 229.962C132.825 229.844 132.841 229.667 132.631 229.565L128.185 227.035C127.974 226.925 127.721 226.925 127.51 227.035L122.861 229.717C122.667 229.827 122.642 230.004 122.861 230.105L127.299 232.704ZM164.232 211.402C164.443 211.512 164.696 211.512 164.907 211.402L169.556 208.72C169.758 208.61 169.775 208.433 169.598 208.332L165.152 205.759C164.941 205.649 164.688 205.649 164.477 205.759L159.829 208.441C159.626 208.559 159.609 208.737 159.787 208.838L164.232 211.402ZM150.642 219.248C150.853 219.358 151.106 219.358 151.317 219.248L155.965 216.565C156.167 216.456 156.184 216.279 155.965 216.177L151.519 213.604C151.308 213.495 151.055 213.495 150.844 213.604L146.196 216.287C145.993 216.405 145.977 216.582 146.154 216.683L150.642 219.248ZM146.23 254.916C146.019 254.807 145.766 254.807 145.555 254.916L138.401 259.05C138.207 259.16 138.19 259.337 138.401 259.438L142.847 261.969C143.058 262.078 143.311 262.078 143.522 261.969L150.675 257.835C150.87 257.725 150.886 257.548 150.675 257.447L146.23 254.916ZM140.89 224.875C141.1 224.985 141.354 224.985 141.564 224.875L146.221 222.184C146.415 222.074 146.432 221.897 146.221 221.796L141.775 219.265C141.564 219.155 141.311 219.155 141.1 219.265L136.452 221.948C136.25 222.057 136.233 222.234 136.41 222.336L140.89 224.875ZM134.098 228.798C134.309 228.907 134.562 228.907 134.773 228.798L139.422 226.107C139.624 225.997 139.641 225.82 139.464 225.719L135.018 223.188C134.807 223.078 134.554 223.078 134.343 223.188L129.686 225.87C129.492 225.98 129.475 226.157 129.686 226.259L134.098 228.798ZM272.123 182.23C271.912 182.12 271.659 182.12 271.448 182.23L260 188.836C259.806 188.954 259.78 189.123 259.958 189.224L264.412 191.797C264.623 191.906 264.876 191.906 265.087 191.797L276.526 185.191C276.729 185.073 276.746 184.904 276.568 184.803L272.123 182.23ZM257.098 190.903C256.887 190.793 256.634 190.793 256.423 190.903L251.775 193.585C251.58 193.703 251.555 193.872 251.732 193.973L256.178 196.546C256.389 196.656 256.651 196.656 256.862 196.546L261.51 193.864C261.704 193.746 261.721 193.577 261.51 193.476L257.098 190.903ZM165.388 241.992L170.036 239.309C170.231 239.2 170.247 239.022 170.079 238.921L165.624 236.39C165.413 236.281 165.16 236.281 164.949 236.39L160.301 239.073C160.107 239.191 160.09 239.368 160.301 239.47L164.747 242C164.949 242.093 165.186 242.093 165.388 241.992ZM243.507 198.748C243.296 198.639 243.043 198.639 242.832 198.748L238.184 201.431C237.99 201.549 237.965 201.718 238.142 201.819L242.596 204.392C242.807 204.502 243.06 204.502 243.271 204.392L247.919 201.709C248.113 201.591 248.13 201.422 247.919 201.321L243.507 198.748ZM278.939 178.307C278.728 178.198 278.475 178.198 278.264 178.307L273.59 181.032C273.396 181.15 273.371 181.319 273.548 181.42L277.994 183.951C278.205 184.061 278.458 184.061 278.669 183.951L283.326 181.268C283.52 181.15 283.537 180.982 283.326 180.88L278.939 178.307ZM290.184 176.958L279.378 170.715C279.167 170.605 278.914 170.605 278.703 170.715L274.029 173.44C273.835 173.558 273.818 173.727 273.987 173.828L284.794 180.071C285.005 180.18 285.258 180.18 285.469 180.071L290.117 177.388C290.311 177.202 290.336 177.033 290.159 176.932L290.184 176.958ZM218.089 213.385C217.878 213.275 217.625 213.275 217.414 213.385L211.694 216.683C211.5 216.802 211.475 216.979 211.652 217.08L216.098 219.611C216.309 219.72 216.57 219.72 216.781 219.611L222.501 216.312C222.695 216.194 222.712 216.017 222.543 215.916L218.089 213.385ZM235.257 203.472C235.046 203.363 234.793 203.363 234.582 203.472L227.428 207.598C227.234 207.716 227.217 207.893 227.386 207.994L231.84 210.525C232.051 210.635 232.304 210.635 232.515 210.525L239.669 206.4C239.863 206.282 239.88 206.113 239.669 206.012L235.257 203.472ZM202.355 222.471C202.145 222.361 201.891 222.361 201.681 222.471L163.414 244.565C163.22 244.675 163.195 244.852 163.372 244.953L167.818 247.484C168.029 247.594 168.282 247.594 168.493 247.484L206.768 225.398C206.962 225.28 206.978 225.103 206.768 225.002L202.355 222.471ZM161.946 245.805C161.735 245.695 161.482 245.695 161.271 245.805L155.543 249.112C155.349 249.23 155.332 249.399 155.543 249.5L159.989 252.073C160.2 252.183 160.453 252.183 160.664 252.073L166.384 248.766C166.578 248.657 166.603 248.479 166.426 248.378L161.946 245.805ZM210.226 217.966C210.015 217.856 209.762 217.856 209.551 217.966L203.823 221.273C203.629 221.382 203.612 221.56 203.823 221.661L208.269 224.192C208.48 224.301 208.733 224.301 208.944 224.192L214.664 220.885C214.866 220.775 214.883 220.598 214.706 220.497L210.226 217.966ZM154.075 250.378C153.864 250.268 153.611 250.268 153.4 250.378L147.681 253.676C147.478 253.794 147.461 253.971 147.681 254.073L152.127 256.603C152.337 256.713 152.59 256.713 152.801 256.603L158.521 253.305C158.724 253.187 158.74 253.018 158.521 252.917L154.075 250.378ZM225.985 208.872C225.774 208.762 225.521 208.762 225.31 208.872L219.591 212.179C219.388 212.288 219.371 212.465 219.591 212.567L224.036 215.14C224.247 215.249 224.5 215.249 224.711 215.14L230.431 211.833C230.633 211.723 230.65 211.546 230.473 211.445L225.985 208.872ZM250.307 194.825C250.096 194.716 249.843 194.716 249.632 194.825L244.975 197.508C244.781 197.626 244.764 197.795 244.975 197.896L249.387 200.435C249.598 200.545 249.851 200.545 250.062 200.435L254.71 197.753C254.913 197.635 254.93 197.466 254.71 197.365L250.307 194.825ZM265.492 184.204L270.14 181.522C270.334 181.403 270.359 181.235 270.182 181.133L265.728 178.603C265.517 178.501 265.264 178.501 265.053 178.603L260.405 181.285C260.211 181.403 260.194 181.572 260.405 181.682L264.851 184.213C265.07 184.314 265.323 184.297 265.525 184.179L265.492 184.204ZM237.762 185.537L242.41 182.854C242.604 182.745 242.63 182.568 242.453 182.466L238.007 179.936C237.787 179.826 237.543 179.826 237.323 179.936L232.675 182.627C232.481 182.736 232.464 182.913 232.675 183.015L237.121 185.546C237.34 185.647 237.593 185.63 237.796 185.512L237.762 185.537ZM219.776 210.609L233.358 202.764C233.561 202.646 233.578 202.477 233.401 202.376L228.955 199.803C228.744 199.693 228.491 199.693 228.28 199.803L214.689 207.648C214.495 207.766 214.47 207.935 214.647 208.036L219.093 210.567C219.304 210.694 219.557 210.702 219.776 210.609ZM258.076 188.127C258.287 188.237 258.54 188.237 258.751 188.127L263.4 185.444C263.602 185.326 263.619 185.158 263.442 185.056L258.996 182.483C258.785 182.374 258.532 182.374 258.321 182.483L253.673 185.166C253.47 185.284 253.453 185.461 253.673 185.562L258.076 188.127ZM252.373 184.407L257.022 181.724C257.224 181.614 257.241 181.437 257.064 181.336L252.618 178.805C252.407 178.695 252.154 178.695 251.943 178.805L247.295 181.488C247.092 181.606 247.076 181.783 247.253 181.884L251.699 184.415C251.909 184.525 252.163 184.516 252.373 184.407ZM212.951 214.507L217.6 211.824C217.802 211.706 217.819 211.537 217.642 211.436L213.196 208.872C212.985 208.762 212.732 208.762 212.521 208.872L207.864 211.554C207.67 211.672 207.653 211.841 207.864 211.942L212.31 214.515C212.513 214.617 212.749 214.625 212.951 214.532V214.507ZM243.035 196.791C243.246 196.901 243.499 196.901 243.71 196.791L248.358 194.108C248.552 193.99 248.569 193.821 248.4 193.72L243.946 191.189C243.735 191.088 243.482 191.088 243.271 191.189L238.623 193.872C238.428 193.99 238.412 194.159 238.623 194.269L243.035 196.791ZM178.979 234.18L183.627 231.497C183.821 231.388 183.838 231.211 183.627 231.109L179.173 228.536C178.962 228.435 178.709 228.435 178.498 228.536L173.85 231.219C173.656 231.337 173.639 231.514 173.807 231.615L178.262 234.146C178.481 234.281 178.751 234.298 178.979 234.18ZM185.77 230.257L190.418 227.575C190.621 227.465 190.638 227.288 190.46 227.186L186.031 224.58C185.821 224.47 185.567 224.47 185.357 224.58L180.708 227.262C180.506 227.381 180.489 227.558 180.708 227.659L185.154 230.19C185.348 230.291 185.567 230.299 185.77 230.224V230.257ZM172.179 238.103L176.828 235.42C177.03 235.311 177.047 235.133 176.828 235.032L172.382 232.501C172.171 232.392 171.918 232.392 171.707 232.501L167.059 235.184C166.856 235.302 166.839 235.479 167.016 235.58L171.462 238.111C171.69 238.221 171.96 238.204 172.179 238.069V238.103ZM199.361 222.369L204.009 219.687C204.211 219.569 204.228 219.4 204.051 219.299L199.605 216.726C199.394 216.616 199.141 216.616 198.93 216.726L194.282 219.408C194.08 219.526 194.063 219.695 194.282 219.796L198.686 222.369C198.897 222.479 199.15 222.479 199.361 222.369ZM192.569 226.292L197.218 223.61C197.412 223.5 197.429 223.323 197.26 223.222L192.78 220.682C192.569 220.573 192.316 220.573 192.105 220.682L187.457 223.365C187.263 223.483 187.246 223.66 187.415 223.761L191.869 226.292C192.089 226.41 192.35 226.419 192.569 226.301V226.292ZM206.16 218.447L210.808 215.764C211.003 215.646 211.019 215.477 210.808 215.376L206.363 212.803C206.152 212.693 205.899 212.693 205.688 212.803L201.039 215.486C200.845 215.604 200.82 215.772 200.997 215.874L205.452 218.447C205.671 218.573 205.941 218.573 206.16 218.447ZM243.237 163.873C243.448 163.983 243.701 163.983 243.912 163.873L248.56 161.19C248.763 161.072 248.78 160.904 248.603 160.802L247.421 160.119C247.211 160.009 246.957 160.009 246.747 160.119L242.09 162.81C241.896 162.92 241.879 163.097 242.09 163.198L243.237 163.873ZM209.492 185.259C209.703 185.36 209.956 185.36 210.167 185.259L214.816 182.576C215.01 182.458 215.027 182.281 214.816 182.18L210.37 179.649C210.159 179.539 209.906 179.539 209.695 179.649L205.047 182.331C204.853 182.441 204.836 182.618 205.004 182.719L209.492 185.259ZM223.083 177.413C223.294 177.514 223.547 177.514 223.758 177.413L228.406 174.73C228.6 174.612 228.617 174.435 228.406 174.334L223.994 171.752C223.783 171.643 223.53 171.643 223.319 171.752L218.671 174.435C218.477 174.545 218.452 174.722 218.629 174.823L223.083 177.413ZM201.191 190.067C201.402 190.177 201.655 190.177 201.866 190.067L206.514 187.376C206.717 187.267 206.734 187.089 206.557 186.988L202.06 184.407C201.849 184.297 201.596 184.297 201.385 184.407L196.737 187.089C196.534 187.199 196.518 187.376 196.695 187.477L201.191 190.067ZM216.284 181.361C216.494 181.471 216.748 181.471 216.958 181.361L221.607 178.679C221.809 178.56 221.826 178.383 221.649 178.282L217.203 175.751C216.992 175.642 216.739 175.642 216.528 175.751L211.88 178.434C211.677 178.544 211.661 178.721 211.838 178.822L216.284 181.361ZM187.601 197.921C187.811 198.023 188.065 198.023 188.275 197.921L192.924 195.239C193.126 195.121 193.143 194.943 192.966 194.842L188.52 192.311C188.309 192.202 188.056 192.202 187.845 192.311L183.197 194.994C182.994 195.104 182.978 195.281 183.155 195.382L187.601 197.921ZM194.4 193.99C194.611 194.1 194.864 194.1 195.075 193.99L199.723 191.307C199.917 191.189 199.934 191.012 199.723 190.911L195.277 188.38C195.067 188.27 194.814 188.27 194.603 188.38L189.954 191.063C189.76 191.173 189.743 191.35 189.912 191.451L194.4 193.99ZM229.646 171.752C229.857 171.862 230.11 171.862 230.321 171.752L234.97 169.07C235.172 168.952 235.189 168.783 235.012 168.682L233.831 167.998C233.62 167.889 233.367 167.889 233.156 167.998L228.508 170.689C228.305 170.799 228.288 170.976 228.465 171.078L229.646 171.752ZM250.037 159.942C250.248 160.051 250.501 160.051 250.712 159.942L255.36 157.259C255.554 157.141 255.571 156.972 255.36 156.871L254.179 156.188C253.968 156.078 253.715 156.078 253.504 156.188L248.856 158.879C248.653 158.989 248.636 159.166 248.813 159.267L250.037 159.942ZM259.375 165.333C259.586 165.442 259.839 165.442 260.05 165.333L264.699 162.641C264.901 162.532 264.918 162.355 264.741 162.253L260.295 159.722C260.084 159.613 259.831 159.613 259.62 159.722L254.972 162.414C254.769 162.523 254.752 162.7 254.93 162.802L259.375 165.333ZM272.317 180.239L276.965 177.557C277.167 177.438 277.184 177.27 276.965 177.168L272.519 174.595C272.308 174.486 272.055 174.486 271.844 174.595L267.196 177.278C266.993 177.396 266.976 177.565 267.154 177.666L271.599 180.239C271.819 180.366 272.089 180.374 272.317 180.256V180.239ZM236.446 167.787C236.657 167.897 236.91 167.897 237.121 167.787L241.769 165.105C241.963 164.987 241.98 164.818 241.769 164.717L240.588 164.033C240.377 163.924 240.124 163.924 239.913 164.033L235.265 166.724C235.071 166.834 235.046 167.011 235.265 167.113L236.446 167.787ZM180.767 201.811C180.978 201.912 181.231 201.912 181.442 201.811L186.091 199.128C186.285 199.01 186.301 198.833 186.133 198.731L181.678 196.2C181.467 196.091 181.214 196.091 181.004 196.2L176.355 198.883C176.161 198.993 176.144 199.17 176.313 199.271L180.767 201.811Z" fill="#455A64"/>
<path d="M200.888 236.872L201.841 237.42L227.166 252.031L272.19 226.04L273.127 225.5L246.856 210.34L200.888 236.872Z" fill="#37474F"/>
<path d="M201.841 237.418L227.166 252.03L272.19 226.038L246.856 211.418L201.841 237.418Z" fill="#263238"/>
<path d="M58.6965 122.994L48.3791 117.089C47.9235 116.819 47.5861 116.751 47.4089 116.861L46.1519 117.586C45.9326 117.713 45.941 118.084 46.211 118.658L48.7418 123.854L46.869 125.542C46.2278 126.031 46.1097 126.95 46.599 127.592C46.7424 127.777 46.928 127.929 47.1389 128.022L57.4564 133.978L58.7134 133.244L58.6965 122.994Z" fill="#1C63ED"/>
<path opacity="0.5" d="M58.6965 122.994L48.3791 117.089C47.9235 116.819 47.5861 116.751 47.4089 116.861L46.1519 117.586C45.9326 117.713 45.941 118.084 46.211 118.658L48.7418 123.854L46.869 125.542C46.2278 126.031 46.1097 126.95 46.599 127.592C46.7424 127.777 46.928 127.929 47.1389 128.022L57.4564 133.978L58.7134 133.244L58.6965 122.994Z" fill="white"/>
<path d="M47.1216 117.763C46.1177 117.181 45.7044 117.561 46.2105 118.607L48.7414 123.804L46.8686 125.491C46.2274 125.98 46.1093 126.9 46.5986 127.541C46.742 127.726 46.9276 127.878 47.1385 127.971L57.4559 133.927V123.728L47.1216 117.763Z" fill="#1C63ED"/>
<path d="M58.6465 155.818C57.98 155.818 57.4401 155.287 57.4316 154.62C57.4316 154.62 57.4316 154.612 57.4316 154.604V120.336C57.4907 119.669 58.0728 119.172 58.7392 119.222C59.3298 119.273 59.8022 119.737 59.8528 120.336V154.604C59.8528 155.27 59.3213 155.81 58.6549 155.818C58.6549 155.818 58.6549 155.818 58.6465 155.818Z" fill="#455A64"/>
<path d="M14.2628 247.064V244.93H14.7775C15.5789 243.487 16.7853 242.315 18.2447 241.555C23.5764 238.476 32.215 238.476 37.5467 241.555C39.0061 242.315 40.2125 243.487 41.0139 244.93H41.537V246.997C41.537 249.047 40.2547 251.105 37.5467 252.666C32.215 255.745 23.5764 255.745 18.2447 252.666C15.6211 251.122 14.246 249.089 14.2628 247.064Z" fill="#263238"/>
<path d="M27.9036 252.81C35.4422 252.81 41.5533 249.282 41.5533 244.93C41.5533 240.578 35.4422 237.051 27.9036 237.051C20.3651 237.051 14.2539 240.578 14.2539 244.93C14.2539 249.282 20.3651 252.81 27.9036 252.81Z" fill="#455A64"/>
<path d="M31.4228 170.717V243.993C31.3638 244.618 30.9673 245.166 30.3936 245.427C28.8329 246.22 26.9854 246.22 25.4247 245.427C24.8426 245.174 24.4546 244.626 24.3955 243.993V170.717H31.4228Z" fill="#37474F"/>
<path d="M24.3955 179.586V186.478L31.4228 190.528V183.652L24.3955 179.586Z" fill="#263238"/>
<path d="M49.8724 164.161L62.8641 171.669C62.7966 171.77 62.7122 171.863 62.611 171.939L39.884 185.057C39.6899 185.167 39.5381 185.057 39.5381 184.846V168.472C39.5971 165.325 40.2467 162.212 41.4362 159.293L49.8724 164.161Z" fill="#1C63ED"/>
<path opacity="0.4" d="M49.8724 164.161L62.8641 171.669C62.7966 171.77 62.7122 171.863 62.611 171.939L39.884 185.057C39.6899 185.167 39.5381 185.057 39.5381 184.846V168.472C39.5971 165.325 40.2467 162.212 41.4362 159.293L49.8724 164.161Z" fill="black"/>
<path d="M62.9656 153.406V171.755L41.4365 159.303L41.5124 159.126C43.8155 153.355 47.6793 148.471 51.8974 146.041C53.3568 145.122 55.0356 144.599 56.765 144.531C60.5951 144.531 62.9656 147.931 62.9656 153.406Z" fill="#1C63ED"/>
<path opacity="0.3" d="M62.9656 153.406V171.755L41.4365 159.303L41.5124 159.126C43.8155 153.355 47.6793 148.471 51.8974 146.041C53.3568 145.122 55.0356 144.599 56.765 144.531C60.5951 144.531 62.9656 147.931 62.9656 153.406Z" fill="black"/>
<path d="M86.3407 192.187V190.551H86.1804V190.787C86.0876 190.331 85.9442 189.893 85.7586 189.462C84.915 187.454 83.0844 185.531 80.3257 183.937L64.9466 175.053C64.2127 174.691 63.3606 174.691 62.6267 175.053L39.1066 188.627C38.8198 188.382 38.5667 188.104 38.3643 187.783V189.471C38.3896 189.766 38.5752 190.019 38.8367 190.146L54.2243 199.02C58.7376 201.442 63.8077 202.64 68.9285 202.496C73.1972 202.547 77.3984 201.518 81.1694 199.518C84.6282 197.536 86.3323 194.895 86.3323 192.204V192.187H86.3407Z" fill="#1C63ED"/>
<path opacity="0.4" d="M86.3407 192.187V190.551H86.1804V190.787C86.0876 190.331 85.9442 189.893 85.7586 189.462C84.915 187.454 83.0844 185.531 80.3257 183.937L64.9466 175.053C64.2127 174.691 63.3606 174.691 62.6267 175.053L39.1066 188.627C38.8198 188.382 38.5667 188.104 38.3643 187.783V189.471C38.3896 189.766 38.5752 190.019 38.8367 190.146L54.2243 199.02C58.7376 201.442 63.8077 202.64 68.9285 202.496C73.1972 202.547 77.3984 201.518 81.1694 199.518C84.6282 197.536 86.3323 194.895 86.3323 192.204V192.187H86.3407Z" fill="black"/>
<path d="M85.7584 189.47C84.9148 187.462 83.0842 185.539 80.3256 183.944L64.9464 175.061C64.2125 174.698 63.3604 174.698 62.6265 175.061L39.1064 188.626L54.2241 197.349C58.7374 199.771 63.8075 200.969 68.9283 200.825C73.197 200.867 77.3982 199.847 81.1692 197.847C84.2737 196.059 85.9693 193.756 86.2815 191.351C86.1971 190.702 86.02 190.069 85.7584 189.47Z" fill="#1C63ED"/>
<path opacity="0.2" d="M85.7584 189.47C84.9148 187.462 83.0842 185.539 80.3256 183.944L64.9464 175.061C64.2125 174.698 63.3604 174.698 62.6265 175.061L39.1064 188.626L54.2241 197.349C58.7374 199.771 63.8075 200.969 68.9283 200.825C73.197 200.867 77.3982 199.847 81.1692 197.847C84.2737 196.059 85.9693 193.756 86.2815 191.351C86.1971 190.702 86.02 190.069 85.7584 189.47Z" fill="black"/>
<path d="M86.2817 191.361C86.1973 190.703 86.0202 190.07 85.7587 189.463C84.915 187.455 83.0844 185.531 80.3258 183.937L64.9466 175.054C64.2127 174.691 63.3606 174.691 62.6267 175.054L39.1067 188.628L38.8367 188.476C38.4655 188.349 38.2715 187.944 38.398 187.573C38.4655 187.362 38.6342 187.202 38.8367 187.134L62.6267 173.442C63.3522 173.071 64.2211 173.071 64.9466 173.442L80.3258 182.326C83.0844 183.92 84.8982 185.844 85.7587 187.851C86.037 188.493 86.2226 189.176 86.2986 189.868C86.3576 190.365 86.3492 190.863 86.2817 191.361Z" fill="#1C63ED"/>
<path opacity="0.3" d="M86.2817 191.361C86.1973 190.703 86.0202 190.07 85.7587 189.463C84.915 187.455 83.0844 185.531 80.3258 183.937L64.9466 175.054C64.2127 174.691 63.3606 174.691 62.6267 175.054L39.1067 188.628L38.8367 188.476C38.4655 188.349 38.2715 187.944 38.398 187.573C38.4655 187.362 38.6342 187.202 38.8367 187.134L62.6267 173.442C63.3522 173.071 64.2211 173.071 64.9466 173.442L80.3258 182.326C83.0844 183.92 84.8982 185.844 85.7587 187.851C86.037 188.493 86.2226 189.176 86.2986 189.868C86.3576 190.365 86.3492 190.863 86.2817 191.361Z" fill="black"/>
<path d="M39.3604 186.908L63.1419 173.174L62.6104 171.934L39.8834 185.06L39.3604 186.908Z" fill="#1C63ED"/>
<path opacity="0.1" d="M39.3604 186.908L63.1419 173.174L62.6104 171.934L39.8834 185.06L39.3604 186.908Z" fill="black"/>
<path d="M60.8638 152.353C60.8469 151.957 60.636 151.594 60.2985 151.375L31.3456 134.637C30.9913 134.452 30.5695 134.452 30.2152 134.637L29.574 135.008C29.2366 135.228 29.0257 135.591 29.0088 135.987V158.183C29.0341 158.579 29.245 158.942 29.574 159.161L58.5269 175.882C58.8897 176.059 59.3031 176.059 59.6658 175.882L60.2985 175.51C60.6275 175.291 60.8384 174.928 60.8638 174.532V152.353Z" fill="#F5F5F5"/>
<path d="M60.7037 151.764L59.0924 152.692L29.1777 135.415C29.2705 135.237 29.4055 135.094 29.5742 134.984L30.2154 134.622C30.5697 134.436 30.9915 134.436 31.3458 134.622L60.3325 151.342C60.4928 151.452 60.6193 151.595 60.7037 151.764Z" fill="#E0E0E0"/>
<path d="M59.1006 152.685L58.8053 152.863C58.9994 152.947 59.1175 153.141 59.1006 153.343V175.539C59.1175 175.682 59.05 175.834 58.9234 175.91C58.8391 175.944 58.7378 175.944 58.6535 175.91L58.5354 175.86L29.574 159.148C29.245 158.928 29.0341 158.565 29.0088 158.169V135.973C29.0088 135.771 29.0763 135.577 29.1775 135.408L59.1006 152.685Z" fill="#EBEBEB"/>
<path opacity="0.2" d="M59.0922 152.692L45.6871 157.695C44.7338 158.058 43.654 157.703 43.0972 156.851L40.9291 153.544L29.0678 135.348L40.5157 153.671L29.0088 158.176C29.0088 158.378 29.0763 158.572 29.1859 158.741L40.5495 153.722L43.0803 157.729C43.654 158.648 44.8182 159.011 45.8136 158.572L47.5937 157.788L58.9572 175.917C59.0753 175.833 59.1428 175.689 59.1259 175.546V175.133L47.619 157.754L59.0922 152.692Z" fill="black"/>
<path d="M54.0148 156.244C53.9895 155.847 53.7786 155.485 53.4495 155.265L24.4882 138.553C24.1339 138.368 23.7121 138.368 23.3577 138.553L22.7166 138.916C22.3876 139.135 22.1767 139.498 22.1514 139.895V162.09C22.1767 162.487 22.3876 162.849 22.7166 163.077L51.6779 179.789C52.0323 179.975 52.4541 179.975 52.8084 179.789L53.4495 179.426C53.7786 179.207 53.9895 178.844 54.0148 178.448V156.244Z" fill="#F5F5F5"/>
<path d="M53.8463 155.729L52.2434 156.657L22.3203 139.338C22.4131 139.169 22.5481 139.026 22.7168 138.916L23.358 138.553C23.7123 138.368 24.1341 138.368 24.4884 138.553L53.4498 155.265C53.6185 155.383 53.7535 155.544 53.8463 155.729Z" fill="#E0E0E0"/>
<path d="M52.2432 156.615L51.9479 156.792C52.1419 156.877 52.26 157.071 52.2432 157.273V179.469C52.26 179.612 52.1926 179.764 52.066 179.84C51.9816 179.874 51.8804 179.874 51.7961 179.84L51.6779 179.789L22.7166 163.077C22.3876 162.858 22.1767 162.495 22.1514 162.099V139.903C22.1514 139.701 22.2189 139.507 22.3201 139.338L52.2432 156.615Z" fill="#EBEBEB"/>
<path opacity="0.2" d="M52.2432 156.616L38.8297 161.635C37.8764 161.989 36.805 161.635 36.2482 160.792L34.0885 157.493L22.2104 139.279L33.6583 157.603L22.1514 162.108C22.1682 162.31 22.2273 162.496 22.3285 162.673L33.692 157.611L36.2229 161.618C36.7966 162.538 37.9523 162.892 38.9478 162.462L40.7362 161.677L52.066 179.84C52.1926 179.764 52.26 179.613 52.2432 179.469V179.098L40.7616 161.686L52.2432 156.616Z" fill="black"/>
<path d="M47.1548 160.174C47.1379 159.777 46.927 159.414 46.5895 159.195L17.6366 142.475C17.2823 142.298 16.8605 142.298 16.5062 142.475L15.865 142.846C15.5276 143.065 15.3167 143.428 15.2998 143.824V166.02C15.3167 166.416 15.5276 166.779 15.865 166.999L44.818 183.719C45.1807 183.896 45.5941 183.896 45.9568 183.719L46.5895 183.348C46.927 183.129 47.1379 182.766 47.1548 182.369V160.174Z" fill="#F5F5F5"/>
<path d="M46.9947 159.617L45.3834 160.545L15.4688 143.268C15.5615 143.099 15.6965 142.947 15.8653 142.846L16.5064 142.475C16.8607 142.298 17.2825 142.298 17.6368 142.475L46.5898 159.195C46.7585 159.296 46.9019 159.44 46.9947 159.617Z" fill="#E0E0E0"/>
<path d="M45.2568 183.836C45.2568 183.836 45.333 183.844 45.3668 183.836C45.3668 183.836 45.2907 183.853 45.2568 183.836Z" fill="#1C63ED"/>
<path d="M45.3916 160.538L45.0963 160.716C45.2904 160.8 45.4085 160.994 45.3916 161.196V183.4C45.4085 183.544 45.341 183.687 45.2145 183.763C45.1301 183.797 45.0289 183.797 44.9445 183.763L44.8264 183.721L15.865 167C15.5276 166.781 15.3167 166.418 15.2998 166.022V143.835C15.2998 143.632 15.3673 143.438 15.4685 143.27L45.3916 160.538Z" fill="#EBEBEB"/>
<path opacity="0.2" d="M45.3832 160.545L31.9781 165.556C31.0248 165.911 29.945 165.556 29.3882 164.713L27.237 161.414L15.3589 143.209L26.8067 161.524L15.2998 166.029C15.2998 166.231 15.3673 166.425 15.477 166.594L26.8405 161.575L29.3713 165.582C29.945 166.501 31.1092 166.864 32.1046 166.425L33.8847 165.632L45.2482 183.762C45.3663 183.677 45.4338 183.534 45.4169 183.39V183.019L33.9437 165.607L45.3832 160.545Z" fill="black"/>
<path d="M59.9531 143.915C57.65 142.708 54.5961 142.919 51.2554 144.86C47.5013 147.011 44.1184 150.925 41.7479 155.405C41.1995 156.443 40.7018 157.514 40.2631 158.602C38.9639 161.724 38.2637 165.064 38.1962 168.447V187.192C37.7913 187.192 37.3948 187.1 37.0405 186.914L3.72607 167.663C3.04274 167.216 2.62093 166.465 2.57031 165.655V147.888C2.57031 139.013 8.41657 128.485 15.6211 124.267C18.9955 122.293 22.1422 122.133 24.4706 123.423L59.9531 143.915Z" fill="#1C63ED"/>
<path opacity="0.2" d="M59.9531 143.915C57.65 142.708 54.5961 142.919 51.2554 144.86C47.5013 147.011 44.1184 150.925 41.7479 155.405C41.1995 156.443 40.7018 157.514 40.2631 158.602C38.9639 161.724 38.2637 165.064 38.1962 168.447V187.192C37.7913 187.192 37.3948 187.1 37.0405 186.914L3.72607 167.663C3.04274 167.216 2.62093 166.465 2.57031 165.655V147.888C2.57031 139.013 8.41657 128.485 15.6211 124.267C18.9955 122.293 22.1422 122.133 24.4706 123.423L59.9531 143.915Z" fill="black"/>
<path opacity="0.1" d="M3.72607 167.661L37.0405 186.938C37.3948 187.123 37.7913 187.216 38.1962 187.216V168.471C38.2047 166.708 38.4156 164.953 38.8205 163.232L3.18615 142.656C2.78965 144.369 2.58718 146.124 2.57031 147.887V165.653C2.62093 166.463 3.04274 167.214 3.72607 167.661Z" fill="black"/>
<path d="M40.2631 158.63C38.9639 161.751 38.2637 165.092 38.1962 168.475V187.195C38.0528 187.195 37.9094 187.178 37.7744 187.144V168.475C37.7744 154.715 48.3618 145.967 51.2723 144.854C47.5182 147.005 44.1353 150.919 41.7647 155.399C41.2079 156.445 40.7018 157.525 40.2631 158.63Z" fill="#1C63ED"/>
<path opacity="0.4" d="M40.2631 158.63C38.9639 161.751 38.2637 165.092 38.1962 168.475V187.195C38.0528 187.195 37.9094 187.178 37.7744 187.144V168.475C37.7744 154.715 48.3618 145.967 51.2723 144.854C47.5182 147.005 44.1353 150.919 41.7647 155.399C41.2079 156.445 40.7018 157.525 40.2631 158.63Z" fill="black"/>
<path d="M39.884 185.059C39.6984 185.169 39.5381 185.059 39.5381 184.857V168.482C39.5972 165.335 40.2383 162.222 41.4362 159.303L41.5122 159.126C41.9762 157.971 42.4992 156.84 43.0982 155.752C45.4012 151.508 48.5226 147.982 51.8971 146.042C53.3565 145.122 55.0353 144.599 56.7647 144.532C57.6421 144.532 58.5195 144.734 59.2956 145.148C61.5734 146.362 62.9063 149.298 62.9063 153.407V171.333C62.8894 171.578 62.7629 171.797 62.5604 171.932L63.0834 173.172L63.2015 173.105C63.3787 172.97 63.5474 172.818 63.6824 172.641C64.0199 172.219 64.2139 171.713 64.2392 171.173V153.407C64.2392 148.657 62.552 145.35 59.8946 143.95C57.5915 142.735 54.5376 142.946 51.1969 144.886C47.4428 147.037 44.0599 150.943 41.6893 155.44C41.141 156.477 40.6432 157.54 40.2046 158.629C38.897 161.75 38.1967 165.099 38.1377 168.482V187.185H38.3992C38.7367 187.168 39.0657 187.075 39.3609 186.915L39.884 185.059Z" fill="#1C63ED"/>
<path opacity="0.1" d="M39.884 185.059C39.6984 185.169 39.5381 185.059 39.5381 184.857V168.482C39.5972 165.335 40.2383 162.222 41.4362 159.303L41.5122 159.126C41.9762 157.971 42.4992 156.84 43.0982 155.752C45.4012 151.508 48.5226 147.982 51.8971 146.042C53.3565 145.122 55.0353 144.599 56.7647 144.532C57.6421 144.532 58.5195 144.734 59.2956 145.148C61.5734 146.362 62.9063 149.298 62.9063 153.407V171.333C62.8894 171.578 62.7629 171.797 62.5604 171.932L63.0834 173.172L63.2015 173.105C63.3787 172.97 63.5474 172.818 63.6824 172.641C64.0199 172.219 64.2139 171.713 64.2392 171.173V153.407C64.2392 148.657 62.552 145.35 59.8946 143.95C57.5915 142.735 54.5376 142.946 51.1969 144.886C47.4428 147.037 44.0599 150.943 41.6893 155.44C41.141 156.477 40.6432 157.54 40.2046 158.629C38.897 161.75 38.1967 165.099 38.1377 168.482V187.185H38.3992C38.7367 187.168 39.0657 187.075 39.3609 186.915L39.884 185.059Z" fill="black"/>
<path d="M119.334 137.064C119.41 135.52 120.228 134.111 121.527 133.267L229.654 70.8396C231.029 70.1394 232.665 70.1394 234.041 70.8396L236.512 72.2653C237.803 73.1089 238.613 74.5178 238.697 76.0616V162.009C238.613 163.553 237.803 164.962 236.512 165.806L128.378 228.275C127.002 228.967 125.374 228.967 123.999 228.275L121.527 226.85C120.237 226.006 119.418 224.597 119.334 223.053V137.064Z" fill="#1C63ED"/>
<g opacity="0.7">
<path d="M119.334 137.064C119.41 135.52 120.228 134.111 121.527 133.267L229.654 70.8396C231.029 70.1394 232.665 70.1394 234.041 70.8396L236.512 72.2653C237.803 73.1089 238.613 74.5178 238.697 76.0616V162.009C238.613 163.553 237.803 164.962 236.512 165.806L128.378 228.275C127.002 228.967 125.374 228.967 123.999 228.275L121.527 226.85C120.237 226.006 119.418 224.597 119.334 223.053V137.064Z" fill="white"/>
</g>
<path d="M119.975 134.902L126.192 138.488L238.056 73.892C237.684 73.2255 237.153 72.6603 236.512 72.2554L234.032 70.8381C232.665 70.1295 231.028 70.1295 229.662 70.8381L121.527 133.266C120.877 133.671 120.337 134.227 119.975 134.902Z" fill="#1C63ED"/>
<path opacity="0.8" d="M119.975 134.902L126.192 138.488L238.056 73.892C237.684 73.2255 237.153 72.6603 236.512 72.2554L234.032 70.8381C232.665 70.1295 231.028 70.1295 229.662 70.8381L121.527 133.266C120.877 133.671 120.337 134.227 119.975 134.902Z" fill="white"/>
<path opacity="0.1" d="M119.334 137.054V223.001C119.41 224.545 120.228 225.954 121.527 226.797L123.999 228.232C124.193 228.341 124.387 228.426 124.598 228.502C124.893 228.594 125.197 228.662 125.501 228.704C126.074 228.78 126.657 228.755 127.23 228.645L127.66 228.535L127.93 228.443C127.585 228.578 127.196 228.561 126.867 228.4C126.387 228.088 126.125 227.531 126.193 226.966V141.019C126.142 140.217 126.598 139.475 127.331 139.154L126.193 138.488L119.975 134.902C119.579 135.552 119.359 136.294 119.334 137.054Z" fill="#1C63ED"/>
<path opacity="0.05" d="M119.334 137.054V223.001C119.41 224.545 120.228 225.954 121.527 226.797L123.999 228.232C124.193 228.341 124.387 228.426 124.598 228.502C124.893 228.594 125.197 228.662 125.501 228.704C126.074 228.78 126.657 228.755 127.23 228.645L127.66 228.535L127.93 228.443C127.585 228.578 127.196 228.561 126.867 228.4C126.387 228.088 126.125 227.531 126.193 226.966V141.019C126.142 140.217 126.598 139.475 127.331 139.154L126.193 138.488L119.975 134.902C119.579 135.552 119.359 136.294 119.334 137.054Z" fill="black"/>
<path opacity="0.2" d="M126.193 138.488L178.118 157.891C181.821 159.275 185.98 157.9 188.14 154.593L196.475 141.812L238.057 73.8926L198.137 142.285L238.698 162.034C238.656 162.81 238.428 163.569 238.015 164.227L198.01 142.495L188.326 158.001C186.099 161.561 181.594 162.945 177.755 161.249L170.846 158.204L126.851 228.401C126.371 228.089 126.109 227.532 126.177 226.967V225.533L170.627 158.111L126.193 138.488Z" fill="#1C63ED"/>
<path opacity="0.05" d="M126.193 138.488L178.118 157.891C181.821 159.275 185.98 157.9 188.14 154.593L196.475 141.812L238.057 73.8926L198.137 142.285L238.698 162.034C238.656 162.81 238.428 163.569 238.015 164.227L198.01 142.495L188.326 158.001C186.099 161.561 181.594 162.945 177.755 161.249L170.846 158.204L126.851 228.401C126.371 228.089 126.109 227.532 126.177 226.967V225.533L170.627 158.111L126.193 138.488Z" fill="black"/>
<path d="M146.752 152.903C146.836 151.36 147.646 149.951 148.937 149.107L257.072 86.6794C258.447 85.9792 260.075 85.9792 261.45 86.6794L263.922 88.1052C265.221 88.9488 266.031 90.3576 266.115 91.9014V177.849C266.031 179.393 265.213 180.802 263.922 181.645L155.795 244.073C154.412 244.765 152.792 244.765 151.409 244.073L148.912 242.614C147.621 241.761 146.811 240.353 146.727 238.817L146.752 152.903Z" fill="#1C63ED"/>
<g opacity="0.5">
<path d="M146.752 152.903C146.836 151.36 147.646 149.951 148.937 149.107L257.072 86.6794C258.447 85.9792 260.075 85.9792 261.45 86.6794L263.922 88.1052C265.221 88.9488 266.031 90.3576 266.115 91.9014V177.849C266.031 179.393 265.213 180.802 263.922 181.645L155.795 244.073C154.412 244.765 152.792 244.765 151.409 244.073L148.912 242.614C147.621 241.761 146.811 240.353 146.727 238.817L146.752 152.903Z" fill="white"/>
</g>
<path d="M147.385 150.744L153.611 154.329L265.474 89.7416C265.103 89.0752 264.572 88.5099 263.93 88.105L261.45 86.6877C260.075 85.9791 258.447 85.9791 257.072 86.6877L148.912 149.107C148.271 149.512 147.748 150.077 147.385 150.744Z" fill="#1C63ED"/>
<path opacity="0.6" d="M147.385 150.744L153.611 154.329L265.474 89.7416C265.103 89.0752 264.572 88.5099 263.93 88.105L261.45 86.6877C260.075 85.9791 258.447 85.9791 257.072 86.6877L148.912 149.107C148.271 149.512 147.748 150.077 147.385 150.744Z" fill="white"/>
<path opacity="0.1" d="M146.743 152.895V238.843C146.828 240.37 147.629 241.77 148.911 242.614L151.375 244.048C151.569 244.158 151.771 244.242 151.982 244.318C152.277 244.411 152.581 244.487 152.885 244.521C153.458 244.596 154.04 244.571 154.614 244.462L155.036 244.343C155.129 244.318 155.213 244.284 155.297 244.242C154.96 244.386 154.589 244.386 154.251 244.242C153.77 243.93 153.509 243.365 153.576 242.8V156.86C153.526 156.059 153.981 155.317 154.715 154.996L153.576 154.33L147.351 150.744C146.971 151.402 146.76 152.136 146.743 152.895Z" fill="black"/>
<path opacity="0.4" d="M153.611 154.329L205.536 173.733C209.239 175.116 213.398 173.741 215.558 170.434L223.901 157.662L265.483 89.7422L225.563 158.134L266.124 177.883C266.082 178.659 265.854 179.419 265.441 180.077L225.428 158.337L215.735 173.842C213.508 177.402 209.011 178.786 205.173 177.09L198.272 174.045L154.286 244.251C153.805 243.938 153.544 243.373 153.611 242.808V241.374L198.061 173.952L153.611 154.329Z" fill="#1C63ED"/>
<path opacity="0.05" d="M153.611 154.329L205.536 173.733C209.239 175.116 213.398 173.741 215.558 170.434L223.901 157.662L265.483 89.7422L225.563 158.134L266.124 177.883C266.082 178.659 265.854 179.419 265.441 180.077L225.428 158.337L215.735 173.842C213.508 177.402 209.011 178.786 205.173 177.09L198.272 174.045L154.286 244.251C153.805 243.938 153.544 243.373 153.611 242.808V241.374L198.061 173.952L153.611 154.329Z" fill="black"/>
<path d="M174.39 169.439L286.911 104.48L291.416 107.079C292.665 107.897 293.449 109.255 293.534 110.74V193.752C293.449 195.237 292.665 196.603 291.416 197.413L183.13 259.925C181.805 260.592 180.236 260.592 178.911 259.925L176.524 258.55C175.275 257.732 174.491 256.374 174.407 254.889L174.39 169.439Z" fill="#1C63ED"/>
<path opacity="0.2" d="M174.39 169.439L286.911 104.48L291.416 107.079C292.665 107.897 293.449 109.255 293.534 110.74V193.752C293.449 195.237 292.665 196.603 291.416 197.413L183.13 259.925C181.805 260.592 180.236 260.592 178.911 259.925L176.524 258.55C175.275 257.732 174.491 256.374 174.407 254.889L174.39 169.439Z" fill="black"/>
<path d="M286.295 97.1763L286.751 96.9233L285.005 95.9109C284.861 95.8266 284.701 95.7506 284.541 95.6916L235.02 77.3345C233.62 76.8789 232.093 77.3682 231.216 78.5493L175.824 159.444C174.955 160.836 174.466 162.43 174.39 164.067V169.432L176.077 170.436L286.877 104.474V99.0998C286.869 98.4165 286.667 97.75 286.295 97.1763Z" fill="#1C63ED"/>
<path opacity="0.1" d="M233.511 78.9539C233.291 79.1226 233.097 79.3335 232.937 79.5613L177.537 160.456C177.081 161.173 176.735 161.949 176.508 162.767L174.82 161.772C174.947 161.358 175.09 160.945 175.267 160.549C175.343 160.38 175.419 160.219 175.504 160.059L175.546 159.983C175.63 159.815 175.731 159.654 175.841 159.494L231.233 78.5996C231.317 78.4815 231.41 78.3634 231.511 78.2621L231.807 77.9922L233.511 78.9539Z" fill="black"/>
<path opacity="0.35" d="M286.734 96.9138C286.582 96.821 286.422 96.7451 286.262 96.686L236.733 78.3289C235.628 77.9577 234.405 78.1939 233.51 78.9363L231.823 77.9409C232.726 77.1985 233.941 76.9707 235.054 77.3335L284.575 95.6821C284.735 95.7412 284.895 95.8171 285.039 95.9099L286.734 96.9138Z" fill="white"/>
<path opacity="0.2" d="M175.486 160.009C175.486 160.009 175.512 159.957 175.529 159.932C175.512 159.957 175.495 159.983 175.486 160.009Z" fill="black"/>
<path opacity="0.2" d="M231.216 78.5493C231.3 78.4309 231.393 78.3209 231.495 78.2109C231.393 78.3125 231.3 78.4309 231.216 78.5493Z" fill="black"/>
<path d="M232.936 79.543L177.536 160.437C176.676 161.829 176.186 163.424 176.11 165.06V170.434L288.632 105.476V100.11C288.548 98.6256 287.628 97.318 286.261 96.7359L236.733 78.3367C235.341 77.8727 233.805 78.3535 232.936 79.543Z" fill="#1C63ED"/>
<path opacity="0.05" d="M288.632 100.093C288.607 99.4179 288.405 98.7683 288.033 98.2031L176.507 162.748C176.271 163.491 176.136 164.267 176.119 165.043V170.417L288.641 105.458V100.093H288.632Z" fill="black"/>
<path d="M283.824 77.2659C283.866 76.8104 283.672 76.3548 283.301 76.0849L279.859 74.1023C279.437 73.9083 278.94 73.9674 278.568 74.2373L186.277 127.545C185.197 128.246 184.514 129.427 184.446 130.709V241.223C184.396 241.687 184.598 242.134 184.978 242.404L188.403 244.386C188.825 244.572 189.314 244.53 189.693 244.26L282.002 190.985C283.073 190.277 283.757 189.104 283.824 187.822V77.2659Z" fill="#F0F0F0"/>
<path d="M189.701 244.303L282.001 190.986C283.073 190.278 283.756 189.105 283.823 187.823V77.2666C283.823 76.1024 282.98 75.63 282.001 76.2121L189.701 129.52C188.63 130.229 187.946 131.402 187.879 132.684V243.198C187.879 244.387 188.697 244.859 189.701 244.303Z" fill="#FAFAFA"/>
<path d="M248.855 139.693C248.771 140.942 248.535 142.173 248.163 143.371C247.834 144.443 247.387 145.48 246.83 146.459C246.35 147.319 245.767 148.112 245.093 148.821C244.536 149.42 243.878 149.918 243.161 150.297C242.376 150.812 241.44 151.04 240.503 150.938C239.963 150.829 239.474 150.525 239.128 150.095C238.926 150.534 238.715 150.972 238.495 151.411C238.259 151.883 237.981 152.322 237.652 152.735C237.289 153.208 236.867 153.63 236.412 154.009C235.855 154.473 235.248 154.87 234.598 155.19C233.906 155.595 233.096 155.756 232.303 155.646C231.603 155.486 230.996 155.064 230.616 154.456C230.093 153.646 229.747 152.727 229.595 151.774C229.376 150.441 229.292 149.091 229.368 147.741C229.427 146.256 229.604 144.772 229.916 143.321C230.194 142.013 230.599 140.731 231.122 139.499C231.578 138.419 232.194 137.407 232.928 136.496C233.56 135.694 234.362 135.036 235.264 134.555C235.872 134.125 236.631 133.965 237.357 134.108C237.821 134.311 238.2 134.665 238.436 135.112V134.657C238.453 134.269 238.563 133.897 238.749 133.56C238.892 133.248 239.128 132.986 239.423 132.809L241.229 131.89C241.431 131.755 241.701 131.78 241.87 131.957C242.064 132.193 242.157 132.497 242.115 132.801L241.71 143.523C241.676 144.333 241.828 144.864 242.165 145.118C242.528 145.371 243.009 145.371 243.372 145.118C243.903 144.814 244.325 144.367 244.595 143.818C245 143.008 245.228 142.123 245.261 141.22C245.346 140.284 245.405 139.322 245.447 138.326C245.489 137.331 245.489 136.411 245.447 135.568C245.422 134.058 245.202 132.548 244.772 131.097C244.51 130.076 243.911 129.165 243.085 128.507C242.258 127.95 241.246 127.731 240.259 127.891C238.816 128.119 237.424 128.591 236.142 129.3C234.792 130 233.56 130.903 232.497 131.982C231.401 133.104 230.447 134.353 229.663 135.711C228.844 137.137 228.186 138.655 227.689 140.225C227.174 141.844 226.803 143.515 226.6 145.202C226.541 145.666 226.491 146.256 226.449 146.99C226.406 147.724 226.373 148.484 226.339 149.277C226.305 150.07 226.28 150.837 226.263 151.58C226.246 152.322 226.263 152.904 226.263 153.351C226.297 154.709 226.541 156.059 226.989 157.35C227.309 158.345 227.891 159.24 228.676 159.931C229.418 160.547 230.363 160.876 231.325 160.859C232.582 160.817 233.805 160.471 234.893 159.855C235.745 159.425 236.572 158.936 237.365 158.388C238.015 157.94 238.63 157.443 239.213 156.903C239.693 156.439 240.149 155.95 240.579 155.435C240.959 154.954 241.305 154.49 241.617 154.035C241.929 153.579 242.089 153.334 242.25 153.14C242.41 152.929 242.621 152.761 242.865 152.651L245.396 151.335C245.59 151.192 245.86 151.192 246.054 151.335C246.24 151.487 246.316 151.782 246.274 152.238C246.248 152.533 246.156 152.82 246.004 153.081C245.489 154.035 244.907 155.047 244.266 156.101C243.591 157.198 242.832 158.236 241.988 159.206C241.035 160.286 239.997 161.281 238.875 162.184C237.568 163.23 236.15 164.133 234.657 164.883C233.054 165.803 231.249 166.301 229.401 166.309C228.018 166.267 226.693 165.727 225.673 164.791C224.601 163.728 223.817 162.403 223.403 160.944C222.855 159.147 222.568 157.282 222.56 155.401V153.528C222.56 152.744 222.602 151.917 222.635 151.057C222.669 150.196 222.711 149.369 222.754 148.593C222.796 147.817 222.838 147.193 222.88 146.746C223.091 144.51 223.53 142.3 224.179 140.149C224.837 137.921 225.74 135.77 226.862 133.737C227.976 131.721 229.334 129.848 230.911 128.169C232.447 126.507 234.269 125.132 236.285 124.103C238.107 123.057 240.141 122.441 242.233 122.298C243.658 122.239 245.059 122.736 246.139 123.673C247.218 124.744 247.969 126.102 248.29 127.587C248.762 129.477 249.007 131.417 249.032 133.366C249.032 134.21 249.032 135.23 248.973 136.395C248.914 137.559 248.931 138.723 248.855 139.693ZM233.012 145.868C232.869 147.066 233.037 148.273 233.518 149.378C233.915 150.07 234.522 150.221 235.332 149.791C236.251 149.285 236.96 148.45 237.314 147.463C237.821 146.113 238.091 144.687 238.107 143.245C238.251 142.038 238.082 140.824 237.618 139.701C237.23 138.993 236.606 138.858 235.754 139.297C234.851 139.82 234.159 140.655 233.822 141.642C233.316 142.983 233.037 144.4 233.012 145.835V145.868Z" fill="#1C63ED"/>
<path d="M187.871 243.222C187.837 243.636 187.998 244.049 188.301 244.336L184.986 242.429C184.606 242.168 184.395 241.712 184.446 241.248V130.734C184.463 130.102 184.657 129.477 184.986 128.938L188.411 130.912C188.073 131.46 187.888 132.076 187.871 132.717V243.222Z" fill="#E0E0E0"/>
<path d="M290.683 194.85C290.649 194.909 290.607 194.968 290.564 195.019L243.668 180.188C239.99 178.56 235.67 179.893 233.544 183.309L183.408 257.801L181.552 258.872C181.131 259.167 180.591 259.226 180.118 259.032L231.672 182.263C233.806 178.855 238.108 177.522 241.795 179.133L290.683 194.85Z" fill="#1C63ED"/>
<path opacity="0.4" d="M228.921 190.58L229.039 190.479L183.408 257.8L181.552 258.871C181.131 259.158 180.591 259.217 180.118 259.031L227.116 189.467L228.921 190.58Z" fill="white"/>
<path opacity="0.4" d="M290.683 194.85C290.649 194.909 290.607 194.968 290.564 195.019L243.668 180.188C239.99 178.56 235.67 179.893 233.544 183.309L231.688 182.23C233.823 178.83 238.134 177.505 241.812 179.125L290.683 194.85Z" fill="white"/>
<path d="M293.491 110.209C293.39 109.601 293.07 109.433 292.648 109.719C292.437 109.871 292.26 110.065 292.108 110.276L291.872 110.605L245.599 180.946L238.69 190.572C237.787 191.711 236.319 192.267 234.885 191.997L228.921 190.58L183.366 173.826C183.062 173.767 182.741 173.767 182.438 173.826C182.32 173.851 182.201 173.885 182.092 173.936L183.779 172.94L227.428 188.969L233.173 191.019C234.607 191.289 236.075 190.74 236.978 189.593L243.887 179.976L290.387 109.306C290.53 109.112 290.707 108.952 290.91 108.825L286.886 106.505L288.573 105.535L291.357 107.138C292.454 107.83 293.221 108.943 293.491 110.209Z" fill="#1C63ED"/>
<path opacity="0.4" d="M245.598 180.948L238.689 190.574C237.786 191.713 236.318 192.269 234.884 192L228.92 190.582L229.038 190.481L229.325 190.025L233.231 190.953C234.665 191.223 236.133 190.675 237.036 189.528L243.877 180.012L245.598 180.948Z" fill="white"/>
<path opacity="0.1" d="M291.417 107.062L288.633 105.459L286.946 106.429L290.97 108.749C290.767 108.876 290.59 109.036 290.447 109.23L243.946 179.9L243.879 179.993L245.566 180.929L291.839 110.58L292.075 110.251C292.227 110.04 292.404 109.846 292.615 109.694C293.028 109.407 293.349 109.576 293.458 110.183C293.222 108.909 292.488 107.787 291.417 107.062Z" fill="black"/>
<path d="M184.344 175.168L174.415 169.439V254.889C174.499 256.374 175.284 257.732 176.533 258.551L178.92 259.926C180.244 260.592 181.814 260.592 183.138 259.926L184.328 259.242L184.344 175.168Z" fill="#1C63ED"/>
<path opacity="0.15" d="M184.344 175.168L174.415 169.439V254.889C174.499 256.374 175.284 257.732 176.533 258.551L178.92 259.926C180.244 260.592 181.814 260.592 183.138 259.926L184.328 259.242L184.344 175.168Z" fill="black"/>
<path d="M293.535 110.741V193.744C293.509 194.504 293.281 195.246 292.877 195.887C292.564 196.427 292.143 196.908 291.636 197.279L291.552 197.321C291.51 197.355 291.468 197.389 291.417 197.414L183.13 259.926C182.709 260.221 182.169 260.289 181.688 260.095C181.325 259.884 181.089 259.504 181.055 259.083C181.047 258.956 181.047 258.829 181.055 258.703V175.691C180.988 174.679 181.764 173.801 182.776 173.742C182.995 173.725 183.223 173.751 183.434 173.818L228.989 190.572L234.954 191.99C236.388 192.26 237.856 191.703 238.759 190.564L245.668 180.938L291.94 110.598L292.176 110.269C292.893 109.189 293.535 109.391 293.535 110.741Z" fill="#1C63ED"/>
<path d="M291.416 197.414L291.559 197.321L291.635 197.271C292.141 196.899 292.563 196.427 292.875 195.887C293.272 195.254 293.5 194.529 293.533 193.778L245.607 180.955L277.665 205.327L291.416 197.414Z" fill="#1C63ED"/>
<path opacity="0.2" d="M291.416 197.414L291.559 197.321L291.635 197.271C292.141 196.899 292.563 196.427 292.875 195.887C293.272 195.254 293.5 194.529 293.533 193.778L245.607 180.955L277.665 205.327L291.416 197.414Z" fill="black"/>
<path d="M181.011 258.703C180.952 259.251 181.205 259.791 181.669 260.095C182.142 260.289 182.69 260.23 183.112 259.934L220.408 238.397L228.929 190.572L181.011 257.319V258.703Z" fill="#1C63ED"/>
<path opacity="0.15" d="M233.518 183.258L181.669 260.095C181.205 259.791 180.952 259.251 181.011 258.703V257.328L231.628 182.246L233.518 183.258Z" fill="black"/>
<path d="M292.876 195.888C292.564 196.427 292.142 196.9 291.636 197.271L291.56 197.322L183.13 259.926C182.708 260.222 182.16 260.281 181.688 260.087L233.545 183.242C235.687 179.808 240.032 178.475 243.735 180.112L292.876 195.888Z" fill="#1C63ED"/>
<path opacity="0.15" d="M174.786 161.754L176.473 162.749C176.237 163.5 176.102 164.276 176.077 165.061V170.426L174.39 169.431V164.057C174.415 163.272 174.55 162.496 174.786 161.754Z" fill="black"/>
<path d="M183.839 172.906L182.118 173.902L180.38 172.898L176.103 170.434L177.764 169.447L183.839 172.906Z" fill="#1C63ED"/>
<path opacity="0.1" d="M183.914 172.94L177.764 169.447L176.077 170.434L180.354 172.898L182.092 173.902L182.421 173.8C182.725 173.741 183.045 173.741 183.349 173.8L186.875 175.125L226.618 189.762L227.242 188.842L183.914 172.94Z" fill="black"/>
<path d="M310.01 82.0923L339.849 62.9844L353 67.2025L310.01 82.0923Z" fill="#1C63ED"/>
<path d="M310.01 82.093L335.799 60.5807L330.071 53.9668L310.01 82.093Z" fill="#1C63ED"/>
<path d="M335.799 60.5801V65.5743L310.01 82.0923L335.799 60.5801Z" fill="#1C63ED"/>
<path opacity="0.25" d="M335.799 60.5801V65.5743L310.01 82.0923L335.799 60.5801Z" fill="black"/>
<path d="M340.101 60.1665C339.755 60.1665 339.469 59.8796 339.469 59.5338C339.469 59.3566 339.545 59.1879 339.671 59.0698C340.557 58.2514 341.367 57.3657 342.109 56.4124C342.303 56.1255 342.7 56.0496 342.987 56.2521C343.273 56.4461 343.349 56.8426 343.147 57.1294C343.138 57.1463 343.122 57.1632 343.105 57.1801C342.32 58.1924 341.46 59.1288 340.523 59.9977C340.405 60.1074 340.253 60.1665 340.093 60.1665H340.101ZM344.851 53.8646C344.75 53.8646 344.648 53.8393 344.564 53.7972C344.252 53.6453 344.125 53.2657 344.286 52.962C345.02 51.4941 345.585 49.9418 345.973 48.3474C346.057 48.0099 346.395 47.799 346.732 47.875C347.07 47.9593 347.281 48.2968 347.196 48.6342C346.8 50.3299 346.201 51.9665 345.425 53.5188C345.315 53.7381 345.087 53.8731 344.842 53.8646H344.851ZM347.162 44.9476C346.817 44.9307 346.538 44.6439 346.555 44.2896V43.2688C346.555 41.9697 346.445 40.662 346.226 39.3798C346.167 39.0339 346.395 38.7049 346.741 38.6458C347.087 38.5868 347.416 38.823 347.475 39.1688C347.702 40.5271 347.82 41.8937 347.82 43.2688V44.3402C347.804 44.6861 347.517 44.9645 347.162 44.9476ZM345.804 35.8281C345.534 35.8281 345.29 35.651 345.205 35.3979C344.657 33.8456 343.974 32.344 343.155 30.9098C343.003 30.6061 343.105 30.2434 343.391 30.0662C343.695 29.9144 344.058 30.0156 344.235 30.3024C345.087 31.8041 345.804 33.3816 346.369 35.0098C346.504 35.3304 346.353 35.7016 346.024 35.8366C346.007 35.8366 345.99 35.845 345.981 35.8534C345.922 35.8534 345.855 35.845 345.796 35.8281H345.804ZM341.367 27.721C341.173 27.721 340.987 27.6282 340.869 27.4763C339.857 26.1687 338.743 24.937 337.545 23.7982C337.25 23.6041 337.166 23.2161 337.36 22.9208C337.554 22.6255 337.942 22.5412 338.237 22.7352C338.296 22.7774 338.347 22.8196 338.389 22.8786C339.637 24.0597 340.793 25.342 341.848 26.7002C342.033 26.9701 341.983 27.3329 341.73 27.5438C341.628 27.645 341.502 27.7041 341.358 27.721H341.367ZM334.761 21.242C334.626 21.242 334.491 21.1998 334.382 21.1155C333.049 20.12 331.665 19.2004 330.223 18.3737C329.936 18.1965 329.835 17.8253 329.995 17.5301C330.164 17.2348 330.543 17.1336 330.838 17.3023C332.323 18.1544 333.757 19.0992 335.124 20.1284C335.402 20.3393 335.461 20.7358 335.251 21.0142C335.132 21.1745 334.947 21.2673 334.744 21.2673L334.761 21.242ZM268.461 18.7955C268.116 18.7955 267.829 18.5171 267.82 18.1712C267.82 17.9435 267.938 17.7325 268.141 17.6144C269.609 16.7708 271.127 15.9778 272.671 15.2439C272.983 15.092 273.363 15.227 273.515 15.5476C273.667 15.8597 273.54 16.2309 273.228 16.3828C273.228 16.3828 273.219 16.3828 273.211 16.3828C271.701 17.0998 270.208 17.876 268.774 18.7027C268.672 18.7618 268.563 18.7871 268.453 18.7871H268.461V18.7955ZM326.806 16.5262C326.713 16.5262 326.62 16.5093 326.536 16.4671C325.034 15.7416 323.491 15.0752 321.938 14.4762C321.609 14.3581 321.441 13.9953 321.567 13.6663C321.567 13.6579 321.567 13.6494 321.576 13.6326C321.694 13.3036 322.056 13.1348 322.385 13.2614C322.394 13.2614 322.402 13.2614 322.419 13.2698C323.997 13.8772 325.574 14.5605 327.11 15.3029C327.422 15.4632 327.548 15.8428 327.388 16.155C327.278 16.3659 327.067 16.5009 326.831 16.5009L326.806 16.5262ZM276.805 14.8389C276.543 14.8389 276.316 14.6787 276.214 14.434C276.079 14.1134 276.223 13.7422 276.543 13.5988C276.552 13.5988 276.56 13.5904 276.577 13.5904C278.155 12.9746 279.783 12.4093 281.411 11.9032C281.748 11.8019 282.103 11.996 282.196 12.3334C282.288 12.6708 282.103 13.0252 281.765 13.118C280.171 13.5904 278.576 14.1472 277.033 14.7461C276.957 14.7799 276.881 14.7883 276.796 14.7883V14.8389H276.805ZM318.142 13.1517C318.083 13.1601 318.015 13.1601 317.956 13.1517C316.37 12.6708 314.742 12.249 313.114 11.8947C312.76 11.8104 312.549 11.456 312.625 11.1102C312.709 10.7558 313.063 10.5449 313.409 10.6209C315.097 10.9836 316.733 11.4139 318.353 11.9116C318.69 12.0128 318.876 12.3671 318.775 12.6962C318.69 12.9577 318.446 13.1433 318.167 13.1433H318.134L318.142 13.1517ZM285.663 12.0466C285.368 12.0466 285.114 11.8441 285.047 11.5573C284.971 11.2114 285.19 10.8739 285.528 10.798C287.173 10.4184 288.86 10.0978 290.547 9.85317C290.885 9.77724 291.222 9.99658 291.298 10.334C291.374 10.6715 291.155 11.0089 290.817 11.0848C290.792 11.0848 290.758 11.0933 290.733 11.1017C289.046 11.3464 287.426 11.6585 285.806 12.0381H285.663V12.0466ZM309.132 11.0764H309.039C307.394 10.8318 305.716 10.6546 304.054 10.5449C303.708 10.5534 303.412 10.275 303.404 9.92909C303.396 9.58321 303.674 9.28795 304.02 9.27951C304.062 9.27951 304.096 9.27951 304.138 9.27951C305.825 9.38918 307.512 9.56634 309.2 9.81099C309.546 9.87004 309.782 10.1906 309.723 10.5365C309.672 10.8402 309.411 11.0595 309.107 11.068H309.132V11.0764ZM294.858 10.6209C294.512 10.6377 294.217 10.3593 294.2 10.0135C294.183 9.66757 294.462 9.37231 294.808 9.35544C296.495 9.22046 298.224 9.14453 299.92 9.14453C300.266 9.14453 300.553 9.43136 300.553 9.77724C300.553 10.1231 300.266 10.41 299.92 10.41C298.233 10.41 296.545 10.4859 294.909 10.6209H294.858Z" fill="#E0E0E0"/>
</svg>
