<svg width="38" height="38" viewBox="0 0 38 38" fill="none" xmlns="http://www.w3.org/2000/svg">
<g id="Group 1000005034">
<path id="Vector" d="M28.3555 0H8.68025C3.88628 0 0 3.88628 0 8.68025V28.3555C0 33.1495 3.88628 37.0357 8.68025 37.0357H28.3555C33.1495 37.0357 37.0357 33.1495 37.0357 28.3555V8.68025C37.0357 3.88628 33.1495 0 28.3555 0Z" fill="#F4F7FA"/>
<g id="Group 1000004901">
<path id="Vector_2" d="M6 19.0011C6 20.1256 6.17713 21.2104 6.47836 22.2513H24.2587C26.2754 22.2513 27.9104 20.796 27.9104 19.0011C27.9104 17.2054 26.2753 15.751 24.2587 15.751H6.47836C6.17713 16.7911 6 17.8766 6 19.0011Z" fill="#343741"/>
<path id="Vector_3" d="M30.5796 12.2248C31.09 11.8064 31.5648 11.357 32.0002 10.8752C29.3226 7.90542 25.2171 6 20.6068 6C14.836 6 9.86967 8.98771 7.50061 13.3129H27.4638C28.6196 13.3129 29.7306 12.922 30.5795 12.2248" fill="#FEC514"/>
<path id="Vector_4" d="M27.4637 24.6875H7.50049C9.87057 29.0119 14.836 32.0004 20.6067 32.0004C25.217 32.0004 29.3225 30.0942 32.0001 27.1252C31.5651 26.644 31.0903 26.1926 30.5795 25.7747C29.7304 25.0767 28.6194 24.6875 27.4637 24.6875Z" fill="#00BFB3"/>
</g>
</g>
</svg>
