<svg width="209" height="288" viewBox="0 0 209 288" fill="none" xmlns="http://www.w3.org/2000/svg">
<path d="M136.523 159.152L140.019 161.016L153.993 149.003L157.713 151.54C160.701 153.741 163.602 153.894 164.991 152.916L165.276 153.084C167.434 154.246 168.711 153.206 169.145 151.953C169.579 150.7 169.331 148.896 167.173 147.704L166.888 147.551C166.628 146.023 165.499 143.455 161.098 141.942L157.043 140.337L154.564 119.566L151.067 117.687L148.352 136.929L138.358 132.711L136.845 127.774L134.068 126.505L133.87 131.09L132.878 130.983L131.972 133.536L132.716 134.438L130.088 137.8L132.741 139.435L136.684 137.418L146.021 143.532L136.523 159.152ZM136.783 136.302L132.816 138.335L131.576 137.54L133.981 134.483L133.076 133.352L133.498 132.145L134.738 132.283L134.923 128.003L136.275 128.614L137.788 133.566L149.096 138.32L151.786 119.2L153.882 120.315L156.299 141.163L160.875 142.966C165.14 144.418 165.983 146.772 166.107 148.04V148.361L166.355 148.468C166.513 148.523 166.666 148.595 166.814 148.682C168.14 149.385 168.736 150.501 168.351 151.571C167.967 152.641 166.913 152.885 165.586 152.167C165.437 152.093 165.292 152.006 165.152 151.907L164.917 151.739L164.694 151.938C163.788 152.763 161.147 152.916 158.097 150.684L153.931 147.811L139.92 159.87L137.825 158.754L147.322 143.256L136.783 136.302Z" fill="#999999"/>
<path d="M16.5281 287.427C16.4609 287.428 16.3946 287.408 16.3359 287.368C16.2771 287.327 16.228 287.269 16.1933 287.198C15.7469 286.362 15.3336 285.522 14.9534 284.676C14.8972 284.564 14.8787 284.43 14.9019 284.301C14.925 284.173 14.9881 284.06 15.0774 283.988C15.1697 283.92 15.28 283.9 15.3844 283.931C15.4888 283.963 15.579 284.044 15.6354 284.156C16.057 284.997 16.4785 285.822 16.8753 286.663C16.9054 286.717 16.9263 286.778 16.937 286.842C16.9477 286.906 16.9478 286.972 16.9374 287.036C16.927 287.1 16.9062 287.161 16.8764 287.215C16.8465 287.269 16.8082 287.315 16.7637 287.351C16.6914 287.399 16.6105 287.426 16.5281 287.427V287.427ZM14.0483 282.353C13.9783 282.352 13.9096 282.329 13.8488 282.287C13.788 282.244 13.7372 282.182 13.7012 282.108C13.3044 281.237 12.9076 280.366 12.4613 279.495C12.4111 279.381 12.3985 279.247 12.4262 279.122C12.4539 278.997 12.5198 278.889 12.6101 278.822C12.7041 278.762 12.8136 278.749 12.9154 278.786C13.0172 278.823 13.1033 278.907 13.1556 279.021C13.54 279.892 13.9367 280.748 14.3335 281.604C14.3886 281.718 14.4051 281.854 14.3796 281.982C14.3541 282.111 14.2885 282.222 14.1971 282.292C14.1326 282.335 14.0598 282.356 13.9863 282.353H14.0483ZM11.7421 277.126C11.6675 277.125 11.5946 277.099 11.5312 277.05C11.4678 277.002 11.4164 276.933 11.3825 276.851C11.0105 275.964 10.6509 275.063 10.3038 274.176C10.2806 274.118 10.2671 274.055 10.264 273.99C10.2608 273.926 10.2681 273.861 10.2854 273.8C10.3027 273.738 10.3297 273.682 10.3648 273.634C10.3999 273.586 10.4423 273.547 10.4898 273.519C10.537 273.49 10.5883 273.474 10.6407 273.47C10.6931 273.466 10.7456 273.475 10.7952 273.496C10.8448 273.518 10.8905 273.551 10.9296 273.594C10.9686 273.637 11.0004 273.69 11.0229 273.748C11.3701 274.635 11.7297 275.521 12.1016 276.408C12.1248 276.466 12.1384 276.529 12.1415 276.594C12.1447 276.658 12.1374 276.723 12.1201 276.784C12.1028 276.845 12.0758 276.902 12.0407 276.95C12.0056 276.998 11.9632 277.037 11.9157 277.065C11.8824 277.096 11.8441 277.117 11.8034 277.127C11.7627 277.138 11.7206 277.138 11.6801 277.126H11.7421ZM9.64667 271.746C9.56898 271.745 9.49315 271.717 9.42751 271.665C9.36186 271.614 9.30898 271.542 9.27471 271.456L8.30755 268.72C8.26658 268.596 8.26707 268.457 8.30891 268.334C8.35075 268.211 8.43051 268.113 8.53073 268.063C8.62955 268.017 8.73896 268.02 8.83601 268.071C8.93306 268.122 9.01031 268.218 9.05154 268.338C9.36151 269.239 9.68384 270.141 10.0062 271.058C10.0287 271.116 10.0415 271.179 10.0437 271.243C10.0458 271.308 10.0373 271.372 10.0188 271.432C10.0002 271.492 9.97195 271.546 9.93568 271.593C9.89942 271.639 9.85596 271.675 9.80786 271.7C9.73888 271.743 9.66113 271.759 9.58469 271.746H9.64667ZM7.7744 266.259C7.69503 266.258 7.61758 266.229 7.55153 266.174C7.48549 266.12 7.43371 266.043 7.40245 265.953C7.10487 265.006 6.81968 264.073 6.5345 263.141C6.51697 263.08 6.50947 263.015 6.51248 262.95C6.51548 262.886 6.5289 262.822 6.55198 262.764C6.57506 262.706 6.60731 262.653 6.64688 262.611C6.68645 262.568 6.73259 262.535 6.7825 262.515C6.8813 262.474 6.98887 262.482 7.08332 262.536C7.17776 262.59 7.25195 262.686 7.29082 262.805C7.5636 263.737 7.84878 264.654 8.14636 265.587C8.18354 265.708 8.18107 265.843 8.13947 265.963C8.09788 266.083 8.02039 266.178 7.92319 266.229L7.7744 266.259ZM6.1129 260.665C6.0302 260.664 5.94991 260.631 5.88322 260.571C5.81653 260.51 5.76678 260.426 5.74095 260.329C5.46817 259.381 5.22021 258.434 4.98462 257.486C4.95318 257.36 4.96277 257.225 5.01141 257.108C5.06005 256.991 5.14392 256.901 5.24503 256.859C5.34699 256.821 5.45717 256.833 5.55213 256.893C5.64709 256.953 5.7193 257.056 5.75336 257.18C5.98894 258.128 6.23689 259.06 6.49727 260.008C6.52872 260.134 6.51912 260.27 6.47048 260.387C6.42184 260.504 6.33805 260.593 6.23694 260.635L6.1129 260.665ZM4.67465 254.98C4.58718 254.977 4.50264 254.94 4.43346 254.874C4.36429 254.808 4.31412 254.717 4.29028 254.613C4.0671 253.65 3.84389 252.687 3.64551 251.739C3.61882 251.612 3.63376 251.476 3.68706 251.362C3.74035 251.248 3.82783 251.164 3.93074 251.128C3.98121 251.112 4.03372 251.108 4.08535 251.117C4.13697 251.126 4.18665 251.148 4.23156 251.18C4.27647 251.213 4.31577 251.256 4.34712 251.308C4.37846 251.359 4.40124 251.417 4.41424 251.48C4.62503 252.427 4.83583 253.39 5.05902 254.338C5.07415 254.4 5.07911 254.465 5.07355 254.53C5.06798 254.594 5.05202 254.657 5.02663 254.714C5.00123 254.771 4.96687 254.821 4.9256 254.861C4.88432 254.902 4.837 254.931 4.78627 254.949L4.67465 254.98ZM3.43475 249.218C3.34566 249.214 3.25991 249.175 3.19054 249.106C3.12116 249.037 3.07194 248.942 3.05038 248.835C2.86439 247.857 2.67842 246.879 2.51723 245.916C2.50446 245.854 2.50207 245.789 2.51027 245.726C2.51846 245.662 2.53707 245.601 2.56491 245.547C2.59274 245.493 2.62926 245.446 2.67222 245.41C2.71518 245.373 2.76367 245.348 2.8148 245.335C2.86611 245.32 2.91947 245.317 2.97175 245.326C3.02404 245.336 3.07419 245.359 3.11925 245.393C3.1643 245.428 3.20337 245.472 3.23413 245.526C3.26488 245.579 3.28674 245.639 3.29838 245.702C3.45956 246.665 3.64554 247.628 3.83152 248.606C3.85413 248.734 3.83571 248.867 3.78022 248.978C3.72472 249.089 3.63649 249.17 3.53396 249.202L3.43475 249.218ZM2.41802 243.379C2.32449 243.381 2.23339 243.342 2.16079 243.27C2.08819 243.197 2.03876 243.095 2.02124 242.982C1.87245 242.004 1.72369 241.025 1.5873 240.047C1.5693 239.92 1.59316 239.788 1.6536 239.682C1.71404 239.576 1.80614 239.504 1.90969 239.482C1.96188 239.469 2.0157 239.468 2.06793 239.481C2.12017 239.494 2.16972 239.52 2.21369 239.557C2.25766 239.594 2.29508 239.642 2.3238 239.697C2.35252 239.753 2.37196 239.814 2.38086 239.879C2.51725 240.842 2.65361 241.82 2.8148 242.798C2.82553 242.863 2.82568 242.929 2.81517 242.993C2.80466 243.058 2.78373 243.119 2.75365 243.173C2.72356 243.227 2.68493 243.273 2.64006 243.309C2.59518 243.344 2.54494 243.368 2.49241 243.379H2.41802ZM1.59972 237.51C1.5037 237.515 1.40972 237.475 1.33628 237.399C1.26284 237.322 1.21526 237.215 1.20294 237.097C1.07895 236.104 0.967333 235.111 0.86814 234.132C0.861205 234.068 0.864754 234.003 0.878508 233.94C0.892263 233.878 0.915974 233.819 0.948283 233.768C0.980592 233.716 1.02079 233.674 1.06664 233.642C1.11249 233.61 1.16308 233.59 1.21535 233.582C1.26776 233.571 1.32139 233.574 1.37291 233.59C1.42443 233.606 1.47271 233.635 1.51465 233.676C1.5566 233.716 1.59128 233.766 1.61659 233.824C1.6419 233.881 1.65728 233.945 1.6617 234.01C1.76089 234.968 1.8725 235.946 1.99649 236.945C2.01092 237.074 1.98408 237.205 1.92165 237.311C1.85921 237.416 1.76602 237.488 1.6617 237.51H1.59972ZM0.992176 231.595C0.892268 231.6 0.794946 231.556 0.720872 231.473C0.646797 231.39 0.601789 231.275 0.595398 231.152C0.508605 230.159 0.421809 229.165 0.359814 228.187C0.352919 228.056 0.387938 227.926 0.457438 227.826C0.526938 227.726 0.625398 227.664 0.731769 227.652C0.783583 227.643 0.836297 227.648 0.886454 227.667C0.936612 227.685 0.983047 227.716 1.02283 227.758C1.0626 227.799 1.09479 227.851 1.11727 227.909C1.13975 227.967 1.15202 228.031 1.15329 228.095C1.22769 229.073 1.30208 230.067 1.38888 231.06C1.394 231.125 1.38878 231.19 1.37344 231.251C1.3581 231.313 1.33301 231.37 1.29958 231.42C1.26615 231.47 1.22503 231.511 1.17865 231.541C1.13227 231.571 1.08152 231.59 1.02933 231.595H0.992176ZM0.582987 225.665C0.481916 225.665 0.384586 225.618 0.31085 225.533C0.237115 225.448 0.192526 225.331 0.186209 225.207C0.186209 224.183 0.0870476 223.189 0.0622495 222.15C0.0588999 222.084 0.0662346 222.019 0.0838933 221.957C0.101552 221.895 0.129156 221.838 0.16502 221.79C0.200883 221.741 0.244313 221.702 0.292688 221.675C0.341063 221.647 0.393409 221.632 0.446616 221.63C0.550698 221.636 0.649781 221.687 0.726775 221.773C0.803768 221.86 0.85378 221.977 0.86814 222.104C0.86814 223.082 0.868174 224.076 0.979765 225.069C0.986659 225.2 0.951566 225.33 0.882065 225.43C0.812565 225.53 0.714105 225.592 0.607734 225.604L0.582987 225.665ZM0.396972 219.704C0.291742 219.704 0.190843 219.653 0.116435 219.561C0.0420261 219.469 0.000193879 219.345 0.000193879 219.215C0.000193879 218.512 0.000193879 217.825 0.000193879 217.137V216.235C0.000193879 216.105 0.0420261 215.981 0.116435 215.889C0.190843 215.797 0.291742 215.746 0.396972 215.746V215.746C0.502201 215.746 0.6031 215.797 0.677508 215.889C0.751917 215.981 0.793749 216.105 0.793749 216.235V217.137C0.793749 217.825 0.793749 218.512 0.793749 219.2C0.795411 219.266 0.786381 219.331 0.767186 219.392C0.747992 219.453 0.719059 219.509 0.682049 219.556C0.645039 219.603 0.600697 219.64 0.551732 219.666C0.502768 219.691 0.450136 219.704 0.396972 219.704V219.704ZM0.396972 213.744C0.343807 213.744 0.291175 213.731 0.242211 213.705C0.193246 213.68 0.14898 213.642 0.11197 213.595C0.0749596 213.548 0.045951 213.492 0.0267567 213.431C0.00756241 213.37 -0.00146751 213.305 0.000193879 213.239C0.000193879 212.215 0.0746213 211.222 0.111818 210.183C0.121304 210.051 0.172025 209.93 0.253108 209.844C0.334192 209.759 0.439183 209.716 0.545754 209.724C0.597893 209.728 0.648882 209.745 0.695822 209.773C0.742763 209.801 0.784769 209.84 0.819328 209.889C0.853888 209.937 0.880384 209.993 0.897276 210.054C0.914168 210.115 0.921069 210.179 0.917709 210.244C0.917709 211.207 0.830958 212.2 0.80616 213.209C0.811951 213.281 0.804732 213.354 0.784971 213.422C0.765209 213.49 0.733401 213.552 0.691887 213.603C0.650374 213.654 0.600129 213.693 0.544846 213.718C0.489563 213.742 0.430647 213.751 0.372225 213.744H0.396972ZM0.682201 207.798C0.63001 207.793 0.579193 207.774 0.532813 207.744C0.486433 207.714 0.445387 207.673 0.411956 207.623C0.378525 207.573 0.35343 207.516 0.338094 207.454C0.322759 207.393 0.31746 207.328 0.322581 207.263C0.396975 206.244 0.483795 205.226 0.582987 204.207C0.587404 204.141 0.602703 204.078 0.628015 204.02C0.653327 203.963 0.688083 203.912 0.730029 203.872C0.771974 203.832 0.820257 203.803 0.871773 203.787C0.923289 203.771 0.976921 203.768 1.02933 203.779C1.13353 203.798 1.2278 203.865 1.29246 203.968C1.35713 204.07 1.38725 204.2 1.37654 204.329C1.27735 205.261 1.19053 206.255 1.11614 207.279C1.12109 207.354 1.11183 207.43 1.08912 207.5C1.06641 207.57 1.03085 207.632 0.985214 207.683C0.939581 207.733 0.885094 207.77 0.826064 207.79C0.767034 207.81 0.705074 207.813 0.644967 207.798H0.682201ZM1.27733 201.883C1.17378 201.861 1.08168 201.789 1.02124 201.683C0.960793 201.577 0.936936 201.446 0.954943 201.318L1.02933 200.722C1.14092 199.942 1.26489 199.194 1.38888 198.368C1.39921 198.305 1.4197 198.245 1.44904 198.191C1.47838 198.137 1.51602 198.092 1.55983 198.056C1.60365 198.02 1.65277 197.996 1.7043 197.984C1.75584 197.972 1.80874 197.973 1.86005 197.986C1.91228 197.997 1.96218 198.021 2.00656 198.056C2.05094 198.092 2.08885 198.138 2.11796 198.193C2.14706 198.248 2.16674 198.309 2.1757 198.373C2.18466 198.438 2.1827 198.503 2.17002 198.567C2.04603 199.346 1.93448 200.095 1.82289 200.89L1.73609 201.471C1.73082 201.54 1.71339 201.606 1.68508 201.666C1.65677 201.725 1.61824 201.777 1.57217 201.816C1.5261 201.855 1.47361 201.882 1.41839 201.893C1.36317 201.905 1.30657 201.902 1.25251 201.883H1.27733ZM2.23208 196.045H2.14528C2.09415 196.032 2.04559 196.007 2.00262 195.971C1.95966 195.934 1.92315 195.888 1.89531 195.833C1.86748 195.779 1.84894 195.718 1.84075 195.655C1.83255 195.591 1.83486 195.527 1.84764 195.464C2.03362 194.486 2.21965 193.523 2.43043 192.545C2.44467 192.482 2.46889 192.424 2.50164 192.373C2.5344 192.322 2.57504 192.28 2.62121 192.249C2.66738 192.217 2.71813 192.198 2.77052 192.191C2.82292 192.184 2.87595 192.19 2.92642 192.209C2.97691 192.225 3.02431 192.253 3.06597 192.292C3.10763 192.33 3.14271 192.379 3.16919 192.434C3.19568 192.489 3.21308 192.551 3.22035 192.614C3.22762 192.678 3.22463 192.743 3.21157 192.805C3.00079 193.768 2.80237 194.715 2.62878 195.678C2.60337 195.79 2.54761 195.887 2.47084 195.954C2.39407 196.021 2.30101 196.053 2.20726 196.045H2.23208ZM3.47198 190.298H3.36036C3.30963 190.281 3.26223 190.251 3.22096 190.211C3.17968 190.17 3.1454 190.12 3.12 190.063C3.09461 190.006 3.07865 189.944 3.07308 189.879C3.06752 189.814 3.0724 189.749 3.08754 189.687C3.32312 188.724 3.57115 187.776 3.83152 186.829C3.84826 186.767 3.87475 186.711 3.90947 186.662C3.94419 186.613 3.98642 186.573 4.03374 186.545C4.08105 186.516 4.13253 186.5 4.18509 186.496C4.23765 186.492 4.29022 186.502 4.33985 186.523C4.38976 186.544 4.4359 186.576 4.47547 186.619C4.51503 186.662 4.54729 186.714 4.57037 186.772C4.59344 186.831 4.60686 186.894 4.60987 186.959C4.61287 187.024 4.60538 187.089 4.58785 187.15C4.32747 188.082 4.09193 189.03 3.85635 189.977C3.82711 190.076 3.77263 190.161 3.70113 190.219C3.62963 190.277 3.54493 190.305 3.45957 190.298H3.47198ZM5.02186 184.643C4.97713 184.657 4.93014 184.657 4.88541 184.643C4.78686 184.599 4.7067 184.507 4.66254 184.39C4.61838 184.272 4.61381 184.138 4.64983 184.017C4.935 183.084 5.23263 182.152 5.55501 181.235C5.57412 181.174 5.6028 181.119 5.63946 181.072C5.67612 181.026 5.72 180.988 5.76849 180.963C5.81698 180.937 5.86914 180.924 5.92189 180.923C5.97465 180.923 6.02695 180.935 6.07574 180.96C6.12382 180.985 6.16739 181.021 6.20402 181.067C6.24064 181.113 6.26958 181.167 6.28915 181.227C6.30873 181.287 6.31859 181.35 6.31814 181.415C6.31769 181.479 6.30693 181.543 6.28651 181.602C5.97653 182.519 5.679 183.436 5.40622 184.368C5.36963 184.457 5.31234 184.531 5.2417 184.58C5.17106 184.629 5.09025 184.651 5.00945 184.643H5.02186ZM6.84448 179.233C6.78721 179.247 6.72814 179.247 6.67087 179.233C6.57511 179.176 6.50091 179.076 6.46389 178.954C6.42688 178.831 6.42998 178.695 6.47252 178.576C6.81969 177.674 7.16685 176.772 7.53882 175.87C7.58888 175.758 7.67192 175.673 7.771 175.633C7.87007 175.593 7.9777 175.602 8.07197 175.656C8.16867 175.716 8.24252 175.819 8.27736 175.945C8.31219 176.071 8.30523 176.209 8.25798 176.329C7.88601 177.2 7.5388 178.086 7.20402 178.988C7.16898 179.067 7.11661 179.131 7.05297 179.175C6.98932 179.218 6.91704 179.238 6.84448 179.233V179.233ZM9.02672 173.914C8.96588 173.935 8.90154 173.935 8.8407 173.914C8.79376 173.884 8.75227 173.842 8.71863 173.791C8.685 173.741 8.65995 173.682 8.64492 173.62C8.6299 173.557 8.6252 173.491 8.63115 173.426C8.6371 173.361 8.65352 173.298 8.67951 173.242C9.07628 172.37 9.48544 171.499 9.91941 170.659C9.94494 170.602 9.97975 170.552 10.0216 170.512C10.0634 170.473 10.1114 170.444 10.1626 170.428C10.2137 170.412 10.267 170.41 10.319 170.421C10.371 170.431 10.4207 170.455 10.465 170.49C10.5098 170.523 10.549 170.567 10.5802 170.619C10.6113 170.67 10.6338 170.729 10.6465 170.792C10.6592 170.854 10.6618 170.919 10.654 170.983C10.6463 171.047 10.6284 171.108 10.6014 171.163C10.1799 172.004 9.78308 172.859 9.36151 173.731C9.32066 173.773 9.27305 173.804 9.22181 173.823C9.17058 173.841 9.11678 173.846 9.06387 173.838L9.02672 173.914ZM11.5065 168.824C11.4338 168.852 11.3561 168.852 11.2833 168.824C11.2388 168.789 11.2004 168.743 11.1706 168.689C11.1408 168.635 11.1201 168.574 11.1097 168.51C11.0993 168.446 11.0994 168.379 11.11 168.315C11.1207 168.251 11.1417 168.191 11.1717 168.137C11.6305 167.311 12.0893 166.486 12.5728 165.676C12.6369 165.573 12.7305 165.505 12.8344 165.485C12.9383 165.465 13.0444 165.495 13.1308 165.569C13.2142 165.648 13.2697 165.763 13.2859 165.891C13.302 166.02 13.2776 166.15 13.2176 166.257C12.7464 167.052 12.2877 167.862 11.8413 168.687C11.7628 168.743 11.6708 168.765 11.5809 168.748L11.5065 168.824ZM66.0622 165.447H65.5538C65.5017 165.443 65.4507 165.426 65.4037 165.398C65.3568 165.37 65.3149 165.33 65.2803 165.282C65.2457 165.234 65.2193 165.178 65.2024 165.117C65.1855 165.056 65.1785 164.991 65.1819 164.927C65.1833 164.862 65.1956 164.798 65.218 164.739C65.2403 164.68 65.2722 164.628 65.3118 164.585C65.3513 164.542 65.3976 164.509 65.4478 164.489C65.498 164.469 65.551 164.462 65.6035 164.469C66.0778 164.522 66.555 164.522 67.0293 164.469C67.3135 164.425 67.5951 164.358 67.8724 164.27C67.976 164.237 68.0858 164.255 68.1785 164.321C68.2712 164.387 68.3394 164.495 68.3684 164.621C68.3813 164.685 68.3837 164.75 68.3757 164.815C68.3676 164.879 68.3492 164.941 68.3215 164.997C68.2938 165.052 68.2573 165.1 68.2143 165.138C68.1712 165.176 68.1225 165.203 68.0708 165.217C67.758 165.325 67.4387 165.401 67.1161 165.447C66.8094 165.439 66.5033 165.414 66.1986 165.37L66.0622 165.447ZM63.2105 164.851H63.0864C62.2809 164.502 61.5302 163.985 60.867 163.322C60.7928 163.228 60.7512 163.102 60.7512 162.971C60.7512 162.839 60.7928 162.713 60.867 162.619C60.904 162.572 60.9483 162.535 60.9973 162.509C61.0463 162.483 61.099 162.47 61.1522 162.47C61.2054 162.47 61.2581 162.483 61.3071 162.509C61.3561 162.535 61.4004 162.572 61.4374 162.619C62.0298 163.203 62.6957 163.662 63.4088 163.979C63.4587 164 63.5048 164.033 63.5443 164.076C63.5839 164.118 63.6162 164.17 63.6393 164.229C63.6624 164.287 63.6758 164.35 63.6788 164.415C63.6818 164.48 63.6743 164.545 63.6568 164.606C63.6179 164.66 63.57 164.703 63.5166 164.732C63.4631 164.761 63.4052 164.775 63.3468 164.774L63.2105 164.851ZM14.2963 164.025C14.206 164.027 14.1182 163.989 14.0483 163.918C13.9741 163.824 13.9325 163.698 13.9325 163.567C13.9325 163.436 13.9741 163.309 14.0483 163.215C14.5567 162.436 15.0898 161.687 15.6106 160.923C15.687 160.831 15.7892 160.78 15.8957 160.78C16.0022 160.78 16.1046 160.831 16.181 160.923C16.2552 161.017 16.2967 161.143 16.2967 161.274C16.2967 161.406 16.2552 161.532 16.181 161.626C15.6602 162.359 15.1394 163.154 14.6434 163.888C14.5787 163.93 14.5061 163.952 14.4327 163.949L14.2963 164.025ZM70.1663 163.949C70.101 163.947 70.037 163.926 69.9791 163.889C69.9211 163.852 69.8706 163.799 69.8315 163.735C69.7753 163.623 69.7568 163.488 69.7799 163.36C69.8031 163.231 69.8661 163.119 69.9555 163.047C70.5951 162.523 71.1747 161.896 71.6789 161.183C71.7532 161.092 71.8535 161.041 71.958 161.041C72.0624 161.041 72.1626 161.092 72.2369 161.183C72.3111 161.277 72.3527 161.403 72.3527 161.534C72.3527 161.665 72.3111 161.791 72.2369 161.886C71.6869 162.676 71.0482 163.366 70.3399 163.934C70.3277 163.94 70.3153 163.945 70.3027 163.949H70.1663ZM59.5899 161.121C59.5187 161.119 59.4492 161.094 59.3884 161.048C59.3275 161.003 59.2773 160.938 59.2427 160.862C58.8334 159.91 58.5686 158.874 58.4616 157.805C58.4547 157.741 58.4581 157.675 58.4719 157.613C58.4857 157.55 58.5094 157.491 58.5417 157.44C58.5741 157.389 58.6143 157.346 58.6601 157.314C58.706 157.282 58.7565 157.262 58.8087 157.255C58.9122 157.237 59.0171 157.271 59.1007 157.348C59.1843 157.425 59.2398 157.54 59.2552 157.667C59.358 158.595 59.5886 159.495 59.9371 160.327C59.9631 160.384 59.9795 160.446 59.9854 160.511C59.9914 160.576 59.9867 160.642 59.9717 160.705C59.9566 160.768 59.9316 160.826 59.898 160.876C59.8643 160.927 59.8228 160.969 59.7759 160.999C59.7601 161.016 59.7436 161.031 59.7263 161.045L59.5899 161.121ZM17.4953 159.593C17.3893 159.594 17.2871 159.545 17.21 159.455C17.1358 159.361 17.0943 159.235 17.0943 159.104C17.0943 158.973 17.1358 158.847 17.21 158.752C17.7804 158.034 18.3632 157.331 18.9459 156.643C19.0223 156.552 19.1246 156.501 19.2311 156.501C19.3376 156.501 19.4399 156.552 19.5162 156.643C19.5897 156.735 19.6309 156.858 19.6309 156.987C19.6309 157.116 19.5897 157.239 19.5162 157.331C18.9459 158.004 18.3755 158.707 17.8176 159.41C17.761 159.45 17.6969 159.471 17.6316 159.471L17.4953 159.593ZM73.2909 159.593C73.2294 159.607 73.1663 159.607 73.1048 159.593C73.0126 159.528 72.9434 159.423 72.9113 159.299C72.8791 159.174 72.8862 159.039 72.9312 158.921C73.2804 158.07 73.5348 157.165 73.6876 156.231C73.6992 156.167 73.7211 156.107 73.7518 156.054C73.7826 156.001 73.8216 155.956 73.8667 155.922C73.9117 155.887 73.9619 155.865 74.0142 155.855C74.0665 155.845 74.1198 155.848 74.1711 155.864C74.2226 155.876 74.2715 155.902 74.3149 155.938C74.3584 155.974 74.3956 156.02 74.4244 156.074C74.4533 156.128 74.4731 156.189 74.4829 156.253C74.4926 156.316 74.492 156.381 74.4811 156.445C74.3013 157.456 74.0223 158.436 73.6504 159.364C73.5907 159.41 73.5223 159.436 73.452 159.44L73.2909 159.593ZM20.9794 155.543C20.9229 155.542 20.8672 155.527 20.8159 155.498C20.7645 155.469 20.7188 155.427 20.6818 155.375C20.6075 155.281 20.566 155.154 20.566 155.023C20.566 154.892 20.6075 154.766 20.6818 154.672L21.4257 153.907L22.5788 152.792C22.6646 152.711 22.7725 152.676 22.8793 152.693C22.986 152.71 23.0831 152.779 23.1492 152.883C23.2106 152.988 23.237 153.118 23.2232 153.246C23.2093 153.373 23.1563 153.49 23.0748 153.571L21.9341 154.672L21.2026 155.436C21.1808 155.423 21.16 155.408 21.1406 155.39L20.9794 155.543ZM58.8211 155.405C58.7147 155.39 58.6174 155.324 58.5501 155.221C58.4829 155.118 58.4511 154.986 58.4616 154.855C58.5563 153.818 58.7306 152.795 58.9823 151.798C58.9966 151.736 59.0208 151.677 59.0536 151.626C59.0863 151.576 59.127 151.533 59.1731 151.502C59.2193 151.471 59.27 151.451 59.3224 151.444C59.3748 151.437 59.4279 151.443 59.4783 151.462C59.5289 151.479 59.5761 151.509 59.6169 151.55C59.6577 151.59 59.6913 151.641 59.7157 151.698C59.7401 151.756 59.7548 151.818 59.7587 151.883C59.7627 151.947 59.7558 152.012 59.7387 152.073C59.514 152.998 59.3523 153.943 59.2552 154.901C59.2385 154.984 59.2046 155.06 59.1567 155.121C59.1089 155.183 59.0487 155.228 58.9823 155.252L58.8211 155.405ZM74.2579 153.877C74.1569 153.877 74.0595 153.83 73.9858 153.745C73.9121 153.659 73.8675 153.543 73.8612 153.418C73.804 152.479 73.6283 151.556 73.3404 150.683C73.32 150.623 73.3092 150.56 73.3088 150.495C73.3083 150.431 73.3182 150.367 73.3378 150.308C73.3574 150.248 73.3863 150.194 73.4229 150.148C73.4595 150.102 73.5031 150.066 73.5512 150.041C73.5992 150.015 73.6508 150.002 73.703 150.002C73.7552 150.001 73.807 150.013 73.8553 150.037C73.9037 150.061 73.9477 150.097 73.9849 150.142C74.0221 150.187 74.0516 150.241 74.0719 150.3C74.4006 151.273 74.5975 152.306 74.6547 153.357C74.6598 153.423 74.6542 153.489 74.6381 153.551C74.622 153.614 74.5958 153.672 74.561 153.722C74.5263 153.772 74.4837 153.813 74.4359 153.842C74.3881 153.871 74.336 153.888 74.2828 153.892L74.2579 153.877ZM24.9842 151.722C24.9184 151.723 24.8533 151.704 24.7949 151.667C24.7365 151.63 24.6865 151.575 24.6495 151.508C24.5908 151.4 24.5684 151.268 24.5869 151.139C24.6054 151.011 24.6633 150.897 24.7487 150.82C25.4182 150.255 26.1126 149.704 26.7945 149.185C26.8868 149.117 26.997 149.096 27.1014 149.128C27.2058 149.159 27.296 149.24 27.3524 149.353C27.3794 149.408 27.3973 149.469 27.405 149.533C27.4128 149.597 27.4103 149.661 27.3976 149.724C27.3849 149.786 27.3624 149.845 27.3312 149.897C27.3001 149.949 27.2609 149.992 27.2161 150.025C26.5382 150.545 25.8687 151.08 25.2074 151.63C25.1423 151.688 25.0645 151.72 24.9842 151.722ZM60.3215 149.506C60.2685 149.521 60.2132 149.521 60.1603 149.506C60.0623 149.452 59.9853 149.353 59.9459 149.23C59.9065 149.107 59.9078 148.97 59.9495 148.848C60.2595 147.977 60.619 147.06 61.0282 146.143C61.0529 146.085 61.0867 146.034 61.1277 145.993C61.1687 145.951 61.216 145.92 61.2669 145.902C61.3178 145.883 61.3712 145.878 61.4239 145.885C61.4766 145.892 61.5275 145.912 61.5738 145.945C61.6662 146.009 61.7346 146.115 61.7646 146.241C61.7947 146.366 61.7841 146.501 61.735 146.617C61.3382 147.503 60.9786 148.39 60.681 149.246C60.6519 149.335 60.6023 149.411 60.5384 149.465C60.4745 149.519 60.3991 149.549 60.3215 149.551V149.506ZM29.1627 148.665C29.0891 148.667 29.0165 148.644 28.953 148.598C28.8895 148.552 28.8377 148.485 28.8032 148.405C28.754 148.289 28.7434 148.154 28.7734 148.029C28.8035 147.903 28.872 147.797 28.9644 147.733C29.6711 147.259 30.4026 146.8 31.1342 146.357C31.1813 146.329 31.2326 146.312 31.285 146.308C31.3374 146.304 31.39 146.313 31.4396 146.335C31.4892 146.356 31.5349 146.389 31.574 146.432C31.613 146.476 31.6448 146.528 31.6673 146.586C31.6905 146.645 31.704 146.708 31.7071 146.772C31.7103 146.837 31.703 146.902 31.6857 146.963C31.6684 147.024 31.6414 147.08 31.6063 147.129C31.5713 147.177 31.5288 147.216 31.4813 147.244C30.7622 147.672 30.0431 148.13 29.3487 148.604C29.2926 148.645 29.2281 148.667 29.1627 148.665V148.665ZM72.6585 148.283C72.5991 148.282 72.5406 148.265 72.4871 148.233C72.4336 148.202 72.3863 148.156 72.3485 148.1C71.8472 147.377 71.2815 146.726 70.6622 146.158C70.6182 146.122 70.5808 146.075 70.5523 146.02C70.5238 145.964 70.5049 145.903 70.4968 145.838C70.4886 145.773 70.4914 145.707 70.5049 145.644C70.5185 145.581 70.5425 145.522 70.5755 145.471C70.605 145.416 70.6434 145.37 70.6882 145.335C70.7329 145.3 70.783 145.277 70.8354 145.267C70.8878 145.257 70.9413 145.26 70.9926 145.277C71.0439 145.294 71.0918 145.323 71.1334 145.364C71.8082 145.978 72.4239 146.686 72.9685 147.473C73.0391 147.566 73.0783 147.689 73.0783 147.817C73.0783 147.944 73.0391 148.067 72.9685 148.161C72.9137 148.221 72.8472 148.262 72.7754 148.281C72.7037 148.3 72.6291 148.295 72.5593 148.268L72.6585 148.283ZM33.5024 146.067C33.4237 146.062 33.3475 146.031 33.282 145.978C33.2165 145.924 33.1641 145.849 33.1304 145.761C33.11 145.702 33.0992 145.638 33.0988 145.574C33.0983 145.51 33.1082 145.446 33.1278 145.386C33.1473 145.327 33.1763 145.272 33.2129 145.227C33.2495 145.181 33.2931 145.144 33.3412 145.119C34.0975 144.722 34.8539 144.355 35.6102 144.003C35.7106 143.959 35.8212 143.964 35.9185 144.018C36.0158 144.072 36.0921 144.171 36.131 144.294C36.1668 144.42 36.1608 144.558 36.1143 144.678C36.0678 144.798 35.9847 144.891 35.883 144.936C35.139 145.272 34.3951 145.639 33.6636 146.021C33.5933 146.058 33.5156 146.069 33.4404 146.052L33.5024 146.067ZM68.8272 144.722C68.7707 144.744 68.71 144.744 68.6536 144.722C67.9437 144.3 67.2152 143.927 66.4714 143.606C66.4215 143.585 66.3754 143.553 66.3358 143.51C66.2962 143.467 66.264 143.415 66.2409 143.357C66.2178 143.298 66.2044 143.235 66.2014 143.17C66.1984 143.106 66.2059 143.041 66.2234 142.979C66.2401 142.918 66.2666 142.861 66.3014 142.812C66.3361 142.764 66.3783 142.724 66.4256 142.695C66.4729 142.667 66.5243 142.65 66.5769 142.647C66.6294 142.643 66.6821 142.652 66.7317 142.674C67.5094 143.008 68.2711 143.395 69.0132 143.835C69.1077 143.897 69.1788 144.002 69.2112 144.128C69.2437 144.254 69.2349 144.39 69.1868 144.508C69.1412 144.59 69.0765 144.653 69.0011 144.688C68.9258 144.724 68.8435 144.73 68.7652 144.707L68.8272 144.722ZM62.6277 144.309C62.5523 144.315 62.4777 144.288 62.4169 144.233C62.3717 144.2 62.3325 144.156 62.3016 144.104C62.2707 144.052 62.2488 143.992 62.2372 143.929C62.2255 143.866 62.2245 143.801 62.2341 143.738C62.2436 143.674 62.2636 143.614 62.2929 143.56C62.4912 143.163 62.702 142.781 62.9128 142.368L61.8094 142.093C61.7058 142.071 61.6137 141.998 61.5533 141.892C61.4928 141.786 61.469 141.655 61.487 141.527C61.4959 141.463 61.5152 141.401 61.544 141.346C61.5727 141.29 61.6102 141.243 61.6541 141.205C61.6981 141.168 61.7477 141.143 61.7999 141.13C61.8521 141.117 61.906 141.117 61.9581 141.13C62.4417 141.237 62.9252 141.359 63.3964 141.497L63.6444 141.069C63.6742 141.015 63.7124 140.969 63.7567 140.934C63.801 140.899 63.8506 140.875 63.9025 140.863C63.9545 140.852 64.0078 140.853 64.0593 140.868C64.1107 140.882 64.1594 140.909 64.2024 140.947C64.2459 140.983 64.2831 141.03 64.3118 141.085C64.3404 141.14 64.3599 141.201 64.3692 141.265C64.3784 141.329 64.3771 141.395 64.3655 141.458C64.3539 141.522 64.3322 141.582 64.3016 141.634L64.2395 141.741H64.3387C64.4422 141.777 64.5307 141.861 64.586 141.974C64.6413 142.088 64.6593 142.223 64.6363 142.353C64.6046 142.478 64.5361 142.583 64.4441 142.648C64.3522 142.713 64.2438 142.733 64.1404 142.704L63.756 142.597C63.4708 143.086 63.2104 143.591 62.9625 144.126C62.9234 144.183 62.8737 144.228 62.8177 144.258C62.7616 144.287 62.7008 144.299 62.6401 144.294L62.6277 144.309ZM38.0032 143.988C37.918 143.993 37.8339 143.962 37.7643 143.901C37.6947 143.84 37.6436 143.753 37.6189 143.652C37.5874 143.526 37.597 143.39 37.6456 143.273C37.6943 143.156 37.7781 143.067 37.8793 143.025C38.648 142.735 39.4415 142.445 40.2226 142.2C40.2731 142.182 40.3261 142.176 40.3784 142.184C40.4306 142.192 40.481 142.213 40.5263 142.246C40.5716 142.279 40.611 142.323 40.6419 142.376C40.6729 142.428 40.6948 142.488 40.7062 142.552C40.7193 142.614 40.7222 142.678 40.715 142.742C40.7077 142.806 40.6903 142.867 40.6638 142.922C40.6373 142.978 40.6023 143.026 40.5606 143.065C40.5189 143.103 40.4715 143.132 40.421 143.148C39.6523 143.392 38.8835 143.683 38.1148 143.973L38.0032 143.988ZM42.6653 142.46C42.5732 142.461 42.4837 142.422 42.4132 142.349C42.3426 142.276 42.2957 142.174 42.2809 142.062C42.27 141.999 42.2694 141.934 42.2792 141.87C42.2889 141.807 42.3088 141.746 42.3376 141.692C42.3664 141.638 42.4036 141.592 42.4471 141.556C42.4906 141.52 42.5395 141.494 42.5909 141.482C43.3844 141.268 44.1903 141.084 44.9839 140.931C45.0875 140.909 45.1939 140.939 45.2799 141.013C45.3659 141.088 45.4245 141.201 45.4426 141.329C45.4533 141.393 45.4529 141.46 45.4415 141.524C45.4301 141.589 45.408 141.649 45.3765 141.703C45.345 141.756 45.3048 141.8 45.2586 141.833C45.2123 141.866 45.161 141.887 45.1078 141.894C44.3267 142.062 43.5332 142.246 42.7521 142.445L42.6653 142.46ZM59.4907 141.619C58.7096 141.482 57.9036 141.375 57.1101 141.298C57.0037 141.287 56.9053 141.224 56.8358 141.124C56.7663 141.024 56.7312 140.895 56.7381 140.763C56.7428 140.699 56.7578 140.636 56.7822 140.579C56.8065 140.522 56.8398 140.471 56.8802 140.43C56.9205 140.389 56.9671 140.358 57.0172 140.339C57.0673 140.32 57.12 140.314 57.1721 140.32C57.9781 140.32 58.7964 140.503 59.6519 140.641C59.7038 140.648 59.7539 140.669 59.7991 140.701C59.8444 140.733 59.884 140.776 59.9153 140.827C59.9466 140.879 59.9691 140.938 59.9814 141C59.9936 141.063 59.9954 141.128 59.9867 141.191C59.9822 141.265 59.964 141.337 59.9336 141.402C59.9032 141.466 59.8613 141.521 59.8111 141.562C59.7609 141.603 59.7037 141.63 59.6438 141.64C59.584 141.65 59.5232 141.643 59.4659 141.619H59.4907ZM47.4389 141.497C47.3398 141.497 47.2441 141.452 47.1707 141.37C47.0972 141.288 47.0514 141.175 47.0421 141.054C47.0316 140.926 47.0621 140.799 47.127 140.699C47.1919 140.599 47.2861 140.534 47.3893 140.519C48.1952 140.397 49.0136 140.305 49.8691 140.244C49.9212 140.239 49.9735 140.248 50.0229 140.269C50.0724 140.29 50.118 140.322 50.1571 140.365C50.1963 140.408 50.2283 140.459 50.2512 140.517C50.2741 140.575 50.2875 140.638 50.2906 140.702C50.2957 140.767 50.29 140.832 50.2738 140.894C50.2576 140.956 50.2312 141.013 50.1963 141.062C50.1614 141.11 50.1188 141.15 50.071 141.177C50.0232 141.205 49.9714 141.22 49.9187 141.222C49.1251 141.298 48.3192 141.375 47.5381 141.497H47.4389ZM54.6799 141.13C53.874 141.13 53.0804 141.13 52.2745 141.13C52.223 141.132 52.1717 141.121 52.1236 141.099C52.0755 141.076 52.0317 141.041 51.9946 140.997C51.9576 140.953 51.9282 140.9 51.9082 140.841C51.8881 140.783 51.8777 140.72 51.8777 140.656C51.8761 140.592 51.8847 140.528 51.9032 140.468C51.9216 140.408 51.9494 140.353 51.9851 140.306C52.0208 140.259 52.0637 140.221 52.1112 140.195C52.1587 140.169 52.21 140.154 52.2621 140.152C53.0804 140.152 53.8864 140.152 54.7419 140.152C54.7951 140.154 54.8475 140.169 54.8958 140.196C54.9442 140.224 54.9876 140.263 55.0235 140.311C55.0594 140.36 55.0869 140.417 55.1045 140.479C55.1222 140.54 55.1296 140.606 55.1263 140.672C55.1237 140.742 55.1089 140.81 55.083 140.873C55.057 140.935 55.0204 140.99 54.9757 141.034C54.931 141.077 54.8793 141.108 54.8239 141.125C54.7686 141.142 54.711 141.143 54.6551 141.13H54.6799ZM65.405 139.434C65.3147 139.435 65.227 139.397 65.1571 139.327C65.0837 139.235 65.0425 139.112 65.0425 138.983C65.0425 138.854 65.0837 138.73 65.1571 138.639C65.6531 137.844 66.1738 137.11 66.6946 136.3C66.7688 136.21 66.8691 136.159 66.9735 136.159C67.078 136.159 67.1782 136.21 67.2525 136.3C67.3267 136.395 67.3683 136.521 67.3683 136.652C67.3683 136.783 67.3267 136.909 67.2525 137.003C66.7441 137.737 66.2234 138.532 65.7398 139.281C65.7006 139.352 65.6466 139.41 65.5835 139.448C65.5203 139.485 65.4502 139.501 65.3803 139.495L65.405 139.434ZM68.5544 134.848C68.5039 134.849 68.4537 134.837 68.4069 134.813C68.36 134.79 68.3175 134.755 68.2816 134.711C68.2437 134.667 68.2135 134.613 68.1929 134.554C68.1723 134.495 68.1617 134.431 68.1617 134.367C68.1617 134.303 68.1723 134.239 68.1929 134.18C68.2135 134.121 68.2437 134.067 68.2816 134.023C68.8396 133.29 69.4223 132.586 70.0175 131.914C70.0534 131.867 70.0967 131.83 70.1446 131.805C70.1926 131.779 70.2442 131.766 70.2964 131.766C70.3487 131.766 70.4004 131.779 70.4483 131.805C70.4963 131.83 70.5396 131.867 70.5755 131.914C70.6137 131.96 70.6441 132.014 70.6648 132.075C70.6856 132.135 70.6963 132.2 70.6963 132.265C70.6963 132.331 70.6856 132.396 70.6648 132.456C70.6441 132.517 70.6137 132.571 70.5755 132.617C69.9927 133.274 69.4224 133.977 68.8644 134.68C68.8318 134.754 68.783 134.814 68.7238 134.854C68.6646 134.895 68.5973 134.914 68.5296 134.91L68.5544 134.848ZM72.0881 130.798C71.9709 130.795 71.8595 130.734 71.7781 130.63C71.7039 130.536 71.6624 130.41 71.6624 130.279C71.6624 130.147 71.7039 130.021 71.7781 129.927C72.4105 129.285 73.018 128.674 73.7124 128.093C73.7554 128.055 73.804 128.028 73.8555 128.014C73.907 128 73.9603 127.998 74.0122 128.01C74.0642 128.021 74.1137 128.045 74.158 128.08C74.2024 128.116 74.2406 128.162 74.2704 128.215C74.3016 128.267 74.3242 128.326 74.3367 128.389C74.3493 128.452 74.3516 128.517 74.3435 128.581C74.3355 128.645 74.3172 128.707 74.2897 128.762C74.2623 128.817 74.2262 128.865 74.1836 128.903C73.5388 129.474 72.9065 130.07 72.2865 130.691C72.2304 130.778 72.1513 130.837 72.0633 130.859L72.0881 130.798ZM76.0186 127.344C75.9516 127.344 75.8858 127.323 75.8273 127.283C75.7687 127.242 75.7194 127.185 75.6839 127.115C75.6276 127.003 75.6091 126.868 75.6322 126.74C75.6554 126.611 75.7184 126.499 75.8078 126.427C76.5022 125.907 77.2213 125.403 77.9405 124.899C78.0361 124.839 78.1467 124.828 78.2487 124.868C78.3506 124.908 78.4359 124.996 78.4861 125.113C78.5337 125.228 78.5421 125.362 78.5095 125.485C78.477 125.609 78.4061 125.711 78.3124 125.77C77.6057 126.228 76.9114 126.717 76.2294 127.298C76.198 127.335 76.1608 127.363 76.1204 127.381C76.0799 127.4 76.0369 127.408 75.9938 127.405L76.0186 127.344ZM80.3087 124.593C80.2303 124.595 80.1532 124.569 80.087 124.517C80.0208 124.466 79.9685 124.391 79.9367 124.303C79.9163 124.243 79.9055 124.18 79.9051 124.115C79.9046 124.051 79.9145 123.987 79.9341 123.928C79.9536 123.868 79.9826 123.814 80.0192 123.768C80.0558 123.722 80.0994 123.686 80.1475 123.661C80.8914 123.263 81.6602 122.896 82.4289 122.56C82.4786 122.539 82.5311 122.529 82.5837 122.533C82.6362 122.537 82.6877 122.553 82.735 122.582C82.7824 122.61 82.8246 122.65 82.8593 122.699C82.894 122.748 82.9205 122.804 82.9373 122.866C82.9548 122.927 82.9623 122.992 82.9593 123.057C82.9563 123.122 82.9429 123.185 82.9198 123.243C82.8967 123.302 82.8644 123.354 82.8249 123.396C82.7853 123.439 82.7392 123.472 82.6893 123.493C81.9453 123.813 81.189 124.18 80.4699 124.562C80.4152 124.612 80.3512 124.644 80.2838 124.654L80.3087 124.593ZM111.182 123.37H111.095L108.74 122.759C108.687 122.748 108.637 122.724 108.592 122.689C108.547 122.653 108.509 122.607 108.478 122.553C108.448 122.499 108.427 122.438 108.417 122.373C108.406 122.309 108.406 122.242 108.417 122.178C108.441 122.052 108.503 121.942 108.591 121.871C108.679 121.8 108.785 121.773 108.888 121.796C109.682 121.979 110.475 122.193 111.269 122.407C111.371 122.437 111.46 122.513 111.518 122.621C111.576 122.73 111.598 122.861 111.579 122.988C111.564 123.112 111.513 123.226 111.436 123.307C111.358 123.389 111.259 123.433 111.157 123.431L111.182 123.37ZM84.8715 122.637C84.7814 122.64 84.693 122.606 84.6209 122.539C84.5488 122.472 84.4972 122.377 84.4747 122.27C84.4617 122.208 84.4587 122.143 84.466 122.079C84.4733 122.016 84.4906 121.954 84.5171 121.899C84.5436 121.844 84.5787 121.795 84.6203 121.757C84.662 121.718 84.7095 121.69 84.7599 121.674C85.5411 121.414 86.3346 121.169 87.1405 120.971C87.2456 120.948 87.3536 120.977 87.4416 121.051C87.5296 121.126 87.5907 121.239 87.6117 121.368C87.6303 121.495 87.6086 121.627 87.5509 121.735C87.4932 121.843 87.404 121.92 87.3017 121.949C86.5082 122.132 85.7271 122.362 84.9707 122.621L84.8715 122.637ZM106.446 122.209H106.371C105.545 122.035 104.751 121.883 103.991 121.75C103.886 121.728 103.793 121.656 103.731 121.551C103.668 121.445 103.642 121.314 103.656 121.185C103.662 121.121 103.678 121.059 103.704 121.003C103.73 120.947 103.765 120.899 103.807 120.86C103.849 120.821 103.897 120.794 103.947 120.779C103.998 120.763 104.051 120.761 104.102 120.772C104.908 120.91 105.702 121.062 106.508 121.231C106.611 121.253 106.703 121.325 106.764 121.431C106.824 121.537 106.848 121.668 106.83 121.796C106.83 121.861 106.82 121.925 106.799 121.985C106.778 122.044 106.747 122.098 106.709 122.142C106.671 122.187 106.625 122.221 106.576 122.243C106.526 122.265 106.474 122.274 106.421 122.27L106.446 122.209ZM89.5955 121.46C89.4991 121.458 89.4063 121.413 89.3338 121.335C89.2612 121.257 89.2133 121.149 89.1987 121.032C89.1918 120.968 89.1954 120.902 89.2091 120.84C89.2229 120.777 89.2466 120.718 89.2789 120.667C89.3112 120.616 89.3515 120.573 89.3973 120.541C89.4432 120.509 89.4937 120.489 89.546 120.482C90.3395 120.344 91.1578 120.237 92.0258 120.161C92.0772 120.154 92.1292 120.161 92.1785 120.18C92.2279 120.199 92.2737 120.23 92.313 120.272C92.3524 120.313 92.3846 120.364 92.4077 120.421C92.4308 120.478 92.4442 120.54 92.4473 120.604C92.4524 120.668 92.4472 120.733 92.4318 120.795C92.4165 120.857 92.3914 120.914 92.358 120.964C92.3246 121.013 92.2834 121.055 92.237 121.085C92.1907 121.115 92.1399 121.133 92.0877 121.139C91.2818 121.215 90.4759 121.322 89.7071 121.46H89.5955ZM101.66 121.383C100.866 121.276 100.06 121.2 99.2667 121.124C99.2146 121.12 99.1636 121.103 99.1167 121.075C99.0697 121.047 99.0278 121.007 98.9932 120.959C98.9587 120.911 98.9322 120.854 98.9153 120.794C98.8984 120.733 98.8914 120.668 98.8948 120.604C98.8979 120.538 98.9117 120.474 98.9353 120.415C98.959 120.356 98.9922 120.304 99.0327 120.261C99.0732 120.218 99.1203 120.186 99.1712 120.166C99.222 120.146 99.2757 120.139 99.3288 120.145C100.135 120.145 100.941 120.298 101.809 120.405C101.861 120.411 101.912 120.429 101.958 120.459C102.004 120.489 102.045 120.531 102.079 120.58C102.112 120.63 102.137 120.687 102.153 120.749C102.168 120.811 102.173 120.876 102.168 120.94C102.174 121.023 102.164 121.106 102.137 121.181C102.11 121.257 102.068 121.324 102.015 121.374C101.961 121.424 101.899 121.457 101.832 121.47C101.766 121.482 101.698 121.473 101.635 121.444L101.66 121.383ZM94.4188 120.986C94.3144 120.986 94.2139 120.937 94.1378 120.849C94.0618 120.761 94.0159 120.641 94.0096 120.512C94.0079 120.447 94.0169 120.381 94.0361 120.32C94.0553 120.259 94.0843 120.203 94.1213 120.156C94.1584 120.109 94.2026 120.072 94.2516 120.046C94.3006 120.021 94.3532 120.008 94.4063 120.008C95.2123 120.008 96.0306 120.008 96.8862 120.008C96.9393 120.008 96.9919 120.021 97.0409 120.046C97.0899 120.072 97.1342 120.109 97.1712 120.156C97.2082 120.203 97.2372 120.259 97.2564 120.32C97.2756 120.381 97.2846 120.447 97.2829 120.512C97.2797 120.639 97.2365 120.76 97.1625 120.848C97.0884 120.937 96.9893 120.986 96.8862 120.986H94.4683H94.4188Z" fill="#999999"/>
<path d="M156.363 41.4651L159.859 43.3297L173.833 31.3166L177.553 33.8537C180.541 36.0546 183.442 36.2074 184.831 35.2293L185.116 35.3974C187.274 36.559 188.551 35.5197 188.985 34.2664C189.419 33.0131 189.171 31.2096 187.013 30.0175L186.728 29.8646C186.468 28.3362 185.339 25.7686 180.938 24.2555L176.883 22.6506L174.403 1.87989L170.907 0L168.191 19.2424L158.198 15.024L156.685 10.0873L153.908 8.81877L153.709 13.4039L152.718 13.2969L151.812 15.8494L152.556 16.7511L149.928 20.1136L152.581 21.7489L156.524 19.7315L165.86 25.845L156.363 41.4651ZM156.623 18.6157L152.655 20.6485L151.416 19.8537L153.821 16.7969L152.916 15.666L153.337 14.4585L154.577 14.5961L154.763 10.3166L156.115 10.928L157.627 15.8799L168.935 20.6332L171.626 1.51309L173.721 2.62883L176.139 23.476L180.714 25.2795C184.98 26.7314 185.823 29.0852 185.947 30.3537V30.6747L186.195 30.7817C186.352 30.837 186.506 30.9086 186.654 30.9957C187.98 31.6987 188.575 32.8144 188.191 33.8843C187.807 34.9542 186.753 35.1987 185.426 34.4804C185.277 34.4061 185.132 34.3192 184.992 34.2205L184.757 34.0524L184.533 34.2511C183.628 35.0765 180.987 35.2293 177.937 32.9979L173.771 30.1245L159.76 42.1834L157.665 41.0677L167.162 25.5699L156.623 18.6157Z" fill="#999999"/>
<path d="M36.3621 169.741C36.2949 169.742 36.2286 169.721 36.1699 169.681C36.1111 169.641 36.062 169.582 36.0273 169.511C35.5809 168.676 35.1676 167.835 34.7874 166.99C34.7312 166.878 34.7127 166.743 34.7359 166.615C34.759 166.486 34.822 166.374 34.9114 166.302C35.0037 166.234 35.114 166.213 35.2184 166.245C35.3228 166.276 35.4129 166.357 35.4694 166.47C35.891 167.311 36.3125 168.136 36.7093 168.977C36.7394 169.03 36.7603 169.091 36.771 169.155C36.7816 169.219 36.7818 169.285 36.7714 169.349C36.761 169.414 36.7402 169.474 36.7104 169.529C36.6805 169.583 36.6422 169.629 36.5977 169.664C36.5253 169.713 36.4445 169.739 36.3621 169.741V169.741ZM33.8823 164.666C33.8123 164.666 33.7436 164.643 33.6828 164.6C33.622 164.557 33.5712 164.496 33.5352 164.422C33.1384 163.551 32.7416 162.68 32.2953 161.808C32.2451 161.694 32.2325 161.561 32.2602 161.435C32.2879 161.31 32.3538 161.203 32.444 161.136C32.5381 161.075 32.6476 161.062 32.7494 161.099C32.8512 161.136 32.9373 161.221 32.9896 161.335C33.374 162.206 33.7707 163.062 34.1674 163.918C34.2225 164.031 34.2391 164.167 34.2136 164.296C34.1881 164.425 34.1225 164.536 34.0311 164.605C33.9665 164.649 33.8937 164.67 33.8203 164.666H33.8823ZM31.5761 159.439C31.5015 159.438 31.4286 159.412 31.3652 159.364C31.3018 159.315 31.2504 159.246 31.2165 159.164C30.8445 158.278 30.4849 157.376 30.1378 156.49C30.1146 156.431 30.1011 156.368 30.098 156.304C30.0948 156.239 30.1021 156.174 30.1194 156.113C30.1367 156.052 30.1637 155.996 30.1988 155.947C30.2338 155.899 30.2763 155.86 30.3238 155.832C30.3709 155.804 30.4222 155.787 30.4747 155.783C30.5271 155.779 30.5796 155.788 30.6292 155.81C30.6788 155.831 30.7244 155.864 30.7635 155.908C30.8026 155.951 30.8344 156.003 30.8569 156.062C31.2041 156.948 31.5637 157.835 31.9356 158.721C31.9588 158.779 31.9724 158.842 31.9755 158.907C31.9787 158.972 31.9714 159.036 31.9541 159.098C31.9368 159.159 31.9098 159.215 31.8747 159.263C31.8396 159.311 31.7971 159.35 31.7497 159.378C31.7164 159.409 31.6781 159.43 31.6374 159.441C31.5967 159.452 31.5546 159.451 31.5141 159.439H31.5761ZM29.4807 154.059C29.403 154.058 29.3271 154.03 29.2615 153.979C29.1958 153.928 29.143 153.855 29.1087 153.769L28.1415 151.033C28.1006 150.91 28.1011 150.771 28.1429 150.648C28.1847 150.525 28.2645 150.427 28.3647 150.376C28.4635 150.33 28.5729 150.333 28.67 150.385C28.767 150.436 28.8443 150.531 28.8855 150.651C29.1955 151.553 29.5178 152.455 29.8402 153.372C29.8627 153.43 29.8755 153.493 29.8777 153.557C29.8798 153.621 29.8713 153.685 29.8528 153.745C29.8342 153.805 29.8059 153.86 29.7697 153.906C29.7334 153.952 29.6899 153.989 29.6418 154.014C29.5729 154.056 29.4951 154.072 29.4187 154.059H29.4807ZM27.6084 148.573C27.529 148.572 27.4516 148.542 27.3855 148.488C27.3195 148.434 27.2677 148.357 27.2364 148.267C26.9389 147.319 26.6537 146.387 26.3685 145.455C26.3509 145.393 26.3435 145.329 26.3465 145.264C26.3495 145.199 26.3629 145.136 26.386 145.077C26.409 145.019 26.4413 144.967 26.4809 144.924C26.5204 144.881 26.5666 144.849 26.6165 144.828C26.7153 144.788 26.8229 144.795 26.9173 144.849C27.0117 144.903 27.0859 144.999 27.1248 145.118C27.3976 146.051 27.6828 146.968 27.9803 147.9C28.0175 148.022 28.0151 148.157 27.9735 148.276C27.9319 148.396 27.8544 148.491 27.7572 148.542L27.6084 148.573ZM25.9469 142.979C25.8642 142.977 25.7839 142.944 25.7172 142.884C25.6505 142.824 25.6008 142.739 25.5749 142.642C25.3022 141.695 25.0542 140.747 24.8186 139.8C24.7872 139.674 24.7968 139.538 24.8454 139.421C24.894 139.304 24.9779 139.215 25.079 139.173C25.181 139.134 25.2912 139.146 25.3861 139.206C25.4811 139.266 25.5533 139.369 25.5873 139.494C25.8229 140.442 26.0709 141.374 26.3313 142.321C26.3627 142.447 26.3531 142.583 26.3045 142.7C26.2558 142.817 26.172 142.906 26.0709 142.948L25.9469 142.979ZM24.5086 137.293C24.4212 137.291 24.3366 137.254 24.2674 137.188C24.1983 137.122 24.1481 137.03 24.1243 136.926C23.9011 135.963 23.6779 135 23.4795 134.053C23.4528 133.925 23.4677 133.79 23.521 133.676C23.5743 133.561 23.6618 133.477 23.7647 133.442C23.8152 133.425 23.8677 133.422 23.9193 133.431C23.971 133.44 24.0206 133.461 24.0655 133.494C24.1104 133.526 24.1498 133.57 24.1811 133.621C24.2124 133.672 24.2352 133.731 24.2482 133.793C24.459 134.741 24.6698 135.704 24.893 136.651C24.9081 136.713 24.9131 136.779 24.9075 136.843C24.902 136.908 24.886 136.97 24.8606 137.027C24.8352 137.084 24.8009 137.134 24.7596 137.175C24.7183 137.215 24.671 137.245 24.6203 137.262L24.5086 137.293ZM23.2687 131.531C23.1796 131.528 23.0939 131.489 23.0245 131.42C22.9551 131.351 22.9059 131.256 22.8844 131.149C22.6984 130.171 22.5124 129.193 22.3512 128.23C22.3384 128.167 22.3361 128.103 22.3443 128.039C22.3524 127.976 22.3711 127.915 22.3989 127.861C22.4267 127.806 22.4632 127.76 22.5062 127.723C22.5492 127.687 22.5977 127.662 22.6488 127.649C22.7001 127.633 22.7534 127.63 22.8057 127.64C22.858 127.65 22.9082 127.673 22.9532 127.707C22.9983 127.741 23.0374 127.786 23.0681 127.839C23.0989 127.892 23.1207 127.952 23.1324 128.016C23.2935 128.979 23.4795 129.942 23.6655 130.92C23.6881 131.047 23.6697 131.181 23.6142 131.292C23.5587 131.403 23.4705 131.483 23.3679 131.516L23.2687 131.531ZM22.252 125.693C22.1585 125.695 22.0674 125.656 21.9948 125.583C21.9222 125.51 21.8727 125.409 21.8552 125.295C21.7064 124.317 21.5577 123.339 21.4213 122.361C21.4033 122.233 21.4271 122.102 21.4876 121.996C21.548 121.89 21.6401 121.818 21.7437 121.795C21.7959 121.782 21.8497 121.782 21.9019 121.795C21.9541 121.808 22.0037 121.834 22.0477 121.871C22.0916 121.908 22.1291 121.955 22.1578 122.011C22.1865 122.066 22.2059 122.128 22.2148 122.193C22.3512 123.155 22.4876 124.134 22.6488 125.112C22.6595 125.176 22.6597 125.242 22.6492 125.307C22.6386 125.371 22.6177 125.432 22.5876 125.487C22.5575 125.541 22.5189 125.587 22.474 125.622C22.4292 125.658 22.3789 125.682 22.3264 125.693H22.252ZM21.4337 119.824C21.3377 119.828 21.2437 119.789 21.1703 119.712C21.0968 119.636 21.0492 119.528 21.0369 119.411C20.9129 118.417 20.8013 117.424 20.7021 116.446C20.6952 116.382 20.6987 116.316 20.7125 116.254C20.7262 116.191 20.75 116.132 20.7823 116.081C20.8146 116.03 20.8548 115.987 20.9006 115.955C20.9465 115.923 20.9971 115.903 21.0493 115.896C21.1017 115.885 21.1554 115.888 21.2069 115.904C21.2584 115.92 21.3067 115.949 21.3486 115.989C21.3906 116.029 21.4253 116.08 21.4506 116.137C21.4759 116.195 21.4913 116.258 21.4957 116.324C21.5949 117.281 21.7065 118.26 21.8305 119.258C21.8449 119.387 21.8181 119.519 21.7556 119.624C21.6932 119.73 21.6 119.801 21.4957 119.824H21.4337ZM20.8262 113.909C20.7263 113.913 20.6289 113.869 20.5549 113.786C20.4808 113.704 20.4358 113.589 20.4294 113.466C20.3426 112.472 20.2558 111.479 20.1938 110.5C20.1869 110.369 20.2219 110.24 20.2914 110.14C20.3609 110.04 20.4594 109.977 20.5658 109.966C20.6176 109.957 20.6703 109.962 20.7204 109.98C20.7706 109.998 20.817 110.029 20.8568 110.071C20.8966 110.113 20.9288 110.165 20.9513 110.223C20.9737 110.281 20.986 110.344 20.9873 110.409C21.0617 111.387 21.1361 112.38 21.2229 113.374C21.228 113.438 21.2228 113.503 21.2074 113.565C21.1921 113.627 21.167 113.684 21.1336 113.734C21.1001 113.783 21.059 113.824 21.0126 113.855C20.9663 113.885 20.9155 113.903 20.8633 113.909H20.8262ZM20.417 107.979C20.3159 107.979 20.2186 107.932 20.1448 107.846C20.0711 107.761 20.0265 107.644 20.0202 107.52C20.0202 106.496 19.921 105.503 19.8962 104.463C19.8929 104.398 19.9002 104.332 19.9179 104.27C19.9355 104.208 19.9631 104.152 19.999 104.103C20.0349 104.055 20.0783 104.015 20.1267 103.988C20.175 103.961 20.2274 103.946 20.2806 103.944C20.3847 103.95 20.4838 104 20.5608 104.087C20.6378 104.173 20.6878 104.29 20.7021 104.417C20.7021 105.396 20.7022 106.389 20.8137 107.383C20.8206 107.514 20.7855 107.643 20.716 107.743C20.6465 107.843 20.5481 107.906 20.4417 107.917L20.417 107.979ZM20.231 102.018C20.1257 102.018 20.0248 101.966 19.9504 101.875C19.876 101.783 19.8342 101.659 19.8342 101.529C19.8342 100.826 19.8342 100.138 19.8342 99.4502V98.5485C19.8342 98.4188 19.876 98.2944 19.9504 98.2026C20.0248 98.1109 20.1257 98.0594 20.231 98.0594V98.0594C20.3362 98.0594 20.4371 98.1109 20.5115 98.2026C20.5859 98.2944 20.6277 98.4188 20.6277 98.5485V99.4502C20.6277 100.138 20.6277 100.826 20.6277 101.514C20.6294 101.579 20.6204 101.644 20.6012 101.705C20.582 101.767 20.553 101.822 20.516 101.869C20.479 101.916 20.4347 101.954 20.3857 101.979C20.3368 102.005 20.2841 102.018 20.231 102.018V102.018ZM20.231 96.0572C20.1778 96.0572 20.1252 96.0441 20.0762 96.0186C20.0272 95.993 19.983 95.9557 19.946 95.9086C19.9089 95.8616 19.8799 95.8058 19.8607 95.7447C19.8415 95.6836 19.8325 95.6183 19.8342 95.5528C19.8342 94.5288 19.9086 93.5354 19.9458 92.4961C19.9553 92.3649 20.006 92.2436 20.0871 92.1579C20.1682 92.0723 20.2732 92.0291 20.3797 92.0375C20.4319 92.0414 20.4829 92.058 20.5298 92.0862C20.5767 92.1145 20.6188 92.1539 20.6533 92.2022C20.6879 92.2504 20.7144 92.3067 20.7313 92.3676C20.7482 92.4285 20.7551 92.4929 20.7517 92.5572C20.7517 93.5201 20.6649 94.5135 20.6401 95.5223C20.6459 95.5943 20.6387 95.667 20.619 95.7351C20.5992 95.8033 20.5674 95.8652 20.5259 95.9164C20.4844 95.9675 20.4341 96.0067 20.3788 96.031C20.3235 96.0554 20.2646 96.0643 20.2062 96.0572H20.231ZM20.5162 90.1118C20.464 90.106 20.4132 90.0876 20.3668 90.0575C20.3204 90.0275 20.2794 89.9864 20.2459 89.9367C20.2125 89.887 20.1874 89.8295 20.1721 89.7678C20.1567 89.706 20.1514 89.6411 20.1566 89.5768C20.231 88.5579 20.3178 87.539 20.417 86.5201C20.4214 86.4548 20.4367 86.3914 20.462 86.3338C20.4873 86.2762 20.5221 86.2257 20.564 86.1855C20.606 86.1452 20.6542 86.1162 20.7058 86.1001C20.7573 86.0841 20.8109 86.0813 20.8633 86.0921C20.9675 86.1111 21.0618 86.1789 21.1264 86.2814C21.1911 86.3839 21.2212 86.5132 21.2105 86.6423C21.1113 87.5747 21.0245 88.5681 20.9501 89.5921C20.9551 89.6674 20.9458 89.743 20.9231 89.8131C20.9004 89.8832 20.8648 89.9458 20.8192 89.9962C20.7736 90.0465 20.7191 90.0831 20.66 90.1032C20.601 90.1232 20.5391 90.1262 20.479 90.1118H20.5162ZM21.1113 84.1969C21.0078 84.1746 20.9157 84.1024 20.8552 83.9964C20.7948 83.8904 20.7709 83.7591 20.7889 83.6314L20.8633 83.0354C20.9749 82.2559 21.0989 81.507 21.2229 80.6817C21.2332 80.6183 21.2537 80.558 21.283 80.5045C21.3124 80.4509 21.35 80.405 21.3938 80.3694C21.4376 80.3339 21.4868 80.3094 21.5383 80.2974C21.5898 80.2854 21.6427 80.2862 21.694 80.2996C21.7463 80.3103 21.7962 80.3342 21.8405 80.3698C21.8849 80.4054 21.9228 80.452 21.9519 80.5065C21.981 80.561 22.0007 80.6224 22.0097 80.6867C22.0186 80.751 22.0167 80.817 22.004 80.8803C21.88 81.6598 21.7685 82.4087 21.6569 83.2035L21.5701 83.7843C21.5648 83.853 21.5474 83.9195 21.5191 83.9791C21.4908 84.0387 21.4522 84.09 21.4062 84.1293C21.3601 84.1686 21.3076 84.195 21.2524 84.2067C21.1972 84.2184 21.1406 84.2151 21.0865 84.1969H21.1113ZM22.0661 78.3585H21.9793C21.9281 78.3459 21.8796 78.3207 21.8366 78.2843C21.7936 78.2479 21.7571 78.2012 21.7293 78.1468C21.7015 78.0925 21.6829 78.0318 21.6747 77.9683C21.6665 77.9049 21.6688 77.84 21.6816 77.7777C21.8676 76.7995 22.0536 75.8367 22.2644 74.8585C22.2787 74.796 22.3029 74.7375 22.3356 74.6867C22.3684 74.6358 22.409 74.5935 22.4552 74.5622C22.5014 74.5309 22.5521 74.5112 22.6045 74.5044C22.6569 74.4975 22.7099 74.5036 22.7604 74.5223C22.8109 74.5383 22.8583 74.5664 22.9 74.605C22.9416 74.6437 22.9767 74.6921 23.0032 74.7474C23.0297 74.8028 23.0471 74.864 23.0543 74.9277C23.0616 74.9913 23.0586 75.0561 23.0456 75.1183C22.8348 76.0812 22.6364 77.0288 22.4628 77.9917C22.4374 78.1032 22.3816 78.2005 22.3048 78.2673C22.2281 78.3341 22.135 78.3663 22.0412 78.3585H22.0661ZM23.306 72.6118H23.1943C23.1436 72.5942 23.0962 72.5644 23.0549 72.524C23.0137 72.4836 22.9794 72.4335 22.954 72.3766C22.9286 72.3197 22.9126 72.2571 22.9071 72.1925C22.9015 72.1279 22.9064 72.0626 22.9215 72.0004C23.1571 71.0375 23.4051 70.0899 23.6655 69.1423C23.6822 69.0808 23.7087 69.024 23.7435 68.9752C23.7782 68.9265 23.8204 68.8867 23.8677 68.8582C23.915 68.8298 23.9665 68.8132 24.0191 68.8095C24.0716 68.8058 24.1242 68.815 24.1738 68.8367C24.2237 68.8573 24.2699 68.8899 24.3094 68.9327C24.349 68.9755 24.3813 69.0276 24.4043 69.0859C24.4274 69.1443 24.4408 69.2077 24.4439 69.2724C24.4469 69.3372 24.4394 69.4021 24.4218 69.4633C24.1615 70.3956 23.9259 71.3432 23.6903 72.2908C23.6611 72.3899 23.6066 72.4746 23.5351 72.5325C23.4636 72.5903 23.3789 72.6181 23.2936 72.6118H23.306ZM24.8558 66.9567C24.8111 66.971 24.7641 66.971 24.7194 66.9567C24.6208 66.912 24.5407 66.8209 24.4965 66.7034C24.4524 66.586 24.4478 66.4517 24.4838 66.3301C24.769 65.3978 25.0666 64.4655 25.389 63.5484C25.4081 63.4878 25.4368 63.4325 25.4734 63.3858C25.5101 63.339 25.554 63.3017 25.6025 63.2761C25.651 63.2505 25.7031 63.237 25.7559 63.2366C25.8086 63.2361 25.8609 63.2486 25.9097 63.2733C25.9578 63.2984 26.0014 63.3348 26.038 63.3807C26.0746 63.4265 26.1036 63.4808 26.1231 63.5404C26.1427 63.6 26.1526 63.6638 26.1521 63.7281C26.1517 63.7925 26.1409 63.8561 26.1205 63.9153C25.8105 64.8323 25.513 65.7493 25.2402 66.6816C25.2036 66.7708 25.1463 66.8445 25.0757 66.8935C25.005 66.9425 24.9242 66.9645 24.8434 66.9567H24.8558ZM26.6785 61.5463C26.6212 61.5607 26.5621 61.5607 26.5049 61.5463C26.4091 61.4898 26.3349 61.3897 26.2979 61.2671C26.2609 61.1445 26.264 61.0089 26.3065 60.8891C26.6537 59.9873 27.0008 59.0856 27.3728 58.1838C27.4229 58.0712 27.5059 57.9863 27.605 57.9466C27.7041 57.9068 27.8117 57.9151 27.906 57.9698C28.0027 58.029 28.0765 58.1329 28.1113 58.2589C28.1462 58.3848 28.1392 58.5227 28.092 58.6423C27.72 59.5135 27.3728 60.4 27.038 61.3017C27.003 61.3802 26.9506 61.4449 26.887 61.4881C26.8233 61.5314 26.751 61.5516 26.6785 61.5463V61.5463ZM28.8607 56.2275C28.7999 56.2483 28.7355 56.2483 28.6747 56.2275C28.6277 56.197 28.5863 56.1553 28.5526 56.1048C28.519 56.0542 28.4939 55.9959 28.4789 55.9332C28.4639 55.8705 28.4592 55.8047 28.4651 55.7398C28.4711 55.6748 28.4875 55.612 28.5135 55.555C28.9103 54.6838 29.3194 53.8126 29.7534 52.972C29.7789 52.9151 29.8137 52.8653 29.8556 52.8257C29.8974 52.786 29.9454 52.7575 29.9965 52.7417C30.0477 52.7259 30.1009 52.7233 30.153 52.734C30.205 52.7447 30.2547 52.7685 30.299 52.8039C30.3438 52.8369 30.383 52.8805 30.4141 52.9322C30.4453 52.9839 30.4678 53.0427 30.4805 53.1052C30.4932 53.1677 30.4957 53.2326 30.488 53.2963C30.4802 53.36 30.4624 53.4212 30.4354 53.4764C30.0138 54.317 29.6171 55.1729 29.1955 56.0441C29.1546 56.0864 29.107 56.1178 29.0558 56.1362C29.0046 56.1546 28.9508 56.1597 28.8979 56.151L28.8607 56.2275ZM31.3405 51.1379C31.2677 51.1652 31.1901 51.1652 31.1173 51.1379C31.0728 51.1024 31.0344 51.0563 31.0046 51.0022C30.9747 50.9481 30.9541 50.8872 30.9437 50.8231C30.9332 50.759 30.9334 50.6929 30.944 50.6289C30.9547 50.5648 30.9757 50.5041 31.0057 50.4502C31.4645 49.6248 31.9232 48.7995 32.4068 47.9895C32.4708 47.8867 32.5645 47.8182 32.6684 47.7983C32.7723 47.7784 32.8784 47.8085 32.9648 47.8825C33.0482 47.9614 33.1037 48.0769 33.1198 48.205C33.136 48.333 33.1116 48.4638 33.0516 48.5702C32.5804 49.365 32.1217 50.1751 31.6753 51.0004C31.5968 51.057 31.5048 51.0785 31.4149 51.0615L31.3405 51.1379ZM85.8962 47.7602H85.3878C85.3357 47.7563 85.2847 47.7398 85.2377 47.7115C85.1908 47.6833 85.1489 47.6439 85.1143 47.5956C85.0797 47.5473 85.0532 47.4911 85.0363 47.4302C85.0195 47.3693 85.0125 47.3048 85.0158 47.2406C85.0173 47.1756 85.0296 47.1117 85.0519 47.0528C85.0743 46.9939 85.1062 46.9413 85.1458 46.8983C85.1853 46.8553 85.2316 46.8228 85.2818 46.8028C85.3319 46.7828 85.385 46.7757 85.4374 46.782C85.9117 46.8357 86.389 46.8357 86.8633 46.782C87.1475 46.738 87.4291 46.6716 87.7064 46.5834C87.8099 46.5505 87.9198 46.5688 88.0125 46.6345C88.1052 46.7002 88.1734 46.808 88.2024 46.9349C88.2153 46.9981 88.2177 47.0639 88.2097 47.1284C88.2016 47.1928 88.1832 47.2546 88.1555 47.3102C88.1277 47.3657 88.0913 47.4139 88.0482 47.4518C88.0052 47.4897 87.9564 47.5166 87.9048 47.531C87.5919 47.6381 87.2727 47.7147 86.9501 47.7602C86.6434 47.7527 86.3372 47.7272 86.0326 47.6838L85.8962 47.7602ZM83.0444 47.1641H82.9204C82.1149 46.8154 81.3642 46.2984 80.701 45.6357C80.6268 45.5416 80.5852 45.4155 80.5852 45.2842C80.5852 45.1529 80.6268 45.0268 80.701 44.9327C80.738 44.8856 80.7823 44.8481 80.8313 44.8225C80.8803 44.7969 80.9329 44.7837 80.9862 44.7837C81.0394 44.7837 81.0921 44.7969 81.1411 44.8225C81.1901 44.8481 81.2344 44.8856 81.2714 44.9327C81.8638 45.516 82.5297 45.9755 83.2428 46.293C83.2927 46.3136 83.3388 46.3462 83.3783 46.389C83.4179 46.4318 83.4502 46.4839 83.4733 46.5422C83.4964 46.6006 83.5098 46.664 83.5128 46.7287C83.5158 46.7935 83.5083 46.8584 83.4908 46.9196C83.4518 46.9733 83.404 47.0161 83.3506 47.0451C83.2971 47.0741 83.2392 47.0886 83.1808 47.0877L83.0444 47.1641ZM34.1303 46.3388C34.04 46.3402 33.9522 46.3023 33.8823 46.2318C33.8081 46.1377 33.7665 46.0116 33.7665 45.8803C33.7665 45.749 33.8081 45.6229 33.8823 45.5288C34.3906 44.7493 34.9238 44.0004 35.4446 43.2362C35.521 43.1447 35.6232 43.0935 35.7297 43.0935C35.8362 43.0935 35.9386 43.1447 36.015 43.2362C36.0892 43.3303 36.1307 43.4564 36.1307 43.5877C36.1307 43.719 36.0892 43.8451 36.015 43.9392C35.4942 44.6729 34.9734 45.4676 34.4774 46.2013C34.4127 46.2439 34.34 46.265 34.2667 46.2624L34.1303 46.3388ZM90.0003 46.2624C89.935 46.2601 89.871 46.2396 89.813 46.2026C89.7551 46.1655 89.7046 46.1128 89.6655 46.0484C89.6092 45.9365 89.5908 45.8019 89.6139 45.6734C89.6371 45.5449 89.7001 45.4327 89.7895 45.3606C90.4291 44.837 91.0087 44.2098 91.5129 43.496C91.5872 43.4055 91.6875 43.3547 91.7919 43.3547C91.8964 43.3547 91.9966 43.4055 92.0709 43.496C92.1451 43.5902 92.1867 43.7163 92.1867 43.8475C92.1867 43.9788 92.1451 44.1049 92.0709 44.1991C91.5209 44.9897 90.8822 45.6794 90.1739 46.2471C90.1617 46.2531 90.1493 46.2582 90.1366 46.2624H90.0003ZM79.4239 43.4349C79.3527 43.4326 79.2832 43.4074 79.2223 43.3618C79.1614 43.3162 79.1112 43.2519 79.0767 43.175C78.6673 42.2233 78.4026 41.1874 78.2956 40.1183C78.2887 40.054 78.2921 39.9886 78.3059 39.926C78.3196 39.8634 78.3434 39.8048 78.3757 39.7535C78.408 39.7023 78.4482 39.6596 78.4941 39.6278C78.5399 39.5959 78.5905 39.5756 78.6427 39.5681C78.7462 39.5506 78.8511 39.5841 78.9347 39.6613C79.0183 39.7386 79.0738 39.8534 79.0891 39.9807C79.1919 40.9086 79.4226 41.808 79.7711 42.6401C79.7971 42.6971 79.8135 42.7599 79.8194 42.8249C79.8254 42.8899 79.8207 42.9556 79.8057 43.0183C79.7906 43.081 79.7656 43.1394 79.7319 43.1899C79.6983 43.2404 79.6568 43.2822 79.6099 43.3126C79.5941 43.3291 79.5776 43.3444 79.5603 43.3585L79.4239 43.4349ZM37.3293 41.9065C37.2233 41.9079 37.1211 41.8586 37.044 41.7689C36.9698 41.6748 36.9283 41.5487 36.9283 41.4174C36.9283 41.2861 36.9698 41.16 37.044 41.0659C37.6144 40.3475 38.1972 39.6445 38.7799 38.9567C38.8563 38.8652 38.9586 38.814 39.0651 38.814C39.1716 38.814 39.2739 38.8652 39.3502 38.9567C39.4237 39.0483 39.4649 39.1718 39.4649 39.3006C39.4649 39.4294 39.4237 39.5529 39.3502 39.6445C38.7799 40.317 38.2095 41.02 37.6516 41.7231C37.595 41.7632 37.5309 41.7843 37.4656 41.7842L37.3293 41.9065ZM93.1248 41.9065C93.0634 41.9209 93.0003 41.9209 92.9388 41.9065C92.8465 41.8419 92.7774 41.7368 92.7452 41.6121C92.7131 41.4875 92.7202 41.3525 92.7652 41.234C93.1144 40.3834 93.3688 39.4786 93.5215 38.5441C93.5332 38.4804 93.555 38.4203 93.5858 38.3673C93.6166 38.3142 93.6556 38.2693 93.7007 38.2351C93.7457 38.2009 93.7959 38.1782 93.8482 38.1683C93.9005 38.1583 93.9538 38.1614 94.0051 38.1772C94.0565 38.19 94.1054 38.2152 94.1489 38.2513C94.1924 38.2875 94.2296 38.3339 94.2584 38.3879C94.2872 38.4419 94.3071 38.5025 94.3168 38.566C94.3266 38.6295 94.326 38.6948 94.3151 38.758C94.1352 39.769 93.8563 40.7493 93.4844 41.6772C93.4247 41.7233 93.3563 41.7497 93.286 41.7537L93.1248 41.9065ZM40.8134 37.8563C40.7569 37.8559 40.7012 37.8408 40.6498 37.8118C40.5985 37.7828 40.5528 37.7407 40.5157 37.6882C40.4415 37.594 40.4 37.4679 40.4 37.3366C40.4 37.2053 40.4415 37.0792 40.5157 36.9851L41.2597 36.2209L42.4128 35.1052C42.4986 35.0249 42.6065 34.9895 42.7133 35.0066C42.82 35.0238 42.917 35.0922 42.9832 35.1969C43.0446 35.3015 43.071 35.4311 43.0571 35.559C43.0433 35.687 42.9903 35.8035 42.9088 35.8846L41.768 36.9851L41.0365 37.7493C41.0148 37.7364 40.994 37.7211 40.9746 37.7034L40.8134 37.8563ZM78.6551 37.7187C78.5487 37.7033 78.4514 37.6371 78.3841 37.5342C78.3169 37.4313 78.2851 37.3 78.2956 37.1685C78.3903 36.1315 78.5646 35.108 78.8163 34.1117C78.8306 34.0492 78.8548 33.9908 78.8875 33.9399C78.9203 33.889 78.9609 33.8467 79.0071 33.8154C79.0533 33.7841 79.104 33.7644 79.1564 33.7576C79.2088 33.7507 79.2618 33.7568 79.3123 33.7755C79.3629 33.7928 79.41 33.8227 79.4509 33.8633C79.4917 33.904 79.5253 33.9545 79.5497 34.0117C79.5741 34.069 79.5888 34.1319 79.5927 34.1964C79.5966 34.2609 79.5898 34.3257 79.5726 34.3868C79.3479 35.3111 79.1863 36.2569 79.0891 37.2143C79.0725 37.2972 79.0385 37.3732 78.9907 37.4349C78.9428 37.4966 78.8827 37.5417 78.8163 37.5659L78.6551 37.7187ZM94.0919 36.1903C93.9909 36.1906 93.8935 36.1433 93.8198 36.0581C93.7461 35.9728 93.7015 35.8561 93.6952 35.7318C93.638 34.792 93.4623 33.869 93.1744 32.996C93.154 32.9368 93.1432 32.8732 93.1428 32.8089C93.1423 32.7446 93.1522 32.6808 93.1718 32.6211C93.1913 32.5615 93.2203 32.5072 93.2569 32.4614C93.2935 32.4156 93.3371 32.3791 93.3852 32.3541C93.4332 32.3289 93.4848 32.3157 93.537 32.3151C93.5892 32.3146 93.6409 32.3267 93.6893 32.3508C93.7377 32.3749 93.7817 32.4106 93.8189 32.4557C93.8561 32.5009 93.8856 32.5547 93.9059 32.6139C94.2345 33.5867 94.4315 34.6193 94.4887 35.6707C94.4938 35.7362 94.4882 35.8022 94.4721 35.8649C94.456 35.9276 94.4297 35.9857 94.395 36.0356C94.3603 36.0856 94.3177 36.1264 94.2699 36.1556C94.2221 36.1848 94.17 36.2018 94.1168 36.2056L94.0919 36.1903ZM44.8182 34.0353C44.7524 34.0367 44.6873 34.0178 44.6289 33.9805C44.5704 33.9431 44.5205 33.8884 44.4834 33.8213C44.4248 33.713 44.4024 33.581 44.4209 33.4528C44.4393 33.3246 44.4973 33.2103 44.5826 33.1336C45.2522 32.5681 45.9466 32.0178 46.6285 31.4982C46.7208 31.4303 46.831 31.4098 46.9354 31.4413C47.0398 31.4727 47.13 31.5536 47.1864 31.6663C47.2134 31.7215 47.2313 31.7826 47.239 31.8463C47.2468 31.91 47.2443 31.975 47.2316 32.0375C47.2189 32.0999 47.1964 32.1587 47.1652 32.2105C47.1341 32.2622 47.0949 32.3058 47.05 32.3388C46.3722 32.8585 45.7027 33.3934 45.0414 33.9436C44.9762 34.0013 44.8984 34.0332 44.8182 34.0353ZM80.1554 31.8191C80.1025 31.8347 80.0472 31.8347 79.9942 31.8191C79.8963 31.7655 79.8193 31.6666 79.7799 31.5437C79.7404 31.4207 79.7418 31.2837 79.7835 31.1619C80.0935 30.2907 80.453 29.3737 80.8622 28.4567C80.8869 28.3988 80.9207 28.3476 80.9617 28.3062C81.0027 28.2647 81.05 28.2338 81.1009 28.2153C81.1517 28.1968 81.2051 28.191 81.2578 28.1983C81.3105 28.2057 81.3615 28.226 81.4078 28.258C81.5001 28.3224 81.5685 28.4286 81.5986 28.5541C81.6287 28.6796 81.6181 28.8145 81.5689 28.9305C81.1722 29.817 80.8126 30.7034 80.515 31.5593C80.4859 31.6481 80.4363 31.7243 80.3724 31.7786C80.3085 31.833 80.2331 31.863 80.1554 31.865V31.8191ZM48.9967 30.9785C48.9231 30.9806 48.8505 30.9574 48.787 30.9115C48.7235 30.8656 48.6716 30.7988 48.6372 30.7187C48.588 30.6027 48.5773 30.4678 48.6074 30.3423C48.6375 30.2168 48.706 30.1107 48.7983 30.0462C49.5051 29.5724 50.2366 29.1139 50.9682 28.6707C51.0153 28.6421 51.0666 28.6254 51.119 28.6215C51.1714 28.6176 51.224 28.6267 51.2736 28.648C51.3232 28.6693 51.3688 28.7025 51.4079 28.7458C51.447 28.789 51.4788 28.8415 51.5013 28.8999C51.5245 28.9581 51.538 29.0213 51.5411 29.0859C51.5443 29.1505 51.537 29.2153 51.5197 29.2764C51.5024 29.3376 51.4754 29.3938 51.4403 29.442C51.4052 29.4902 51.3628 29.5294 51.3153 29.5571C50.5962 29.9851 49.8771 30.4436 49.1827 30.9174C49.1266 30.959 49.0621 30.9802 48.9967 30.9785V30.9785ZM92.4925 30.5964C92.4331 30.5954 92.3746 30.5785 92.3211 30.5468C92.2675 30.5151 92.2203 30.4695 92.1825 30.413C91.6812 29.6901 91.1155 29.039 90.4962 28.472C90.4522 28.4355 90.4148 28.3882 90.3863 28.3331C90.3578 28.2779 90.3389 28.2161 90.3308 28.1515C90.3226 28.0869 90.3254 28.0209 90.3389 27.9577C90.3525 27.8945 90.3765 27.8354 90.4095 27.7842C90.439 27.7299 90.4774 27.6838 90.5221 27.6487C90.5669 27.6136 90.617 27.5903 90.6694 27.5802C90.7218 27.5702 90.7753 27.5736 90.8266 27.5903C90.8779 27.607 90.9258 27.6366 90.9674 27.6772C91.6422 28.2919 92.2579 28.9995 92.8025 29.7864C92.8731 29.8798 92.9123 30.0027 92.9123 30.1303C92.9123 30.2579 92.8731 30.3808 92.8025 30.4742C92.7477 30.5344 92.6812 30.5758 92.6094 30.5946C92.5376 30.6134 92.4631 30.6087 92.3933 30.5811L92.4925 30.5964ZM53.3364 28.3803C53.2577 28.3757 53.1815 28.3449 53.116 28.291C53.0505 28.2372 52.9981 28.1624 52.9644 28.0746C52.944 28.0154 52.9332 27.9518 52.9328 27.8875C52.9323 27.8231 52.9422 27.7594 52.9618 27.6997C52.9813 27.6401 53.0103 27.5858 53.0469 27.54C53.0835 27.4942 53.1271 27.4577 53.1752 27.4327C53.9315 27.0353 54.6879 26.6685 55.4442 26.317C55.5446 26.272 55.6552 26.2772 55.7525 26.3315C55.8498 26.3857 55.9261 26.4848 55.9649 26.6074C56.0008 26.733 55.9948 26.8711 55.9483 26.9913C55.9018 27.1116 55.8187 27.2043 55.7169 27.2493C54.973 27.5855 54.2291 27.9523 53.4975 28.3344C53.4273 28.3718 53.3496 28.3824 53.2744 28.365L53.3364 28.3803ZM88.6612 27.0353C88.6047 27.0575 88.544 27.0575 88.4875 27.0353C87.7777 26.6132 87.0492 26.2407 86.3054 25.9196C86.2555 25.8989 86.2093 25.8663 86.1698 25.8235C86.1302 25.7807 86.0979 25.7286 86.0749 25.6703C86.0518 25.6119 86.0384 25.5486 86.0354 25.4838C86.0324 25.419 86.0399 25.3541 86.0574 25.2929C86.0741 25.2314 86.1006 25.1746 86.1353 25.1258C86.1701 25.077 86.2123 25.0373 86.2596 25.0088C86.3069 24.9804 86.3583 24.9638 86.4109 24.9601C86.4634 24.9564 86.5161 24.9656 86.5657 24.9872C87.3434 25.321 88.1051 25.7088 88.8472 26.1488C88.9417 26.2107 89.0128 26.3157 89.0452 26.4414C89.0777 26.5671 89.0689 26.7035 89.0208 26.8213C88.9752 26.9033 88.9104 26.9662 88.8351 27.0017C88.7598 27.0372 88.6775 27.0436 88.5992 27.02L88.6612 27.0353ZM82.4616 26.6226C82.3863 26.6284 82.3117 26.6013 82.2509 26.5462C82.2057 26.5134 82.1665 26.4696 82.1355 26.4175C82.1046 26.3653 82.0828 26.3059 82.0711 26.2429C82.0595 26.18 82.0585 26.1147 82.068 26.0512C82.0776 25.9878 82.0976 25.9273 82.1268 25.8737C82.3252 25.4763 82.536 25.0942 82.7468 24.6816L81.6433 24.4065C81.5398 24.3841 81.4477 24.312 81.3872 24.2059C81.3268 24.0999 81.3029 23.9686 81.321 23.8409C81.3298 23.7762 81.3492 23.7143 81.3779 23.659C81.4067 23.6037 81.4442 23.5561 81.4881 23.519C81.5321 23.4819 81.5816 23.4561 81.6339 23.4432C81.6861 23.4302 81.7399 23.4304 81.7921 23.4436C82.2757 23.5506 82.7592 23.6728 83.2304 23.8104L83.4784 23.3824C83.5081 23.3287 83.5464 23.2829 83.5907 23.2476C83.635 23.2123 83.6845 23.1882 83.7365 23.1768C83.7885 23.1655 83.8418 23.167 83.8932 23.1813C83.9447 23.1956 83.9934 23.2224 84.0363 23.2602C84.0799 23.2969 84.1171 23.3439 84.1458 23.3986C84.1744 23.4532 84.1939 23.5143 84.2031 23.5784C84.2124 23.6424 84.2111 23.7081 84.1995 23.7715C84.1879 23.835 84.1662 23.895 84.1356 23.9479L84.0735 24.0549H84.1727C84.2762 24.0909 84.3646 24.1741 84.42 24.2878C84.4753 24.4014 84.4933 24.5368 84.4703 24.6663C84.4386 24.791 84.37 24.8965 84.2781 24.9616C84.1862 25.0268 84.0777 25.0469 83.9744 25.0178L83.59 24.9108C83.3048 25.3999 83.0444 25.9043 82.7964 26.4392C82.7573 26.4967 82.7077 26.5419 82.6517 26.5711C82.5956 26.6004 82.5347 26.6128 82.4741 26.6074L82.4616 26.6226ZM57.8372 26.3017C57.7519 26.3062 57.6679 26.2756 57.5983 26.2147C57.5287 26.1538 57.4775 26.0661 57.4528 25.9654C57.4214 25.8397 57.431 25.7039 57.4796 25.5868C57.5283 25.4698 57.6121 25.3808 57.7132 25.3388C58.482 25.0484 59.2755 24.758 60.0566 24.5134C60.1071 24.4951 60.1601 24.4898 60.2123 24.4978C60.2646 24.5058 60.315 24.5269 60.3603 24.5599C60.4056 24.5929 60.445 24.6369 60.4759 24.6894C60.5069 24.7419 60.5287 24.8017 60.5402 24.865C60.5532 24.9272 60.5562 24.992 60.549 25.0556C60.5417 25.1193 60.5243 25.1805 60.4978 25.2359C60.4713 25.2912 60.4362 25.3396 60.3946 25.3782C60.3529 25.4169 60.3055 25.445 60.255 25.4611C59.4863 25.7056 58.7175 25.996 57.9488 26.2864L57.8372 26.3017ZM62.4992 24.7733C62.4072 24.7748 62.3177 24.7355 62.2472 24.6626C62.1766 24.5896 62.1297 24.4879 62.1149 24.3759C62.104 24.3126 62.1034 24.2474 62.1131 24.1839C62.1229 24.1203 62.1427 24.0598 62.1716 24.0058C62.2004 23.9518 62.2376 23.9054 62.2811 23.8692C62.3245 23.833 62.3734 23.8078 62.4249 23.7951C63.2184 23.5811 64.0243 23.3977 64.8179 23.2449C64.9214 23.2227 65.0279 23.2521 65.1139 23.3266C65.1999 23.4011 65.2585 23.5147 65.2766 23.6423C65.2873 23.7068 65.2869 23.7734 65.2755 23.8378C65.2641 23.9021 65.242 23.9629 65.2105 24.0161C65.179 24.0693 65.1388 24.1138 65.0926 24.1468C65.0463 24.1798 64.9949 24.2006 64.9418 24.2078C64.1607 24.3759 63.3672 24.5593 62.5861 24.758L62.4992 24.7733ZM79.3247 23.9327C78.5436 23.7951 77.7376 23.6881 76.9441 23.6117C76.8377 23.6 76.7393 23.5375 76.6698 23.4376C76.6003 23.3376 76.5652 23.2081 76.5721 23.0768C76.5768 23.0124 76.5918 22.9499 76.6162 22.8927C76.6405 22.8355 76.6738 22.7849 76.7142 22.7437C76.7545 22.7025 76.8011 22.6715 76.8512 22.6526C76.9013 22.6337 76.954 22.6272 77.0061 22.6336C77.8121 22.6336 78.6304 22.8169 79.4859 22.9545C79.5378 22.9619 79.5878 22.9823 79.6331 23.0143C79.6784 23.0463 79.718 23.0894 79.7493 23.1409C79.7806 23.1924 79.8031 23.2512 79.8153 23.3137C79.8276 23.3763 79.8294 23.4413 79.8206 23.5047C79.8162 23.5789 79.798 23.6509 79.7676 23.7151C79.7372 23.7793 79.6953 23.8342 79.6451 23.8755C79.5949 23.9167 79.5376 23.9433 79.4778 23.9533C79.418 23.9632 79.3572 23.9561 79.2999 23.9327H79.3247ZM67.2728 23.8104C67.1738 23.8109 67.0781 23.7657 67.0046 23.6837C66.9312 23.6017 66.8854 23.4888 66.8761 23.3671C66.8656 23.2397 66.8961 23.1123 66.961 23.0122C67.0259 22.9122 67.1201 22.8476 67.2233 22.8323C68.0292 22.71 68.8475 22.6182 69.7031 22.5571C69.7552 22.553 69.8075 22.5616 69.8569 22.5824C69.9064 22.6032 69.9519 22.6359 69.9911 22.6785C70.0303 22.7211 70.0623 22.7728 70.0852 22.8306C70.1081 22.8885 70.1214 22.9514 70.1246 23.0157C70.1297 23.0803 70.124 23.1456 70.1078 23.2075C70.0916 23.2693 70.0652 23.3264 70.0303 23.3751C69.9954 23.4239 69.9527 23.4632 69.905 23.4908C69.8572 23.5183 69.8054 23.5335 69.7526 23.5353C68.9591 23.6117 68.1532 23.6881 67.3721 23.8104H67.2728ZM74.5139 23.4436C73.708 23.4436 72.9144 23.4436 72.1085 23.4436C72.057 23.4456 72.0057 23.4349 71.9576 23.412C71.9095 23.3891 71.8656 23.3545 71.8286 23.3103C71.7916 23.2661 71.7622 23.2132 71.7421 23.1547C71.722 23.0962 71.7117 23.0333 71.7117 22.9698C71.7101 22.9056 71.7187 22.8415 71.7371 22.7814C71.7556 22.7213 71.7834 22.6663 71.8191 22.6194C71.8548 22.5726 71.8977 22.5348 71.9452 22.5084C71.9927 22.482 72.044 22.4674 72.0961 22.4654C72.9144 22.4654 73.7204 22.4654 74.5759 22.4654C74.6291 22.4673 74.6814 22.4824 74.7298 22.5098C74.7782 22.5372 74.8216 22.5763 74.8575 22.6248C74.8933 22.6733 74.9209 22.7301 74.9385 22.792C74.9562 22.8539 74.9636 22.9196 74.9602 22.9851C74.9577 23.0552 74.9429 23.1238 74.917 23.1863C74.891 23.2488 74.8544 23.3036 74.8097 23.3471C74.765 23.3906 74.7132 23.4218 74.6579 23.4384C74.6026 23.4551 74.545 23.4568 74.4891 23.4436H74.5139ZM85.239 21.7471C85.1487 21.7484 85.061 21.7106 84.9911 21.6401C84.9176 21.5486 84.8764 21.425 84.8764 21.2962C84.8764 21.1675 84.9176 21.0439 84.9911 20.9523C85.4871 20.1576 86.0078 19.4239 86.5286 18.6139C86.6028 18.5234 86.703 18.4726 86.8075 18.4726C86.912 18.4726 87.0122 18.5234 87.0865 18.6139C87.1607 18.708 87.2022 18.8342 87.2022 18.9654C87.2022 19.0967 87.1607 19.2228 87.0865 19.3169C86.5781 20.0506 86.0574 20.8453 85.5738 21.5942C85.5346 21.6659 85.4806 21.7235 85.4175 21.7611C85.3543 21.7986 85.2842 21.8149 85.2143 21.8082L85.239 21.7471ZM88.3884 17.1619C88.3378 17.1622 88.2876 17.1502 88.2408 17.1266C88.194 17.103 88.1515 17.0683 88.1156 17.0244C88.0777 16.9801 88.0475 16.9268 88.0269 16.8676C88.0063 16.8085 87.9956 16.7448 87.9956 16.6805C87.9956 16.6161 88.0063 16.5525 88.0269 16.4933C88.0475 16.4342 88.0777 16.3809 88.1156 16.3366C88.6735 15.603 89.2563 14.8999 89.8515 14.2274C89.8874 14.1807 89.9307 14.1435 89.9786 14.1181C90.0266 14.0927 90.0782 14.0795 90.1304 14.0795C90.1826 14.0795 90.2344 14.0927 90.2823 14.1181C90.3303 14.1435 90.3735 14.1807 90.4095 14.2274C90.4477 14.273 90.4781 14.3276 90.4988 14.388C90.5196 14.4484 90.5303 14.5133 90.5303 14.5789C90.5303 14.6445 90.5196 14.7094 90.4988 14.7698C90.4781 14.8302 90.4477 14.8849 90.4095 14.9305C89.8267 15.5877 89.2563 16.2907 88.6984 16.9938C88.6658 17.067 88.617 17.1274 88.5578 17.1679C88.4985 17.2085 88.4312 17.2276 88.3636 17.2231L88.3884 17.1619ZM91.9221 13.1117C91.8049 13.108 91.6935 13.0476 91.6121 12.9436C91.5379 12.8495 91.4964 12.7233 91.4964 12.592C91.4964 12.4608 91.5379 12.3346 91.6121 12.2405C92.2445 11.5986 92.852 10.9873 93.5464 10.4065C93.5893 10.3687 93.638 10.3419 93.6895 10.3275C93.741 10.3132 93.7942 10.3117 93.8462 10.3231C93.8982 10.3345 93.9477 10.3586 93.992 10.3939C94.0364 10.4292 94.0746 10.475 94.1043 10.5287C94.1356 10.5807 94.1581 10.6399 94.1707 10.7028C94.1833 10.7657 94.1856 10.831 94.1775 10.895C94.1694 10.9589 94.1512 11.0203 94.1237 11.0755C94.0962 11.1307 94.0601 11.1786 94.0175 11.2165C93.3728 11.7871 92.7405 12.3831 92.1205 13.0047C92.0644 13.0912 91.9853 13.1507 91.8973 13.1728L91.9221 13.1117ZM95.8526 9.65752C95.7856 9.65724 95.7198 9.63609 95.6613 9.596C95.6027 9.55592 95.5534 9.49821 95.5178 9.42828C95.4616 9.31636 95.4431 9.18177 95.4662 9.05327C95.4894 8.92476 95.5524 8.81255 95.6418 8.74053C96.3362 8.22088 97.0553 7.71651 97.7745 7.21214C97.87 7.15278 97.9807 7.14192 98.0826 7.18192C98.1846 7.22192 98.2699 7.30956 98.32 7.42609C98.3676 7.54164 98.376 7.67573 98.3435 7.79895C98.311 7.92218 98.2401 8.02444 98.1464 8.08329C97.4397 8.5418 96.7454 9.03089 96.0634 9.61167C96.0319 9.64802 95.9948 9.67623 95.9544 9.6946C95.9139 9.71298 95.8709 9.72117 95.8278 9.71867L95.8526 9.65752ZM100.143 6.90645C100.064 6.90873 99.9872 6.88238 99.921 6.8307C99.8548 6.77902 99.8025 6.70432 99.7707 6.61605C99.7503 6.55685 99.7395 6.49329 99.7391 6.42897C99.7386 6.36464 99.7485 6.30081 99.768 6.24118C99.7876 6.18155 99.8166 6.12726 99.8532 6.08143C99.8898 6.03561 99.9334 5.99918 99.9815 5.97415C100.725 5.57677 101.494 5.20996 102.263 4.87371C102.313 4.8521 102.365 4.84286 102.418 4.84657C102.47 4.85027 102.522 4.86681 102.569 4.89526C102.616 4.92371 102.659 4.96347 102.693 5.01224C102.728 5.06102 102.755 5.11784 102.771 5.17936C102.789 5.24055 102.796 5.30544 102.793 5.37023C102.79 5.43501 102.777 5.49838 102.754 5.5567C102.731 5.61502 102.698 5.66712 102.659 5.70992C102.619 5.75272 102.573 5.78538 102.523 5.80601C101.779 6.12697 101.023 6.4938 100.304 6.8759C100.249 6.92557 100.185 6.95714 100.118 6.9676L100.143 6.90645ZM131.016 5.68376H130.929L128.574 5.07237C128.521 5.0614 128.471 5.03752 128.426 5.00212C128.381 4.96672 128.343 4.92055 128.312 4.86634C128.282 4.81214 128.261 4.75102 128.251 4.68663C128.24 4.62225 128.24 4.55594 128.251 4.49162C128.275 4.36559 128.337 4.25564 128.425 4.18452C128.513 4.1134 128.619 4.08655 128.722 4.10952C129.516 4.29293 130.309 4.50689 131.103 4.72087C131.205 4.75018 131.294 4.82681 131.352 4.93491C131.41 5.04301 131.432 5.17432 131.413 5.30166C131.398 5.42585 131.347 5.53912 131.27 5.6206C131.192 5.70208 131.093 5.74622 130.991 5.74486L131.016 5.68376ZM104.705 4.95012C104.615 4.95363 104.527 4.91921 104.455 4.85254C104.383 4.78587 104.331 4.69093 104.309 4.58332C104.296 4.5211 104.293 4.45628 104.3 4.39264C104.307 4.329 104.325 4.26777 104.351 4.21242C104.378 4.15706 104.413 4.10865 104.454 4.07002C104.496 4.03138 104.543 4.00325 104.594 3.98722C105.375 3.7274 106.169 3.48287 106.975 3.28418C107.08 3.26168 107.188 3.2906 107.276 3.36482C107.364 3.43905 107.425 3.55272 107.446 3.68158C107.464 3.80892 107.443 3.94018 107.385 4.04828C107.327 4.15638 107.238 4.23301 107.136 4.26232C106.342 4.44573 105.561 4.67499 104.805 4.93482L104.705 4.95012ZM126.28 4.52217H126.205C125.379 4.34895 124.585 4.19613 123.825 4.06367C123.72 4.04115 123.627 3.9696 123.565 3.86413C123.502 3.75867 123.476 3.62747 123.49 3.49813C123.496 3.4342 123.512 3.37246 123.538 3.31664C123.564 3.26083 123.599 3.21211 123.641 3.1735C123.683 3.13488 123.731 3.10719 123.781 3.09206C123.832 3.07692 123.885 3.07468 123.936 3.08548C124.742 3.22304 125.536 3.37586 126.342 3.54398C126.445 3.56636 126.537 3.63851 126.598 3.74454C126.658 3.85057 126.682 3.98185 126.664 4.10952C126.664 4.1744 126.654 4.23857 126.633 4.29814C126.612 4.35772 126.581 4.41138 126.543 4.4558C126.505 4.50022 126.459 4.53448 126.41 4.5564C126.36 4.57833 126.308 4.5875 126.255 4.58332L126.28 4.52217ZM109.43 3.77327C109.333 3.77104 109.24 3.72685 109.168 3.64855C109.095 3.57025 109.047 3.46287 109.033 3.34533C109.026 3.28102 109.029 3.21564 109.043 3.15302C109.057 3.09041 109.081 3.03179 109.113 2.98058C109.145 2.92938 109.185 2.88659 109.231 2.85474C109.277 2.82289 109.328 2.80263 109.38 2.79509C110.173 2.65753 110.992 2.55056 111.86 2.47414C111.911 2.46785 111.963 2.47442 112.013 2.49349C112.062 2.51257 112.108 2.54376 112.147 2.58515C112.186 2.62653 112.219 2.67727 112.242 2.73436C112.265 2.79144 112.278 2.85372 112.281 2.91738C112.286 2.98166 112.281 3.04653 112.266 3.10829C112.25 3.17005 112.225 3.22745 112.192 3.27718C112.159 3.32692 112.117 3.36803 112.071 3.39808C112.025 3.42813 111.974 3.44653 111.922 3.45228C111.116 3.5287 110.31 3.63572 109.541 3.77327H109.43ZM121.494 3.69683C120.7 3.58984 119.894 3.51345 119.101 3.43703C119.049 3.43314 118.998 3.41658 118.951 3.38833C118.904 3.36009 118.862 3.32071 118.827 3.27243C118.793 3.22415 118.766 3.16791 118.749 3.10698C118.732 3.04606 118.725 2.98164 118.729 2.91738C118.732 2.85172 118.746 2.78746 118.769 2.72853C118.793 2.66959 118.826 2.61718 118.867 2.57437C118.907 2.53157 118.954 2.49926 119.005 2.47941C119.056 2.45956 119.11 2.45256 119.163 2.45884C119.969 2.45884 120.775 2.6117 121.643 2.71868C121.695 2.72443 121.746 2.74283 121.792 2.77288C121.838 2.80294 121.879 2.84405 121.913 2.89378C121.946 2.94352 121.971 3.00091 121.987 3.06267C122.002 3.12443 122.007 3.1893 122.002 3.25358C122.008 3.336 121.998 3.41907 121.971 3.49496C121.944 3.57084 121.902 3.6371 121.849 3.6875C121.795 3.7379 121.733 3.77079 121.666 3.78312C121.6 3.79544 121.532 3.7868 121.469 3.75798L121.494 3.69683ZM114.253 3.29948C114.148 3.29972 114.048 3.25075 113.972 3.16268C113.896 3.0746 113.85 2.95403 113.844 2.82564C113.842 2.76013 113.851 2.69491 113.87 2.63379C113.889 2.57268 113.918 2.51694 113.955 2.46989C113.992 2.42285 114.037 2.38544 114.086 2.35991C114.135 2.33438 114.187 2.32126 114.24 2.32129C115.046 2.32129 115.865 2.32129 116.72 2.32129C116.773 2.32126 116.826 2.33438 116.875 2.35991C116.924 2.38544 116.968 2.42285 117.005 2.46989C117.042 2.51694 117.071 2.57268 117.09 2.63379C117.11 2.69491 117.119 2.76013 117.117 2.82564C117.114 2.95268 117.07 3.07321 116.996 3.16165C116.922 3.25009 116.823 3.29954 116.72 3.29948H114.302H114.253Z" fill="#999999"/>
<path d="M176.201 116.357L179.697 118.221L193.671 106.208L197.391 108.745C200.379 110.946 203.28 111.099 204.669 110.121L204.954 110.289C207.111 111.451 208.389 110.411 208.823 109.158C209.257 107.905 209.008 106.101 206.851 104.909L206.566 104.756C206.306 103.228 205.177 100.66 200.776 99.1471L196.721 97.5422L194.241 76.7715L190.745 74.8916L188.029 94.134L178.036 89.9156L176.523 84.9789L173.746 83.7104L173.547 88.2955L172.555 88.1885L171.65 90.741L172.394 91.6427L169.766 95.0052L172.419 96.6405L176.362 94.6231L185.698 100.737L176.201 116.357ZM176.461 93.5073L172.493 95.5401L171.253 94.7453L173.659 91.6886L172.754 90.5576L173.175 89.3501L174.415 89.4877L174.601 85.2082L175.953 85.8196L177.465 90.7715L188.773 95.5248L191.464 76.4047L193.559 77.5204L195.977 98.3676L200.552 100.171C204.818 101.623 205.661 103.977 205.785 105.245V105.566L206.033 105.673C206.19 105.729 206.344 105.8 206.492 105.887C207.818 106.59 208.413 107.706 208.029 108.776C207.645 109.846 206.591 110.09 205.264 109.372C205.115 109.298 204.97 109.211 204.83 109.112L204.594 108.944L204.371 109.143C203.466 109.968 200.825 110.121 197.775 107.889L193.609 105.016L179.598 117.075L177.503 115.959L187 100.461L176.461 93.5073Z" fill="#999999"/>
</svg>
