<svg width="38" height="38" viewBox="0 0 38 38" fill="none" xmlns="http://www.w3.org/2000/svg">
<g id="Group">
<path id="Vector" d="M28.3554 -0.000976562H8.68013C3.88616 -0.000976562 -0.00012207 3.88531 -0.00012207 8.67928V28.3545C-0.00012207 33.1485 3.88616 37.0348 8.68013 37.0348H28.3554C33.1493 37.0348 37.0356 33.1485 37.0356 28.3545V8.67928C37.0356 3.88531 33.1493 -0.000976562 28.3554 -0.000976562Z" fill="#F4F7FA"/>
<g id="Group 1000004900">
<path id="Vector_2" d="M10.373 8.7129C10.373 8.7129 10.2781 8.85048 10.3682 9.05414C10.4228 9.17981 10.5888 9.33147 10.7714 9.4918C10.7714 9.4918 12.6862 11.1991 12.921 11.4461C13.9822 12.5652 14.4434 13.6669 14.4861 15.1868C14.5122 16.1618 14.3071 17.0197 13.8067 18.0175C12.9103 19.8039 11.0204 21.7744 8.10357 23.9649L8.53042 23.8349C8.80668 23.6475 9.18017 23.446 10.0623 23.0051C12.0934 21.9911 14.3735 21.0573 17.1753 20.0953C21.2054 18.7119 27.8346 17.088 31.6074 16.5604L31.9999 16.5052L31.9406 16.4185C31.5944 15.9289 31.3596 15.6266 31.075 15.3059C30.2486 14.371 29.2467 13.6084 28.0195 12.9812C26.3335 12.1178 24.1459 11.4472 21.3797 10.9445C20.5162 10.7962 19.6502 10.6607 18.7819 10.5383C17.2286 10.3206 15.6777 10.0895 14.1292 9.84496C13.6253 9.76371 12.8724 9.64888 12.3732 9.5503C11.9883 9.47557 11.6079 9.38228 11.2338 9.2708C10.916 9.15706 10.469 9.04656 10.373 8.7129ZM11.4828 9.69763C11.4863 9.69546 11.5575 9.71605 11.6452 9.74313C11.8065 9.79296 12.0199 9.85146 12.2689 9.91538C12.442 9.95871 12.6329 10.0064 12.8368 10.053C13.0953 10.1136 13.3099 10.1656 13.3123 10.1689C13.3407 10.1981 13.7759 11.4667 13.9241 11.9531C13.981 12.1394 14.0237 12.2943 14.0201 12.2976C13.9788 12.2506 13.943 12.1998 13.9134 12.1459C13.4107 11.3378 12.6127 10.5155 11.6915 9.85363C11.6198 9.80397 11.5502 9.75194 11.4828 9.69763ZM13.6052 10.2328C13.6831 10.2396 13.7604 10.2519 13.8364 10.2696C14.5703 10.417 15.8817 10.6488 16.7235 10.7788C16.8646 10.8004 16.9796 10.8221 16.9796 10.8297C16.9453 10.8579 16.906 10.8806 16.8634 10.8969C16.7223 10.9619 16.1496 11.2749 15.9587 11.3919C15.5227 11.6536 15.1139 11.9513 14.7375 12.2813C14.6616 12.3525 14.5837 12.4218 14.5039 12.4893C14.4835 12.4411 14.4673 12.3915 14.4553 12.3409C14.2539 11.6811 13.9963 11.0367 13.6846 10.4137C13.6533 10.3554 13.6252 10.2958 13.6004 10.235C13.6004 10.2339 13.6004 10.2328 13.6052 10.2328ZM17.3365 10.8806C17.3602 10.8882 17.4076 11.0214 17.4895 11.3183C17.6784 12.0182 17.7397 12.7418 17.6709 13.46L17.6566 13.5011L17.4349 13.4361C16.8207 13.2604 16.2033 13.0942 15.5829 12.9378C15.3587 12.8854 15.1371 12.824 14.9189 12.7537C14.9189 12.7298 15.4513 12.2434 15.6801 12.0582C16.1176 11.705 17.295 10.8687 17.3365 10.8806ZM17.6329 10.9196C17.646 10.9088 19.4162 11.1883 20.2201 11.3291C20.82 11.4342 21.6868 11.5999 21.739 11.6205C21.765 11.6292 21.6749 11.6747 21.3868 11.7938C20.2485 12.2618 19.4043 12.6822 18.5649 13.1946C18.3443 13.3289 18.1606 13.4394 18.157 13.4394C18.1523 13.4394 18.1499 13.3267 18.1499 13.1902C18.1499 12.4427 17.9851 11.6877 17.6863 11.0496C17.6641 11.0079 17.6462 10.9644 17.6329 10.9196ZM22.2097 11.7473C22.2227 11.7592 22.1646 12.0788 22.1148 12.2673C21.9583 12.8522 21.5433 13.7232 21.0311 14.5411C20.9773 14.6334 20.9171 14.7224 20.8509 14.8076C20.7607 14.7727 20.6739 14.731 20.5912 14.683C20.0909 14.4155 19.5241 14.1631 18.9016 13.928C18.7902 13.888 18.6803 13.8446 18.572 13.798C18.5435 13.7741 19.9272 12.9367 20.6612 12.5348C21.2481 12.2131 22.1931 11.7321 22.2097 11.7473ZM22.5369 11.7938C22.576 11.7938 23.361 11.9888 23.7665 12.1004C24.7779 12.3767 25.9446 12.7656 26.701 13.0797L27.0153 13.2097L26.7935 13.2563C24.9427 13.6463 23.355 14.0937 21.8279 14.6603C21.701 14.708 21.5907 14.747 21.5824 14.747C21.604 14.6774 21.6338 14.6102 21.6714 14.5465C22.1314 13.655 22.4278 12.719 22.5049 11.9249C22.512 11.8523 22.5262 11.7938 22.5369 11.7938ZM14.7351 13.4318C14.747 13.421 15.3446 13.5488 15.6706 13.6322C16.1603 13.7579 17.2025 14.0764 17.2025 14.1013C17.2025 14.1056 17.0875 14.1977 16.9476 14.305C16.3422 14.7701 15.7556 15.2554 15.1892 15.7599C15.072 15.8672 14.9502 15.9702 14.824 16.0686C14.8157 16.0686 14.8122 16.0437 14.8169 16.0144C14.9153 15.3525 14.894 14.5032 14.7576 13.6387C14.7442 13.5707 14.7362 13.5019 14.7339 13.4329L14.7351 13.4318ZM27.3152 13.4426C27.3235 13.4513 27.0378 13.8597 26.8599 14.0926C26.5991 14.4328 26.2232 14.8791 25.3648 15.866L24.2336 17.1682C24.1303 17.2906 24.024 17.4109 23.9147 17.5289C23.9111 17.5289 23.8554 17.4574 23.7926 17.3707C23.3079 16.71 22.7208 16.117 22.0496 15.6104C21.9445 15.5299 21.8377 15.4511 21.7295 15.3742C21.6975 15.3546 21.668 15.3317 21.6417 15.3059C21.6417 15.2951 22.3733 15.0091 22.9318 14.8011C24.0137 14.4038 25.1125 14.046 26.2256 13.7286C26.7497 13.5824 27.3069 13.4361 27.3152 13.4426ZM27.6449 13.5217C27.7313 13.5484 27.8137 13.5848 27.8903 13.6301C28.9357 14.1773 29.9027 14.841 30.7691 15.606C30.9992 15.8119 31.56 16.3459 31.5517 16.3503L31.1213 16.3817C29.3072 16.5063 26.988 16.8583 24.7542 17.3491C24.6024 17.3816 24.472 17.4097 24.4625 17.4097C24.4542 17.4097 24.6202 17.2581 24.8312 17.0717C26.1438 15.9202 26.7414 15.1933 27.4457 13.8933C27.55 13.7005 27.6389 13.5326 27.6425 13.5228H27.6449V13.5217ZM18.055 14.4209C18.1155 14.4317 18.6751 14.67 19.0972 14.8629C19.4826 15.0395 20.0671 15.3244 20.0968 15.3493C20.1003 15.3525 19.8952 15.45 19.6391 15.567C18.8793 15.9117 18.1364 16.2865 17.4124 16.6904C17.2049 16.8063 17.033 16.9006 17.027 16.9006C17.0093 16.9006 17.0152 16.8865 17.1314 16.6937C17.5318 16.0113 17.8263 15.2814 18.0064 14.5249C18.023 14.4577 18.042 14.4165 18.055 14.4198V14.4209ZM17.4918 14.5119C17.5037 14.5227 17.359 15.0102 17.2665 15.2702C17.016 15.9542 16.684 16.611 16.2765 17.2288L16.1698 17.3881L15.9291 17.1747C15.6949 16.9566 15.4244 16.7738 15.1276 16.633C15.0541 16.6027 14.9842 16.5657 14.9189 16.5225C14.9189 16.49 15.654 15.8801 16.2208 15.4414C16.6275 15.1272 17.4823 14.5021 17.4918 14.5119ZM20.9161 15.7989L21.126 15.9234C21.6085 16.2094 22.1788 16.594 22.614 16.9244C22.8582 17.1107 23.3313 17.4986 23.4286 17.5917L23.4807 17.6427L23.1321 17.7315C21.3497 18.1756 19.5893 18.6903 17.8558 19.2741C17.7307 19.318 17.6042 19.3584 17.4764 19.3955C17.4515 19.3955 17.4266 19.416 17.8712 19.0423C19.0095 18.0857 20.0138 17.0317 20.7643 16.0069L20.9161 15.7989ZM20.0162 16.0047C20.0268 16.0144 19.4328 16.7738 19.0806 17.2028C18.6585 17.7152 17.9068 18.5732 17.3899 19.1311C17.2579 19.2782 17.121 19.4216 16.9796 19.5612C16.9678 19.5645 16.9618 19.507 16.9606 19.4171C16.9606 18.9405 16.8278 18.4313 16.5954 18.0001C16.497 17.8182 16.4804 17.7748 16.5006 17.7575C16.5812 17.6903 17.8369 17.036 18.6277 16.6493C19.1719 16.3828 20.0067 15.9949 20.0162 16.0047ZM14.5739 17.2234C14.9184 17.3742 15.2417 17.5627 15.5366 17.7846C15.5461 17.79 15.4335 17.8745 15.2876 17.9709C14.8786 18.2406 14.2561 18.6686 13.8968 18.9307C13.5174 19.207 13.5044 19.2156 13.5471 19.155C13.8316 18.7574 13.9739 18.5331 14.1233 18.245C14.2573 17.9893 14.3889 17.686 14.4837 17.4217C14.5033 17.3518 14.5329 17.285 14.5739 17.2234ZM16.0239 18.2634C16.0441 18.2601 16.0714 18.2937 16.1888 18.453C16.4342 18.7888 16.6227 19.2351 16.6713 19.5991L16.6808 19.6782L16.0915 19.8862C15.1863 20.2041 14.2905 20.5437 13.4048 20.9045C13.221 20.9825 12.8973 21.1233 12.6851 21.2208C12.4728 21.3183 12.2997 21.3942 12.2997 21.3898C12.2997 21.3855 12.4325 21.2934 12.5961 21.1862C13.885 20.3304 14.9971 19.3944 15.8354 18.4573C15.9244 18.3576 16.0062 18.271 16.0168 18.2645C16.019 18.2633 16.0214 18.2626 16.0239 18.2623V18.2634ZM15.3552 18.4151C15.373 18.4302 14.8798 18.9394 14.5478 19.2492C13.7457 20.0022 12.8477 20.6645 11.8729 21.2219C11.7448 21.2967 11.6286 21.3628 11.612 21.3714C11.5847 21.3866 11.6215 21.3476 12.0697 20.9013C12.3519 20.6207 12.5677 20.3878 12.8143 20.0964C12.928 19.9461 13.074 19.8185 13.2435 19.7215C13.8802 19.3012 15.3386 18.3988 15.3552 18.414V18.4151ZM16.5397 5.9992C16.4449 5.98836 14.9141 6.4921 13.9312 6.8561C12.5997 7.35117 11.5646 7.82458 10.9267 8.23407C10.6895 8.38574 10.3908 8.65981 10.3481 8.7649C10.3313 8.80763 10.3228 8.85274 10.3232 8.89814L10.9018 9.39647L12.2748 9.79729L15.5461 10.3325L19.2846 10.9196L19.3225 10.6271L19.2893 10.6217L18.7973 10.5502L18.6965 10.3899C18.1883 9.57077 17.7226 8.73027 17.3009 7.87116C17.0549 7.35485 16.845 6.82476 16.6725 6.28411C16.5919 6.02086 16.5836 6.00461 16.5397 5.9992ZM16.4674 6.20069H16.4733C16.4769 6.20394 16.4935 6.31444 16.5113 6.44444C16.5848 6.99476 16.7199 7.52775 16.931 8.10191C17.0899 8.53523 17.0923 8.51032 16.9025 8.46157C16.4638 8.34999 14.4932 8.04124 13.068 7.86033C12.9265 7.84384 12.7854 7.82469 12.6447 7.80291C12.627 7.78666 13.6727 7.28617 14.1363 7.08793C14.7304 6.8366 16.35 6.22127 16.4674 6.20069ZM12.3151 7.96433L12.4823 8.01633C13.3977 8.30015 15.6908 8.70098 16.9583 8.79631C17.1006 8.80715 17.2215 8.81906 17.225 8.82231C17.2286 8.82556 17.1065 8.88514 16.9547 8.95448C16.3441 9.23397 15.6706 9.57522 15.2046 9.84171C15.0683 9.91971 14.9438 9.98254 14.926 9.98146C14.8586 9.97279 14.7914 9.96304 14.7244 9.95221L14.5537 9.92729L14.1209 9.54272C13.3609 8.87106 12.7681 8.35107 12.538 8.15607L12.3151 7.96433ZM12.1456 8.08782L12.7515 8.77898C13.0858 9.15814 13.4202 9.53622 13.4937 9.61746C13.5684 9.69871 13.6253 9.76696 13.6218 9.76913C13.6052 9.78104 12.7443 9.6283 12.2879 9.53188C11.9666 9.4695 11.6488 9.39285 11.3357 9.30222L11.0986 9.23289L11.0998 9.17981C11.1034 8.91439 11.4697 8.52223 12.091 8.12249L12.1456 8.08782ZM17.3057 9.02922C17.3235 9.03031 17.3436 9.06389 17.397 9.17114C17.544 9.4658 18.0017 10.2631 18.1119 10.417C18.1475 10.4679 18.2068 10.4711 17.5985 10.3812C16.1401 10.1667 15.6671 10.0941 15.6671 10.0855C15.6968 10.0619 15.7299 10.0422 15.7655 10.027C16.2307 9.78845 16.6702 9.51024 17.078 9.19606L17.2855 9.03681C17.2926 9.03139 17.2997 9.02814 17.3057 9.02922ZM22.4148 18.1377L16.714 19.8364L11.7579 21.8362L10.3706 22.172C9.63552 22.807 8.87291 23.4149 8.0846 23.9941C7.67505 24.3037 7.29686 24.6463 6.95464 25.0179C6.56099 25.4664 6.25271 25.943 6.11992 26.3103C5.88278 26.9711 5.99779 27.6406 6.45784 28.2581C7.04475 29.0467 8.21265 29.8484 9.57026 30.3943C10.2639 30.6717 11.4318 31.0313 12.3092 31.2328C13.7711 31.5708 16.5943 31.937 18.1499 31.9912C18.4653 32.002 18.885 32.002 18.9052 31.989C18.9384 31.9684 19.1814 31.5502 19.4624 31.0248C20.4181 29.2417 21.1094 27.5691 21.4817 26.1413C21.7069 25.2757 21.8824 24.123 21.9962 22.7559C22.0313 22.058 22.0376 21.3591 22.0152 20.6608C21.9857 20.0412 21.9132 19.4239 21.7982 18.8126C21.7832 18.7596 21.7784 18.7046 21.784 18.6501C21.8006 18.6393 21.854 18.6231 22.5547 18.4367L22.4148 18.1377ZM21.1105 18.8365C21.1639 18.8365 21.3003 20.0433 21.337 20.8081C21.3441 20.9717 21.3429 21.0757 21.3323 21.0757C21.2991 21.0757 20.6031 20.7019 20.1086 20.4192C19.642 20.1507 19.1826 19.8718 18.7309 19.5829C18.6894 19.5525 18.6941 19.5515 19.0463 19.441C19.645 19.2525 21.0667 18.8365 21.1117 18.8365H21.1105ZM18.208 19.7064C18.2436 19.7064 18.3443 19.7573 18.5815 19.8927C19.4707 20.4019 20.6754 21.0139 21.19 21.2198C21.3512 21.2848 21.369 21.2588 21.0003 21.4873C20.2153 21.9748 19.2383 22.4537 18.0396 22.9411C17.9101 22.9953 17.7793 23.0465 17.6472 23.095C17.6559 23.0213 17.673 22.9487 17.6981 22.8783C17.9886 21.8979 18.1523 20.9067 18.157 20.1115C18.1594 19.7194 18.1594 19.7172 18.2009 19.7075H18.208V19.7064ZM17.6104 19.9154C17.6353 19.9393 17.6175 20.8189 17.5867 21.0594C17.4964 21.7365 17.3303 22.4034 17.0911 23.0495C17.0745 23.0679 16.4852 22.5425 16.2895 22.3345C15.9798 22.0135 15.7134 21.6596 15.4963 21.2804C15.3991 21.1049 15.2426 20.7561 15.2568 20.7464C15.3232 20.703 17.5938 19.9014 17.6104 19.9154ZM14.7944 20.9294C14.7991 20.9294 14.8039 20.9305 14.8063 20.9338C14.8325 20.9794 14.8547 21.0268 14.8726 21.0757C15.0556 21.4916 15.2954 21.8848 15.5864 22.2457C15.9376 22.6704 16.3423 23.0559 16.7923 23.394C16.8195 23.4156 16.8278 23.4113 16.1259 23.654C15.2273 23.9635 14.3204 24.2525 13.406 24.5206C13.0182 24.6354 12.6898 24.7319 12.6768 24.7373C12.6376 24.7492 12.6495 24.7275 12.7633 24.5661C13.2696 23.8446 14.0356 22.432 14.4648 21.4332C14.5383 21.2598 14.6094 21.0865 14.6225 21.0475C14.6403 20.9912 14.6592 20.9717 14.7173 20.9478C14.7411 20.9364 14.7675 20.9301 14.7944 20.9294ZM13.9312 21.2544C13.9431 21.2642 13.7249 21.6856 13.5091 22.068C13.0517 22.8763 12.556 23.6661 12.0234 24.435L11.8077 24.747C11.7863 24.7763 11.7768 24.7665 11.7104 24.6452C11.5554 24.3562 11.4437 24.0493 11.3784 23.733C11.3175 23.3433 11.3255 22.9472 11.4021 22.5598C11.4579 22.3139 11.4555 22.3193 11.5824 22.2608C12.1302 22.0041 13.9134 21.2403 13.9312 21.2544ZM21.3631 21.5307V21.6975C21.3509 22.7833 21.2498 23.8667 21.0607 24.9388C20.2789 24.7326 19.5242 24.4485 18.8103 24.0916C18.3906 23.8815 17.7847 23.5424 17.8025 23.5261C17.806 23.5218 17.9851 23.4362 18.1985 23.3344C19.0451 22.9336 19.8525 22.5002 20.5556 22.0712C20.8189 21.9109 21.2137 21.6498 21.3014 21.5794L21.3631 21.5307ZM10.6777 22.6931C10.6955 22.6931 10.6907 22.7234 10.6635 22.8675C10.64 23.0075 10.6237 23.1485 10.6149 23.29C10.5793 23.8663 10.6824 24.291 10.9943 24.8716C11.082 25.0341 11.1508 25.1684 11.1472 25.1706C11.1152 25.1955 8.26601 25.9571 7.36963 26.1813L6.85386 26.3113C6.82184 26.32 6.81947 26.3135 6.83014 26.2463C6.92855 25.6689 7.41113 24.9117 8.0846 24.2747C8.53279 23.8522 8.89086 23.6009 9.50149 23.2835C9.88957 23.0801 10.2817 22.8833 10.6777 22.6931ZM17.3993 23.7926C17.4017 23.7905 17.5072 23.8414 17.6329 23.9085C18.5542 24.395 19.8383 24.851 20.9327 25.0796L21.0323 25.1013L20.8959 25.1695C20.3244 25.4599 18.4404 26.1759 16.516 26.8346C16.313 26.9039 16.1102 26.9739 15.9078 27.0447C15.877 27.0585 15.8443 27.0684 15.8105 27.074C15.8105 27.0697 15.89 26.931 15.9872 26.7642C16.5279 25.8412 17.0662 24.7199 17.3436 23.9421C17.3709 23.863 17.3958 23.7959 17.3993 23.7926ZM16.714 23.9985C16.6935 24.0609 16.6685 24.1221 16.6393 24.1815C16.2019 25.1254 15.7026 26.0442 15.1442 26.9332C15.0494 27.092 14.9497 27.2484 14.8454 27.4022C14.8394 27.4022 14.7102 27.3307 14.5561 27.2452C13.6431 26.7338 12.8345 26.1055 12.3033 25.4934L12.2274 25.4068L12.621 25.3082C13.9114 24.9928 15.1754 24.5935 16.4034 24.1133C16.5717 24.0483 16.7116 23.9952 16.714 23.9985ZM20.9706 25.3559C20.9718 25.3559 20.973 25.3569 20.973 25.3591C20.973 25.4458 20.756 26.2561 20.5746 26.8432C20.4228 27.334 20.2948 27.7186 20.0588 28.4C19.9987 28.5838 19.9322 28.7659 19.8596 28.946C18.6426 28.7559 17.4505 28.4505 16.3026 28.0349C16.0452 27.9429 15.7925 27.8406 15.5449 27.7283C15.5378 27.7207 15.7975 27.6091 16.1212 27.4791C18.0835 26.6981 20.1158 25.8076 20.8106 25.4252C20.8591 25.3938 20.9133 25.3703 20.9706 25.3559ZM11.1449 25.6624C11.1555 25.6722 10.6066 26.3893 9.8406 27.3697L9.1446 28.2613C9.02959 28.4119 8.85411 28.6491 8.75451 28.79L8.5731 29.0456L8.38102 28.8972C8.09345 28.6667 7.82513 28.4168 7.57831 28.1497C7.20838 27.7283 6.9582 27.2852 6.8586 26.8779C6.81354 26.6894 6.81117 26.5941 6.85504 26.5822C7.61839 26.4139 8.38278 26.2496 9.14816 26.0893L10.6895 25.7588C10.9374 25.7047 11.1425 25.6613 11.1449 25.6624ZM11.6962 25.8553L11.8349 25.9972C12.4143 26.5982 13.0976 27.1083 13.8577 27.5073C13.9406 27.5449 14.0182 27.5915 14.0889 27.646C12.3825 28.2112 10.6711 28.7637 8.95489 29.3034C8.9255 29.2874 8.897 29.2701 8.86952 29.2515L8.79008 29.1995L8.91458 29.0348C9.31771 28.5007 9.82518 27.9136 10.9362 26.6927L11.6962 25.8553ZM15.1347 28.101C15.1382 28.0977 15.3303 28.1595 15.5639 28.2396C16.1247 28.4314 16.5646 28.556 17.161 28.6925C17.8926 28.8604 18.9514 29.0283 19.5774 29.076C19.6723 29.0825 19.7221 29.0933 19.7079 29.102C19.6782 29.1193 19.0439 29.3121 18.5779 29.4464C16.7507 29.9543 14.9184 30.4465 13.0811 30.923C13.0396 30.9306 12.8949 30.8959 12.8949 30.8797C12.8949 30.8699 12.9981 30.7508 13.1238 30.6132C13.7507 29.9273 14.335 29.2097 14.8738 28.4639C14.9603 28.3426 15.0473 28.2217 15.1347 28.101ZM14.3735 28.1205C14.3794 28.1259 14.0735 28.5733 13.5364 29.3468C13.3087 29.6729 13.0514 30.0455 12.9637 30.1723C12.8748 30.3001 12.7455 30.4951 12.6768 30.6056L12.5499 30.806L12.4859 30.7908C12.3317 30.7529 11.2421 30.4008 10.9551 30.2969C10.6126 30.1732 10.2778 30.0325 9.95205 29.8754C9.60939 29.7064 9.17543 29.4551 9.20863 29.4454L10.5188 29.1182C12.4064 28.648 13.451 28.3783 14.1352 28.1822C14.2644 28.1465 14.3723 28.1183 14.3735 28.1205ZM19.7363 29.2699H19.7434C19.7612 29.311 19.0617 31.079 18.8068 31.6402C18.7487 31.7658 18.7285 31.7972 18.6977 31.7951C18.1303 31.7296 17.5639 31.6574 16.9986 31.5784C15.9244 31.4289 14.1257 31.1418 13.6715 31.0476L13.566 31.0259L14.2099 30.8938C15.59 30.6099 16.2528 30.4572 16.9251 30.2687C17.7916 30.025 18.6387 29.7268 19.4601 29.376C19.55 29.336 19.6422 29.3006 19.7363 29.2699Z" fill="black"/>
</g>
</g>
</svg>
