<svg width="38" height="38" viewBox="0 0 38 38" fill="none" xmlns="http://www.w3.org/2000/svg">
<g id="Group 1000005033">
<path id="Vector" d="M28.3555 0.00195312H8.68025C3.88628 0.00195312 0 3.88823 0 8.68221V28.3574C0 33.1514 3.88628 37.0377 8.68025 37.0377H28.3555C33.1495 37.0377 37.0357 33.1514 37.0357 28.3574V8.68221C37.0357 3.88823 33.1495 0.00195312 28.3555 0.00195312Z" fill="#F4F7FA"/>
<g id="mongo db">
<path id="Vector_2" fill-rule="evenodd" clip-rule="evenodd" d="M24.0503 26.7194C24.087 26.65 24.1222 26.5887 24.1521 26.5253C24.171 26.4847 24.2001 26.4766 24.2411 26.4776C24.4871 26.4845 24.7331 26.4919 24.9794 26.4943C25.1885 26.4964 25.398 26.4926 25.6073 26.4902C25.8431 26.4875 26.0789 26.4753 26.3145 26.4819C26.6282 26.4909 26.9339 26.5513 27.2177 26.6887C27.5566 26.8529 27.813 27.1031 27.9878 27.4327C28.0977 27.6417 28.1663 27.8693 28.19 28.1034C28.2273 28.4469 28.2028 28.7825 28.092 29.111C27.9548 29.5182 27.6943 29.8298 27.3323 30.0633C27.0538 30.2429 26.7483 30.3491 26.4208 30.4098C26.0743 30.4741 25.7267 30.4533 25.3791 30.4544C24.9978 30.4559 24.6168 30.4478 24.2355 30.4435C24.1688 30.4429 24.1593 30.4305 24.1769 30.3679L24.1932 30.3102C24.2303 30.1953 24.2503 30.1902 24.3688 30.1709C24.4528 30.1579 24.5332 30.1279 24.6048 30.0827C24.6448 30.0567 24.6613 29.9887 24.6769 29.9364C24.6904 29.8907 24.691 29.8405 24.6915 29.7922C24.6969 29.0606 24.7025 28.3292 24.7056 27.598C24.7064 27.4131 24.7017 27.2281 24.6915 27.0435C24.6841 26.9142 24.6139 26.8258 24.4576 26.7953C24.336 26.7716 24.2136 26.7532 24.0913 26.732L24.0503 26.7194ZM27.5408 28.4909C27.5243 28.3452 27.5162 28.1983 27.4897 28.0547C27.4263 27.7102 27.2731 27.41 27.0038 27.1749C26.5685 26.7948 26.0444 26.7363 25.495 26.7816C25.37 26.7918 25.343 26.8339 25.3411 26.9604C25.3381 27.1398 25.335 27.3193 25.3348 27.4987C25.3339 28.0677 25.3339 28.6368 25.3348 29.2059C25.335 29.3678 25.3367 29.5297 25.3415 29.6912C25.3467 29.8565 25.4077 29.9964 25.5723 30.0605C25.8318 30.1615 26.1047 30.1735 26.377 30.1323C26.8119 30.0667 27.1161 29.8174 27.3202 29.4438C27.4817 29.1473 27.5273 28.8237 27.5408 28.4909ZM28.5979 30.4286C28.5927 30.3399 28.6296 30.2666 28.6752 30.1994C28.6876 30.1812 28.7302 30.1821 28.7595 30.1763L29.0083 30.1278C29.0962 30.1094 29.1425 30.0513 29.1549 29.9665C29.1631 29.9106 29.1709 29.8539 29.1716 29.7973C29.1775 29.3494 29.1817 28.9015 29.1844 28.4535C29.1866 28.0049 29.1848 27.5564 29.1848 27.1078L29.1829 27.0221C29.174 26.8779 29.1032 26.8032 28.9577 26.782L28.6422 26.7348C28.6034 26.7297 28.5893 26.7113 28.6034 26.6774C28.6277 26.6195 28.6509 26.5594 28.6852 26.5073C28.698 26.4881 28.7412 26.4806 28.7703 26.4813C28.921 26.4834 29.0717 26.4945 29.2224 26.4943L30.534 26.4866C30.7868 26.4864 31.0308 26.5297 31.2575 26.6487C31.507 26.7795 31.6466 26.9817 31.6865 27.2573C31.7282 27.5467 31.639 27.7907 31.424 27.9844C31.3356 28.0643 31.2212 28.1164 31.1187 28.1814L31.0853 28.2019C31.1804 28.2363 31.2709 28.266 31.3591 28.3014C31.617 28.4055 31.8222 28.568 31.9308 28.8276C32.0165 29.0324 32.0165 29.246 31.9657 29.4583C31.8867 29.7907 31.6641 30.0118 31.3747 30.1791C31.1031 30.3361 30.8091 30.4275 30.496 30.4429C30.2073 30.4572 29.9172 30.4518 29.6278 30.455L29.4601 30.4559C29.1812 30.4496 28.9023 30.4428 28.6233 30.4354L28.5979 30.4286ZM29.8001 29.1279H29.803C29.803 29.2684 29.801 29.409 29.8036 29.5496C29.8054 29.6406 29.8021 29.7341 29.8221 29.8217C29.852 29.9526 29.9128 30.0708 30.0622 30.1084C30.2619 30.16 30.4705 30.169 30.6741 30.1348C30.9296 30.0911 31.1335 29.965 31.2453 29.7256C31.3283 29.5476 31.3406 29.359 31.3122 29.1663C31.2744 28.9126 31.1374 28.7284 30.9096 28.6077C30.7603 28.5285 30.6009 28.48 30.4311 28.4736C30.2409 28.4666 30.0505 28.4661 29.8603 28.4604C29.8069 28.4589 29.7995 28.4856 29.7997 28.5287C29.8008 28.7282 29.8001 28.928 29.8001 29.1279ZM30.2051 28.172C30.3091 28.1669 30.4268 28.1654 30.5438 28.1538C30.7679 28.1318 30.9257 28.021 31.008 27.8101C31.0499 27.7031 31.0482 27.5929 31.0493 27.4816C31.0525 27.1917 30.8806 26.9542 30.6007 26.8559C30.3846 26.7801 30.1619 26.7788 29.9378 26.7848C29.847 26.7871 29.8064 26.8262 29.8051 26.9162L29.7917 28.0887C29.791 28.1352 29.8114 28.1553 29.8575 28.1568L30.2051 28.172Z" fill="#94795D"/>
<path id="Vector_3" fill-rule="evenodd" clip-rule="evenodd" d="M7.39318 30.2057L7.37733 30.4073C7.22968 30.4073 7.09355 30.4062 6.95741 30.4077C6.70099 30.4103 6.44456 30.4144 6.18792 30.418L6.16317 30.4195C6.12648 30.4152 6.05982 30.4152 6.05809 30.4045C6.04723 30.3445 6.0507 30.2815 6.05353 30.2193C6.05374 30.2123 6.07871 30.2033 6.09326 30.1999L6.2928 30.1561C6.41721 30.1243 6.46107 30.0715 6.46693 29.9451C6.47366 29.8026 6.48039 29.6599 6.48104 29.5174C6.48299 29.1667 6.48082 28.8163 6.48234 28.4656C6.48256 28.3836 6.45368 28.3225 6.37595 28.2892C6.28359 28.2488 6.19058 28.2099 6.09695 28.1725C6.05266 28.155 5.99512 28.1454 6.00033 28.0869C6.00554 28.0273 6.06134 28.0117 6.11389 27.9999C6.33144 27.951 6.54922 27.9034 6.76612 27.8513C6.83604 27.8344 6.90291 27.806 6.9865 27.7773C6.99085 27.8218 6.99888 27.8641 6.99801 27.9064L6.9852 28.1074C6.98498 28.13 6.99693 28.1603 7.01408 28.1729C7.0245 28.1809 7.05946 28.1665 7.07683 28.1533C7.26225 28.0144 7.45853 27.8946 7.68238 27.8248C8.02913 27.7165 8.3268 27.8169 8.53524 28.111C8.60863 28.2146 8.60885 28.2146 8.71068 28.1422C8.88546 28.0172 9.06828 27.907 9.27281 27.8344C9.72182 27.6748 10.1532 27.8773 10.3094 28.3223C10.3662 28.4838 10.388 28.6506 10.3875 28.821L10.3834 29.9527C10.3832 30.0461 10.4147 30.0993 10.505 30.1283C10.6064 30.161 10.7115 30.1834 10.8257 30.2129L10.7992 30.4075C10.6693 30.4075 10.5499 30.4067 10.4305 30.4077C10.1387 30.4103 9.84688 30.4118 9.55529 30.4184C9.50448 30.4197 9.49124 30.4073 9.48863 30.3605C9.48016 30.2108 9.47886 30.211 9.62216 30.1773L9.67036 30.1651C9.81041 30.1275 9.85709 30.0852 9.85817 29.9455C9.86143 29.5443 9.8699 29.1421 9.84927 28.7418C9.82778 28.3265 9.49276 28.1054 9.0837 28.2118C8.95167 28.2474 8.82733 28.3063 8.71676 28.3857C8.67876 28.4124 8.6716 28.4432 8.67464 28.4899C8.68614 28.6668 8.69331 28.8439 8.69483 29.021C8.69743 29.3309 8.69353 29.6409 8.69483 29.951C8.69526 30.0766 8.7389 30.1247 8.86505 30.1538L9.05243 30.1963L9.08717 30.204C9.08977 30.2629 9.09216 30.3219 9.08934 30.3808C9.0876 30.4178 9.05851 30.421 9.02594 30.4203C8.84377 30.4159 8.66139 30.4099 8.47922 30.4103C8.25754 30.4107 8.03608 30.4169 7.81461 30.4208H7.7625C7.7625 30.3582 7.75946 30.2984 7.76467 30.2388C7.76576 30.2245 7.79138 30.2044 7.80897 30.1999L8.02739 30.1544C8.1201 30.132 8.1644 30.0852 8.16961 29.9925C8.19436 29.5631 8.21216 29.1336 8.17113 28.7044C8.16113 28.6197 8.13722 28.5371 8.10035 28.4598C7.98853 28.2167 7.73688 28.1153 7.44659 28.1883C7.30871 28.2229 7.1843 28.2851 7.06662 28.3635C7.04096 28.379 7.01988 28.4009 7.00548 28.427C6.99108 28.453 6.98387 28.4823 6.98455 28.5119C6.98455 28.9402 6.98607 29.3685 6.98737 29.7966L6.98976 29.9617C6.99237 30.0769 7.04209 30.1375 7.15825 30.1623C7.23294 30.179 7.3085 30.1903 7.39318 30.2057Z" fill="#50382B"/>
<path id="Vector_4" fill-rule="evenodd" clip-rule="evenodd" d="M20.5203 27.8214C20.554 27.9824 20.5533 28.1273 20.433 28.2371C20.3136 28.3462 20.1625 28.3095 20.0151 28.2851C20.0288 28.3616 20.044 28.4265 20.0513 28.4923C20.105 28.9813 19.8911 29.3442 19.4301 29.5516C19.256 29.6298 19.0712 29.6589 18.8826 29.6738C18.7888 29.6811 18.7067 29.7516 18.6978 29.8274C18.6887 29.9043 18.7377 29.9833 18.8359 30.0064C18.9516 30.0335 19.0723 30.0412 19.1911 30.0547C19.446 30.0833 19.7037 30.0963 19.9556 30.1412C20.3364 30.2087 20.549 30.5357 20.4819 30.9121C20.4222 31.247 20.225 31.4908 19.9502 31.6777C19.487 31.9934 18.979 32.0857 18.4379 31.9246C18.1285 31.8323 17.9103 31.6322 17.8349 31.3083C17.7972 31.1462 17.8373 30.9995 17.9613 30.8895C18.1087 30.7592 18.2692 30.643 18.4236 30.5199L18.4735 30.4706L18.4162 30.4311C18.2588 30.3576 18.1328 30.257 18.084 30.0822C18.0673 30.0231 18.0846 29.9842 18.1357 29.9538C18.2225 29.9024 18.3089 29.85 18.3947 29.7968C18.4351 29.7721 18.475 29.7464 18.5126 29.7178C18.5638 29.6794 18.5593 29.6507 18.498 29.6285C18.3556 29.5768 18.229 29.5018 18.1309 29.3865C17.967 29.194 17.9205 28.9648 17.9339 28.7228C17.955 28.3447 18.1637 28.0957 18.5028 27.9354C18.906 27.7451 19.3105 27.7332 19.7215 27.9066C19.8735 27.9707 20.0337 27.9844 20.1968 27.9733C20.3186 27.9647 20.425 27.9194 20.5203 27.8214ZM19.0345 30.5302C18.7319 30.5276 18.637 30.5643 18.4594 30.7423C18.2605 30.9418 18.2616 31.2184 18.46 31.4188C18.6107 31.5707 18.7988 31.6418 19.0078 31.6632C19.2521 31.6879 19.4927 31.6779 19.7146 31.5576C19.9512 31.4288 20.0689 31.1896 20.0157 30.9486C19.9716 30.7498 19.8227 30.6588 19.6414 30.6064C19.4351 30.547 19.2219 30.5357 19.0345 30.5302ZM18.4401 28.6273C18.4511 28.71 18.4557 28.7937 18.4744 28.8747C18.5228 29.0845 18.6155 29.2688 18.8276 29.3621C19.0767 29.4722 19.3948 29.4249 19.5037 29.081C19.5782 28.8522 19.5695 28.605 19.4792 28.3817C19.4409 28.2796 19.372 28.1914 19.2816 28.1288C19.0654 27.9803 18.6752 27.9607 18.5163 28.2888C18.4646 28.3953 18.4444 28.5088 18.4401 28.6273Z" fill="#4F382B"/>
<path id="Vector_5" fill-rule="evenodd" clip-rule="evenodd" d="M15.3852 27.7685C15.3932 27.8051 15.4093 27.8465 15.4097 27.8882C15.4104 27.9674 15.4017 28.0467 15.3971 28.1259V28.1947L15.4653 28.1434C15.652 27.9922 15.8527 27.8634 16.0863 27.794C16.5079 27.669 16.9292 27.8961 17.0666 28.3186C17.1187 28.4792 17.1393 28.6443 17.1413 28.8122C17.1456 29.1852 17.1482 29.5582 17.1521 29.9311C17.1534 30.0651 17.1691 30.089 17.2978 30.1277C17.3711 30.1492 17.4458 30.1655 17.5215 30.1766C17.5629 30.183 17.5807 30.199 17.5786 30.2389L17.579 30.2757C17.5775 30.4301 17.5666 30.4372 17.4144 30.4368C17.0501 30.4361 16.686 30.4382 16.3216 30.4412C16.2131 30.4421 16.2129 30.4453 16.202 30.3398L16.1998 30.2791C16.2066 30.1881 16.2087 30.189 16.2997 30.1757C16.3609 30.1667 16.4217 30.1529 16.4814 30.1375C16.5429 30.1219 16.5724 30.0772 16.5807 30.0174C16.5848 29.9871 16.5902 29.9568 16.59 29.9264C16.5848 29.5189 16.5915 29.1109 16.5689 28.7039C16.5507 28.3748 16.2954 28.1787 15.9595 28.2011C15.7976 28.2121 15.6419 28.2671 15.5098 28.3598C15.4201 28.4216 15.4021 28.5106 15.4026 28.6065C15.4043 28.9876 15.408 29.3687 15.4121 29.75C15.413 29.8335 15.4154 29.917 15.4234 29.9999C15.4319 30.0905 15.4642 30.127 15.5545 30.1467C15.641 30.1655 15.7291 30.1764 15.8214 30.1915L15.8292 30.2616C15.8322 30.425 15.8149 30.4372 15.6536 30.4365C15.2768 30.435 14.9001 30.4374 14.5236 30.4415C14.4644 30.4423 14.4392 30.4239 14.4407 30.3671L14.4398 30.3428C14.4301 30.1956 14.4344 30.19 14.576 30.1661L14.6428 30.1529C14.7961 30.1189 14.8354 30.0787 14.8376 29.9256C14.8448 29.4405 14.8474 28.9556 14.8524 28.4705C14.853 28.4008 14.8263 28.3468 14.7603 28.318C14.6677 28.278 14.5745 28.2393 14.4809 28.2017C14.4292 28.1808 14.3701 28.1676 14.3682 28.0973C14.3669 28.0477 14.4207 28.0039 14.4943 27.9892C14.6422 27.9597 14.7914 27.9352 14.9375 27.8991C15.083 27.8634 15.2258 27.8155 15.3852 27.7685Z" fill="#4F372B"/>
<path id="Vector_6" fill-rule="evenodd" clip-rule="evenodd" d="M23.5307 29.0343C23.5237 29.4874 23.4041 29.8537 23.0784 30.1286C22.6659 30.4774 22.0223 30.596 21.4962 30.3352C21.2717 30.2239 21.1067 30.0532 20.9992 29.8317C20.8344 29.491 20.7932 29.1328 20.8792 28.7658C20.9643 28.4029 21.1877 28.1399 21.5221 27.9697C21.866 27.7947 22.2282 27.7264 22.6101 27.8182C23.0932 27.9342 23.4404 28.3217 23.5094 28.8151C23.5218 28.9016 23.5266 28.9892 23.5307 29.0343ZM22.9712 29.2797L22.9525 29.2776C22.9525 29.2349 22.9549 29.1921 22.952 29.1494C22.9362 28.8833 22.8754 28.6297 22.7186 28.4069C22.5699 28.1959 22.3673 28.0713 22.1037 28.0532C21.8087 28.0327 21.5607 28.195 21.4737 28.4915C21.3429 28.9367 21.3872 29.3705 21.617 29.7783C21.717 29.956 21.8653 30.0872 22.064 30.1562C22.4533 30.291 22.7985 30.1164 22.8999 29.7242C22.9373 29.5794 22.9481 29.428 22.9712 29.2797Z" fill="#4F382B"/>
<path id="Vector_7" fill-rule="evenodd" clip-rule="evenodd" d="M13.9675 29.0704C13.9594 29.3955 13.8815 29.6961 13.6774 29.9573C13.4588 30.2371 13.1583 30.3867 12.8165 30.4497C12.4124 30.524 12.0329 30.4565 11.7083 30.1897C11.5542 30.0628 11.4489 29.9003 11.3794 29.7153C11.2654 29.412 11.2369 29.1011 11.3071 28.7844C11.382 28.4454 11.5765 28.1863 11.8781 28.0124C12.2268 27.8118 12.6031 27.7223 13.005 27.8124C13.5217 27.9286 13.8201 28.26 13.9304 28.7615C13.9525 28.8628 13.9555 28.9674 13.9675 29.0704ZM13.4017 29.2849L13.3867 29.2827V29.2216C13.3782 28.9234 13.3189 28.6393 13.1381 28.3915C13.0041 28.2076 12.8248 28.0923 12.5948 28.06C12.2201 28.0075 11.9752 28.2262 11.894 28.5233C11.788 28.9115 11.8212 29.2949 11.9851 29.6629C12.0874 29.8924 12.249 30.0712 12.4971 30.1579C12.884 30.2931 13.2345 30.1141 13.3324 29.7234C13.3684 29.5805 13.3793 29.4314 13.4017 29.2849Z" fill="#4F372B"/>
<path id="Vector_8" fill-rule="evenodd" clip-rule="evenodd" d="M22.9874 12.4951C23.2538 13.2528 23.4453 14.0263 23.5085 14.8277C23.5866 15.8223 23.551 16.81 23.3378 17.7882L23.3105 17.8663C23.2436 17.8666 23.1754 17.8582 23.1101 17.8683C22.5579 17.9537 22.0064 18.0421 21.4547 18.1302C20.8843 18.2212 20.3135 18.3085 19.7442 18.4055C19.5425 18.4397 19.2928 18.3989 19.2114 18.6732L19.1723 18.6862L19.1999 17.0461L19.1719 13.0887L19.4376 13.0439C19.8721 12.974 20.3066 12.9029 20.7417 12.8348C21.2606 12.7538 21.78 12.6748 22.2993 12.5957C22.5286 12.5611 22.7581 12.5289 22.9874 12.4951Z" fill="#439934"/>
<path id="Vector_9" fill-rule="evenodd" clip-rule="evenodd" d="M18.6227 23.467C18.3424 23.2299 18.0523 23.0033 17.7837 22.7538C16.3381 21.4123 15.2805 19.8331 14.7596 17.9292C14.6161 17.4054 14.5206 16.8729 14.4897 16.3316C14.468 15.9526 14.437 15.5705 14.4643 15.1935C14.5366 14.191 14.6841 13.1981 14.9828 12.2324L14.9993 12.21C15.0284 12.248 15.0701 12.2817 15.0849 12.3247C15.3767 13.1697 15.6661 14.0156 15.9542 14.8621C16.8594 17.5218 17.7635 20.1821 18.6702 22.8413C18.688 22.8932 18.7339 22.9358 18.7669 22.9825L18.6227 23.467Z" fill="#45A538"/>
<path id="Vector_10" fill-rule="evenodd" clip-rule="evenodd" d="M22.9871 12.4939C22.7576 12.5274 22.5281 12.5599 22.299 12.5945C21.7797 12.6735 21.2603 12.7526 20.7414 12.8335C20.3065 12.9015 19.872 12.9726 19.4374 13.0427L19.1716 13.0875L19.1694 12.917C19.1605 12.7769 19.1458 12.6368 19.1438 12.4967L19.1141 9.815C19.1071 9.25555 19.0967 8.69611 19.0852 8.13688C19.0793 7.78929 19.0691 7.4418 19.0546 7.09446C19.0459 6.90798 19.0153 6.72235 19.0031 6.53587C18.9959 6.42864 19.0055 6.32055 19.0079 6.21289C19.1434 6.47115 19.276 6.73132 19.4152 6.98765C19.6352 7.39287 19.9858 7.6915 20.3017 8.01726C21.5493 9.30554 22.435 10.8025 22.9871 12.4939Z" fill="#46A037"/>
<path id="Vector_11" fill-rule="evenodd" clip-rule="evenodd" d="M19.1722 18.6852L19.2112 18.6722C19.2927 18.3979 19.5423 18.4387 19.7441 18.4045C20.3134 18.3075 20.8842 18.2202 21.4546 18.1292C22.0063 18.0414 22.5578 17.9529 23.1099 17.8673C23.1753 17.8572 23.2434 17.8656 23.3103 17.8653C23.2072 18.2276 23.126 18.5978 22.995 18.9501C22.8463 19.3495 22.6665 19.7396 22.4757 20.1219C22.1898 20.6921 21.8361 21.2269 21.422 21.715C21.1037 22.0914 20.7489 22.4398 20.3935 22.7835C20.1968 22.9734 19.9653 23.1283 19.7495 23.2992L19.6935 23.2616L19.4922 23.0924L19.284 22.643C19.1417 22.1189 19.0641 21.5798 19.0527 21.0375L19.0566 20.946L19.0851 20.55C19.0944 20.4148 19.107 20.2798 19.1129 20.1446C19.1337 19.6584 19.1524 19.1718 19.1722 18.6852Z" fill="#409433"/>
<path id="Vector_12" fill-rule="evenodd" clip-rule="evenodd" d="M19.1722 18.6871C19.1526 19.1737 19.134 19.6605 19.1129 20.1471C19.107 20.2826 19.0947 20.4176 19.0851 20.5526L18.9583 20.5998C18.6765 19.7836 18.3944 18.9759 18.1187 18.1663C17.6625 16.8268 17.212 15.4853 16.7565 14.1453C16.3886 13.0639 16.0182 11.9833 15.6452 10.9036C15.6276 10.8532 15.5777 10.8134 15.543 10.7688L16.355 9.2998C16.383 9.34744 16.4197 9.39208 16.4373 9.44335C16.8129 10.537 17.1879 11.6309 17.5596 12.7259C18.0434 14.1507 18.5239 15.5761 19.0072 17.0011C19.0265 17.0579 19.0582 17.1105 19.0886 17.1743L19.1998 17.047L19.1722 18.6871Z" fill="#4FAA41"/>
<path id="Vector_13" fill-rule="evenodd" clip-rule="evenodd" d="M15.5428 10.7676C15.5778 10.8122 15.6277 10.852 15.6451 10.9024C16.0181 11.9821 16.3885 13.0627 16.7563 14.1441C17.2118 15.4841 17.6624 16.8256 18.1185 18.1651C18.3943 18.9747 18.6763 19.7821 18.9582 20.5986L19.085 20.5514L19.0565 20.9474L19.0307 21.0386C18.9866 21.472 18.9495 21.9063 18.8956 22.3388C18.8687 22.5557 18.8112 22.7684 18.7675 22.9829C18.7347 22.9361 18.6887 22.8936 18.6709 22.8417C17.764 20.1824 16.8601 17.5221 15.9549 14.8625C15.6669 14.0161 15.3771 13.1702 15.0855 12.325C15.0708 12.2821 15.0291 12.2483 15 12.2103L15.5428 10.7676Z" fill="#4AA73C"/>
<path id="Vector_14" fill-rule="evenodd" clip-rule="evenodd" d="M19.1992 17.0468L19.0881 17.1741C19.0577 17.1103 19.026 17.0577 19.0067 17.0009C18.5233 15.5759 18.0428 14.1505 17.5591 12.7257C17.1869 11.6309 16.8128 10.5367 16.4368 9.44315C16.4192 9.39188 16.3825 9.34724 16.3545 9.2996L17.3587 8C17.3904 8.04144 17.4355 8.0784 17.4518 8.12518C17.7306 8.92835 18.0068 9.73217 18.2817 10.5366C18.5383 11.2881 18.791 12.0404 19.0507 12.7906C19.0681 12.8408 19.1287 12.8763 19.1691 12.919L19.1712 13.0895L19.1992 17.0468Z" fill="#57AE47"/>
<path id="Vector_15" fill-rule="evenodd" clip-rule="evenodd" d="M19.1693 12.9195C19.1287 12.877 19.0683 12.8415 19.0509 12.7911C18.7915 12.0409 18.5385 11.2886 18.2819 10.5371C18.0072 9.73265 17.7306 8.92883 17.452 8.12567C17.4357 8.07889 17.3906 8.04193 17.3589 8.00049C17.6854 7.68584 18.0018 7.35987 18.3416 7.05975C18.6436 6.79317 18.8863 6.50735 18.8976 6.0859L18.9215 6.00195L19.0075 6.21514C19.0053 6.3228 18.9956 6.43088 19.0027 6.53811C19.0151 6.7246 19.0457 6.91022 19.0542 7.09671C19.07 7.44382 19.0776 7.79158 19.0848 8.13912C19.0963 8.69836 19.1067 9.2578 19.1137 9.81725L19.1434 12.4989C19.1456 12.6392 19.1606 12.7794 19.1693 12.9195Z" fill="#60B24F"/>
<path id="Vector_16" fill-rule="evenodd" clip-rule="evenodd" d="M18.7674 22.9821C18.8111 22.7677 18.8686 22.5549 18.8955 22.3381C18.9494 21.9057 18.9865 21.4713 19.0306 21.0378L19.0417 21.0361L19.0525 21.0381C19.0638 21.5804 19.1415 22.1195 19.2838 22.6436C19.2544 22.6816 19.2134 22.7151 19.1978 22.7578C19.0773 23.0923 18.9635 23.4296 18.8423 23.7639C18.8258 23.8096 18.7794 23.8453 18.747 23.8853L18.623 23.4666L18.7674 22.9821Z" fill="#A9AA88"/>
<path id="Vector_17" fill-rule="evenodd" clip-rule="evenodd" d="M18.7466 23.8892C18.7789 23.849 18.8254 23.8136 18.8419 23.7678C18.9631 23.4335 19.0768 23.0963 19.1973 22.7617C19.2127 22.719 19.254 22.6855 19.2833 22.6475L19.4915 23.0969C19.4505 23.1541 19.3936 23.2061 19.3708 23.2699L18.9722 24.4217C18.9557 24.4681 18.8999 24.5005 18.8621 24.5396L18.7466 23.8892Z" fill="#B6B598"/>
<path id="Vector_18" fill-rule="evenodd" clip-rule="evenodd" d="M18.8633 24.5355C18.9008 24.4964 18.9569 24.4639 18.9734 24.4176L19.372 23.2658C19.3946 23.2019 19.4517 23.15 19.4927 23.0928L19.6942 23.2617C19.5969 23.3564 19.5429 23.4657 19.5754 23.6039L19.5142 23.8011C19.4864 23.8349 19.446 23.8643 19.4324 23.903C19.2932 24.2952 19.1605 24.6895 19.0203 25.0815C19.0025 25.131 18.9532 25.1701 18.9186 25.2141L18.8633 24.5355Z" fill="#C2C1A7"/>
<path id="Vector_19" fill-rule="evenodd" clip-rule="evenodd" d="M18.9182 25.2167C18.9529 25.1727 19.0022 25.1336 19.0198 25.0841C19.16 24.6921 19.2929 24.2978 19.4319 23.9056C19.4455 23.8669 19.4859 23.8377 19.5137 23.8037L19.4293 24.7086C19.4067 24.7342 19.3741 24.7566 19.3633 24.7863L19.0823 25.5784C19.0625 25.6324 19.0248 25.6807 18.9952 25.7313C18.969 25.6976 18.9221 25.6649 18.9199 25.6299C18.9116 25.4927 18.9175 25.3545 18.9182 25.2167Z" fill="#CECDB7"/>
<path id="Vector_20" fill-rule="evenodd" clip-rule="evenodd" d="M18.9951 25.7288C19.0246 25.6782 19.0624 25.6299 19.0822 25.5759L19.3631 24.7838C19.374 24.7539 19.4068 24.7317 19.4291 24.7061L19.4313 25.2999L19.2292 25.8098L18.9951 25.7288Z" fill="#DBDAC7"/>
<path id="Vector_21" fill-rule="evenodd" clip-rule="evenodd" d="M19.2295 25.8097L19.4316 25.2998L19.4733 25.903L19.2295 25.8097Z" fill="#EBE9DC"/>
<path id="Vector_22" fill-rule="evenodd" clip-rule="evenodd" d="M19.5744 23.6052C19.542 23.4671 19.5959 23.3576 19.6932 23.2627L19.7493 23.3003L19.5744 23.6052Z" fill="#CECDB7"/>
<path id="Vector_23" fill-rule="evenodd" clip-rule="evenodd" d="M19.0527 21.0407L19.0418 21.0387L19.0308 21.0404L19.0566 20.9492L19.0527 21.0407Z" fill="#4FAA41"/>
</g>
</g>
</svg>
