<svg width="92" height="92" viewBox="0 0 92 92" fill="none" xmlns="http://www.w3.org/2000/svg">
<g clip-path="url(#clip0_1_46418)">
<path d="M45.875 91.75C71.2111 91.75 91.75 71.2111 91.75 45.875C91.75 20.5389 71.2111 0 45.875 0C20.5389 0 0 20.5389 0 45.875C0 71.2111 20.5389 91.75 45.875 91.75Z" fill="#324A5E" fill-opacity="0.1"/>
<path d="M91.0955 53.6205L55.8596 18.3845L40.7084 27.1717L36.7849 37.0444L46.6473 48.3466L28.1774 49.7369L26.2071 51.2299L26.0901 54.3939L19.8101 70.5245L40.5916 91.4453C42.3252 91.6444 44.0872 91.7501 45.8748 91.7501C68.5707 91.7501 87.414 75.2676 91.0955 53.6205Z" fill="#2B3B4E" fill-opacity="0.1"/>
<path d="M62.4004 47.9903H46.802V37.5303H44.9486V47.9903H29.3502C26.8152 47.9903 24.7524 50.1463 24.7524 52.7966V66.6786H26.6059V52.7966C26.6059 51.1682 27.8366 49.8439 29.35 49.8439H44.9484V65.8905H46.8018V49.8438H62.4002C63.9134 49.8438 65.1443 51.1681 65.1443 52.7964V66.6785H66.9978V52.7964C66.9981 50.1464 64.9354 47.9903 62.4004 47.9903Z" fill="#F4E3C3"/>
<path d="M62.4003 47.9903H46.8019V37.5303H45.7722V65.8909H46.8019V49.8441H62.4003C63.9135 49.8441 65.1444 51.1684 65.1444 52.7968V66.679H66.9978V52.797C66.998 50.1464 64.9352 47.9903 62.4003 47.9903Z" fill="#FED8B2"/>
<path d="M25.435 72.867C29.8411 72.867 33.4129 69.2952 33.4129 64.8891C33.4129 60.483 29.8411 56.9111 25.435 56.9111C21.0289 56.9111 17.457 60.483 17.457 64.8891C17.457 69.2952 21.0289 72.867 25.435 72.867Z" fill="#1C63ED"/>
<path d="M45.8774 72.867C50.2835 72.867 53.8553 69.2952 53.8553 64.8891C53.8553 60.483 50.2835 56.9111 45.8774 56.9111C41.4713 56.9111 37.8994 60.483 37.8994 64.8891C37.8994 69.2952 41.4713 72.867 45.8774 72.867Z" fill="#1C63ED"/>
<path d="M66.321 72.867C70.7271 72.867 74.2989 69.2952 74.2989 64.8891C74.2989 60.483 70.7271 56.9111 66.321 56.9111C61.9149 56.9111 58.343 60.483 58.343 64.8891C58.343 69.2952 61.9149 72.867 66.321 72.867Z" fill="#1C63ED"/>
<path d="M25.4326 56.9111C29.8388 56.9111 33.4106 60.4829 33.4106 64.8891C33.4106 69.2952 29.8388 72.867 25.4326 72.867V56.9111Z" fill="#1C63ED"/>
<path d="M45.8751 56.9111C45.8405 56.9111 45.8064 56.9133 45.7722 56.9136V72.864C45.8064 72.8643 45.8405 72.8665 45.8751 72.8665C50.2809 72.8665 53.853 69.2947 53.853 64.8885C53.853 60.4829 50.2809 56.9111 45.8751 56.9111Z" fill="#1C63ED"/>
<path d="M66.3186 56.9111C70.7244 56.9111 74.2966 60.4829 74.2966 64.8891C74.2966 69.2952 70.7248 72.867 66.3186 72.867V56.9111Z" fill="#1C63ED"/>
<path d="M45.8748 40.6171C53.2539 40.6171 59.2357 34.6352 59.2357 27.2562C59.2357 19.8771 53.2539 13.8953 45.8748 13.8953C38.4958 13.8953 32.5139 19.8771 32.5139 27.2562C32.5139 34.6352 38.4958 40.6171 45.8748 40.6171Z" fill="#E9EFF4"/>
<path d="M45.8751 13.8977C45.8405 13.8977 45.8068 13.9002 45.7722 13.9002V40.6149C45.8068 40.6152 45.8405 40.6177 45.8751 40.6177C53.2536 40.6177 59.2351 34.6364 59.2351 27.2577C59.2351 19.879 53.2536 13.8977 45.8751 13.8977Z" fill="#B8C9D9"/>
<path d="M53.8667 34.5988H37.8831V31.8899C37.8831 29.9644 39.1154 28.2548 40.942 27.6459L43.8771 26.6675H47.8731L50.8082 27.6459C52.6347 28.2548 53.8671 29.9644 53.8671 31.8899V34.5988H53.8667Z" fill="white"/>
<path d="M53.8672 31.8899C53.8672 29.9644 52.6348 28.2548 50.8083 27.6459L47.8732 26.6675H45.7722V34.5988H53.867L53.8672 31.8899Z" fill="#D0D1D3"/>
<path d="M47.8736 26.6672L45.8755 28.6649L43.8774 26.6672V24.6689H47.8736V26.6672Z" fill="#FED8B2"/>
<path d="M45.7722 24.6689V28.562L45.8751 28.6649L47.8731 26.6672V24.6689H45.7722Z" fill="#EFC095"/>
<path d="M41.8789 20.673C41.8789 18.4659 43.6679 16.677 45.8749 16.677C48.0819 16.677 49.8708 18.4659 49.8708 20.673C49.8708 22.88 48.0819 26.667 45.8749 26.667C43.6679 26.667 41.8789 22.8798 41.8789 20.673Z" fill="#F4E3C3"/>
<path d="M45.8751 16.677C45.8405 16.677 45.8068 16.6813 45.7722 16.6822V26.6613C45.8064 26.6631 45.8405 26.6668 45.8751 26.6668C48.0821 26.6668 49.871 22.8798 49.871 20.6728C49.871 18.4658 48.0821 16.677 45.8751 16.677Z" fill="#FED8B2"/>
<path d="M49.8708 20.673C49.8708 18.4659 48.0819 16.677 45.8749 16.677C43.6679 16.677 41.8789 18.4659 41.8789 20.673C41.8789 21.5537 42.1644 22.6855 42.6471 23.7285C42.5341 23.1282 42.5643 22.5144 42.6237 22.0514C45.1602 21.8525 47.6079 20.6658 47.6079 20.6658C47.6079 20.6658 47.9177 21.2351 49.0797 21.7417C49.1619 22.2144 49.2435 22.983 49.1019 23.7306C49.585 22.6872 49.8708 21.5543 49.8708 20.673Z" fill="#434344"/>
<path d="M49.871 20.673C49.871 18.4659 48.0821 16.677 45.8751 16.677C45.8405 16.677 45.8068 16.6813 45.7722 16.6822V21.3824C46.8634 21.0256 47.6078 20.6658 47.6078 20.6658C47.6078 20.6658 47.9176 21.2351 49.0795 21.7417C49.1618 22.2144 49.2433 22.983 49.1017 23.7306C49.5852 22.6872 49.871 21.5539 49.871 20.673Z" fill="#272525"/>
<path d="M45.0349 34.5291L45.5949 29.3306H46.1551L46.7154 34.5291H45.0349Z" fill="#F7BC6D"/>
<path d="M46.155 29.3306H45.7722V34.5291H46.7153L46.155 29.3306Z" fill="#1C63ED"/>
<path d="M42.963 26.9712L40.942 27.645C39.1154 28.2539 37.8831 29.9635 37.8831 31.889V34.5979H45.7719V34.2612L42.963 26.9712Z" fill="#734B46"/>
<path d="M53.8672 31.889C53.8672 29.9635 52.6348 28.2539 50.8083 27.645L48.7872 26.9712L45.8751 34.528L45.7722 34.2612V34.5979H53.8668V31.889H53.8672Z" fill="#57442F"/>
<path d="M48.787 26.9712L49.3407 29.3296L48.2904 29.8547L49.3407 31.0627L45.875 34.5282L48.787 26.9712Z" fill="#443424"/>
<path d="M42.9632 26.9712L42.4097 29.3296L43.46 29.8547L42.4097 31.0627L45.8754 34.5282L42.9632 26.9712Z" fill="#633E3B"/>
<path d="M46.9779 28.6741L46.2428 30.4073H45.5077L44.7725 28.6741H46.9779Z" fill="#1C63ED"/>
<path d="M46.9777 28.6741H45.7722V30.4073H46.2426L46.9777 28.6741Z" fill="#1C63ED"/>
<path d="M47.6077 29.3304L48.787 26.9719L47.8731 26.6675L45.875 28.6652L47.6077 29.3304Z" fill="#E9EFF4"/>
<path d="M44.1427 29.3304L42.9634 26.9719L43.8773 26.6675L45.8754 28.6652L44.1427 29.3304Z" fill="white"/>
</g>
<defs>
<clipPath id="clip0_1_46418">
<rect width="91.75" height="91.75" fill="white"/>
</clipPath>
</defs>
</svg>
