<svg width="37" height="38" viewBox="0 0 37 38" fill="none" xmlns="http://www.w3.org/2000/svg">
<g id="skill-icons:postgresql-light" clip-path="url(#clip0_1_49011)">
<g id="Group">
<path id="Vector" d="M28.386 0.329102H8.71077C3.9168 0.329102 0.0305176 4.21538 0.0305176 9.00935V28.6846C0.0305176 33.4786 3.9168 37.3648 8.71077 37.3648H28.386C33.18 37.3648 37.0663 33.4786 37.0663 28.6846V9.00935C37.0663 4.21538 33.18 0.329102 28.386 0.329102Z" fill="#F4F7FA"/>
<g id="Clip path group">
<mask id="mask0_1_49011" style="mask-type:luminance" maskUnits="userSpaceOnUse" x="5" y="5" width="27" height="27">
<g id="skillIconsPostgresqlLight0">
<path id="Vector_2" d="M5.52808 5.82715H31.5688V31.8679H5.52808V5.82715Z" fill="white"/>
</g>
</mask>
<g mask="url(#mask0_1_49011)">
<g id="Group_2">
<path id="Vector_3" d="M24.8379 24.7799C25.0037 23.3996 24.954 23.1983 25.9813 23.4211L26.2427 23.4443C27.0332 23.4799 28.0665 23.3172 28.684 23.0355C29.9913 22.4292 30.7663 21.4161 29.4775 21.6825C26.5377 22.2889 26.3241 21.2929 26.3241 21.2929C29.4296 16.685 30.7286 10.836 29.6067 9.40476C26.551 5.49864 21.2604 7.34594 21.172 7.3947L21.1435 7.39976C20.5636 7.2778 19.9227 7.20648 19.1801 7.19636C17.8497 7.1761 16.8407 7.5453 16.0736 8.12615C16.0736 8.12615 6.63688 4.23827 7.07524 13.0159C7.16884 14.8834 9.75064 27.1552 12.8327 23.4423C13.9608 22.0854 15.0494 20.9389 15.0494 20.9389C15.5884 21.298 16.2364 21.4812 16.9149 21.415L16.9677 21.3703C16.9521 21.5462 16.9593 21.7233 16.9891 21.8972C16.1957 22.7842 16.4297 22.9399 14.8428 23.2664C13.2376 23.597 14.1816 24.1859 14.796 24.3406C15.5427 24.5278 17.2699 24.7922 18.4377 23.1586L18.3908 23.3447C18.7021 23.5939 18.6807 25.135 18.7265 26.2356C18.7723 27.3363 18.8445 28.3647 19.0693 28.9699C19.2941 29.5752 19.5576 31.1366 21.6429 30.6992C23.3854 30.3259 24.718 29.7877 24.84 24.7892" fill="black"/>
<path id="Vector_4" d="M24.8379 24.7799C25.0037 23.3996 24.954 23.1983 25.9813 23.4211L26.2427 23.4443C27.0332 23.4799 28.0665 23.3172 28.684 23.0355C29.9913 22.4292 30.7663 21.4161 29.4775 21.6825C26.5377 22.2889 26.3241 21.2929 26.3241 21.2929C29.4296 16.685 30.7286 10.836 29.6067 9.40476C26.551 5.49864 21.2604 7.34594 21.172 7.3947L21.1435 7.39976C20.5636 7.2778 19.9227 7.20648 19.1801 7.19636C17.8497 7.1761 16.8407 7.5453 16.0736 8.12615C16.0736 8.12615 6.63688 4.23827 7.07524 13.0159C7.16884 14.8834 9.75064 27.1552 12.8327 23.4423C13.9608 22.0854 15.0494 20.9389 15.0494 20.9389C15.5884 21.298 16.2364 21.4812 16.9149 21.415L16.9677 21.3703C16.9521 21.5462 16.9593 21.7233 16.9891 21.8972C16.1957 22.7842 16.4297 22.9399 14.8428 23.2664C13.2376 23.597 14.1816 24.1859 14.796 24.3406C15.5427 24.5278 17.2699 24.7922 18.4377 23.1586L18.3908 23.3447C18.7021 23.5939 18.6807 25.135 18.7265 26.2356C18.7723 27.3363 18.8445 28.3647 19.0693 28.9699C19.2941 29.5752 19.5576 31.1366 21.6429 30.6992C23.3854 30.3259 24.718 29.7877 24.84 24.7892" stroke="black" stroke-width="3.58724"/>
<path id="Vector_5" d="M29.4678 21.6911C26.5281 22.2972 26.3146 21.3015 26.3146 21.3015C29.4201 16.6934 30.7191 10.8444 29.5981 9.41314C26.5425 5.50702 21.2518 7.35534 21.1633 7.40323L21.1348 7.40829C20.4886 7.27859 19.8317 7.2101 19.1726 7.20372C17.8421 7.18347 16.833 7.55267 16.0661 8.13352C16.0661 8.13352 6.62837 4.24578 7.06773 13.0234C7.16134 14.891 9.74299 27.1627 12.8252 23.4498C13.9604 22.0847 15.0489 20.9382 15.0489 20.9382C15.588 21.2973 16.236 21.4804 16.9145 21.4143L16.9673 21.3696C16.9518 21.5454 16.959 21.7225 16.9887 21.8965C16.1953 22.7835 16.4292 22.9391 14.8423 23.2657C13.2372 23.5962 14.1812 24.1852 14.7956 24.3398C15.5423 24.5271 17.2695 24.7915 18.4373 23.1579L18.3904 23.3439C18.7017 23.5932 18.9193 24.9644 18.8827 26.2074C18.8461 27.4506 18.8217 28.303 19.0659 28.9702C19.3099 29.6376 19.5541 31.1369 21.6394 30.6994C23.382 30.3262 24.2841 29.3567 24.4113 27.7435C24.5009 26.596 24.7022 26.7648 24.7166 25.7395L24.8793 25.2533C25.0654 23.6969 24.9097 23.1955 25.9829 23.4294L26.2443 23.4529C27.0348 23.4885 28.0693 23.3257 28.6755 23.0439C29.9826 22.4377 30.7577 21.4244 29.469 21.6911H29.4678Z" fill="#336791"/>
<path id="Vector_6" d="M21.1625 7.35639C20.837 7.45809 26.4155 5.31696 29.5872 9.36847C30.7062 10.7997 29.4092 16.6487 26.3036 21.2567M18.5625 22.574C18.4812 25.469 18.5829 28.3843 18.8657 29.0842C19.1484 29.784 19.7558 31.1695 21.8421 30.7239C23.5846 30.3507 24.2193 29.6273 24.494 28.0313L25.1378 22.928L18.5625 22.574ZM16.0623 8.06137C16.0623 8.06137 6.61834 4.2001 7.05785 12.9774C7.15145 14.845 9.7331 27.1167 12.8153 23.4039C13.9403 22.0479 14.9576 20.987 14.9576 20.987L16.0623 8.06122V8.06137Z" stroke="white" stroke-width="1.19512" stroke-linecap="round" stroke-linejoin="round"/>
<path id="Vector_7" d="M26.3048 21.2536C26.3048 21.2536 26.5083 22.2505 29.4582 21.6422C30.7471 21.3757 29.9709 22.3888 28.6648 22.9952C27.5927 23.4935 25.1879 23.6207 25.1483 22.9341C25.0466 21.159 26.4137 21.6982 26.3151 21.2536C26.2255 20.8529 25.6131 20.4602 25.2104 19.4796C24.8574 18.6251 20.3684 12.0641 26.4554 13.0375C26.6792 12.9917 24.8685 7.23948 19.1721 7.15601C13.4757 7.07253 13.6558 14.1595 13.6558 14.1595" stroke="white" stroke-width="1.19512" stroke-linecap="round" stroke-linejoin="bevel"/>
<path id="Vector_8" d="M16.9683 21.862C16.1749 22.749 16.4088 22.9047 14.8221 23.2312C13.2168 23.5618 14.1609 24.1507 14.7752 24.3054C15.5219 24.4926 17.2491 24.757 18.4169 23.1223C18.7729 22.6239 18.4148 21.8305 17.9266 21.6291C17.6906 21.5315 17.3752 21.4094 16.9704 21.863L16.9683 21.862Z" stroke="white" stroke-width="1.19512" stroke-linejoin="round"/>
<path id="Vector_9" d="M16.9171 21.8485C16.8356 21.3267 17.0879 20.7072 17.3574 19.981C17.7624 18.8926 18.6962 17.8041 17.9496 14.3487C17.393 11.775 13.6569 13.8125 13.6569 14.1615C13.6569 14.5104 13.8257 15.9315 13.5958 17.5844C13.2938 19.743 14.9691 21.5679 16.8977 21.3817" stroke="white" stroke-width="1.19512" stroke-linecap="round" stroke-linejoin="round"/>
<path id="Vector_10" d="M16.0274 14.1089C16.01 14.2278 16.246 14.5462 16.5523 14.5889C16.8584 14.6317 17.1198 14.3835 17.1372 14.2634C17.1544 14.1433 16.9184 14.0131 16.6123 13.9704C16.306 13.9277 16.0426 13.9908 16.0274 14.1089Z" fill="white" stroke="white" stroke-width="0.398847"/>
<path id="Vector_11" d="M25.3495 13.8647C25.3657 13.9836 25.1308 14.3019 24.8246 14.3447C24.5184 14.3874 24.2549 14.1393 24.2397 14.0192C24.2244 13.8992 24.4585 13.769 24.7646 13.7263C25.0707 13.6836 25.3342 13.7467 25.3495 13.8647Z" fill="white" stroke="white" stroke-width="0.198711"/>
<path id="Vector_12" d="M26.4441 13.041C26.4949 13.9769 26.2426 14.6126 26.21 15.6085C26.1633 17.0549 26.8998 18.711 25.7899 20.369" stroke="white" stroke-width="1.19512" stroke-linecap="round" stroke-linejoin="round"/>
</g>
</g>
</g>
</g>
</g>
<defs>
<clipPath id="clip0_1_49011">
<rect width="36.7319" height="36.7319" fill="white" transform="translate(0.0297852 0.328125)"/>
</clipPath>
</defs>
</svg>
