<svg width="209" height="288" viewBox="0 0 209 288" fill="none" xmlns="http://www.w3.org/2000/svg">
<path d="M72.477 159.152L68.9806 161.016L55.0068 149.003L51.2871 151.54C48.299 153.741 45.3976 153.894 44.0089 152.916L43.7237 153.084C41.5662 154.246 40.2892 153.206 39.8552 151.953C39.4212 150.7 39.6692 148.896 41.8267 147.704L42.1118 147.551C42.3722 146.023 43.5006 143.455 47.9022 141.942L51.9566 140.337L54.4365 119.566L57.933 117.687L60.6484 136.929L70.642 132.711L72.1547 127.774L74.9321 126.505L75.1304 131.09L76.1223 130.983L77.0275 133.536L76.2835 134.438L78.9121 137.8L76.2588 139.435L72.3159 137.418L62.9794 143.532L72.477 159.152ZM72.2167 136.302L76.1844 138.335L77.4243 137.54L75.0189 134.483L75.924 133.352L75.5024 132.145L74.2625 132.283L74.0765 128.003L72.725 128.614L71.2124 133.566L59.9045 138.32L57.2138 119.2L55.1184 120.315L52.7006 141.163L48.1254 142.966C43.8601 144.418 43.017 146.772 42.893 148.04V148.361L42.645 148.468C42.4874 148.523 42.334 148.595 42.1862 148.682C40.8595 149.385 40.2644 150.501 40.6487 151.571C41.0331 152.641 42.087 152.885 43.4137 152.167C43.563 152.093 43.708 152.006 43.8477 151.907L44.0833 151.739L44.3065 151.938C45.2116 152.763 47.8526 152.916 50.9028 150.684L55.0688 147.811L69.0797 159.87L71.1751 158.754L61.6775 143.256L72.2167 136.302Z" fill="#999999"/>
<path d="M192.472 287.427C192.539 287.428 192.605 287.408 192.664 287.368C192.723 287.327 192.772 287.269 192.807 287.198C193.253 286.362 193.666 285.522 194.047 284.676C194.103 284.564 194.121 284.43 194.098 284.301C194.075 284.173 194.012 284.06 193.923 283.988C193.83 283.92 193.72 283.9 193.616 283.931C193.511 283.963 193.421 284.044 193.365 284.156C192.943 284.997 192.521 285.822 192.125 286.663C192.095 286.717 192.074 286.778 192.063 286.842C192.052 286.906 192.052 286.972 192.063 287.036C192.073 287.1 192.094 287.161 192.124 287.215C192.153 287.269 192.192 287.315 192.236 287.351C192.309 287.399 192.389 287.426 192.472 287.427ZM194.952 282.353C195.022 282.352 195.09 282.329 195.151 282.287C195.212 282.244 195.263 282.182 195.299 282.108C195.696 281.237 196.092 280.366 196.539 279.495C196.589 279.381 196.601 279.247 196.574 279.122C196.546 278.997 196.48 278.889 196.39 278.822C196.296 278.762 196.186 278.749 196.085 278.786C195.983 278.823 195.897 278.907 195.844 279.021C195.46 279.892 195.063 280.748 194.667 281.604C194.611 281.718 194.595 281.854 194.62 281.982C194.646 282.111 194.711 282.222 194.803 282.292C194.867 282.335 194.94 282.356 195.014 282.353H194.952ZM197.258 277.126C197.332 277.125 197.405 277.099 197.469 277.05C197.532 277.002 197.584 276.933 197.618 276.851C197.989 275.964 198.349 275.063 198.696 274.176C198.719 274.118 198.733 274.055 198.736 273.99C198.739 273.926 198.732 273.861 198.715 273.8C198.697 273.738 198.67 273.682 198.635 273.634C198.6 273.586 198.558 273.547 198.51 273.519C198.463 273.49 198.412 273.474 198.359 273.47C198.307 273.466 198.254 273.475 198.205 273.496C198.155 273.518 198.11 273.551 198.07 273.594C198.031 273.637 198 273.69 197.977 273.748C197.63 274.635 197.27 275.521 196.898 276.408C196.875 276.466 196.862 276.529 196.858 276.594C196.855 276.658 196.863 276.723 196.88 276.784C196.897 276.845 196.924 276.902 196.959 276.95C196.994 276.998 197.037 277.037 197.084 277.065C197.118 277.096 197.156 277.117 197.197 277.127C197.237 277.138 197.279 277.138 197.32 277.126H197.258ZM199.353 271.746C199.431 271.745 199.507 271.717 199.572 271.665C199.638 271.614 199.691 271.542 199.725 271.456L200.692 268.72C200.733 268.596 200.733 268.457 200.691 268.334C200.649 268.211 200.569 268.113 200.469 268.063C200.37 268.017 200.261 268.02 200.164 268.071C200.067 268.122 199.99 268.218 199.948 268.338C199.638 269.239 199.316 270.141 198.994 271.058C198.971 271.116 198.958 271.179 198.956 271.243C198.954 271.308 198.963 271.372 198.981 271.432C199 271.492 199.028 271.546 199.064 271.593C199.101 271.639 199.144 271.675 199.192 271.7C199.261 271.743 199.339 271.759 199.415 271.746H199.353ZM201.226 266.259C201.305 266.258 201.382 266.229 201.448 266.174C201.515 266.12 201.566 266.043 201.598 265.953C201.895 265.006 202.18 264.073 202.465 263.141C202.483 263.08 202.491 263.015 202.488 262.95C202.485 262.886 202.471 262.822 202.448 262.764C202.425 262.706 202.393 262.653 202.353 262.611C202.314 262.568 202.267 262.535 202.218 262.515C202.119 262.474 202.011 262.482 201.917 262.536C201.822 262.59 201.748 262.686 201.709 262.805C201.436 263.737 201.151 264.654 200.854 265.587C200.816 265.708 200.819 265.843 200.861 265.963C200.902 266.083 200.98 266.178 201.077 266.229L201.226 266.259ZM202.887 260.665C202.97 260.664 203.05 260.631 203.117 260.571C203.183 260.51 203.233 260.426 203.259 260.329C203.532 259.381 203.78 258.434 204.015 257.486C204.047 257.36 204.037 257.225 203.989 257.108C203.94 256.991 203.856 256.901 203.755 256.859C203.653 256.821 203.543 256.833 203.448 256.893C203.353 256.953 203.281 257.056 203.247 257.18C203.011 258.128 202.763 259.06 202.503 260.008C202.471 260.134 202.481 260.27 202.53 260.387C202.578 260.504 202.662 260.593 202.763 260.635L202.887 260.665ZM204.325 254.98C204.413 254.977 204.497 254.94 204.567 254.874C204.636 254.808 204.686 254.717 204.71 254.613C204.933 253.65 205.156 252.687 205.354 251.739C205.381 251.612 205.366 251.476 205.313 251.362C205.26 251.248 205.172 251.164 205.069 251.128C205.019 251.112 204.966 251.108 204.915 251.117C204.863 251.126 204.813 251.148 204.768 251.18C204.724 251.213 204.684 251.256 204.653 251.308C204.622 251.359 204.599 251.417 204.586 251.48C204.375 252.427 204.164 253.39 203.941 254.338C203.926 254.4 203.921 254.465 203.926 254.53C203.932 254.594 203.948 254.657 203.973 254.714C203.999 254.771 204.033 254.821 204.074 254.861C204.116 254.902 204.163 254.931 204.214 254.949L204.325 254.98ZM205.565 249.218C205.654 249.214 205.74 249.175 205.809 249.106C205.879 249.037 205.928 248.942 205.95 248.835C206.136 247.857 206.322 246.879 206.483 245.916C206.496 245.854 206.498 245.789 206.49 245.726C206.482 245.662 206.463 245.601 206.435 245.547C206.407 245.493 206.371 245.446 206.328 245.41C206.285 245.373 206.236 245.348 206.185 245.335C206.134 245.32 206.081 245.317 206.028 245.326C205.976 245.336 205.926 245.359 205.881 245.393C205.836 245.428 205.797 245.472 205.766 245.526C205.735 245.579 205.713 245.639 205.702 245.702C205.54 246.665 205.354 247.628 205.168 248.606C205.146 248.734 205.164 248.867 205.22 248.978C205.275 249.089 205.364 249.17 205.466 249.202L205.565 249.218ZM206.582 243.379C206.676 243.381 206.767 243.342 206.839 243.27C206.912 243.197 206.961 243.095 206.979 242.982C207.128 242.004 207.276 241.025 207.413 240.047C207.431 239.92 207.407 239.788 207.346 239.682C207.286 239.576 207.194 239.504 207.09 239.482C207.038 239.469 206.984 239.468 206.932 239.481C206.88 239.494 206.83 239.52 206.786 239.557C206.742 239.594 206.705 239.642 206.676 239.697C206.647 239.753 206.628 239.814 206.619 239.879C206.483 240.842 206.346 241.82 206.185 242.798C206.174 242.863 206.174 242.929 206.185 242.993C206.195 243.058 206.216 243.119 206.246 243.173C206.276 243.227 206.315 243.273 206.36 243.309C206.405 243.344 206.455 243.368 206.508 243.379H206.582ZM207.4 237.51C207.496 237.515 207.59 237.475 207.664 237.399C207.737 237.322 207.785 237.215 207.797 237.097C207.921 236.104 208.033 235.111 208.132 234.132C208.139 234.068 208.135 234.003 208.121 233.94C208.108 233.878 208.084 233.819 208.052 233.768C208.019 233.716 207.979 233.674 207.933 233.642C207.888 233.61 207.837 233.59 207.785 233.582C207.732 233.571 207.679 233.574 207.627 233.59C207.576 233.606 207.527 233.635 207.485 233.676C207.443 233.716 207.409 233.766 207.383 233.824C207.358 233.881 207.343 233.945 207.338 234.01C207.239 234.968 207.127 235.946 207.004 236.945C206.989 237.074 207.016 237.205 207.078 237.311C207.141 237.416 207.234 237.488 207.338 237.51H207.4ZM208.008 231.595C208.108 231.6 208.205 231.556 208.279 231.473C208.353 231.39 208.398 231.275 208.405 231.152C208.491 230.159 208.578 229.165 208.64 228.187C208.647 228.056 208.612 227.926 208.543 227.826C208.473 227.726 208.375 227.664 208.268 227.652C208.216 227.643 208.164 227.648 208.114 227.667C208.063 227.685 208.017 227.716 207.977 227.758C207.937 227.799 207.905 227.851 207.883 227.909C207.86 227.967 207.848 228.031 207.847 228.095C207.772 229.073 207.698 230.067 207.611 231.06C207.606 231.125 207.611 231.19 207.627 231.251C207.642 231.313 207.667 231.37 207.7 231.42C207.734 231.47 207.775 231.511 207.821 231.541C207.868 231.571 207.918 231.59 207.971 231.595H208.008ZM208.417 225.665C208.518 225.665 208.615 225.618 208.689 225.533C208.763 225.448 208.807 225.331 208.814 225.207C208.814 224.183 208.913 223.189 208.938 222.15C208.941 222.084 208.934 222.019 208.916 221.957C208.898 221.895 208.871 221.838 208.835 221.79C208.799 221.741 208.756 221.702 208.707 221.675C208.659 221.647 208.607 221.632 208.553 221.63C208.449 221.636 208.35 221.687 208.273 221.773C208.196 221.86 208.146 221.977 208.132 222.104C208.132 223.082 208.132 224.076 208.02 225.069C208.013 225.2 208.048 225.33 208.118 225.43C208.187 225.53 208.286 225.592 208.392 225.604L208.417 225.665ZM208.603 219.704C208.708 219.704 208.809 219.653 208.884 219.561C208.958 219.469 209 219.345 209 219.215C209 218.512 209 217.825 209 217.137V216.235C209 216.105 208.958 215.981 208.884 215.889C208.809 215.797 208.708 215.746 208.603 215.746C208.498 215.746 208.397 215.797 208.322 215.889C208.248 215.981 208.206 216.105 208.206 216.235V217.137C208.206 217.825 208.206 218.512 208.206 219.2C208.205 219.266 208.214 219.331 208.233 219.392C208.252 219.453 208.281 219.509 208.318 219.556C208.355 219.603 208.399 219.64 208.448 219.666C208.497 219.691 208.55 219.704 208.603 219.704ZM208.603 213.744C208.656 213.744 208.709 213.731 208.758 213.705C208.807 213.68 208.851 213.642 208.888 213.595C208.925 213.548 208.954 213.492 208.973 213.431C208.992 213.37 209.001 213.305 209 213.239C209 212.215 208.925 211.222 208.888 210.183C208.879 210.051 208.828 209.93 208.747 209.844C208.666 209.759 208.561 209.716 208.454 209.724C208.402 209.728 208.351 209.745 208.304 209.773C208.257 209.801 208.215 209.84 208.181 209.889C208.146 209.937 208.12 209.993 208.103 210.054C208.086 210.115 208.079 210.179 208.082 210.244C208.082 211.207 208.169 212.2 208.194 213.209C208.188 213.281 208.195 213.354 208.215 213.422C208.235 213.49 208.267 213.552 208.308 213.603C208.35 213.654 208.4 213.693 208.455 213.718C208.51 213.742 208.569 213.751 208.628 213.744H208.603ZM208.318 207.798C208.37 207.793 208.421 207.774 208.467 207.744C208.514 207.714 208.555 207.673 208.588 207.623C208.621 207.573 208.647 207.516 208.662 207.454C208.677 207.393 208.683 207.328 208.677 207.263C208.603 206.244 208.516 205.226 208.417 204.207C208.413 204.141 208.397 204.078 208.372 204.02C208.347 203.963 208.312 203.912 208.27 203.872C208.228 203.832 208.18 203.803 208.128 203.787C208.077 203.771 208.023 203.768 207.971 203.779C207.866 203.798 207.772 203.865 207.708 203.968C207.643 204.07 207.613 204.2 207.623 204.329C207.723 205.261 207.809 206.255 207.884 207.279C207.879 207.354 207.888 207.43 207.911 207.5C207.934 207.57 207.969 207.632 208.015 207.683C208.06 207.733 208.115 207.77 208.174 207.79C208.233 207.81 208.295 207.813 208.355 207.798H208.318ZM207.723 201.883C207.826 201.861 207.918 201.789 207.979 201.683C208.039 201.577 208.063 201.446 208.045 201.318L207.971 200.722C207.859 199.942 207.735 199.194 207.611 198.368C207.601 198.305 207.58 198.245 207.551 198.191C207.522 198.137 207.484 198.092 207.44 198.056C207.396 198.02 207.347 197.996 207.296 197.984C207.244 197.972 207.191 197.973 207.14 197.986C207.088 197.997 207.038 198.021 206.993 198.056C206.949 198.092 206.911 198.138 206.882 198.193C206.853 198.248 206.833 198.309 206.824 198.373C206.815 198.438 206.817 198.503 206.83 198.567C206.954 199.346 207.066 200.095 207.177 200.89L207.264 201.471C207.269 201.54 207.287 201.606 207.315 201.666C207.343 201.725 207.382 201.777 207.428 201.816C207.474 201.855 207.526 201.882 207.582 201.893C207.637 201.905 207.693 201.902 207.747 201.883H207.723ZM206.768 196.045H206.855C206.906 196.032 206.954 196.007 206.997 195.971C207.04 195.934 207.077 195.888 207.105 195.833C207.133 195.779 207.151 195.718 207.159 195.655C207.167 195.591 207.165 195.527 207.152 195.464C206.966 194.486 206.78 193.523 206.57 192.545C206.555 192.482 206.531 192.424 206.498 192.373C206.466 192.322 206.425 192.28 206.379 192.249C206.333 192.217 206.282 192.198 206.229 192.191C206.177 192.184 206.124 192.19 206.074 192.209C206.023 192.225 205.976 192.253 205.934 192.292C205.892 192.33 205.857 192.379 205.831 192.434C205.804 192.489 205.787 192.551 205.78 192.614C205.772 192.678 205.775 192.743 205.788 192.805C205.999 193.768 206.198 194.715 206.371 195.678C206.397 195.79 206.452 195.887 206.529 195.954C206.606 196.021 206.699 196.053 206.793 196.045H206.768ZM205.528 190.298H205.64C205.69 190.281 205.738 190.251 205.779 190.211C205.82 190.17 205.855 190.12 205.88 190.063C205.905 190.006 205.921 189.944 205.927 189.879C205.932 189.814 205.928 189.749 205.912 189.687C205.677 188.724 205.429 187.776 205.168 186.829C205.152 186.767 205.125 186.711 205.091 186.662C205.056 186.613 205.014 186.573 204.966 186.545C204.919 186.516 204.867 186.5 204.815 186.496C204.762 186.492 204.71 186.502 204.66 186.523C204.61 186.544 204.564 186.576 204.525 186.619C204.485 186.662 204.453 186.714 204.43 186.772C204.407 186.831 204.393 186.894 204.39 186.959C204.387 187.024 204.395 187.089 204.412 187.15C204.673 188.082 204.908 189.03 205.144 189.977C205.173 190.076 205.227 190.161 205.299 190.219C205.37 190.277 205.455 190.305 205.54 190.298H205.528ZM203.978 184.643C204.023 184.657 204.07 184.657 204.115 184.643C204.213 184.599 204.293 184.507 204.337 184.39C204.382 184.272 204.386 184.138 204.35 184.017C204.065 183.084 203.767 182.152 203.445 181.235C203.426 181.174 203.397 181.119 203.361 181.072C203.324 181.026 203.28 180.988 203.232 180.963C203.183 180.937 203.131 180.924 203.078 180.923C203.025 180.923 202.973 180.935 202.924 180.96C202.876 180.985 202.833 181.021 202.796 181.067C202.759 181.113 202.73 181.167 202.711 181.227C202.691 181.287 202.681 181.35 202.682 181.415C202.682 181.479 202.693 181.543 202.713 181.602C203.023 182.519 203.321 183.436 203.594 184.368C203.63 184.457 203.688 184.531 203.758 184.58C203.829 184.629 203.91 184.651 203.991 184.643H203.978ZM202.156 179.233C202.213 179.247 202.272 179.247 202.329 179.233C202.425 179.176 202.499 179.076 202.536 178.954C202.573 178.831 202.57 178.695 202.527 178.576C202.18 177.674 201.833 176.772 201.461 175.87C201.411 175.758 201.328 175.673 201.229 175.633C201.13 175.593 201.022 175.602 200.928 175.656C200.831 175.716 200.757 175.819 200.723 175.945C200.688 176.071 200.695 176.209 200.742 176.329C201.114 177.2 201.461 178.086 201.796 178.988C201.831 179.067 201.883 179.131 201.947 179.175C202.011 179.218 202.083 179.238 202.156 179.233ZM199.973 173.914C200.034 173.935 200.098 173.935 200.159 173.914C200.206 173.884 200.248 173.842 200.281 173.791C200.315 173.741 200.34 173.682 200.355 173.62C200.37 173.557 200.375 173.491 200.369 173.426C200.363 173.361 200.346 173.298 200.32 173.242C199.924 172.37 199.515 171.499 199.081 170.659C199.055 170.602 199.02 170.552 198.978 170.512C198.937 170.473 198.889 170.444 198.837 170.428C198.786 170.412 198.733 170.41 198.681 170.421C198.629 170.431 198.579 170.455 198.535 170.49C198.49 170.523 198.451 170.567 198.42 170.619C198.389 170.67 198.366 170.729 198.353 170.792C198.341 170.854 198.338 170.919 198.346 170.983C198.354 171.047 198.372 171.108 198.399 171.163C198.82 172.004 199.217 172.859 199.638 173.731C199.679 173.773 199.727 173.804 199.778 173.823C199.829 173.841 199.883 173.846 199.936 173.838L199.973 173.914ZM197.493 168.824C197.566 168.852 197.644 168.852 197.717 168.824C197.761 168.789 197.8 168.743 197.829 168.689C197.859 168.635 197.88 168.574 197.89 168.51C197.901 168.446 197.901 168.379 197.89 168.315C197.879 168.251 197.858 168.191 197.828 168.137C197.37 167.311 196.911 166.486 196.427 165.676C196.363 165.573 196.269 165.505 196.166 165.485C196.062 165.465 195.956 165.495 195.869 165.569C195.786 165.648 195.73 165.763 195.714 165.891C195.698 166.02 195.722 166.15 195.782 166.257C196.254 167.052 196.712 167.862 197.159 168.687C197.237 168.743 197.329 168.765 197.419 168.748L197.493 168.824ZM142.938 165.447H143.446C143.498 165.443 143.549 165.426 143.596 165.398C143.643 165.37 143.685 165.33 143.72 165.282C143.754 165.234 143.781 165.178 143.798 165.117C143.815 165.056 143.822 164.991 143.818 164.927C143.817 164.862 143.804 164.798 143.782 164.739C143.76 164.68 143.728 164.628 143.688 164.585C143.649 164.542 143.602 164.509 143.552 164.489C143.502 164.469 143.449 164.462 143.397 164.469C142.922 164.522 142.445 164.522 141.971 164.469C141.687 164.425 141.405 164.358 141.128 164.27C141.024 164.237 140.914 164.255 140.821 164.321C140.729 164.387 140.661 164.495 140.632 164.621C140.619 164.685 140.616 164.75 140.624 164.815C140.632 164.879 140.651 164.941 140.679 164.997C140.706 165.052 140.743 165.1 140.786 165.138C140.829 165.176 140.878 165.203 140.929 165.217C141.242 165.325 141.561 165.401 141.884 165.447C142.191 165.439 142.497 165.414 142.801 165.37L142.938 165.447ZM145.79 164.851H145.914C146.719 164.502 147.47 163.985 148.133 163.322C148.207 163.228 148.249 163.102 148.249 162.971C148.249 162.839 148.207 162.713 148.133 162.619C148.096 162.572 148.052 162.535 148.003 162.509C147.954 162.483 147.901 162.47 147.848 162.47C147.795 162.47 147.742 162.483 147.693 162.509C147.644 162.535 147.6 162.572 147.563 162.619C146.97 163.203 146.304 163.662 145.591 163.979C145.541 164 145.495 164.033 145.456 164.076C145.416 164.118 145.384 164.17 145.361 164.229C145.338 164.287 145.324 164.35 145.321 164.415C145.318 164.48 145.326 164.545 145.343 164.606C145.382 164.66 145.43 164.703 145.483 164.732C145.537 164.761 145.595 164.775 145.653 164.774L145.79 164.851ZM194.704 164.025C194.794 164.027 194.882 163.989 194.952 163.918C195.026 163.824 195.067 163.698 195.067 163.567C195.067 163.436 195.026 163.309 194.952 163.215C194.443 162.436 193.91 161.687 193.389 160.923C193.313 160.831 193.211 160.78 193.104 160.78C192.998 160.78 192.895 160.831 192.819 160.923C192.745 161.017 192.703 161.143 192.703 161.274C192.703 161.406 192.745 161.532 192.819 161.626C193.34 162.359 193.861 163.154 194.357 163.888C194.421 163.93 194.494 163.952 194.567 163.949L194.704 164.025ZM138.834 163.949C138.899 163.947 138.963 163.926 139.021 163.889C139.079 163.852 139.129 163.799 139.169 163.735C139.225 163.623 139.243 163.488 139.22 163.36C139.197 163.231 139.134 163.119 139.044 163.047C138.405 162.523 137.825 161.896 137.321 161.183C137.247 161.092 137.147 161.041 137.042 161.041C136.938 161.041 136.837 161.092 136.763 161.183C136.689 161.277 136.647 161.403 136.647 161.534C136.647 161.665 136.689 161.791 136.763 161.886C137.313 162.676 137.952 163.366 138.66 163.934C138.672 163.94 138.685 163.945 138.697 163.949H138.834ZM149.41 161.121C149.481 161.119 149.551 161.094 149.612 161.048C149.673 161.003 149.723 160.938 149.757 160.862C150.167 159.91 150.431 158.874 150.538 157.805C150.545 157.741 150.542 157.675 150.528 157.613C150.514 157.55 150.491 157.491 150.458 157.44C150.426 157.389 150.386 157.346 150.34 157.314C150.294 157.282 150.244 157.262 150.191 157.255C150.088 157.237 149.983 157.271 149.899 157.348C149.816 157.425 149.76 157.54 149.745 157.667C149.642 158.595 149.411 159.495 149.063 160.327C149.037 160.384 149.021 160.446 149.015 160.511C149.009 160.576 149.013 160.642 149.028 160.705C149.043 160.768 149.068 160.826 149.102 160.876C149.136 160.927 149.177 160.969 149.224 160.999C149.24 161.016 149.256 161.031 149.274 161.045L149.41 161.121ZM191.505 159.593C191.611 159.594 191.713 159.545 191.79 159.455C191.864 159.361 191.906 159.235 191.906 159.104C191.906 158.973 191.864 158.847 191.79 158.752C191.22 158.034 190.637 157.331 190.054 156.643C189.978 156.552 189.875 156.501 189.769 156.501C189.662 156.501 189.56 156.552 189.484 156.643C189.41 156.735 189.369 156.858 189.369 156.987C189.369 157.116 189.41 157.239 189.484 157.331C190.054 158.004 190.624 158.707 191.182 159.41C191.239 159.45 191.303 159.471 191.368 159.471L191.505 159.593ZM135.709 159.593C135.771 159.607 135.834 159.607 135.895 159.593C135.987 159.528 136.057 159.423 136.089 159.299C136.121 159.174 136.114 159.039 136.069 158.921C135.72 158.07 135.465 157.165 135.312 156.231C135.301 156.167 135.279 156.107 135.248 156.054C135.217 156.001 135.178 155.956 135.133 155.922C135.088 155.887 135.038 155.865 134.986 155.855C134.934 155.845 134.88 155.848 134.829 155.864C134.777 155.876 134.729 155.902 134.685 155.938C134.642 155.974 134.604 156.02 134.576 156.074C134.547 156.128 134.527 156.189 134.517 156.253C134.507 156.316 134.508 156.381 134.519 156.445C134.699 157.456 134.978 158.436 135.35 159.364C135.409 159.41 135.478 159.436 135.548 159.44L135.709 159.593ZM188.021 155.543C188.077 155.542 188.133 155.527 188.184 155.498C188.235 155.469 188.281 155.427 188.318 155.375C188.392 155.281 188.434 155.154 188.434 155.023C188.434 154.892 188.392 154.766 188.318 154.672L187.574 153.907L186.421 152.792C186.335 152.711 186.227 152.676 186.121 152.693C186.014 152.71 185.917 152.779 185.851 152.883C185.789 152.988 185.763 153.118 185.777 153.246C185.791 153.373 185.844 153.49 185.925 153.571L187.066 154.672L187.797 155.436C187.819 155.423 187.84 155.408 187.859 155.39L188.021 155.543ZM150.179 155.405C150.285 155.39 150.383 155.324 150.45 155.221C150.517 155.118 150.549 154.986 150.538 154.855C150.444 153.818 150.269 152.795 150.018 151.798C150.003 151.736 149.979 151.677 149.946 151.626C149.914 151.576 149.873 151.533 149.827 151.502C149.781 151.471 149.73 151.451 149.678 151.444C149.625 151.437 149.572 151.443 149.522 151.462C149.471 151.479 149.424 151.509 149.383 151.55C149.342 151.59 149.309 151.641 149.284 151.698C149.26 151.756 149.245 151.818 149.241 151.883C149.237 151.947 149.244 152.012 149.261 152.073C149.486 152.998 149.648 153.943 149.745 154.901C149.761 154.984 149.795 155.06 149.843 155.121C149.891 155.183 149.951 155.228 150.018 155.252L150.179 155.405ZM134.742 153.877C134.843 153.877 134.94 153.83 135.014 153.745C135.088 153.659 135.133 153.543 135.139 153.418C135.196 152.479 135.372 151.556 135.66 150.683C135.68 150.623 135.691 150.56 135.691 150.495C135.692 150.431 135.682 150.367 135.662 150.308C135.643 150.248 135.614 150.194 135.577 150.148C135.54 150.102 135.497 150.066 135.449 150.041C135.401 150.015 135.349 150.002 135.297 150.002C135.245 150.001 135.193 150.013 135.145 150.037C135.096 150.061 135.052 150.097 135.015 150.142C134.978 150.187 134.948 150.241 134.928 150.3C134.599 151.273 134.403 152.306 134.345 153.357C134.34 153.423 134.346 153.489 134.362 153.551C134.378 153.614 134.404 153.672 134.439 153.722C134.474 153.772 134.516 153.813 134.564 153.842C134.612 153.871 134.664 153.888 134.717 153.892L134.742 153.877ZM184.016 151.722C184.082 151.723 184.147 151.704 184.205 151.667C184.264 151.63 184.314 151.575 184.351 151.508C184.409 151.4 184.432 151.268 184.413 151.139C184.395 151.011 184.337 150.897 184.251 150.82C183.582 150.255 182.887 149.704 182.205 149.185C182.113 149.117 182.003 149.096 181.899 149.128C181.794 149.159 181.704 149.24 181.648 149.353C181.621 149.408 181.603 149.469 181.595 149.533C181.587 149.597 181.59 149.661 181.602 149.724C181.615 149.786 181.638 149.845 181.669 149.897C181.7 149.949 181.739 149.992 181.784 150.025C182.462 150.545 183.131 151.08 183.793 151.63C183.858 151.688 183.936 151.72 184.016 151.722ZM148.679 149.506C148.732 149.521 148.787 149.521 148.84 149.506C148.938 149.452 149.015 149.353 149.054 149.23C149.094 149.107 149.092 148.97 149.05 148.848C148.741 147.977 148.381 147.06 147.972 146.143C147.947 146.085 147.913 146.034 147.872 145.993C147.831 145.951 147.784 145.92 147.733 145.902C147.682 145.883 147.629 145.878 147.576 145.885C147.523 145.892 147.472 145.912 147.426 145.945C147.334 146.009 147.265 146.115 147.235 146.241C147.205 146.366 147.216 146.501 147.265 146.617C147.662 147.503 148.021 148.39 148.319 149.246C148.348 149.335 148.398 149.411 148.462 149.465C148.525 149.519 148.601 149.549 148.679 149.551V149.506ZM179.837 148.665C179.911 148.667 179.983 148.644 180.047 148.598C180.11 148.552 180.162 148.485 180.197 148.405C180.246 148.289 180.257 148.154 180.227 148.029C180.196 147.903 180.128 147.797 180.036 147.733C179.329 147.259 178.597 146.8 177.866 146.357C177.819 146.329 177.767 146.312 177.715 146.308C177.663 146.304 177.61 146.313 177.56 146.335C177.511 146.356 177.465 146.389 177.426 146.432C177.387 146.476 177.355 146.528 177.333 146.586C177.31 146.645 177.296 146.708 177.293 146.772C177.29 146.837 177.297 146.902 177.314 146.963C177.332 147.024 177.359 147.08 177.394 147.129C177.429 147.177 177.471 147.216 177.519 147.244C178.238 147.672 178.957 148.13 179.651 148.604C179.707 148.645 179.772 148.667 179.837 148.665ZM136.341 148.283C136.401 148.282 136.459 148.265 136.513 148.233C136.566 148.202 136.614 148.156 136.651 148.1C137.153 147.377 137.718 146.726 138.338 146.158C138.382 146.122 138.419 146.075 138.448 146.02C138.476 145.964 138.495 145.903 138.503 145.838C138.511 145.773 138.509 145.707 138.495 145.644C138.482 145.581 138.457 145.522 138.425 145.471C138.395 145.416 138.357 145.37 138.312 145.335C138.267 145.3 138.217 145.277 138.165 145.267C138.112 145.257 138.059 145.26 138.007 145.277C137.956 145.294 137.908 145.323 137.867 145.364C137.192 145.978 136.576 146.686 136.032 147.473C135.961 147.566 135.922 147.689 135.922 147.817C135.922 147.944 135.961 148.067 136.032 148.161C136.086 148.221 136.153 148.262 136.225 148.281C136.296 148.3 136.371 148.295 136.441 148.268L136.341 148.283ZM175.498 146.067C175.576 146.062 175.652 146.031 175.718 145.978C175.784 145.924 175.836 145.849 175.87 145.761C175.89 145.702 175.901 145.638 175.901 145.574C175.902 145.51 175.892 145.446 175.872 145.386C175.853 145.327 175.824 145.272 175.787 145.227C175.75 145.181 175.707 145.144 175.659 145.119C174.902 144.722 174.146 144.355 173.39 144.003C173.289 143.959 173.179 143.964 173.081 144.018C172.984 144.072 172.908 144.171 172.869 144.294C172.833 144.42 172.839 144.558 172.886 144.678C172.932 144.798 173.015 144.891 173.117 144.936C173.861 145.272 174.605 145.639 175.336 146.021C175.407 146.058 175.484 146.069 175.56 146.052L175.498 146.067ZM140.173 144.722C140.229 144.744 140.29 144.744 140.346 144.722C141.056 144.3 141.785 143.927 142.529 143.606C142.579 143.585 142.625 143.553 142.664 143.51C142.704 143.467 142.736 143.415 142.759 143.357C142.782 143.298 142.796 143.235 142.799 143.17C142.802 143.106 142.794 143.041 142.777 142.979C142.76 142.918 142.733 142.861 142.699 142.812C142.664 142.764 142.622 142.724 142.574 142.695C142.527 142.667 142.476 142.65 142.423 142.647C142.371 142.643 142.318 142.652 142.268 142.674C141.491 143.008 140.729 143.395 139.987 143.835C139.892 143.897 139.821 144.002 139.789 144.128C139.756 144.254 139.765 144.39 139.813 144.508C139.859 144.59 139.924 144.653 139.999 144.688C140.074 144.724 140.156 144.73 140.235 144.707L140.173 144.722ZM146.372 144.309C146.448 144.315 146.522 144.288 146.583 144.233C146.628 144.2 146.668 144.156 146.698 144.104C146.729 144.052 146.751 143.992 146.763 143.929C146.774 143.866 146.776 143.801 146.766 143.738C146.756 143.674 146.736 143.614 146.707 143.56C146.509 143.163 146.298 142.781 146.087 142.368L147.191 142.093C147.294 142.071 147.386 141.998 147.447 141.892C147.507 141.786 147.531 141.655 147.513 141.527C147.504 141.463 147.485 141.401 147.456 141.346C147.427 141.29 147.39 141.243 147.346 141.205C147.302 141.168 147.252 141.143 147.2 141.13C147.148 141.117 147.094 141.117 147.042 141.13C146.558 141.237 146.075 141.359 145.604 141.497L145.356 141.069C145.326 141.015 145.288 140.969 145.243 140.934C145.199 140.899 145.149 140.875 145.097 140.863C145.046 140.852 144.992 140.853 144.941 140.868C144.889 140.882 144.841 140.909 144.798 140.947C144.754 140.983 144.717 141.03 144.688 141.085C144.66 141.14 144.64 141.201 144.631 141.265C144.622 141.329 144.623 141.395 144.634 141.458C144.646 141.522 144.668 141.582 144.698 141.634L144.76 141.741H144.661C144.558 141.777 144.469 141.861 144.414 141.974C144.359 142.088 144.341 142.223 144.364 142.353C144.395 142.478 144.464 142.583 144.556 142.648C144.648 142.713 144.756 142.733 144.86 142.704L145.244 142.597C145.529 143.086 145.79 143.591 146.038 144.126C146.077 144.183 146.126 144.228 146.182 144.258C146.238 144.287 146.299 144.299 146.36 144.294L146.372 144.309ZM170.997 143.988C171.082 143.993 171.166 143.962 171.236 143.901C171.305 143.84 171.356 143.753 171.381 143.652C171.413 143.526 171.403 143.39 171.354 143.273C171.306 143.156 171.222 143.067 171.121 143.025C170.352 142.735 169.559 142.445 168.777 142.2C168.727 142.182 168.674 142.176 168.622 142.184C168.569 142.192 168.519 142.213 168.474 142.246C168.428 142.279 168.389 142.323 168.358 142.376C168.327 142.428 168.305 142.488 168.294 142.552C168.281 142.614 168.278 142.678 168.285 142.742C168.292 142.806 168.31 142.867 168.336 142.922C168.363 142.978 168.398 143.026 168.439 143.065C168.481 143.103 168.528 143.132 168.579 143.148C169.348 143.392 170.116 143.683 170.885 143.973L170.997 143.988ZM166.335 142.46C166.427 142.461 166.516 142.422 166.587 142.349C166.657 142.276 166.704 142.174 166.719 142.062C166.73 141.999 166.731 141.934 166.721 141.87C166.711 141.807 166.691 141.746 166.662 141.692C166.634 141.638 166.596 141.592 166.553 141.556C166.509 141.52 166.461 141.494 166.409 141.482C165.616 141.268 164.81 141.084 164.016 140.931C163.913 140.909 163.806 140.939 163.72 141.013C163.634 141.088 163.576 141.201 163.557 141.329C163.547 141.393 163.547 141.46 163.559 141.524C163.57 141.589 163.592 141.649 163.624 141.703C163.655 141.756 163.695 141.8 163.741 141.833C163.788 141.866 163.839 141.887 163.892 141.894C164.673 142.062 165.467 142.246 166.248 142.445L166.335 142.46ZM149.509 141.619C150.29 141.482 151.096 141.375 151.89 141.298C151.996 141.287 152.095 141.224 152.164 141.124C152.234 141.024 152.269 140.895 152.262 140.763C152.257 140.699 152.242 140.636 152.218 140.579C152.193 140.522 152.16 140.471 152.12 140.43C152.079 140.389 152.033 140.358 151.983 140.339C151.933 140.32 151.88 140.314 151.828 140.32C151.022 140.32 150.204 140.503 149.348 140.641C149.296 140.648 149.246 140.669 149.201 140.701C149.156 140.733 149.116 140.776 149.085 140.827C149.053 140.879 149.031 140.938 149.019 141C149.006 141.063 149.005 141.128 149.013 141.191C149.018 141.265 149.036 141.337 149.066 141.402C149.097 141.466 149.139 141.521 149.189 141.562C149.239 141.603 149.296 141.63 149.356 141.64C149.416 141.65 149.477 141.643 149.534 141.619H149.509ZM161.561 141.497C161.66 141.497 161.756 141.452 161.829 141.37C161.903 141.288 161.949 141.175 161.958 141.054C161.968 140.926 161.938 140.799 161.873 140.699C161.808 140.599 161.714 140.534 161.611 140.519C160.805 140.397 159.986 140.305 159.131 140.244C159.079 140.239 159.026 140.248 158.977 140.269C158.928 140.29 158.882 140.322 158.843 140.365C158.804 140.408 158.772 140.459 158.749 140.517C158.726 140.575 158.713 140.638 158.709 140.702C158.704 140.767 158.71 140.832 158.726 140.894C158.742 140.956 158.769 141.013 158.804 141.062C158.839 141.11 158.881 141.15 158.929 141.177C158.977 141.205 159.029 141.22 159.081 141.222C159.875 141.298 160.681 141.375 161.462 141.497H161.561ZM154.32 141.13C155.126 141.13 155.92 141.13 156.725 141.13C156.777 141.132 156.828 141.121 156.876 141.099C156.924 141.076 156.968 141.041 157.005 140.997C157.042 140.953 157.072 140.9 157.092 140.841C157.112 140.783 157.122 140.72 157.122 140.656C157.124 140.592 157.115 140.528 157.097 140.468C157.078 140.408 157.051 140.353 157.015 140.306C156.979 140.259 156.936 140.221 156.889 140.195C156.841 140.169 156.79 140.154 156.738 140.152C155.92 140.152 155.114 140.152 154.258 140.152C154.205 140.154 154.153 140.169 154.104 140.196C154.056 140.224 154.012 140.263 153.977 140.311C153.941 140.36 153.913 140.417 153.895 140.479C153.878 140.54 153.87 140.606 153.874 140.672C153.876 140.742 153.891 140.81 153.917 140.873C153.943 140.935 153.98 140.99 154.024 141.034C154.069 141.077 154.121 141.108 154.176 141.125C154.231 141.142 154.289 141.143 154.345 141.13H154.32ZM143.595 139.434C143.685 139.435 143.773 139.397 143.843 139.327C143.916 139.235 143.958 139.112 143.958 138.983C143.958 138.854 143.916 138.73 143.843 138.639C143.347 137.844 142.826 137.11 142.305 136.3C142.231 136.21 142.131 136.159 142.026 136.159C141.922 136.159 141.822 136.21 141.748 136.3C141.673 136.395 141.632 136.521 141.632 136.652C141.632 136.783 141.673 136.909 141.748 137.003C142.256 137.737 142.777 138.532 143.26 139.281C143.299 139.352 143.353 139.41 143.417 139.448C143.48 139.485 143.55 139.501 143.62 139.495L143.595 139.434ZM140.446 134.848C140.496 134.849 140.546 134.837 140.593 134.813C140.64 134.79 140.683 134.755 140.718 134.711C140.756 134.667 140.786 134.613 140.807 134.554C140.828 134.495 140.838 134.431 140.838 134.367C140.838 134.303 140.828 134.239 140.807 134.18C140.786 134.121 140.756 134.067 140.718 134.023C140.16 133.29 139.578 132.586 138.982 131.914C138.947 131.867 138.903 131.83 138.855 131.805C138.807 131.779 138.756 131.766 138.704 131.766C138.651 131.766 138.6 131.779 138.552 131.805C138.504 131.83 138.46 131.867 138.425 131.914C138.386 131.96 138.356 132.014 138.335 132.075C138.314 132.135 138.304 132.2 138.304 132.265C138.304 132.331 138.314 132.396 138.335 132.456C138.356 132.517 138.386 132.571 138.425 132.617C139.007 133.274 139.578 133.977 140.136 134.68C140.168 134.754 140.217 134.814 140.276 134.854C140.335 134.895 140.403 134.914 140.47 134.91L140.446 134.848ZM136.912 130.798C137.029 130.795 137.14 130.734 137.222 130.63C137.296 130.536 137.338 130.41 137.338 130.279C137.338 130.147 137.296 130.021 137.222 129.927C136.59 129.285 135.982 128.674 135.288 128.093C135.245 128.055 135.196 128.028 135.145 128.014C135.093 128 135.04 127.998 134.988 128.01C134.936 128.021 134.886 128.045 134.842 128.08C134.798 128.116 134.759 128.162 134.73 128.215C134.698 128.267 134.676 128.326 134.663 128.389C134.651 128.452 134.648 128.517 134.656 128.581C134.665 128.645 134.683 128.707 134.71 128.762C134.738 128.817 134.774 128.865 134.816 128.903C135.461 129.474 136.094 130.07 136.713 130.691C136.77 130.778 136.849 130.837 136.937 130.859L136.912 130.798ZM132.981 127.344C133.048 127.344 133.114 127.323 133.173 127.283C133.231 127.242 133.281 127.185 133.316 127.115C133.372 127.003 133.391 126.868 133.368 126.74C133.345 126.611 133.282 126.499 133.192 126.427C132.498 125.907 131.779 125.403 131.06 124.899C130.964 124.839 130.853 124.828 130.751 124.868C130.649 124.908 130.564 124.996 130.514 125.113C130.466 125.228 130.458 125.362 130.49 125.485C130.523 125.609 130.594 125.711 130.688 125.77C131.394 126.228 132.089 126.717 132.771 127.298C132.802 127.335 132.839 127.363 132.88 127.381C132.92 127.4 132.963 127.408 133.006 127.405L132.981 127.344ZM128.691 124.593C128.77 124.595 128.847 124.569 128.913 124.517C128.979 124.466 129.031 124.391 129.063 124.303C129.084 124.243 129.094 124.18 129.095 124.115C129.095 124.051 129.086 123.987 129.066 123.928C129.046 123.868 129.017 123.814 128.981 123.768C128.944 123.722 128.901 123.686 128.853 123.661C128.109 123.263 127.34 122.896 126.571 122.56C126.521 122.539 126.469 122.529 126.416 122.533C126.364 122.537 126.312 122.553 126.265 122.582C126.218 122.61 126.175 122.65 126.141 122.699C126.106 122.748 126.079 122.804 126.063 122.866C126.045 122.927 126.038 122.992 126.041 123.057C126.044 123.122 126.057 123.185 126.08 123.243C126.103 123.302 126.136 123.354 126.175 123.396C126.215 123.439 126.261 123.472 126.311 123.493C127.055 123.813 127.811 124.18 128.53 124.562C128.585 124.612 128.649 124.644 128.716 124.654L128.691 124.593ZM97.8177 123.37H97.9045L100.26 122.759C100.313 122.748 100.363 122.724 100.408 122.689C100.453 122.653 100.491 122.607 100.522 122.553C100.552 122.499 100.573 122.438 100.583 122.373C100.594 122.309 100.594 122.242 100.583 122.178C100.559 122.052 100.497 121.942 100.409 121.871C100.321 121.8 100.215 121.773 100.112 121.796C99.3181 121.979 98.5246 122.193 97.731 122.407C97.6288 122.437 97.5396 122.513 97.4819 122.621C97.4242 122.73 97.4024 122.861 97.421 122.988C97.436 123.112 97.487 123.226 97.5644 123.307C97.6419 123.389 97.7407 123.433 97.8426 123.431L97.8177 123.37ZM124.129 122.637C124.219 122.64 124.307 122.606 124.379 122.539C124.451 122.472 124.503 122.377 124.525 122.27C124.538 122.208 124.541 122.143 124.534 122.079C124.527 122.016 124.509 121.954 124.483 121.899C124.456 121.844 124.421 121.795 124.38 121.757C124.338 121.718 124.291 121.69 124.24 121.674C123.459 121.414 122.665 121.169 121.859 120.971C121.754 120.948 121.646 120.977 121.558 121.051C121.47 121.126 121.409 121.239 121.388 121.368C121.37 121.495 121.391 121.627 121.449 121.735C121.507 121.843 121.596 121.92 121.698 121.949C122.492 122.132 123.273 122.362 124.029 122.621L124.129 122.637ZM102.554 122.209H102.629C103.455 122.035 104.249 121.883 105.009 121.75C105.114 121.728 105.207 121.656 105.269 121.551C105.332 121.445 105.358 121.314 105.344 121.185C105.338 121.121 105.322 121.059 105.296 121.003C105.27 120.947 105.235 120.899 105.193 120.86C105.151 120.821 105.103 120.794 105.053 120.779C105.002 120.763 104.949 120.761 104.898 120.772C104.092 120.91 103.298 121.062 102.492 121.231C102.389 121.253 102.297 121.325 102.236 121.431C102.176 121.537 102.152 121.668 102.17 121.796C102.17 121.861 102.18 121.925 102.201 121.985C102.222 122.044 102.253 122.098 102.291 122.142C102.329 122.187 102.375 122.221 102.424 122.243C102.474 122.265 102.526 122.274 102.579 122.27L102.554 122.209ZM119.404 121.46C119.501 121.458 119.594 121.413 119.666 121.335C119.739 121.257 119.787 121.149 119.801 121.032C119.808 120.968 119.805 120.902 119.791 120.84C119.777 120.777 119.753 120.718 119.721 120.667C119.689 120.616 119.649 120.573 119.603 120.541C119.557 120.509 119.506 120.489 119.454 120.482C118.661 120.344 117.842 120.237 116.974 120.161C116.923 120.154 116.871 120.161 116.821 120.18C116.772 120.199 116.726 120.23 116.687 120.272C116.648 120.313 116.615 120.364 116.592 120.421C116.569 120.478 116.556 120.54 116.553 120.604C116.548 120.668 116.553 120.733 116.568 120.795C116.583 120.857 116.609 120.914 116.642 120.964C116.675 121.013 116.717 121.055 116.763 121.085C116.809 121.115 116.86 121.133 116.912 121.139C117.718 121.215 118.524 121.322 119.293 121.46H119.404ZM107.34 121.383C108.134 121.276 108.94 121.2 109.733 121.124C109.785 121.12 109.836 121.103 109.883 121.075C109.93 121.047 109.972 121.007 110.007 120.959C110.041 120.911 110.068 120.854 110.085 120.794C110.102 120.733 110.109 120.668 110.105 120.604C110.102 120.538 110.088 120.474 110.065 120.415C110.041 120.356 110.008 120.304 109.967 120.261C109.927 120.218 109.88 120.186 109.829 120.166C109.778 120.146 109.724 120.139 109.671 120.145C108.865 120.145 108.059 120.298 107.191 120.405C107.139 120.411 107.088 120.429 107.042 120.459C106.996 120.489 106.955 120.531 106.921 120.58C106.888 120.63 106.863 120.687 106.847 120.749C106.832 120.811 106.827 120.876 106.832 120.94C106.826 121.023 106.836 121.106 106.863 121.181C106.89 121.257 106.932 121.324 106.985 121.374C107.039 121.424 107.101 121.457 107.168 121.47C107.234 121.482 107.302 121.473 107.365 121.444L107.34 121.383ZM114.581 120.986C114.686 120.986 114.786 120.937 114.862 120.849C114.938 120.761 114.984 120.641 114.99 120.512C114.992 120.447 114.983 120.381 114.964 120.32C114.945 120.259 114.916 120.203 114.879 120.156C114.842 120.109 114.797 120.072 114.748 120.046C114.699 120.021 114.647 120.008 114.594 120.008C113.788 120.008 112.969 120.008 112.114 120.008C112.061 120.008 112.008 120.021 111.959 120.046C111.91 120.072 111.866 120.109 111.829 120.156C111.792 120.203 111.763 120.259 111.744 120.32C111.724 120.381 111.715 120.447 111.717 120.512C111.72 120.639 111.763 120.76 111.838 120.848C111.912 120.937 112.011 120.986 112.114 120.986H114.532H114.581Z" fill="#999999"/>
<path d="M52.6372 41.4651L49.1407 43.3297L35.167 31.3166L31.4473 33.8537C28.4591 36.0546 25.5578 36.2074 24.1691 35.2293L23.8838 35.3974C21.7264 36.559 20.4493 35.5197 20.0153 34.2664C19.5814 33.0131 19.8294 31.2096 21.9868 30.0175L22.272 29.8646C22.5324 28.3362 23.6607 25.7686 28.0624 24.2555L32.1168 22.6506L34.5966 1.87989L38.0931 0L40.8085 19.2424L50.8021 15.024L52.3149 10.0873L55.0922 8.81877L55.2906 13.4039L56.2825 13.2969L57.1877 15.8494L56.4437 16.7511L59.0723 20.1136L56.4189 21.7489L52.4761 19.7315L43.1396 25.845L52.6372 41.4651ZM52.3768 18.6157L56.3445 20.6485L57.5844 19.8537L55.179 16.7969L56.0841 15.666L55.6625 14.4585L54.4226 14.5961L54.2367 10.3166L52.8852 10.928L51.3725 15.8799L40.0646 20.6332L37.374 1.51309L35.2785 2.62883L32.8608 23.476L28.2855 25.2795C24.0203 26.7314 23.1771 29.0852 23.0531 30.3537V30.6747L22.8051 30.7817C22.6476 30.837 22.4941 30.9086 22.3464 30.9957C21.0197 31.6987 20.4245 32.8144 20.8089 33.8843C21.1933 34.9542 22.2472 35.1987 23.5739 34.4804C23.7231 34.4061 23.8682 34.3192 24.0079 34.2205L24.2435 34.0524L24.4666 34.2511C25.3718 35.0765 28.0128 35.2293 31.0629 32.9979L35.229 30.1245L49.2399 42.1834L51.3353 41.0677L41.8377 25.5699L52.3768 18.6157Z" fill="#999999"/>
<path d="M172.638 169.741C172.705 169.742 172.771 169.721 172.83 169.681C172.889 169.641 172.938 169.582 172.973 169.511C173.419 168.676 173.832 167.835 174.213 166.99C174.269 166.878 174.287 166.743 174.264 166.615C174.241 166.486 174.178 166.374 174.089 166.302C173.996 166.234 173.886 166.213 173.782 166.245C173.677 166.276 173.587 166.357 173.531 166.47C173.109 167.311 172.687 168.136 172.291 168.977C172.261 169.03 172.24 169.091 172.229 169.155C172.218 169.219 172.218 169.285 172.229 169.349C172.239 169.414 172.26 169.474 172.29 169.529C172.319 169.583 172.358 169.629 172.402 169.664C172.475 169.713 172.556 169.739 172.638 169.741ZM175.118 164.666C175.188 164.666 175.256 164.643 175.317 164.6C175.378 164.557 175.429 164.496 175.465 164.422C175.862 163.551 176.258 162.68 176.705 161.808C176.755 161.694 176.767 161.561 176.74 161.435C176.712 161.31 176.646 161.203 176.556 161.136C176.462 161.075 176.352 161.062 176.251 161.099C176.149 161.136 176.063 161.221 176.01 161.335C175.626 162.206 175.229 163.062 174.833 163.918C174.777 164.031 174.761 164.167 174.786 164.296C174.812 164.425 174.877 164.536 174.969 164.605C175.033 164.649 175.106 164.67 175.18 164.666H175.118ZM177.424 159.439C177.498 159.438 177.571 159.412 177.635 159.364C177.698 159.315 177.75 159.246 177.784 159.164C178.156 158.278 178.515 157.376 178.862 156.49C178.885 156.431 178.899 156.368 178.902 156.304C178.905 156.239 178.898 156.174 178.881 156.113C178.863 156.052 178.836 155.996 178.801 155.947C178.766 155.899 178.724 155.86 178.676 155.832C178.629 155.804 178.578 155.787 178.525 155.783C178.473 155.779 178.42 155.788 178.371 155.81C178.321 155.831 178.276 155.864 178.236 155.908C178.197 155.951 178.166 156.003 178.143 156.062C177.796 156.948 177.436 157.835 177.064 158.721C177.041 158.779 177.028 158.842 177.024 158.907C177.021 158.972 177.029 159.036 177.046 159.098C177.063 159.159 177.09 159.215 177.125 159.263C177.16 159.311 177.203 159.35 177.25 159.378C177.284 159.409 177.322 159.43 177.363 159.441C177.403 159.452 177.445 159.451 177.486 159.439H177.424ZM179.519 154.059C179.597 154.058 179.673 154.03 179.739 153.979C179.804 153.928 179.857 153.855 179.891 153.769L180.858 151.033C180.899 150.91 180.899 150.771 180.857 150.648C180.815 150.525 180.736 150.427 180.635 150.376C180.536 150.33 180.427 150.333 180.33 150.385C180.233 150.436 180.156 150.531 180.114 150.651C179.805 151.553 179.482 152.455 179.16 153.372C179.137 153.43 179.125 153.493 179.122 153.557C179.12 153.621 179.129 153.685 179.147 153.745C179.166 153.805 179.194 153.86 179.23 153.906C179.267 153.952 179.31 153.989 179.358 154.014C179.427 154.056 179.505 154.072 179.581 154.059H179.519ZM181.392 148.573C181.471 148.572 181.548 148.542 181.614 148.488C181.681 148.434 181.732 148.357 181.764 148.267C182.061 147.319 182.346 146.387 182.632 145.455C182.649 145.393 182.657 145.329 182.654 145.264C182.651 145.199 182.637 145.136 182.614 145.077C182.591 145.019 182.559 144.967 182.519 144.924C182.48 144.881 182.433 144.849 182.384 144.828C182.285 144.788 182.177 144.795 182.083 144.849C181.988 144.903 181.914 144.999 181.875 145.118C181.602 146.051 181.317 146.968 181.02 147.9C180.982 148.022 180.985 148.157 181.027 148.276C181.068 148.396 181.146 148.491 181.243 148.542L181.392 148.573ZM183.053 142.979C183.136 142.977 183.216 142.944 183.283 142.884C183.349 142.824 183.399 142.739 183.425 142.642C183.698 141.695 183.946 140.747 184.181 139.8C184.213 139.674 184.203 139.538 184.155 139.421C184.106 139.304 184.022 139.215 183.921 139.173C183.819 139.134 183.709 139.146 183.614 139.206C183.519 139.266 183.447 139.369 183.413 139.494C183.177 140.442 182.929 141.374 182.669 142.321C182.637 142.447 182.647 142.583 182.696 142.7C182.744 142.817 182.828 142.906 182.929 142.948L183.053 142.979ZM184.491 137.293C184.579 137.291 184.663 137.254 184.733 137.188C184.802 137.122 184.852 137.03 184.876 136.926C185.099 135.963 185.322 135 185.521 134.053C185.547 133.925 185.532 133.79 185.479 133.676C185.426 133.561 185.338 133.477 185.235 133.442C185.185 133.425 185.132 133.422 185.081 133.431C185.029 133.44 184.979 133.461 184.934 133.494C184.89 133.526 184.85 133.57 184.819 133.621C184.788 133.672 184.765 133.731 184.752 133.793C184.541 134.741 184.33 135.704 184.107 136.651C184.092 136.713 184.087 136.779 184.092 136.843C184.098 136.908 184.114 136.97 184.139 137.027C184.165 137.084 184.199 137.134 184.24 137.175C184.282 137.215 184.329 137.245 184.38 137.262L184.491 137.293ZM185.731 131.531C185.82 131.528 185.906 131.489 185.975 131.42C186.045 131.351 186.094 131.256 186.116 131.149C186.302 130.171 186.488 129.193 186.649 128.23C186.662 128.167 186.664 128.103 186.656 128.039C186.648 127.976 186.629 127.915 186.601 127.861C186.573 127.806 186.537 127.76 186.494 127.723C186.451 127.687 186.402 127.661 186.351 127.649C186.3 127.633 186.247 127.63 186.194 127.64C186.142 127.65 186.092 127.673 186.047 127.707C186.002 127.741 185.963 127.786 185.932 127.839C185.901 127.892 185.879 127.952 185.868 128.016C185.706 128.979 185.52 129.942 185.334 130.92C185.312 131.047 185.33 131.181 185.386 131.292C185.441 131.403 185.53 131.483 185.632 131.516L185.731 131.531ZM186.748 125.693C186.842 125.695 186.933 125.656 187.005 125.583C187.078 125.51 187.127 125.409 187.145 125.295C187.294 124.317 187.442 123.339 187.579 122.361C187.597 122.233 187.573 122.102 187.512 121.996C187.452 121.89 187.36 121.818 187.256 121.795C187.204 121.782 187.15 121.782 187.098 121.795C187.046 121.808 186.996 121.834 186.952 121.871C186.908 121.908 186.871 121.955 186.842 122.011C186.813 122.066 186.794 122.128 186.785 122.193C186.649 123.155 186.512 124.134 186.351 125.112C186.34 125.176 186.34 125.243 186.351 125.307C186.361 125.371 186.382 125.432 186.412 125.487C186.442 125.541 186.481 125.587 186.526 125.622C186.571 125.658 186.621 125.682 186.674 125.693H186.748ZM187.566 119.824C187.662 119.828 187.756 119.789 187.83 119.712C187.903 119.636 187.951 119.528 187.963 119.411C188.087 118.417 188.199 117.424 188.298 116.446C188.305 116.382 188.301 116.316 188.288 116.254C188.274 116.191 188.25 116.132 188.218 116.081C188.185 116.03 188.145 115.987 188.099 115.955C188.054 115.923 188.003 115.903 187.951 115.896C187.898 115.885 187.845 115.888 187.793 115.904C187.742 115.92 187.693 115.949 187.651 115.989C187.609 116.029 187.575 116.08 187.549 116.137C187.524 116.195 187.509 116.258 187.504 116.324C187.405 117.281 187.294 118.26 187.17 119.258C187.155 119.387 187.182 119.519 187.244 119.624C187.307 119.73 187.4 119.801 187.504 119.824H187.566ZM188.174 113.909C188.274 113.913 188.371 113.869 188.445 113.786C188.519 113.704 188.564 113.589 188.571 113.466C188.657 112.472 188.744 111.479 188.806 110.5C188.813 110.369 188.778 110.24 188.709 110.14C188.639 110.04 188.541 109.977 188.434 109.966C188.382 109.957 188.33 109.962 188.28 109.98C188.229 109.998 188.183 110.029 188.143 110.071C188.103 110.113 188.071 110.165 188.049 110.223C188.026 110.281 188.014 110.344 188.013 110.409C187.938 111.387 187.864 112.38 187.777 113.374C187.772 113.438 187.777 113.503 187.793 113.565C187.808 113.627 187.833 113.684 187.866 113.734C187.9 113.783 187.941 113.824 187.987 113.855C188.034 113.885 188.084 113.903 188.137 113.909H188.174ZM188.583 107.979C188.684 107.979 188.781 107.932 188.855 107.846C188.929 107.761 188.973 107.644 188.98 107.52C188.98 106.496 189.079 105.503 189.104 104.463C189.107 104.398 189.1 104.332 189.082 104.27C189.064 104.208 189.037 104.152 189.001 104.103C188.965 104.055 188.922 104.015 188.873 103.988C188.825 103.961 188.773 103.946 188.719 103.944C188.615 103.95 188.516 104 188.439 104.087C188.362 104.173 188.312 104.29 188.298 104.417C188.298 105.396 188.298 106.389 188.186 107.383C188.179 107.514 188.214 107.643 188.284 107.743C188.353 107.843 188.452 107.906 188.558 107.917L188.583 107.979ZM188.769 102.018C188.874 102.018 188.975 101.966 189.05 101.875C189.124 101.783 189.166 101.659 189.166 101.529C189.166 100.826 189.166 100.138 189.166 99.4502V98.5485C189.166 98.4188 189.124 98.2944 189.05 98.2026C188.975 98.1109 188.874 98.0594 188.769 98.0594C188.664 98.0594 188.563 98.1109 188.489 98.2026C188.414 98.2944 188.372 98.4188 188.372 98.5485V99.4502C188.372 100.138 188.372 100.826 188.372 101.514C188.371 101.579 188.38 101.644 188.399 101.705C188.418 101.767 188.447 101.822 188.484 101.869C188.521 101.916 188.565 101.954 188.614 101.979C188.663 102.005 188.716 102.018 188.769 102.018ZM188.769 96.0572C188.822 96.0572 188.875 96.0441 188.924 96.0186C188.973 95.993 189.017 95.9557 189.054 95.9086C189.091 95.8616 189.12 95.8058 189.139 95.7447C189.158 95.6836 189.167 95.6183 189.166 95.5528C189.166 94.5288 189.091 93.5354 189.054 92.4961C189.045 92.365 188.994 92.2436 188.913 92.1579C188.832 92.0723 188.727 92.0291 188.62 92.0376C188.568 92.0414 188.517 92.058 188.47 92.0862C188.423 92.1145 188.381 92.1539 188.347 92.2021C188.312 92.2504 188.286 92.3067 188.269 92.3676C188.252 92.4285 188.245 92.4929 188.248 92.5572C188.248 93.5201 188.335 94.5135 188.36 95.5223C188.354 95.5943 188.361 95.667 188.381 95.7351C188.401 95.8033 188.433 95.8652 188.474 95.9164C188.516 95.9675 188.566 96.0067 188.621 96.031C188.676 96.0554 188.735 96.0643 188.794 96.0572H188.769ZM188.484 90.1118C188.536 90.106 188.587 90.0876 188.633 90.0575C188.68 90.0275 188.721 89.9864 188.754 89.9367C188.787 89.887 188.813 89.8295 188.828 89.7678C188.843 89.706 188.849 89.6411 188.843 89.5768C188.769 88.5579 188.682 87.539 188.583 86.5201C188.579 86.4548 188.563 86.3914 188.538 86.3338C188.513 86.2762 188.478 86.2257 188.436 86.1855C188.394 86.1452 188.346 86.1162 188.294 86.1001C188.243 86.0841 188.189 86.0813 188.137 86.0921C188.032 86.1111 187.938 86.1789 187.874 86.2814C187.809 86.3839 187.779 86.5132 187.789 86.6423C187.889 87.5747 187.975 88.5681 188.05 89.5921C188.045 89.6674 188.054 89.743 188.077 89.8131C188.1 89.8832 188.135 89.9458 188.181 89.9962C188.226 90.0465 188.281 90.0831 188.34 90.1032C188.399 90.1232 188.461 90.1262 188.521 90.1118H188.484ZM187.889 84.1969C187.992 84.1746 188.084 84.1024 188.145 83.9964C188.205 83.8904 188.229 83.7591 188.211 83.6314L188.137 83.0354C188.025 82.2559 187.901 81.507 187.777 80.6816C187.767 80.6183 187.746 80.558 187.717 80.5045C187.688 80.4509 187.65 80.405 187.606 80.3694C187.562 80.3339 187.513 80.3094 187.462 80.2974C187.41 80.2854 187.357 80.2862 187.306 80.2996C187.254 80.3103 187.204 80.3342 187.159 80.3698C187.115 80.4054 187.077 80.452 187.048 80.5065C187.019 80.561 186.999 80.6224 186.99 80.6867C186.981 80.751 186.983 80.8169 186.996 80.8803C187.12 81.6598 187.232 82.4087 187.343 83.2035L187.43 83.7843C187.435 83.853 187.453 83.9195 187.481 83.9791C187.509 84.0387 187.548 84.09 187.594 84.1293C187.64 84.1686 187.692 84.195 187.748 84.2067C187.803 84.2184 187.859 84.2151 187.914 84.1969H187.889ZM186.934 78.3585H187.021C187.072 78.3459 187.12 78.3207 187.163 78.2843C187.206 78.2479 187.243 78.2012 187.271 78.1468C187.299 78.0925 187.317 78.0318 187.325 77.9683C187.333 77.9049 187.331 77.84 187.318 77.7777C187.132 76.7995 186.946 75.8367 186.736 74.8585C186.721 74.796 186.697 74.7375 186.664 74.6867C186.632 74.6358 186.591 74.5935 186.545 74.5622C186.499 74.5309 186.448 74.5112 186.395 74.5044C186.343 74.4975 186.29 74.5036 186.24 74.5223C186.189 74.5383 186.142 74.5664 186.1 74.605C186.058 74.6437 186.023 74.6921 185.997 74.7474C185.97 74.8028 185.953 74.864 185.946 74.9277C185.938 74.9913 185.941 75.0561 185.954 75.1183C186.165 76.0812 186.364 77.0288 186.537 77.9917C186.563 78.1032 186.618 78.2005 186.695 78.2673C186.772 78.3341 186.865 78.3663 186.959 78.3585H186.934ZM185.694 72.6118H185.806C185.856 72.5942 185.904 72.5644 185.945 72.524C185.986 72.4836 186.021 72.4335 186.046 72.3766C186.071 72.3197 186.087 72.2571 186.093 72.1925C186.098 72.1279 186.094 72.0626 186.078 72.0004C185.843 71.0375 185.595 70.0899 185.334 69.1423C185.318 69.0808 185.291 69.024 185.257 68.9752C185.222 68.9265 185.18 68.8867 185.132 68.8582C185.085 68.8298 185.033 68.8132 184.981 68.8095C184.928 68.8058 184.876 68.815 184.826 68.8367C184.776 68.8573 184.73 68.8899 184.691 68.9327C184.651 68.9755 184.619 69.0276 184.596 69.0859C184.573 69.1443 184.559 69.2077 184.556 69.2724C184.553 69.3372 184.561 69.4021 184.578 69.4633C184.839 70.3956 185.074 71.3432 185.31 72.2908C185.339 72.3899 185.393 72.4746 185.465 72.5325C185.536 72.5903 185.621 72.6181 185.706 72.6118H185.694ZM184.144 66.9567C184.189 66.971 184.236 66.971 184.281 66.9567C184.379 66.912 184.459 66.8209 184.503 66.7034C184.548 66.586 184.552 66.4517 184.516 66.3301C184.231 65.3978 183.933 64.4655 183.611 63.5484C183.592 63.4878 183.563 63.4325 183.527 63.3858C183.49 63.339 183.446 63.3017 183.398 63.2761C183.349 63.2505 183.297 63.237 183.244 63.2366C183.191 63.2361 183.139 63.2486 183.09 63.2733C183.042 63.2984 182.999 63.3348 182.962 63.3807C182.925 63.4265 182.896 63.4808 182.877 63.5404C182.857 63.6 182.847 63.6638 182.848 63.7281C182.848 63.7925 182.859 63.8561 182.88 63.9153C183.189 64.8323 183.487 65.7493 183.76 66.6816C183.796 66.7708 183.854 66.8445 183.924 66.8935C183.995 66.9425 184.076 66.9645 184.157 66.9567H184.144ZM182.322 61.5462C182.379 61.5607 182.438 61.5607 182.495 61.5462C182.591 61.4898 182.665 61.3897 182.702 61.2671C182.739 61.1445 182.736 61.0089 182.693 60.8891C182.346 59.9873 181.999 59.0856 181.627 58.1838C181.577 58.0712 181.494 57.9863 181.395 57.9466C181.296 57.9068 181.188 57.9151 181.094 57.9698C180.997 58.029 180.923 58.1329 180.889 58.2589C180.854 58.3848 180.861 58.5227 180.908 58.6423C181.28 59.5135 181.627 60.4 181.962 61.3017C181.997 61.3802 182.049 61.4449 182.113 61.4881C182.177 61.5314 182.249 61.5516 182.322 61.5462ZM180.139 56.2275C180.2 56.2483 180.264 56.2483 180.325 56.2275C180.372 56.197 180.414 56.1553 180.447 56.1048C180.481 56.0542 180.506 55.9959 180.521 55.9332C180.536 55.8705 180.541 55.8047 180.535 55.7398C180.529 55.6748 180.512 55.612 180.487 55.555C180.09 54.6838 179.681 53.8126 179.247 52.972C179.221 52.9151 179.186 52.8653 179.144 52.8257C179.103 52.786 179.055 52.7575 179.003 52.7417C178.952 52.7259 178.899 52.7233 178.847 52.734C178.795 52.7447 178.745 52.7685 178.701 52.8039C178.656 52.8369 178.617 52.8805 178.586 52.9322C178.555 52.9839 178.532 53.0427 178.519 53.1052C178.507 53.1677 178.504 53.2326 178.512 53.2963C178.52 53.36 178.538 53.4212 178.565 53.4764C178.986 54.317 179.383 55.1729 179.805 56.0441C179.845 56.0864 179.893 56.1178 179.944 56.1362C179.995 56.1546 180.049 56.1597 180.102 56.1511L180.139 56.2275ZM177.659 51.1379C177.732 51.1652 177.81 51.1652 177.883 51.1379C177.927 51.1024 177.966 51.0563 177.995 51.0022C178.025 50.9481 178.046 50.8872 178.056 50.8231C178.067 50.759 178.067 50.6929 178.056 50.6289C178.045 50.5648 178.024 50.5041 177.994 50.4502C177.536 49.6248 177.077 48.7995 176.593 47.9895C176.529 47.8867 176.435 47.8182 176.332 47.7983C176.228 47.7784 176.122 47.8085 176.035 47.8825C175.952 47.9614 175.896 48.0769 175.88 48.205C175.864 48.333 175.888 48.4638 175.948 48.5702C176.42 49.365 176.878 50.1751 177.325 51.0004C177.403 51.057 177.495 51.0785 177.585 51.0615L177.659 51.1379ZM123.104 47.7602H123.612C123.664 47.7563 123.715 47.7398 123.762 47.7115C123.809 47.6833 123.851 47.6439 123.886 47.5956C123.92 47.5473 123.947 47.4911 123.964 47.4302C123.981 47.3693 123.988 47.3048 123.984 47.2406C123.983 47.1756 123.97 47.1117 123.948 47.0528C123.926 46.9939 123.894 46.9413 123.854 46.8983C123.815 46.8553 123.768 46.8228 123.718 46.8028C123.668 46.7828 123.615 46.7757 123.563 46.782C123.088 46.8357 122.611 46.8357 122.137 46.782C121.853 46.738 121.571 46.6716 121.294 46.5834C121.19 46.5505 121.08 46.5688 120.987 46.6345C120.895 46.7002 120.827 46.808 120.798 46.9349C120.785 46.9981 120.782 47.0639 120.79 47.1284C120.798 47.1928 120.817 47.2546 120.845 47.3102C120.872 47.3657 120.909 47.4139 120.952 47.4518C120.995 47.4897 121.044 47.5166 121.095 47.531C121.408 47.6381 121.727 47.7147 122.05 47.7602C122.357 47.7527 122.663 47.7272 122.967 47.6838L123.104 47.7602ZM125.956 47.1641H126.08C126.885 46.8154 127.636 46.2984 128.299 45.6357C128.373 45.5416 128.415 45.4155 128.415 45.2842C128.415 45.1529 128.373 45.0268 128.299 44.9327C128.262 44.8856 128.218 44.8481 128.169 44.8225C128.12 44.7969 128.067 44.7837 128.014 44.7837C127.961 44.7837 127.908 44.7969 127.859 44.8225C127.81 44.8481 127.766 44.8856 127.729 44.9327C127.136 45.516 126.47 45.9755 125.757 46.293C125.707 46.3136 125.661 46.3462 125.622 46.389C125.582 46.4318 125.55 46.4839 125.527 46.5422C125.504 46.6006 125.49 46.664 125.487 46.7287C125.484 46.7935 125.492 46.8584 125.509 46.9196C125.548 46.9733 125.596 47.0161 125.649 47.0451C125.703 47.0741 125.761 47.0886 125.819 47.0877L125.956 47.1641ZM174.87 46.3388C174.96 46.3402 175.048 46.3023 175.118 46.2318C175.192 46.1377 175.233 46.0116 175.233 45.8803C175.233 45.749 175.192 45.6229 175.118 45.5288C174.609 44.7493 174.076 44.0004 173.555 43.2362C173.479 43.1447 173.377 43.0935 173.27 43.0935C173.164 43.0935 173.061 43.1447 172.985 43.2362C172.911 43.3303 172.869 43.4564 172.869 43.5877C172.869 43.719 172.911 43.8451 172.985 43.9392C173.506 44.6729 174.027 45.4676 174.523 46.2013C174.587 46.2439 174.66 46.265 174.733 46.2624L174.87 46.3388ZM119 46.2624C119.065 46.2601 119.129 46.2396 119.187 46.2026C119.245 46.1655 119.295 46.1128 119.335 46.0484C119.391 45.9365 119.409 45.8019 119.386 45.6734C119.363 45.5449 119.3 45.4327 119.21 45.3606C118.571 44.837 117.991 44.2098 117.487 43.496C117.413 43.4055 117.313 43.3547 117.208 43.3547C117.104 43.3547 117.003 43.4055 116.929 43.496C116.855 43.5902 116.813 43.7163 116.813 43.8475C116.813 43.9788 116.855 44.1049 116.929 44.1991C117.479 44.9897 118.118 45.6794 118.826 46.2471C118.838 46.2531 118.851 46.2582 118.863 46.2624H119ZM129.576 43.4349C129.647 43.4326 129.717 43.4074 129.778 43.3618C129.839 43.3162 129.889 43.2519 129.923 43.175C130.333 42.2233 130.597 41.1874 130.704 40.1183C130.711 40.054 130.708 39.9886 130.694 39.926C130.68 39.8634 130.657 39.8048 130.624 39.7535C130.592 39.7023 130.552 39.6596 130.506 39.6278C130.46 39.5959 130.41 39.5756 130.357 39.5681C130.254 39.5506 130.149 39.5841 130.065 39.6613C129.982 39.7386 129.926 39.8534 129.911 39.9807C129.808 40.9086 129.577 41.808 129.229 42.6401C129.203 42.6971 129.187 42.7599 129.181 42.8249C129.175 42.8899 129.179 42.9556 129.194 43.0183C129.209 43.081 129.234 43.1394 129.268 43.1899C129.302 43.2404 129.343 43.2822 129.39 43.3126C129.406 43.3291 129.422 43.3444 129.44 43.3585L129.576 43.4349ZM171.671 41.9065C171.777 41.9079 171.879 41.8586 171.956 41.7689C172.03 41.6748 172.072 41.5487 172.072 41.4174C172.072 41.2861 172.03 41.16 171.956 41.0659C171.386 40.3475 170.803 39.6445 170.22 38.9567C170.144 38.8652 170.041 38.814 169.935 38.814C169.828 38.814 169.726 38.8652 169.65 38.9567C169.576 39.0483 169.535 39.1718 169.535 39.3006C169.535 39.4294 169.576 39.5529 169.65 39.6445C170.22 40.317 170.79 41.02 171.348 41.7231C171.405 41.7632 171.469 41.7843 171.534 41.7842L171.671 41.9065ZM115.875 41.9065C115.937 41.9209 116 41.9209 116.061 41.9065C116.153 41.8419 116.223 41.7368 116.255 41.6121C116.287 41.4875 116.28 41.3525 116.235 41.234C115.886 40.3834 115.631 39.4786 115.478 38.5441C115.467 38.4804 115.445 38.4203 115.414 38.3673C115.383 38.3142 115.344 38.2693 115.299 38.2351C115.254 38.2009 115.204 38.1782 115.152 38.1683C115.1 38.1583 115.046 38.1614 114.995 38.1772C114.943 38.19 114.895 38.2152 114.851 38.2513C114.808 38.2875 114.77 38.3339 114.742 38.3879C114.713 38.4419 114.693 38.5025 114.683 38.566C114.673 38.6295 114.674 38.6948 114.685 38.758C114.865 39.769 115.144 40.7493 115.516 41.6772C115.575 41.7233 115.644 41.7497 115.714 41.7537L115.875 41.9065ZM168.187 37.8563C168.243 37.8559 168.299 37.8408 168.35 37.8118C168.401 37.7828 168.447 37.7407 168.484 37.6882C168.558 37.594 168.6 37.4679 168.6 37.3366C168.6 37.2053 168.558 37.0792 168.484 36.9851L167.74 36.2209L166.587 35.1052C166.501 35.0249 166.394 34.9895 166.287 35.0066C166.18 35.0238 166.083 35.0922 166.017 35.1969C165.955 35.3015 165.929 35.4311 165.943 35.559C165.957 35.687 166.01 35.8035 166.091 35.8846L167.232 36.9851L167.963 37.7493C167.985 37.7364 168.006 37.7211 168.025 37.7034L168.187 37.8563ZM130.345 37.7187C130.451 37.7033 130.549 37.6371 130.616 37.5342C130.683 37.4313 130.715 37.3 130.704 37.1685C130.61 36.1315 130.435 35.108 130.184 34.1117C130.169 34.0492 130.145 33.9908 130.112 33.9399C130.08 33.889 130.039 33.8467 129.993 33.8154C129.947 33.7841 129.896 33.7644 129.844 33.7576C129.791 33.7507 129.738 33.7568 129.688 33.7755C129.637 33.7928 129.59 33.8227 129.549 33.8633C129.508 33.904 129.475 33.9545 129.45 34.0117C129.426 34.069 129.411 34.1318 129.407 34.1964C129.403 34.2609 129.41 34.3257 129.427 34.3868C129.652 35.3111 129.814 36.2569 129.911 37.2143C129.927 37.2972 129.961 37.3732 130.009 37.4349C130.057 37.4966 130.117 37.5417 130.184 37.5659L130.345 37.7187ZM114.908 36.1903C115.009 36.1906 115.106 36.1433 115.18 36.0581C115.254 35.9728 115.299 35.8561 115.305 35.7318C115.362 34.792 115.538 33.869 115.826 32.996C115.846 32.9368 115.857 32.8732 115.857 32.8089C115.858 32.7446 115.848 32.6808 115.828 32.6211C115.809 32.5615 115.78 32.5072 115.743 32.4614C115.706 32.4156 115.663 32.3791 115.615 32.3541C115.567 32.3289 115.515 32.3157 115.463 32.3151C115.411 32.3146 115.359 32.3267 115.311 32.3508C115.262 32.3749 115.218 32.4106 115.181 32.4557C115.144 32.5009 115.114 32.5547 115.094 32.6139C114.765 33.5867 114.569 34.6193 114.511 35.6707C114.506 35.7362 114.512 35.8022 114.528 35.8649C114.544 35.9276 114.57 35.9857 114.605 36.0356C114.64 36.0856 114.682 36.1264 114.73 36.1556C114.778 36.1848 114.83 36.2018 114.883 36.2056L114.908 36.1903ZM164.182 34.0353C164.248 34.0367 164.313 34.0178 164.371 33.9805C164.43 33.9431 164.48 33.8884 164.517 33.8213C164.575 33.713 164.598 33.581 164.579 33.4528C164.561 33.3246 164.503 33.2103 164.417 33.1336C163.748 32.5681 163.053 32.0178 162.371 31.4982C162.279 31.4303 162.169 31.4098 162.065 31.4413C161.96 31.4727 161.87 31.5536 161.814 31.6663C161.787 31.7215 161.769 31.7826 161.761 31.8463C161.753 31.91 161.756 31.975 161.768 32.0375C161.781 32.0999 161.804 32.1587 161.835 32.2105C161.866 32.2622 161.905 32.3058 161.95 32.3388C162.628 32.8585 163.297 33.3934 163.959 33.9436C164.024 34.0013 164.102 34.0332 164.182 34.0353ZM128.845 31.8191C128.898 31.8347 128.953 31.8347 129.006 31.8191C129.104 31.7655 129.181 31.6666 129.22 31.5437C129.26 31.4207 129.258 31.2837 129.217 31.1619C128.907 30.2907 128.547 29.3737 128.138 28.4567C128.113 28.3988 128.079 28.3476 128.038 28.3062C127.997 28.2647 127.95 28.2338 127.899 28.2153C127.848 28.1968 127.795 28.191 127.742 28.1983C127.689 28.2057 127.638 28.226 127.592 28.258C127.5 28.3224 127.431 28.4286 127.401 28.5541C127.371 28.6796 127.382 28.8145 127.431 28.9305C127.828 29.817 128.187 30.7034 128.485 31.5593C128.514 31.6481 128.564 31.7243 128.628 31.7786C128.692 31.833 128.767 31.863 128.845 31.865V31.8191ZM160.003 30.9785C160.077 30.9806 160.15 30.9574 160.213 30.9115C160.277 30.8656 160.328 30.7988 160.363 30.7187C160.412 30.6027 160.423 30.4678 160.393 30.3423C160.363 30.2168 160.294 30.1107 160.202 30.0462C159.495 29.5724 158.763 29.1139 158.032 28.6707C157.985 28.6421 157.933 28.6254 157.881 28.6215C157.829 28.6176 157.776 28.6267 157.726 28.648C157.677 28.6693 157.631 28.7025 157.592 28.7458C157.553 28.789 157.521 28.8415 157.499 28.8999C157.476 28.9581 157.462 29.0213 157.459 29.0859C157.456 29.1505 157.463 29.2153 157.48 29.2764C157.498 29.3376 157.525 29.3938 157.56 29.442C157.595 29.4902 157.637 29.5294 157.685 29.5571C158.404 29.9851 159.123 30.4436 159.817 30.9174C159.873 30.959 159.938 30.9802 160.003 30.9785ZM116.508 30.5964C116.567 30.5954 116.625 30.5785 116.679 30.5468C116.732 30.5151 116.78 30.4695 116.817 30.413C117.319 29.6901 117.884 29.039 118.504 28.472C118.548 28.4355 118.585 28.3882 118.614 28.3331C118.642 28.2779 118.661 28.2161 118.669 28.1515C118.677 28.0869 118.675 28.0209 118.661 27.9577C118.648 27.8945 118.624 27.8354 118.591 27.7842C118.561 27.7299 118.523 27.6838 118.478 27.6487C118.433 27.6136 118.383 27.5903 118.331 27.5802C118.278 27.5702 118.225 27.5736 118.173 27.5903C118.122 27.607 118.074 27.6366 118.033 27.6772C117.358 28.2919 116.742 28.9995 116.198 29.7864C116.127 29.8798 116.088 30.0027 116.088 30.1303C116.088 30.2579 116.127 30.3808 116.198 30.4742C116.252 30.5344 116.319 30.5758 116.391 30.5946C116.462 30.6134 116.537 30.6087 116.607 30.5811L116.508 30.5964ZM155.664 28.3803C155.742 28.3757 155.818 28.3449 155.884 28.291C155.95 28.2372 156.002 28.1624 156.036 28.0746C156.056 28.0154 156.067 27.9518 156.067 27.8875C156.068 27.8231 156.058 27.7594 156.038 27.6997C156.019 27.6401 155.99 27.5858 155.953 27.54C155.916 27.4942 155.873 27.4577 155.825 27.4327C155.068 27.0353 154.312 26.6685 153.556 26.317C153.455 26.272 153.345 26.2772 153.247 26.3315C153.15 26.3857 153.074 26.4848 153.035 26.6074C152.999 26.733 153.005 26.8711 153.052 26.9913C153.098 27.1116 153.181 27.2043 153.283 27.2493C154.027 27.5855 154.771 27.9523 155.502 28.3344C155.573 28.3717 155.65 28.3824 155.726 28.365L155.664 28.3803ZM120.339 27.0353C120.395 27.0575 120.456 27.0575 120.512 27.0353C121.222 26.6132 121.951 26.2407 122.695 25.9196C122.745 25.8989 122.791 25.8663 122.83 25.8235C122.87 25.7807 122.902 25.7286 122.925 25.6703C122.948 25.6119 122.962 25.5486 122.965 25.4838C122.968 25.419 122.96 25.3541 122.943 25.2929C122.926 25.2314 122.899 25.1746 122.865 25.1258C122.83 25.077 122.788 25.0373 122.74 25.0088C122.693 24.9804 122.642 24.9638 122.589 24.9601C122.537 24.9564 122.484 24.9656 122.434 24.9872C121.657 25.321 120.895 25.7088 120.153 26.1488C120.058 26.2107 119.987 26.3157 119.955 26.4414C119.922 26.5671 119.931 26.7035 119.979 26.8213C120.025 26.9033 120.09 26.9662 120.165 27.0017C120.24 27.0372 120.323 27.0436 120.401 27.02L120.339 27.0353ZM126.538 26.6226C126.614 26.6284 126.688 26.6013 126.749 26.5462C126.794 26.5134 126.834 26.4696 126.864 26.4175C126.895 26.3653 126.917 26.3059 126.929 26.2429C126.94 26.18 126.942 26.1147 126.932 26.0512C126.922 25.9878 126.902 25.9273 126.873 25.8737C126.675 25.4763 126.464 25.0942 126.253 24.6816L127.357 24.4065C127.46 24.3841 127.552 24.312 127.613 24.2059C127.673 24.0999 127.697 23.9686 127.679 23.8409C127.67 23.7762 127.651 23.7143 127.622 23.659C127.593 23.6037 127.556 23.5561 127.512 23.519C127.468 23.4819 127.418 23.4561 127.366 23.4432C127.314 23.4302 127.26 23.4304 127.208 23.4436C126.724 23.5506 126.241 23.6728 125.77 23.8104L125.522 23.3824C125.492 23.3287 125.454 23.2829 125.409 23.2476C125.365 23.2123 125.315 23.1882 125.263 23.1768C125.212 23.1655 125.158 23.167 125.107 23.1813C125.055 23.1956 125.007 23.2224 124.964 23.2602C124.92 23.2969 124.883 23.3439 124.854 23.3986C124.826 23.4532 124.806 23.5143 124.797 23.5784C124.788 23.6424 124.789 23.7081 124.8 23.7715C124.812 23.835 124.834 23.895 124.864 23.9479L124.926 24.0549H124.827C124.724 24.0909 124.635 24.1741 124.58 24.2878C124.525 24.4014 124.507 24.5368 124.53 24.6663C124.561 24.791 124.63 24.8965 124.722 24.9616C124.814 25.0268 124.922 25.0469 125.026 25.0178L125.41 24.9108C125.695 25.3999 125.956 25.9043 126.204 26.4392C126.243 26.4967 126.292 26.5419 126.348 26.5711C126.404 26.6004 126.465 26.6128 126.526 26.6074L126.538 26.6226ZM151.163 26.3017C151.248 26.3062 151.332 26.2756 151.402 26.2147C151.471 26.1538 151.522 26.0661 151.547 25.9654C151.579 25.8397 151.569 25.7039 151.52 25.5868C151.472 25.4698 151.388 25.3808 151.287 25.3388C150.518 25.0484 149.725 24.758 148.943 24.5134C148.893 24.4951 148.84 24.4898 148.788 24.4978C148.735 24.5058 148.685 24.5269 148.64 24.5599C148.594 24.5929 148.555 24.6369 148.524 24.6894C148.493 24.7419 148.471 24.8017 148.46 24.865C148.447 24.9272 148.444 24.992 148.451 25.0556C148.458 25.1193 148.476 25.1805 148.502 25.2359C148.529 25.2912 148.564 25.3396 148.605 25.3782C148.647 25.4169 148.694 25.445 148.745 25.4611C149.514 25.7056 150.283 25.996 151.051 26.2864L151.163 26.3017ZM146.501 24.7733C146.593 24.7748 146.682 24.7355 146.753 24.6626C146.823 24.5896 146.87 24.4879 146.885 24.3759C146.896 24.3126 146.897 24.2474 146.887 24.1839C146.877 24.1203 146.857 24.0598 146.828 24.0058C146.8 23.9518 146.762 23.9054 146.719 23.8692C146.675 23.833 146.627 23.8078 146.575 23.7951C145.782 23.5811 144.976 23.3977 144.182 23.2449C144.079 23.2227 143.972 23.2521 143.886 23.3266C143.8 23.4011 143.742 23.5147 143.723 23.6423C143.713 23.7068 143.713 23.7734 143.725 23.8378C143.736 23.9021 143.758 23.9629 143.79 24.0161C143.821 24.0693 143.861 24.1138 143.907 24.1468C143.954 24.1798 144.005 24.2006 144.058 24.2078C144.839 24.3759 145.633 24.5593 146.414 24.758L146.501 24.7733ZM129.675 23.9327C130.456 23.7951 131.262 23.6881 132.056 23.6117C132.162 23.6 132.261 23.5375 132.33 23.4376C132.4 23.3376 132.435 23.2081 132.428 23.0768C132.423 23.0124 132.408 22.9499 132.384 22.8927C132.359 22.8355 132.326 22.7849 132.286 22.7437C132.245 22.7025 132.199 22.6715 132.149 22.6526C132.099 22.6337 132.046 22.6272 131.994 22.6336C131.188 22.6336 130.37 22.8169 129.514 22.9545C129.462 22.9619 129.412 22.9823 129.367 23.0143C129.322 23.0463 129.282 23.0894 129.251 23.1409C129.219 23.1924 129.197 23.2512 129.185 23.3137C129.172 23.3763 129.171 23.4413 129.179 23.5047C129.184 23.5789 129.202 23.6509 129.232 23.7151C129.263 23.7793 129.305 23.8342 129.355 23.8755C129.405 23.9167 129.462 23.9433 129.522 23.9533C129.582 23.9632 129.643 23.9561 129.7 23.9327H129.675ZM141.727 23.8104C141.826 23.8109 141.922 23.7657 141.995 23.6837C142.069 23.6017 142.115 23.4888 142.124 23.3671C142.134 23.2397 142.104 23.1123 142.039 23.0122C141.974 22.9122 141.88 22.8476 141.777 22.8323C140.971 22.71 140.152 22.6182 139.297 22.5571C139.245 22.553 139.192 22.5616 139.143 22.5824C139.094 22.6032 139.048 22.6359 139.009 22.6785C138.97 22.7211 138.938 22.7728 138.915 22.8306C138.892 22.8885 138.879 22.9514 138.875 23.0156C138.87 23.0803 138.876 23.1456 138.892 23.2075C138.908 23.2693 138.935 23.3264 138.97 23.3751C139.005 23.4239 139.047 23.4632 139.095 23.4908C139.143 23.5183 139.195 23.5335 139.247 23.5353C140.041 23.6117 140.847 23.6881 141.628 23.8104H141.727ZM134.486 23.4436C135.292 23.4436 136.086 23.4436 136.892 23.4436C136.943 23.4456 136.994 23.4349 137.042 23.412C137.09 23.3891 137.134 23.3545 137.171 23.3103C137.208 23.2661 137.238 23.2132 137.258 23.1547C137.278 23.0962 137.288 23.0333 137.288 22.9698C137.29 22.9056 137.281 22.8415 137.263 22.7814C137.244 22.7213 137.217 22.6663 137.181 22.6194C137.145 22.5726 137.102 22.5348 137.055 22.5084C137.007 22.482 136.956 22.4674 136.904 22.4654C136.086 22.4654 135.28 22.4654 134.424 22.4654C134.371 22.4673 134.319 22.4824 134.27 22.5098C134.222 22.5372 134.178 22.5763 134.143 22.6248C134.107 22.6733 134.079 22.7301 134.061 22.792C134.044 22.8539 134.036 22.9196 134.04 22.9851C134.042 23.0552 134.057 23.1238 134.083 23.1863C134.109 23.2488 134.146 23.3036 134.19 23.3471C134.235 23.3906 134.287 23.4218 134.342 23.4384C134.397 23.4551 134.455 23.4568 134.511 23.4436H134.486ZM123.761 21.7471C123.851 21.7484 123.939 21.7106 124.009 21.6401C124.082 21.5486 124.124 21.425 124.124 21.2962C124.124 21.1675 124.082 21.0439 124.009 20.9523C123.513 20.1576 122.992 19.4239 122.471 18.6139C122.397 18.5234 122.297 18.4726 122.192 18.4726C122.088 18.4726 121.988 18.5234 121.914 18.6139C121.839 18.708 121.798 18.8342 121.798 18.9654C121.798 19.0967 121.839 19.2228 121.914 19.3169C122.422 20.0506 122.943 20.8453 123.426 21.5942C123.465 21.6659 123.519 21.7235 123.583 21.7611C123.646 21.7986 123.716 21.8149 123.786 21.8082L123.761 21.7471ZM120.612 17.1619C120.662 17.1622 120.712 17.1502 120.759 17.1266C120.806 17.103 120.849 17.0683 120.884 17.0244C120.922 16.9801 120.952 16.9268 120.973 16.8676C120.994 16.8085 121.004 16.7448 121.004 16.6805C121.004 16.6161 120.994 16.5525 120.973 16.4933C120.952 16.4342 120.922 16.3809 120.884 16.3366C120.326 15.603 119.744 14.8999 119.149 14.2274C119.113 14.1807 119.069 14.1435 119.021 14.1181C118.973 14.0927 118.922 14.0795 118.87 14.0795C118.817 14.0795 118.766 14.0927 118.718 14.1181C118.67 14.1435 118.626 14.1807 118.591 14.2274C118.552 14.273 118.522 14.3276 118.501 14.388C118.48 14.4484 118.47 14.5133 118.47 14.5789C118.47 14.6445 118.48 14.7094 118.501 14.7698C118.522 14.8302 118.552 14.8849 118.591 14.9305C119.173 15.5877 119.744 16.2907 120.302 16.9938C120.334 17.067 120.383 17.1274 120.442 17.1679C120.501 17.2085 120.569 17.2276 120.636 17.2231L120.612 17.1619ZM117.078 13.1117C117.195 13.108 117.306 13.0476 117.388 12.9436C117.462 12.8495 117.504 12.7233 117.504 12.592C117.504 12.4608 117.462 12.3346 117.388 12.2405C116.756 11.5986 116.148 10.9873 115.454 10.4065C115.411 10.3687 115.362 10.3419 115.311 10.3275C115.259 10.3132 115.206 10.3117 115.154 10.3231C115.102 10.3345 115.052 10.3586 115.008 10.3939C114.964 10.4292 114.925 10.475 114.896 10.5287C114.864 10.5807 114.842 10.6399 114.829 10.7028C114.817 10.7657 114.814 10.831 114.822 10.895C114.831 10.9589 114.849 11.0203 114.876 11.0755C114.904 11.1307 114.94 11.1786 114.982 11.2165C115.627 11.7871 116.26 12.3831 116.879 13.0047C116.936 13.0912 117.015 13.1507 117.103 13.1728L117.078 13.1117ZM113.147 9.65752C113.214 9.65724 113.28 9.63609 113.339 9.596C113.397 9.55592 113.447 9.49821 113.482 9.42828C113.538 9.31636 113.557 9.18177 113.534 9.05327C113.511 8.92476 113.448 8.81255 113.358 8.74053C112.664 8.22088 111.945 7.71651 111.226 7.21214C111.13 7.15278 111.019 7.14192 110.917 7.18192C110.815 7.22192 110.73 7.30956 110.68 7.42609C110.632 7.54164 110.624 7.67573 110.657 7.79895C110.689 7.92218 110.76 8.02444 110.854 8.08329C111.56 8.5418 112.255 9.03089 112.937 9.61167C112.968 9.64802 113.005 9.67623 113.046 9.6946C113.086 9.71298 113.129 9.72117 113.172 9.71867L113.147 9.65752ZM108.857 6.90645C108.936 6.90873 109.013 6.88238 109.079 6.8307C109.145 6.77902 109.197 6.70432 109.229 6.61605C109.25 6.55685 109.26 6.49329 109.261 6.42897C109.261 6.36464 109.252 6.30081 109.232 6.24118C109.212 6.18155 109.183 6.12726 109.147 6.08143C109.11 6.03561 109.067 5.99918 109.019 5.97415C108.275 5.57677 107.506 5.20996 106.737 4.87371C106.687 4.8521 106.635 4.84286 106.582 4.84657C106.53 4.85027 106.478 4.86681 106.431 4.89526C106.384 4.92371 106.341 4.96347 106.307 5.01224C106.272 5.06102 106.245 5.11784 106.229 5.17936C106.211 5.24055 106.204 5.30544 106.207 5.37023C106.21 5.43501 106.223 5.49838 106.246 5.5567C106.269 5.61502 106.302 5.66712 106.341 5.70992C106.381 5.75272 106.427 5.78538 106.477 5.80601C107.221 6.12697 107.977 6.4938 108.696 6.8759C108.751 6.92557 108.815 6.95714 108.882 6.9676L108.857 6.90645ZM77.9838 5.68376H78.0706L80.4264 5.07237C80.4789 5.0614 80.5291 5.03752 80.574 5.00212C80.6189 4.96672 80.6575 4.92055 80.6876 4.86634C80.7177 4.81214 80.7386 4.75102 80.7491 4.68663C80.7596 4.62225 80.7595 4.55594 80.7488 4.49162C80.725 4.36559 80.6628 4.25564 80.5751 4.18452C80.4874 4.1134 80.3809 4.08655 80.2776 4.10952C79.4841 4.29293 78.6906 4.50689 77.897 4.72087C77.7948 4.75018 77.7056 4.82681 77.6479 4.93491C77.5902 5.04301 77.5684 5.17432 77.5871 5.30166C77.602 5.42585 77.653 5.53912 77.7305 5.6206C77.808 5.70208 77.9067 5.74622 78.0086 5.74486L77.9838 5.68376ZM104.295 4.95011C104.385 4.95363 104.473 4.91921 104.545 4.85254C104.617 4.78587 104.669 4.69093 104.691 4.58332C104.704 4.5211 104.707 4.45628 104.7 4.39264C104.693 4.329 104.675 4.26777 104.649 4.21241C104.622 4.15706 104.587 4.10865 104.546 4.07002C104.504 4.03138 104.457 4.00325 104.406 3.98722C103.625 3.7274 102.831 3.48287 102.025 3.28418C101.92 3.26168 101.812 3.2906 101.724 3.36483C101.636 3.43905 101.575 3.55272 101.554 3.68158C101.536 3.80892 101.557 3.94018 101.615 4.04828C101.673 4.15638 101.762 4.23301 101.864 4.26232C102.658 4.44573 103.439 4.67499 104.195 4.93482L104.295 4.95011ZM82.7202 4.52217H82.7946C83.6212 4.34895 84.4148 4.19613 85.1752 4.06367C85.2796 4.04115 85.3727 3.9696 85.4351 3.86413C85.4976 3.75867 85.5244 3.62747 85.51 3.49813C85.504 3.4342 85.4875 3.37246 85.4615 3.31664C85.4355 3.26083 85.4005 3.21211 85.3588 3.1735C85.317 3.13488 85.2693 3.10719 85.2185 3.09206C85.1678 3.07692 85.1151 3.07468 85.0636 3.08548C84.2577 3.22304 83.4641 3.37586 82.6582 3.54398C82.5547 3.56636 82.4626 3.63851 82.4021 3.74454C82.3417 3.85057 82.3178 3.98185 82.3358 4.10952C82.3357 4.1744 82.3465 4.23857 82.3673 4.29814C82.3882 4.35772 82.4187 4.41138 82.4571 4.4558C82.4954 4.50022 82.5408 4.53448 82.5903 4.5564C82.6399 4.57833 82.6925 4.5875 82.745 4.58332L82.7202 4.52217ZM99.5705 3.77327C99.6669 3.77104 99.7597 3.72685 99.8323 3.64855C99.9049 3.57025 99.9527 3.46287 99.9673 3.34533C99.9742 3.28102 99.9707 3.21564 99.9569 3.15302C99.9432 3.09041 99.9194 3.03179 99.8871 2.98058C99.8548 2.92938 99.8145 2.88659 99.7687 2.85474C99.7228 2.82289 99.6723 2.80263 99.6201 2.79509C98.8265 2.65753 98.0082 2.55056 97.1403 2.47414C97.0888 2.46785 97.0368 2.47442 96.9875 2.49349C96.9381 2.51257 96.8923 2.54376 96.853 2.58515C96.8136 2.62653 96.7814 2.67727 96.7583 2.73436C96.7352 2.79144 96.7218 2.85372 96.7187 2.91738C96.7136 2.98166 96.7188 3.04653 96.7342 3.10829C96.7495 3.17005 96.7746 3.22745 96.808 3.27718C96.8415 3.32692 96.8826 3.36803 96.929 3.39808C96.9753 3.42813 97.0261 3.44653 97.0783 3.45228C97.8842 3.5287 98.6901 3.63572 99.4589 3.77327H99.5705ZM87.5063 3.69683C88.2998 3.58984 89.1057 3.51345 89.8993 3.43703C89.9514 3.43314 90.0024 3.41658 90.0493 3.38833C90.0963 3.36009 90.1382 3.32071 90.1728 3.27243C90.2073 3.22415 90.2338 3.16791 90.2507 3.10698C90.2676 3.04606 90.2746 2.98164 90.2712 2.91738C90.2681 2.85172 90.2544 2.78746 90.2307 2.72853C90.207 2.66959 90.1739 2.61718 90.1333 2.57437C90.0928 2.53157 90.0457 2.49926 89.9949 2.47941C89.944 2.45956 89.8903 2.45256 89.8372 2.45884C89.0313 2.45884 88.2253 2.6117 87.3574 2.71868C87.3052 2.72443 87.2545 2.74283 87.2081 2.77288C87.1617 2.80294 87.1207 2.84405 87.0872 2.89378C87.0538 2.94352 87.0287 3.00091 87.0134 3.06267C86.998 3.12443 86.9928 3.1893 86.9979 3.25358C86.9916 3.336 87.0024 3.41907 87.0292 3.49496C87.056 3.57084 87.0981 3.6371 87.1513 3.6875C87.2046 3.7379 87.2674 3.77079 87.3338 3.78312C87.4002 3.79544 87.4681 3.7868 87.531 3.75798L87.5063 3.69683ZM94.7473 3.29948C94.8516 3.29972 94.9521 3.25075 95.0282 3.16268C95.1042 3.0746 95.1501 2.95403 95.1564 2.82564C95.1581 2.76013 95.1491 2.69491 95.1299 2.63379C95.1107 2.57268 95.0817 2.51694 95.0447 2.46989C95.0077 2.42285 94.9634 2.38544 94.9144 2.35991C94.8655 2.33438 94.8128 2.32126 94.7597 2.32129C93.9537 2.32129 93.1354 2.32129 92.2799 2.32129C92.2267 2.32126 92.1741 2.33438 92.1251 2.35991C92.0761 2.38544 92.0318 2.42285 91.9948 2.46989C91.9578 2.51694 91.9288 2.57268 91.9097 2.63379C91.8905 2.69491 91.8814 2.76013 91.8831 2.82564C91.8863 2.95268 91.9295 3.07321 92.0036 3.16165C92.0776 3.25009 92.1768 3.29954 92.2799 3.29948H94.6977H94.7473Z" fill="#999999"/>
<path d="M32.7993 116.357L29.3028 118.221L15.3291 106.208L11.6094 108.745C8.62123 110.946 5.71986 111.099 4.33118 110.121L4.04595 110.289C1.88852 111.451 0.611423 110.411 0.177456 109.158C-0.256508 107.905 -0.00849533 106.101 2.14894 104.909L2.43409 104.756C2.69447 103.228 3.82283 100.66 8.22449 99.1471L12.2789 97.5422L14.7587 76.7715L18.2553 74.8916L20.9706 94.134L30.9642 89.9156L32.477 84.9789L35.2543 83.7104L35.4527 88.2955L36.4446 88.1885L37.3498 90.741L36.6058 91.6427L39.2344 95.0052L36.581 96.6405L32.6382 94.6231L23.3017 100.737L32.7993 116.357ZM32.5389 93.5073L36.5067 95.5401L37.7466 94.7453L35.3411 91.6886L36.2462 90.5576L35.8246 89.3501L34.5847 89.4877L34.3988 85.2082L33.0473 85.8196L31.5346 90.7715L20.2267 95.5248L17.5361 76.4047L15.4406 77.5204L13.0229 98.3676L8.44766 100.171C4.1824 101.623 3.33922 103.977 3.21523 105.245V105.566L2.96724 105.673C2.80971 105.729 2.65625 105.8 2.50848 105.887C1.18179 106.59 0.586643 107.706 0.971012 108.776C1.35538 109.846 2.40928 110.09 3.73597 109.372C3.88526 109.298 4.0303 109.211 4.16998 109.112L4.40557 108.944L4.62874 109.143C5.53387 109.968 8.17487 110.121 11.225 107.889L15.3911 105.016L29.402 117.075L31.4974 115.959L21.9998 100.461L32.5389 93.5073Z" fill="#999999"/>
</svg>
