<svg width="38" height="38" viewBox="0 0 38 38" fill="none" xmlns="http://www.w3.org/2000/svg">
<g id="Group">
<path id="Vector" d="M29.1054 0.575195H9.43013C4.63616 0.575195 0.749878 4.46148 0.749878 9.25545V28.9307C0.749878 33.7247 4.63616 37.6109 9.43013 37.6109H29.1054C33.8993 37.6109 37.7856 33.7247 37.7856 28.9307V9.25545C37.7856 4.46148 33.8993 0.575195 29.1054 0.575195Z" fill="#F4F7FA"/>
<g id="Clip path group">
<mask id="mask0_1_48915" style="mask-type:luminance" maskUnits="userSpaceOnUse" x="6" y="6" width="27" height="27">
<g id="skillIconsMysqlLight0">
<path id="Vector_2" d="M6.24792 6.07617H32.2887V32.1169H6.24792V6.07617Z" fill="white"/>
</g>
</mask>
<g mask="url(#mask0_1_48915)">
<g id="Group_2">
<path id="Vector_3" fill-rule="evenodd" clip-rule="evenodd" d="M30.2338 26.3583C28.8175 26.3189 27.7187 26.464 26.7979 26.8515C26.5327 26.958 26.1072 26.958 26.0722 27.2917C26.214 27.4318 26.2311 27.6609 26.3554 27.8551C26.5676 28.2073 26.94 28.6819 27.2762 28.9281L28.4095 29.7379C29.1002 30.16 29.8794 30.4066 30.5523 30.8291C30.942 31.0756 31.3315 31.3924 31.7212 31.6567C31.9197 31.7975 32.0399 32.0268 32.288 32.1143V32.0611C32.1642 31.9032 32.1285 31.6745 32.005 31.4977L31.4731 30.9876C30.9599 30.3013 30.3219 29.7024 29.6313 29.21C29.0645 28.8228 27.8252 28.2949 27.5949 27.644L27.56 27.6045C27.9491 27.5651 28.4095 27.4281 28.7818 27.3225C29.3843 27.1647 29.9329 27.1994 30.5523 27.0411L31.4029 26.7946V26.6368C31.0841 26.3201 30.8539 25.8975 30.5177 25.5986C29.6146 24.8242 28.6222 24.0671 27.5949 23.4336C27.046 23.0818 26.3374 22.8525 25.7531 22.5539C25.54 22.4481 25.1863 22.3953 25.0624 22.2194C24.7429 21.8328 24.5662 21.3219 24.336 20.864L22.884 17.8016C22.5653 17.1151 22.37 16.4287 21.9809 15.7951C20.1565 12.8029 18.1726 10.9903 15.1264 9.21233C14.4715 8.8427 13.6923 8.6837 12.8638 8.49042L11.5357 8.41954C11.2519 8.29642 10.9687 7.9618 10.7208 7.80324C9.71126 7.16958 7.10776 5.79694 6.36329 7.60605C5.88515 8.74996 7.07203 9.87623 7.47494 10.4574C7.77658 10.8622 8.1656 11.3196 8.3787 11.7773C8.49776 12.0764 8.53755 12.3935 8.66182 12.7103C8.9448 13.4846 9.2107 14.3474 9.58265 15.0693C9.78114 15.439 9.98961 15.8267 10.2376 16.1609C10.3794 16.3581 10.6275 16.4425 10.6803 16.7592C10.4322 17.1115 10.4151 17.639 10.2733 18.0796C9.63546 20.0686 9.88357 22.5326 10.7866 23.997C11.0704 24.4368 11.7393 25.4052 12.6468 25.0353C13.4438 24.7184 13.266 23.7153 13.4961 22.8351C13.5497 22.6242 13.5141 22.4833 13.62 22.3421V22.3816L14.3464 23.8423C14.8954 24.7047 15.8521 25.6025 16.6487 26.2013C17.0734 26.5182 17.4101 27.0641 17.9412 27.2574V27.2042H17.9063C17.7998 27.0463 17.6402 26.9753 17.4986 26.8522C17.1799 26.5355 16.8257 26.1481 16.5776 25.7962C15.8342 24.8107 15.1792 23.7192 14.5945 22.5929C14.3108 22.0474 14.0627 21.4489 13.8332 20.9033C13.726 20.692 13.726 20.3747 13.5494 20.2698C13.2833 20.6564 12.8945 20.9917 12.6987 21.4667C12.3621 22.2233 12.3272 23.1563 12.2034 24.1244C12.1319 24.1421 12.1636 24.1244 12.1319 24.1638C11.5658 24.0234 11.3705 23.4419 11.1583 22.9496C10.627 21.6999 10.5381 19.6934 10.9985 18.2501C11.1224 17.8804 11.6543 16.7187 11.442 16.3667C11.3349 16.0323 10.9815 15.839 10.7862 15.5747C10.556 15.2402 10.3088 14.818 10.1492 14.4484C9.72443 13.4622 9.51205 12.3714 9.05113 11.3857C8.83803 10.928 8.46651 10.4526 8.16516 10.0306C7.82852 9.5552 7.45743 9.22058 7.19153 8.65766C7.10299 8.46048 6.97915 8.14727 7.12079 7.93576C7.1558 7.79499 7.22712 7.73857 7.36817 7.70703C7.5982 7.5097 8.25414 7.75984 8.48431 7.86472C9.13923 8.12904 9.68826 8.37527 10.2373 8.74447C10.4854 8.92039 10.7513 9.25501 11.07 9.3434H11.4424C12.0092 9.46637 12.6463 9.38276 13.177 9.54059C14.1159 9.84035 14.9657 10.2799 15.7278 10.7555C18.0476 12.2164 19.9609 14.2933 21.2533 16.7754C21.4656 17.1802 21.5542 17.5499 21.7495 17.9723C22.1219 18.8351 22.5823 19.7149 22.9534 20.5602C23.3258 21.3874 23.6798 22.2329 24.211 22.9192C24.477 23.2888 25.5391 23.4821 26.0171 23.6758C26.3716 23.8336 26.9202 23.9757 27.2397 24.169C27.8414 24.5386 28.4437 24.9611 29.0101 25.3659C29.293 25.5765 30.1792 26.0167 30.2318 26.3678L30.2338 26.3583ZM12.1727 11.0633C11.9281 11.0611 11.6842 11.0907 11.4472 11.1512V11.1907H11.482C11.6238 11.4724 11.8719 11.6661 12.0489 11.9126L12.4565 12.7575L12.4915 12.7181C12.7395 12.5422 12.8638 12.2605 12.8638 11.8385C12.7575 11.7154 12.7399 11.5919 12.6514 11.4688C12.5451 11.2928 12.3149 11.2045 12.1727 11.0641V11.0633Z" fill="#00678C"/>
</g>
</g>
</g>
</g>
</svg>
