<svg width="24" height="24" viewBox="0 0 24 24" fill="none" xmlns="http://www.w3.org/2000/svg">
<path d="M12.0399 21.9941C17.4345 21.9941 21.8077 17.6209 21.8077 12.2263C21.8077 6.83169 17.4345 2.4585 12.0399 2.4585C6.64529 2.4585 2.27209 6.83169 2.27209 12.2263C2.27209 17.6209 6.64529 21.9941 12.0399 21.9941Z" fill="#00AC4F"/>
<path d="M11.3016 15.4959C11.0203 15.4959 10.7389 15.3885 10.5245 15.1741L7.55366 12.2027C7.12437 11.7739 7.12437 11.0779 7.55366 10.6486C7.98247 10.2193 8.67891 10.2193 9.10772 10.6486L12.0786 13.62C12.5079 14.0488 12.5079 14.7448 12.0786 15.1741C11.8642 15.3885 11.5829 15.4959 11.3016 15.4959Z" fill="#C2FFFF"/>
<path d="M11.3032 15.4946C11.0219 15.4946 10.7406 15.3871 10.5262 15.1727C10.0969 14.7439 10.0969 14.048 10.5262 13.6187L15.185 8.95991C15.6138 8.53062 16.3102 8.53062 16.739 8.95991C17.1683 9.38872 17.1683 10.0847 16.739 10.514L12.0803 15.1727C11.8659 15.3871 11.5845 15.4946 11.3032 15.4946Z" fill="#C2FFFF"/>
<path d="M12.0803 13.62L11.3032 12.843L10.5262 13.62C10.0969 14.0493 10.0969 14.7453 10.5262 15.1741C10.7406 15.3885 11.0219 15.496 11.3032 15.496C11.5845 15.496 11.8659 15.3885 12.0803 15.1741C12.5095 14.7448 12.5095 14.0489 12.0803 13.62Z" fill="#7DEBF5"/>
</svg>
