<svg width="22" height="22" viewBox="0 0 22 22" fill="none" xmlns="http://www.w3.org/2000/svg">
<path fill-rule="evenodd" clip-rule="evenodd" d="M18.6719 0.63685C20.2857 0.425776 21.6157 1.75576 21.4046 3.36964C21.0961 5.72864 20.249 9.73612 17.8535 12.319C17.0913 13.1408 16.1707 13.9001 15.2239 14.5747L15.5005 16.5112C15.5784 17.0565 15.395 17.6066 15.0055 17.9961L11.8236 21.1781C10.8039 22.1978 9.05765 21.6157 8.85371 20.1881L8.42945 17.2183L8.43072 17.2181C8.15977 17.087 7.90853 16.9096 7.68965 16.6907L5.3508 14.3518C5.1319 14.1329 4.95452 13.8817 4.82337 13.6107L4.82318 13.6121L1.85333 13.1878C0.425748 12.9839 -0.156321 11.2376 0.863384 10.2179L4.04536 7.03596C4.43486 6.64647 4.985 6.46309 5.53029 6.54099L7.46675 6.81763C8.1414 5.87085 8.90071 4.95019 9.72252 4.18799C12.3054 1.79248 16.3128 0.945378 18.6719 0.63685ZM3.33828 14.4606C3.63117 14.7535 3.63117 15.2283 3.33828 15.5212L1.92407 16.9354C1.63117 17.2283 1.1563 17.2283 0.863405 16.9354C0.570512 16.6425 0.570512 16.1677 0.863405 15.8748L2.27762 14.4606C2.57051 14.1677 3.04539 14.1677 3.33828 14.4606ZM5.4596 16.5819C5.75249 16.8748 5.75249 17.3497 5.4596 17.6425L2.63117 20.471C2.33828 20.7639 1.86341 20.7639 1.57051 20.471C1.27762 20.1781 1.27762 19.7032 1.57051 19.4103L4.39894 16.5819C4.69183 16.289 5.16671 16.289 5.4596 16.5819ZM7.58092 18.7032C7.87381 18.9961 7.87381 19.471 7.58092 19.7639L6.16671 21.1781C5.87381 21.471 5.39894 21.471 5.10605 21.1781C4.81315 20.8852 4.81315 20.4103 5.10605 20.1174L6.52026 18.7032C6.81315 18.4103 7.28802 18.4103 7.58092 18.7032ZM12.7071 9.33395C11.9261 8.5529 11.9261 7.28657 12.7071 6.50552C13.4882 5.72447 14.7545 5.72447 15.5356 6.50552C16.3166 7.28657 16.3166 8.5529 15.5356 9.33395C14.7545 10.115 13.4882 10.115 12.7071 9.33395Z" fill="#1C63ED"/>
</svg>
