<svg width="25" height="24" viewBox="0 0 25 24" fill="none" xmlns="http://www.w3.org/2000/svg">
<path d="M12.1893 8.00025C13.2502 8.00025 14.2676 8.42167 15.0178 9.17182C15.7679 9.92196 16.1893 10.9394 16.1893 12.0002C16.1893 13.0611 15.7679 14.0785 15.0178 14.8287C14.2676 15.5788 13.2502 16.0002 12.1893 16.0002C11.1285 16.0002 10.1111 15.5788 9.36092 14.8287C8.61077 14.0785 8.18935 13.0611 8.18935 12.0002C8.18935 10.9394 8.61077 9.92196 9.36092 9.17182C10.1111 8.42167 11.1285 8.00025 12.1893 8.00025ZM12.1893 10.0002C11.6589 10.0002 11.1502 10.211 10.7751 10.586C10.4001 10.9611 10.1893 11.4698 10.1893 12.0002C10.1893 12.5307 10.4001 13.0394 10.7751 13.4145C11.1502 13.7895 11.6589 14.0002 12.1893 14.0002C12.7198 14.0002 13.2285 13.7895 13.6036 13.4145C13.9786 13.0394 14.1893 12.5307 14.1893 12.0002C14.1893 11.4698 13.9786 10.9611 13.6036 10.586C13.2285 10.211 12.7198 10.0002 12.1893 10.0002ZM10.1893 22.0002C9.93934 22.0002 9.72934 21.8202 9.68934 21.5802L9.31934 18.9302C8.68935 18.6802 8.14935 18.3402 7.62935 17.9402L5.13935 18.9502C4.91935 19.0302 4.64935 18.9502 4.52935 18.7302L2.52935 15.2702C2.46814 15.1672 2.44656 15.0454 2.46865 14.9276C2.49074 14.8098 2.55497 14.7041 2.64935 14.6302L4.75935 12.9702L4.68935 12.0002L4.75935 11.0002L2.64935 9.37024C2.55497 9.29638 2.49074 9.19067 2.46865 9.07288C2.44656 8.95508 2.46814 8.83328 2.52935 8.73024L4.52935 5.27024C4.64935 5.05024 4.91935 4.96024 5.13935 5.05024L7.62935 6.05024C8.14935 5.66024 8.68935 5.32024 9.31934 5.07024L9.68934 2.42024C9.72934 2.18024 9.93934 2.00024 10.1893 2.00024H14.1893C14.4393 2.00024 14.6493 2.18024 14.6893 2.42024L15.0593 5.07024C15.6893 5.32024 16.2293 5.66024 16.7493 6.05024L19.2393 5.05024C19.4593 4.96024 19.7293 5.05024 19.8493 5.27024L21.8493 8.73024C21.9793 8.95024 21.9193 9.22024 21.7293 9.37024L19.6193 11.0002L19.6893 12.0002L19.6193 13.0002L21.7293 14.6302C21.9193 14.7802 21.9793 15.0502 21.8493 15.2702L19.8493 18.7302C19.7293 18.9502 19.4593 19.0402 19.2393 18.9502L16.7493 17.9502C16.2293 18.3402 15.6893 18.6802 15.0593 18.9302L14.6893 21.5802C14.6493 21.8202 14.4393 22.0002 14.1893 22.0002H10.1893ZM11.4393 4.00024L11.0693 6.61024C9.86934 6.86024 8.80934 7.50025 8.03935 8.39025L5.62935 7.35024L4.87935 8.65024L6.98935 10.2002C6.58935 11.3669 6.58935 12.6336 6.98935 13.8002L4.86935 15.3602L5.61935 16.6602L8.04935 15.6202C8.81934 16.5002 9.86934 17.1402 11.0593 17.3802L11.4293 20.0002H12.9493L13.3193 17.3902C14.5093 17.1402 15.5593 16.5002 16.3293 15.6202L18.7593 16.6602L19.5093 15.3602L17.3893 13.8102C17.7893 12.6402 17.7893 11.3702 17.3893 10.2002L19.4993 8.65024L18.7493 7.35024L16.3393 8.39025C15.5536 7.48057 14.4877 6.85792 13.3093 6.62024L12.9393 4.00024H11.4393Z" fill="#0090E2"/>
</svg>
