<svg width="25" height="25" viewBox="0 0 25 25" fill="none" xmlns="http://www.w3.org/2000/svg">
<path fill-rule="evenodd" clip-rule="evenodd" d="M19.1846 20.8136L23.6756 15.823C23.8901 15.59 23.9998 15.2958 24 15.0001C24.0001 14.7978 23.9489 14.5947 23.8449 14.41C23.7987 14.3277 23.7422 14.2495 23.6756 14.1772L19.1846 9.18659C18.7128 8.6624 17.8843 8.60166 17.3339 9.05091C16.7835 9.50016 16.7197 10.2893 17.1914 10.8135L19.834 13.75L9.66918 13.75C8.9443 13.75 8.35668 14.3097 8.35668 15C8.35668 15.6904 8.9443 16.25 9.66918 16.25L19.8342 16.25L17.1914 19.1867C16.7197 19.7109 16.7835 20.5 17.3339 20.9493C17.8843 21.3985 18.7128 21.3378 19.1846 20.8136ZM10.875 7.5C11.5999 7.5 12.1875 8.05964 12.1875 8.75L12.1875 10.625C12.1875 11.3154 12.7751 11.875 13.5 11.875C14.2249 11.875 14.8125 11.3154 14.8125 10.625L14.8125 8.75C14.8125 6.67893 13.0496 5 10.875 5L6.9375 5C4.76288 5 3 6.67893 3 8.75L3 21.25C3 23.3211 4.76288 25 6.9375 25L10.875 25C13.0496 25 14.8125 23.3211 14.8125 21.25L14.8125 19.375C14.8125 18.6846 14.2249 18.125 13.5 18.125C12.7751 18.125 12.1875 18.6846 12.1875 19.375L12.1875 21.25C12.1875 21.9404 11.5999 22.5 10.875 22.5L6.9375 22.5C6.21263 22.5 5.625 21.9404 5.625 21.25L5.625 8.75C5.625 8.05964 6.21263 7.5 6.9375 7.5L10.875 7.5Z" fill="#FF1212"/>
</svg>
