<svg width="26" height="26" viewBox="0 0 26 26" fill="none" xmlns="http://www.w3.org/2000/svg">
<path fill-rule="evenodd" clip-rule="evenodd" d="M18.0503 20.7194C18.087 20.65 18.1222 20.5887 18.1521 20.5253C18.171 20.4847 18.2001 20.4766 18.2411 20.4776C18.4871 20.4845 18.7331 20.4919 18.9794 20.4943C19.1885 20.4964 19.398 20.4926 19.6073 20.4902C19.8431 20.4875 20.0789 20.4753 20.3145 20.4819C20.6282 20.4909 20.9339 20.5513 21.2177 20.6887C21.5566 20.8529 21.813 21.1031 21.9878 21.4327C22.0977 21.6417 22.1663 21.8693 22.19 22.1034C22.2273 22.4469 22.2028 22.7825 22.092 23.111C21.9548 23.5182 21.6943 23.8298 21.3323 24.0633C21.0538 24.2429 20.7483 24.3491 20.4208 24.4098C20.0743 24.4741 19.7267 24.4533 19.3791 24.4544C18.9978 24.4559 18.6168 24.4478 18.2355 24.4435C18.1688 24.4429 18.1593 24.4305 18.1769 24.3679L18.1932 24.3102C18.2303 24.1953 18.2503 24.1902 18.3688 24.1709C18.4528 24.1579 18.5332 24.1279 18.6048 24.0827C18.6448 24.0567 18.6613 23.9887 18.6769 23.9364C18.6904 23.8907 18.691 23.8405 18.6915 23.7922C18.6969 23.0606 18.7025 22.3292 18.7056 21.598C18.7064 21.4131 18.7017 21.2281 18.6915 21.0435C18.6841 20.9142 18.6139 20.8258 18.4576 20.7953C18.336 20.7716 18.2136 20.7532 18.0913 20.732L18.0503 20.7194ZM21.5408 22.4909C21.5243 22.3452 21.5162 22.1983 21.4897 22.0547C21.4263 21.7102 21.2731 21.41 21.0038 21.1749C20.5685 20.7948 20.0444 20.7363 19.495 20.7816C19.37 20.7918 19.343 20.8339 19.3411 20.9604C19.3381 21.1398 19.335 21.3193 19.3348 21.4987C19.3339 22.0677 19.3339 22.6368 19.3348 23.2059C19.335 23.3678 19.3367 23.5297 19.3415 23.6912C19.3467 23.8565 19.4077 23.9964 19.5723 24.0605C19.8318 24.1615 20.1047 24.1735 20.377 24.1323C20.8119 24.0667 21.1161 23.8174 21.3202 23.4438C21.4817 23.1473 21.5273 22.8237 21.5408 22.4909ZM22.5979 24.4286C22.5927 24.3399 22.6296 24.2666 22.6752 24.1994C22.6876 24.1812 22.7302 24.1821 22.7595 24.1763L23.0083 24.1278C23.0962 24.1094 23.1425 24.0513 23.1549 23.9665C23.1631 23.9106 23.1709 23.8539 23.1716 23.7973C23.1775 23.3494 23.1817 22.9015 23.1844 22.4535C23.1866 22.0049 23.1848 21.5564 23.1848 21.1078L23.1829 21.0221C23.174 20.8779 23.1032 20.8032 22.9577 20.782L22.6422 20.7348C22.6034 20.7297 22.5893 20.7113 22.6034 20.6774C22.6277 20.6195 22.6509 20.5594 22.6852 20.5073C22.698 20.4881 22.7412 20.4806 22.7703 20.4813C22.921 20.4834 23.0717 20.4945 23.2224 20.4943L24.534 20.4866C24.7868 20.4864 25.0308 20.5297 25.2575 20.6487C25.507 20.7795 25.6466 20.9817 25.6865 21.2573C25.7282 21.5467 25.639 21.7907 25.424 21.9844C25.3356 22.0643 25.2212 22.1164 25.1187 22.1814L25.0853 22.2019C25.1804 22.2363 25.2709 22.266 25.3591 22.3014C25.617 22.4055 25.8222 22.568 25.9308 22.8276C26.0165 23.0324 26.0165 23.246 25.9657 23.4583C25.8867 23.7907 25.6641 24.0118 25.3747 24.1791C25.1031 24.3361 24.8091 24.4275 24.496 24.4429C24.2073 24.4572 23.9172 24.4518 23.6278 24.455L23.4601 24.4559C23.1812 24.4496 22.9023 24.4428 22.6233 24.4354L22.5979 24.4286ZM23.8001 23.1279H23.803C23.803 23.2684 23.801 23.409 23.8036 23.5496C23.8054 23.6406 23.8021 23.7341 23.8221 23.8217C23.852 23.9526 23.9128 24.0708 24.0622 24.1084C24.2619 24.16 24.4705 24.169 24.6741 24.1348C24.9296 24.0911 25.1335 23.965 25.2453 23.7256C25.3283 23.5476 25.3406 23.359 25.3122 23.1663C25.2744 22.9126 25.1374 22.7284 24.9096 22.6077C24.7603 22.5285 24.6009 22.48 24.4311 22.4736C24.2409 22.4666 24.0505 22.4661 23.8603 22.4604C23.8069 22.4589 23.7995 22.4856 23.7997 22.5287C23.8008 22.7282 23.8001 22.928 23.8001 23.1279ZM24.2051 22.172C24.3091 22.1669 24.4268 22.1654 24.5438 22.1538C24.7679 22.1318 24.9257 22.021 25.008 21.8101C25.0499 21.7031 25.0482 21.5929 25.0493 21.4816C25.0525 21.1917 24.8806 20.9542 24.6007 20.8559C24.3846 20.7801 24.1619 20.7788 23.9378 20.7848C23.847 20.7871 23.8064 20.8262 23.8051 20.9162L23.7917 22.0887C23.791 22.1352 23.8114 22.1553 23.8575 22.1568L24.2051 22.172Z" fill="#94795D"/>
<path fill-rule="evenodd" clip-rule="evenodd" d="M1.39318 24.2057L1.37733 24.4073C1.22968 24.4073 1.09355 24.4062 0.957409 24.4077C0.700987 24.4103 0.444564 24.4144 0.187925 24.418L0.163173 24.4195C0.126479 24.4152 0.059822 24.4152 0.058085 24.4045C0.0472289 24.3445 0.0507029 24.2815 0.0535255 24.2193C0.0537426 24.2123 0.0787118 24.2033 0.093259 24.1999L0.292795 24.1561C0.417207 24.1243 0.461066 24.0715 0.466928 23.9451C0.473659 23.8026 0.480389 23.6599 0.481041 23.5174C0.482995 23.1667 0.480824 22.8163 0.482344 22.4656C0.482561 22.3836 0.453683 22.3225 0.375953 22.2892C0.283588 22.2488 0.190575 22.2099 0.09695 22.1725C0.0526569 22.155 -0.00488074 22.1454 0.000330214 22.0869C0.00554117 22.0273 0.0613419 22.0117 0.113886 21.9999C0.331443 21.951 0.549218 21.9034 0.766124 21.8513C0.836037 21.8344 0.902911 21.806 0.986503 21.7773C0.990846 21.8218 0.998879 21.8641 0.998011 21.9064L0.985201 22.1074C0.984983 22.13 0.996925 22.1603 1.01408 22.1729C1.0245 22.1809 1.05946 22.1665 1.07683 22.1533C1.26225 22.0144 1.45853 21.8946 1.68238 21.8248C2.02913 21.7165 2.3268 21.8169 2.53524 22.111C2.60863 22.2146 2.60885 22.2146 2.71068 22.1422C2.88546 22.0172 3.06828 21.907 3.27281 21.8344C3.72182 21.6748 4.15324 21.8773 4.30936 22.3223C4.36624 22.4838 4.38795 22.6506 4.38752 22.821L4.3834 23.9527C4.38318 24.0461 4.41466 24.0993 4.50498 24.1283C4.60638 24.161 4.71147 24.1834 4.82567 24.2129L4.79919 24.4075C4.66935 24.4075 4.54993 24.4067 4.43051 24.4077C4.1387 24.4103 3.84688 24.4118 3.55529 24.4184C3.50448 24.4197 3.49124 24.4073 3.48863 24.3605C3.48016 24.2108 3.47886 24.211 3.62216 24.1773L3.67036 24.1651C3.81041 24.1275 3.85709 24.0852 3.85817 23.9455C3.86143 23.5443 3.8699 23.1421 3.84927 22.7418C3.82778 22.3265 3.49276 22.1054 3.0837 22.2118C2.95167 22.2474 2.82733 22.3063 2.71676 22.3857C2.67876 22.4124 2.6716 22.4432 2.67464 22.4899C2.68614 22.6668 2.69331 22.8439 2.69483 23.021C2.69743 23.3309 2.69353 23.6409 2.69483 23.951C2.69526 24.0766 2.7389 24.1247 2.86505 24.1538L3.05243 24.1963L3.08717 24.204C3.08977 24.2629 3.09216 24.3219 3.08934 24.3808C3.0876 24.4178 3.05851 24.421 3.02594 24.4203C2.84377 24.4159 2.66139 24.4099 2.47922 24.4103C2.25754 24.4107 2.03608 24.4169 1.81461 24.4208H1.7625C1.7625 24.3582 1.75946 24.2984 1.76467 24.2388C1.76576 24.2245 1.79138 24.2044 1.80897 24.1999L2.02739 24.1544C2.1201 24.132 2.1644 24.0852 2.16961 23.9925C2.19436 23.5631 2.21216 23.1336 2.17113 22.7044C2.16113 22.6197 2.13722 22.5371 2.10035 22.4598C1.98853 22.2167 1.73688 22.1153 1.44659 22.1883C1.30871 22.2229 1.1843 22.2851 1.06662 22.3635C1.04096 22.379 1.01988 22.4009 1.00548 22.427C0.991083 22.453 0.983866 22.4823 0.984549 22.5119C0.984549 22.9402 0.986069 23.3685 0.987372 23.7966L0.98976 23.9617C0.992366 24.0769 1.04209 24.1375 1.15825 24.1623C1.23294 24.179 1.3085 24.1903 1.39318 24.2057Z" fill="#50382B"/>
<path fill-rule="evenodd" clip-rule="evenodd" d="M14.5203 21.8214C14.554 21.9824 14.5533 22.1273 14.433 22.2371C14.3136 22.3462 14.1625 22.3095 14.0151 22.2851C14.0288 22.3616 14.044 22.4265 14.0513 22.4923C14.105 22.9813 13.8911 23.3442 13.4301 23.5516C13.256 23.6298 13.0712 23.6589 12.8826 23.6738C12.7888 23.6811 12.7067 23.7516 12.6978 23.8274C12.6887 23.9043 12.7377 23.9833 12.8359 24.0064C12.9516 24.0335 13.0723 24.0412 13.1911 24.0547C13.446 24.0833 13.7037 24.0963 13.9556 24.1412C14.3364 24.2087 14.549 24.5357 14.4819 24.9121C14.4222 25.247 14.225 25.4908 13.9502 25.6777C13.487 25.9934 12.979 26.0857 12.4379 25.9246C12.1285 25.8323 11.9103 25.6322 11.8349 25.3083C11.7972 25.1462 11.8373 24.9995 11.9613 24.8895C12.1087 24.7592 12.2692 24.643 12.4236 24.5199L12.4735 24.4706L12.4162 24.4311C12.2588 24.3576 12.1328 24.257 12.084 24.0822C12.0673 24.0231 12.0846 23.9842 12.1357 23.9538C12.2225 23.9024 12.3089 23.85 12.3947 23.7968C12.4351 23.7721 12.475 23.7464 12.5126 23.7178C12.5638 23.6794 12.5593 23.6507 12.498 23.6285C12.3556 23.5768 12.229 23.5018 12.1309 23.3865C11.967 23.194 11.9205 22.9648 11.9339 22.7228C11.955 22.3447 12.1637 22.0957 12.5028 21.9354C12.906 21.7451 13.3105 21.7332 13.7215 21.9066C13.8735 21.9707 14.0337 21.9844 14.1968 21.9733C14.3186 21.9647 14.425 21.9194 14.5203 21.8214ZM13.0345 24.5302C12.7319 24.5276 12.637 24.5643 12.4594 24.7423C12.2605 24.9418 12.2616 25.2184 12.46 25.4188C12.6107 25.5707 12.7988 25.6418 13.0078 25.6632C13.2521 25.6879 13.4927 25.6779 13.7146 25.5576C13.9512 25.4288 14.0689 25.1896 14.0157 24.9486C13.9716 24.7498 13.8227 24.6588 13.6414 24.6064C13.4351 24.547 13.2219 24.5357 13.0345 24.5302ZM12.4401 22.6273C12.4511 22.71 12.4557 22.7937 12.4744 22.8747C12.5228 23.0845 12.6155 23.2688 12.8276 23.3621C13.0767 23.4722 13.3948 23.4249 13.5037 23.081C13.5782 22.8522 13.5695 22.605 13.4792 22.3817C13.4409 22.2796 13.372 22.1914 13.2816 22.1288C13.0654 21.9803 12.6752 21.9607 12.5163 22.2888C12.4646 22.3953 12.4444 22.5088 12.4401 22.6273Z" fill="#4F382B"/>
<path fill-rule="evenodd" clip-rule="evenodd" d="M9.38519 21.7685C9.39323 21.8051 9.40929 21.8465 9.40973 21.8882C9.41038 21.9674 9.40169 22.0467 9.39713 22.1259V22.1947L9.46531 22.1434C9.65204 21.9922 9.85266 21.8634 10.0863 21.794C10.5079 21.669 10.9292 21.8961 11.0666 22.3186C11.1187 22.4792 11.1393 22.6443 11.1413 22.8122C11.1456 23.1852 11.1482 23.5582 11.1521 23.9311C11.1534 24.0651 11.1691 24.089 11.2978 24.1277C11.3711 24.1492 11.4458 24.1655 11.5215 24.1766C11.5629 24.183 11.5807 24.199 11.5786 24.2389L11.579 24.2757C11.5775 24.4301 11.5666 24.4372 11.4144 24.4368C11.0501 24.4361 10.686 24.4382 10.3216 24.4412C10.2131 24.4421 10.2129 24.4453 10.202 24.3398L10.1998 24.2791C10.2066 24.1881 10.2087 24.189 10.2997 24.1757C10.3609 24.1667 10.4217 24.1529 10.4814 24.1375C10.5429 24.1219 10.5724 24.0772 10.5807 24.0174C10.5848 23.9871 10.5902 23.9568 10.59 23.9264C10.5848 23.5189 10.5915 23.1109 10.5689 22.7039C10.5507 22.3748 10.2954 22.1787 9.95948 22.2011C9.79757 22.2121 9.64193 22.2671 9.50982 22.3598C9.42015 22.4216 9.40213 22.5106 9.40256 22.6065C9.4043 22.9876 9.40799 23.3687 9.41211 23.75C9.41298 23.8335 9.41537 23.917 9.42341 23.9999C9.43187 24.0905 9.46422 24.127 9.55455 24.1467C9.64096 24.1655 9.72912 24.1764 9.82139 24.1915L9.82921 24.2616C9.83225 24.425 9.81488 24.4372 9.65356 24.4365C9.27685 24.435 8.90014 24.4374 8.52365 24.4415C8.46437 24.4423 8.43919 24.4239 8.44071 24.3671L8.43984 24.3428C8.43007 24.1956 8.43441 24.19 8.57597 24.1661L8.64285 24.1529C8.79614 24.1189 8.83544 24.0787 8.83761 23.9256C8.84477 23.4405 8.84738 22.9556 8.85237 22.4705C8.85302 22.4008 8.82632 22.3468 8.76031 22.318C8.66768 22.278 8.57453 22.2393 8.48087 22.2017C8.4292 22.1808 8.37014 22.1676 8.36819 22.0973C8.36688 22.0477 8.42073 22.0039 8.49434 21.9892C8.6422 21.9597 8.79136 21.9352 8.93748 21.8991C9.08296 21.8634 9.22582 21.8155 9.38519 21.7685Z" fill="#4F372B"/>
<path fill-rule="evenodd" clip-rule="evenodd" d="M17.5307 23.0343C17.5237 23.4874 17.4041 23.8537 17.0784 24.1286C16.6659 24.4774 16.0223 24.596 15.4962 24.3352C15.2717 24.2239 15.1067 24.0532 14.9992 23.8317C14.8344 23.491 14.7932 23.1328 14.8792 22.7658C14.9643 22.4029 15.1877 22.1399 15.5221 21.9697C15.866 21.7947 16.2282 21.7264 16.6101 21.8182C17.0932 21.9342 17.4404 22.3217 17.5094 22.8151C17.5218 22.9016 17.5266 22.9892 17.5307 23.0343ZM16.9712 23.2797L16.9525 23.2776C16.9525 23.2349 16.9549 23.1921 16.952 23.1494C16.9362 22.8833 16.8754 22.6297 16.7186 22.4069C16.5699 22.1959 16.3673 22.0713 16.1037 22.0532C15.8087 22.0327 15.5607 22.195 15.4737 22.4915C15.3429 22.9367 15.3872 23.3705 15.617 23.7783C15.717 23.956 15.8653 24.0872 16.064 24.1562C16.4533 24.291 16.7985 24.1164 16.8999 23.7242C16.9373 23.5794 16.9481 23.428 16.9712 23.2797Z" fill="#4F382B"/>
<path fill-rule="evenodd" clip-rule="evenodd" d="M7.96748 23.0704C7.95945 23.3955 7.8815 23.6961 7.67741 23.9573C7.45876 24.2371 7.15826 24.3867 6.81651 24.4497C6.41245 24.524 6.03291 24.4565 5.70832 24.1897C5.55416 24.0628 5.44885 23.9003 5.37937 23.7153C5.26538 23.412 5.23694 23.1011 5.30707 22.7844C5.38198 22.4454 5.57652 22.1863 5.87811 22.0124C6.22681 21.8118 6.60308 21.7223 7.00498 21.8124C7.52173 21.9286 7.82006 22.26 7.93035 22.7615C7.9525 22.8628 7.95554 22.9674 7.96748 23.0704ZM7.40166 23.2849L7.38668 23.2827V23.2216C7.37821 22.9234 7.31894 22.6393 7.13807 22.3915C7.00411 22.2076 6.82476 22.0923 6.59483 22.06C6.22008 22.0075 5.97516 22.2262 5.89396 22.5233C5.788 22.9115 5.82122 23.2949 5.98515 23.6629C6.08741 23.8924 6.24895 24.0712 6.49712 24.1579C6.88404 24.2931 7.23447 24.1141 7.3324 23.7234C7.36844 23.5805 7.3793 23.4314 7.40166 23.2849Z" fill="#4F372B"/>
<path fill-rule="evenodd" clip-rule="evenodd" d="M16.9874 6.49512C17.2538 7.25279 17.4453 8.02628 17.5085 8.82774C17.5866 9.82231 17.551 10.81 17.3378 11.7882L17.3105 11.8663C17.2436 11.8666 17.1754 11.8582 17.1101 11.8683C16.5579 11.9537 16.0064 12.0421 15.4547 12.1302C14.8843 12.2212 14.3135 12.3085 13.7442 12.4055C13.5425 12.4397 13.2928 12.3989 13.2114 12.6732L13.1723 12.6862L13.1999 11.0461L13.1719 7.08874L13.4376 7.04388C13.8721 6.97403 14.3066 6.9029 14.7417 6.83476C15.2606 6.7538 15.78 6.67476 16.2993 6.59573C16.5286 6.56112 16.7581 6.52887 16.9874 6.49512Z" fill="#439934"/>
<path fill-rule="evenodd" clip-rule="evenodd" d="M12.6227 17.467C12.3424 17.2299 12.0523 17.0033 11.7837 16.7538C10.3381 15.4123 9.28051 13.8331 8.75963 11.9292C8.61611 11.4054 8.52058 10.8729 8.48975 10.3316C8.46803 9.95263 8.43699 9.57048 8.46434 9.19345C8.53665 8.19098 8.68407 7.19812 8.98283 6.23239L8.99934 6.20996C9.02843 6.24798 9.07012 6.28173 9.08488 6.32467C9.3767 7.16971 9.66612 8.01561 9.95424 8.86214C10.8594 11.5218 11.7635 14.1821 12.6702 16.8413C12.688 16.8932 12.7339 16.9358 12.7669 16.9825L12.6227 17.467Z" fill="#45A538"/>
<path fill-rule="evenodd" clip-rule="evenodd" d="M16.9871 6.49389C16.7576 6.52742 16.5281 6.55989 16.299 6.5945C15.7797 6.67353 15.2603 6.75257 14.7414 6.83353C14.3065 6.90145 13.872 6.97259 13.4374 7.04265L13.1716 7.08751L13.1694 6.91705C13.1605 6.77692 13.1458 6.63679 13.1438 6.49666L13.1141 3.815C13.1071 3.25555 13.0967 2.69611 13.0852 2.13688C13.0793 1.78929 13.0691 1.4418 13.0546 1.09446C13.0459 0.907978 13.0153 0.722351 13.0031 0.535869C12.9959 0.428637 13.0055 0.32055 13.0079 0.212891C13.1434 0.471145 13.276 0.731323 13.4152 0.987655C13.6352 1.39287 13.9858 1.6915 14.3017 2.01726C15.5493 3.30554 16.435 4.80252 16.9871 6.49389Z" fill="#46A037"/>
<path fill-rule="evenodd" clip-rule="evenodd" d="M13.1722 12.6852L13.2112 12.6722C13.2927 12.3979 13.5423 12.4387 13.7441 12.4045C14.3134 12.3075 14.8842 12.2202 15.4546 12.1292C16.0063 12.0414 16.5578 11.9529 17.1099 11.8673C17.1753 11.8572 17.2434 11.8656 17.3103 11.8653C17.2072 12.2276 17.126 12.5978 16.995 12.9501C16.8463 13.3495 16.6665 13.7396 16.4757 14.1219C16.1898 14.6921 15.8361 15.2269 15.422 15.715C15.1037 16.0914 14.7489 16.4398 14.3935 16.7835C14.1968 16.9734 13.9653 17.1283 13.7495 17.2992L13.6935 17.2616L13.4922 17.0924L13.284 16.643C13.1417 16.1189 13.0641 15.5798 13.0527 15.0375L13.0566 14.946L13.0851 14.55C13.0944 14.4148 13.107 14.2798 13.1129 14.1446C13.1337 13.6584 13.1524 13.1718 13.1722 12.6852Z" fill="#409433"/>
<path fill-rule="evenodd" clip-rule="evenodd" d="M13.1722 12.6871C13.1526 13.1737 13.134 13.6605 13.1129 14.1471C13.107 14.2826 13.0947 14.4176 13.0851 14.5526L12.9583 14.5998C12.6765 13.7836 12.3944 12.9759 12.1187 12.1663C11.6625 10.8268 11.212 9.48532 10.7565 8.14534C10.3886 7.06391 10.0182 5.98332 9.64523 4.90359C9.62765 4.85318 9.57771 4.81345 9.54297 4.7688L10.355 3.2998C10.383 3.34744 10.4197 3.39208 10.4373 3.44335C10.8129 4.53704 11.1879 5.63093 11.5596 6.7259C12.0434 8.15068 12.5239 9.5761 13.0072 11.0011C13.0265 11.0579 13.0582 11.1105 13.0886 11.1743L13.1998 11.047L13.1722 12.6871Z" fill="#4FAA41"/>
<path fill-rule="evenodd" clip-rule="evenodd" d="M9.54281 4.76758C9.57776 4.81222 9.6277 4.85195 9.64507 4.90237C10.0181 5.98208 10.3885 7.06267 10.7563 8.14411C11.2118 9.48409 11.6624 10.8256 12.1185 12.1651C12.3943 12.9747 12.6763 13.7821 12.9582 14.5986L13.085 14.5514L13.0565 14.9474L13.0307 15.0386C12.9866 15.472 12.9495 15.9063 12.8956 16.3388C12.8687 16.5557 12.8112 16.7684 12.7675 16.9829C12.7347 16.9361 12.6887 16.8936 12.6709 16.8417C11.764 14.1824 10.8601 11.5221 9.95491 8.86249C9.66691 8.01607 9.37712 7.17024 9.08555 6.32501C9.07078 6.28207 9.02909 6.24832 9 6.2103L9.54281 4.76758Z" fill="#4AA73C"/>
<path fill-rule="evenodd" clip-rule="evenodd" d="M13.1992 11.0468L13.0881 11.1741C13.0577 11.1103 13.026 11.0577 13.0067 11.0009C12.5233 9.5759 12.0428 8.15048 11.5591 6.7257C11.1869 5.63087 10.8128 4.53669 10.4368 3.44315C10.4192 3.39188 10.3825 3.34724 10.3545 3.2996L11.3587 2C11.3904 2.04144 11.4355 2.0784 11.4518 2.12518C11.7306 2.92835 12.0068 3.73217 12.2817 4.53662C12.5383 5.2881 12.791 6.04044 13.0507 6.79064C13.0681 6.84083 13.1287 6.87629 13.1691 6.91902L13.1712 7.08948L13.1992 11.0468Z" fill="#57AE47"/>
<path fill-rule="evenodd" clip-rule="evenodd" d="M13.1693 6.91951C13.1287 6.877 13.0683 6.84154 13.0509 6.79113C12.7915 6.04093 12.5385 5.28859 12.2819 4.53711C12.0072 3.73265 11.7306 2.92883 11.452 2.12567C11.4357 2.07889 11.3906 2.04193 11.3589 2.00049C11.6854 1.68584 12.0018 1.35987 12.3416 1.05975C12.6436 0.793166 12.8863 0.507355 12.8976 0.0859019L12.9215 0.00195312L13.0075 0.215136C13.0053 0.322796 12.9956 0.430882 13.0027 0.538115C13.0151 0.724597 13.0457 0.910224 13.0542 1.09671C13.07 1.44382 13.0776 1.79158 13.0848 2.13912C13.0963 2.69836 13.1067 3.2578 13.1137 3.81725L13.1434 6.49891C13.1456 6.63925 13.1606 6.77938 13.1693 6.91951Z" fill="#60B24F"/>
<path fill-rule="evenodd" clip-rule="evenodd" d="M12.7674 16.9821C12.8111 16.7677 12.8686 16.5549 12.8955 16.3381C12.9494 15.9057 12.9865 15.4713 13.0306 15.0378L13.0417 15.0361L13.0525 15.0381C13.0638 15.5804 13.1415 16.1195 13.2838 16.6436C13.2544 16.6816 13.2134 16.7151 13.1978 16.7578C13.0773 17.0923 12.9635 17.4296 12.8423 17.7639C12.8258 17.8096 12.7794 17.8453 12.747 17.8853L12.623 17.4666L12.7674 16.9821Z" fill="#A9AA88"/>
<path fill-rule="evenodd" clip-rule="evenodd" d="M12.7466 17.8892C12.7789 17.849 12.8254 17.8136 12.8419 17.7678C12.9631 17.4335 13.0768 17.0963 13.1973 16.7617C13.2127 16.719 13.254 16.6855 13.2833 16.6475L13.4915 17.0969C13.4505 17.1541 13.3936 17.2061 13.3708 17.2699L12.9722 18.4217C12.9557 18.4681 12.8999 18.5005 12.8621 18.5396L12.7466 17.8892Z" fill="#B6B598"/>
<path fill-rule="evenodd" clip-rule="evenodd" d="M12.8633 18.5355C12.9008 18.4964 12.9569 18.4639 12.9734 18.4176L13.372 17.2658C13.3946 17.2019 13.4517 17.15 13.4927 17.0928L13.6942 17.2617C13.5969 17.3564 13.5429 17.4657 13.5754 17.6039L13.5142 17.8011C13.4864 17.8349 13.446 17.8643 13.4324 17.903C13.2932 18.2952 13.1605 18.6895 13.0203 19.0815C13.0025 19.131 12.9532 19.1701 12.9186 19.2141L12.8633 18.5355Z" fill="#C2C1A7"/>
<path fill-rule="evenodd" clip-rule="evenodd" d="M12.9182 19.2167C12.9529 19.1727 13.0022 19.1336 13.0198 19.0841C13.16 18.6921 13.2929 18.2978 13.4319 17.9056C13.4455 17.8669 13.4859 17.8377 13.5137 17.8037L13.4293 18.7086C13.4067 18.7342 13.3741 18.7566 13.3633 18.7863L13.0823 19.5784C13.0625 19.6324 13.0248 19.6807 12.9952 19.7313C12.969 19.6976 12.9221 19.6649 12.9199 19.6299C12.9116 19.4927 12.9175 19.3545 12.9182 19.2167Z" fill="#CECDB7"/>
<path fill-rule="evenodd" clip-rule="evenodd" d="M12.9951 19.7288C13.0246 19.6782 13.0624 19.6299 13.0822 19.5759L13.3631 18.7838C13.374 18.7539 13.4068 18.7317 13.4291 18.7061L13.4313 19.2999L13.2292 19.8098L12.9951 19.7288Z" fill="#DBDAC7"/>
<path fill-rule="evenodd" clip-rule="evenodd" d="M13.2295 19.8097L13.4316 19.2998L13.4733 19.903L13.2295 19.8097Z" fill="#EBE9DC"/>
<path fill-rule="evenodd" clip-rule="evenodd" d="M13.5744 17.6052C13.542 17.4671 13.5959 17.3576 13.6932 17.2627L13.7493 17.3003L13.5744 17.6052Z" fill="#CECDB7"/>
<path fill-rule="evenodd" clip-rule="evenodd" d="M13.0527 15.0407L13.0418 15.0387L13.0308 15.0404L13.0566 14.9492L13.0527 15.0407Z" fill="#4FAA41"/>
</svg>
