<svg width="27" height="27" viewBox="0 0 27 27" fill="none" xmlns="http://www.w3.org/2000/svg">
<path fill-rule="evenodd" clip-rule="evenodd" d="M24.2338 20.3583C22.8175 20.3189 21.7187 20.464 20.7979 20.8515C20.5327 20.958 20.1072 20.958 20.0722 21.2917C20.214 21.4318 20.2311 21.6609 20.3554 21.8551C20.5676 22.2073 20.94 22.6819 21.2762 22.9281L22.4095 23.7379C23.1002 24.16 23.8794 24.4066 24.5523 24.8291C24.942 25.0756 25.3315 25.3924 25.7212 25.6567C25.9197 25.7975 26.0399 26.0268 26.288 26.1143V26.0611C26.1642 25.9032 26.1285 25.6745 26.005 25.4977L25.4731 24.9876C24.9599 24.3013 24.3219 23.7024 23.6313 23.21C23.0645 22.8228 21.8252 22.2949 21.5949 21.644L21.56 21.6045C21.9491 21.5651 22.4095 21.4281 22.7818 21.3225C23.3843 21.1647 23.9329 21.1994 24.5523 21.0411L25.4029 20.7946V20.6368C25.0841 20.3201 24.8539 19.8975 24.5177 19.5986C23.6146 18.8242 22.6222 18.0671 21.5949 17.4336C21.046 17.0818 20.3374 16.8525 19.7531 16.5539C19.54 16.4481 19.1863 16.3953 19.0624 16.2194C18.7429 15.8328 18.5662 15.3219 18.336 14.864L16.884 11.8016C16.5653 11.1151 16.37 10.4287 15.9809 9.79515C14.1565 6.80292 12.1726 4.99034 9.12644 3.21233C8.47151 2.8427 7.69232 2.6837 6.86379 2.49042L5.53571 2.41954C5.25186 2.29642 4.96874 1.9618 4.72078 1.80324C3.71126 1.16958 1.10776 -0.203058 0.363289 1.60605C-0.114849 2.74996 1.07203 3.87623 1.47494 4.45737C1.77658 4.86216 2.1656 5.31961 2.3787 5.77735C2.49776 6.07638 2.53755 6.3935 2.66182 6.71033C2.9448 7.48461 3.2107 8.34743 3.58265 9.06933C3.78114 9.43897 3.98961 9.82669 4.23758 10.1609C4.37935 10.3581 4.62746 10.4425 4.68027 10.7592C4.43216 11.1115 4.41509 11.639 4.27331 12.0796C3.63546 14.0686 3.88357 16.5326 4.7866 17.997C5.07045 18.4368 5.73926 19.4052 6.64678 19.0353C7.44377 18.7184 7.26597 17.7153 7.49614 16.8351C7.54967 16.6242 7.51408 16.4833 7.61998 16.3421V16.3816L8.34637 17.8423C8.8954 18.7047 9.85211 19.6025 10.6487 20.2013C11.0734 20.5182 11.4101 21.0641 11.9412 21.2574V21.2042H11.9063C11.7998 21.0463 11.6402 20.9753 11.4986 20.8522C11.1799 20.5355 10.8257 20.1481 10.5776 19.7962C9.83417 18.8107 9.17924 17.7192 8.59448 16.5929C8.31078 16.0474 8.06267 15.4489 7.83323 14.9033C7.72602 14.692 7.72602 14.3747 7.54938 14.2698C7.28333 14.6564 6.89446 14.9917 6.69872 15.4667C6.36207 16.2233 6.3272 17.1563 6.20336 18.1244C6.1319 18.1421 6.16358 18.1244 6.1319 18.1638C5.5658 18.0234 5.37049 17.4419 5.15826 16.9496C4.62703 15.6999 4.53806 13.6934 4.99854 12.2501C5.12238 11.8804 5.65434 10.7187 5.44196 10.3667C5.3349 10.0323 4.98147 9.83898 4.78617 9.57467C4.556 9.24019 4.30875 8.81804 4.14918 8.44841C3.72443 7.46218 3.51205 6.37137 3.05113 5.38572C2.83803 4.92799 2.46651 4.4526 2.16516 4.03059C1.82852 3.5552 1.45743 3.22058 1.19153 2.65766C1.10299 2.46048 0.979153 2.14727 1.12079 1.93576C1.1558 1.79499 1.22712 1.73857 1.36817 1.70703C1.5982 1.5097 2.25414 1.75984 2.48431 1.86472C3.13923 2.12904 3.68826 2.37527 4.23729 2.74447C4.4854 2.92039 4.7513 3.25501 5.07001 3.3434H5.4424C6.00922 3.46637 6.64635 3.38276 7.177 3.54059C8.11591 3.84035 8.96571 4.27986 9.72783 4.75554C12.0476 6.21642 13.9609 8.29332 15.2533 10.7754C15.4656 11.1802 15.5542 11.5499 15.7495 11.9723C16.1219 12.8351 16.5823 13.7149 16.9534 14.5602C17.3258 15.3874 17.6798 16.2329 18.211 16.9192C18.477 17.2888 19.5391 17.4821 20.0171 17.6758C20.3716 17.8336 20.9202 17.9757 21.2397 18.169C21.8414 18.5386 22.4437 18.9611 23.0101 19.3659C23.293 19.5765 24.1792 20.0167 24.2318 20.3678L24.2338 20.3583ZM6.17269 5.06325C5.92807 5.0611 5.68419 5.09067 5.44717 5.15121V5.19071H5.48203C5.62381 5.47238 5.87192 5.6661 6.04885 5.91262L6.45654 6.75749L6.49155 6.71814C6.73951 6.54222 6.86379 6.26055 6.86379 5.83854C6.75745 5.71543 6.73995 5.59188 6.65141 5.46876C6.54508 5.29284 6.3149 5.20445 6.17269 5.06412V5.06325Z" fill="#00678C"/>
</svg>
