<svg width="27" height="27" viewBox="0 0 27 27" fill="none" xmlns="http://www.w3.org/2000/svg">
<path d="M19.8379 19.7799C20.0037 18.3996 19.954 18.1983 20.9813 18.4211L21.2427 18.4443C22.0332 18.4799 23.0665 18.3172 23.684 18.0355C24.9913 17.4292 25.7663 16.4161 24.4775 16.6825C21.5377 17.2889 21.3241 16.2929 21.3241 16.2929C24.4296 11.685 25.7286 5.83599 24.6067 4.40476C21.551 0.498642 16.2604 2.34594 16.172 2.3947L16.1435 2.39976C15.5636 2.2778 14.9227 2.20648 14.1801 2.19636C12.8497 2.1761 11.8407 2.5453 11.0736 3.12615C11.0736 3.12615 1.63688 -0.76173 2.07524 8.01589C2.16884 9.88344 4.75064 22.1552 7.8327 18.4423C8.96085 17.0854 10.0494 15.9389 10.0494 15.9389C10.5884 16.298 11.2364 16.4812 11.9149 16.415L11.9677 16.3703C11.9521 16.5462 11.9593 16.7233 11.9891 16.8972C11.1957 17.7842 11.4297 17.9399 9.84276 18.2664C8.23764 18.597 9.18162 19.1859 9.79603 19.3406C10.5427 19.5278 12.2699 19.7922 13.4377 18.1586L13.3908 18.3447C13.7021 18.5939 13.6807 20.135 13.7265 21.2356C13.7723 22.3363 13.8445 23.3647 14.0693 23.9699C14.2941 24.5752 14.5576 26.1366 16.6429 25.6992C18.3854 25.3259 19.718 24.7877 19.84 19.7892" fill="black"/>
<path d="M19.8379 19.7799C20.0037 18.3996 19.954 18.1983 20.9813 18.4211L21.2427 18.4443C22.0332 18.4799 23.0665 18.3172 23.684 18.0355C24.9913 17.4292 25.7663 16.4161 24.4775 16.6825C21.5377 17.2889 21.3241 16.2929 21.3241 16.2929C24.4296 11.685 25.7286 5.83599 24.6067 4.40476C21.551 0.498642 16.2604 2.34594 16.172 2.3947L16.1435 2.39976C15.5636 2.2778 14.9227 2.20648 14.1801 2.19636C12.8497 2.1761 11.8407 2.5453 11.0736 3.12615C11.0736 3.12615 1.63688 -0.76173 2.07524 8.01589C2.16884 9.88344 4.75064 22.1552 7.8327 18.4423C8.96085 17.0854 10.0494 15.9389 10.0494 15.9389C10.5884 16.298 11.2364 16.4812 11.9149 16.415L11.9677 16.3703C11.9521 16.5462 11.9593 16.7233 11.9891 16.8972C11.1957 17.7842 11.4297 17.9399 9.84276 18.2664C8.23764 18.597 9.18162 19.1859 9.79603 19.3406C10.5427 19.5278 12.2699 19.7922 13.4377 18.1586L13.3908 18.3447C13.7021 18.5939 13.6807 20.135 13.7265 21.2356C13.7723 22.3363 13.8445 23.3647 14.0693 23.9699C14.2941 24.5752 14.5576 26.1366 16.6429 25.6992C18.3854 25.3259 19.718 24.7877 19.84 19.7892" stroke="black" stroke-width="3.58724"/>
<path d="M24.4678 16.6911C21.5281 17.2972 21.3146 16.3015 21.3146 16.3015C24.4201 11.6934 25.7191 5.84437 24.5981 4.41314C21.5425 0.507025 16.2518 2.35534 16.1633 2.40323L16.1348 2.40829C15.4886 2.27859 14.8317 2.2101 14.1726 2.20372C12.8421 2.18347 11.833 2.55267 11.0661 3.13352C11.0661 3.13352 1.62837 -0.754216 2.06773 8.0234C2.16134 9.89096 4.74299 22.1627 7.8252 18.4498C8.96043 17.0847 10.0489 15.9382 10.0489 15.9382C10.588 16.2973 11.236 16.4804 11.9145 16.4143L11.9673 16.3696C11.9518 16.5454 11.959 16.7225 11.9887 16.8965C11.1953 17.7835 11.4292 17.9391 9.84235 18.2657C8.23722 18.5962 9.1812 19.1852 9.79562 19.3398C10.5423 19.5271 12.2695 19.7915 13.4373 18.1579L13.3904 18.3439C13.7017 18.5932 13.9193 19.9644 13.8827 21.2074C13.8461 22.4506 13.8217 23.303 14.0659 23.9702C14.3099 24.6376 14.5541 26.1369 16.6394 25.6994C18.382 25.3262 19.2841 24.3567 19.4113 22.7435C19.5009 21.596 19.7022 21.7648 19.7166 20.7395L19.8793 20.2533C20.0654 18.6969 19.9097 18.1955 20.9829 18.4294L21.2443 18.4529C22.0348 18.4885 23.0693 18.3257 23.6755 18.0439C24.9826 17.4377 25.7577 16.4244 24.469 16.6911H24.4678Z" fill="#336791"/>
<path d="M16.1625 2.35639C15.837 2.45809 21.4155 0.31696 24.5872 4.36847C25.7062 5.7997 24.4092 11.6487 21.3036 16.2567M13.5625 17.574C13.4812 20.469 13.5829 23.3843 13.8657 24.0842C14.1484 24.784 14.7558 26.1695 16.8421 25.7239C18.5846 25.3507 19.2193 24.6273 19.494 23.0313L20.1378 17.928L13.5625 17.574ZM11.0623 3.06137C11.0623 3.06137 1.61834 -0.7999 2.05785 7.97743C2.15145 9.84498 4.7331 22.1167 7.81531 18.4039C8.94028 17.0479 9.9576 15.987 9.9576 15.987L11.0623 3.06122V3.06137Z" stroke="white" stroke-width="1.19512" stroke-linecap="round" stroke-linejoin="round"/>
<path d="M21.3048 16.2536C21.3048 16.2536 21.5083 17.2505 24.4582 16.6422C25.7471 16.3757 24.9709 17.3888 23.6648 17.9952C22.5927 18.4935 20.1879 18.6207 20.1483 17.9341C20.0466 16.159 21.4137 16.6982 21.3151 16.2536C21.2255 15.8529 20.6131 15.4602 20.2104 14.4796C19.8574 13.6251 15.3684 7.06411 21.4554 8.03746C21.6792 7.99174 19.8685 2.23948 14.1721 2.15601C8.47567 2.07253 8.65579 9.15952 8.65579 9.15952" stroke="white" stroke-width="1.19512" stroke-linecap="round" stroke-linejoin="bevel"/>
<path d="M11.9683 16.862C11.1749 17.749 11.4088 17.9047 9.82208 18.2312C8.21681 18.5618 9.16093 19.1507 9.7752 19.3054C10.5219 19.4926 12.2491 19.757 13.4169 18.1223C13.7729 17.6239 13.4148 16.8305 12.9266 16.6291C12.6906 16.5315 12.3752 16.4094 11.9704 16.863L11.9683 16.862Z" stroke="white" stroke-width="1.19512" stroke-linejoin="round"/>
<path d="M11.9171 16.8485C11.8356 16.3267 12.0879 15.7072 12.3574 14.981C12.7624 13.8926 13.6962 12.8041 12.9496 9.34866C12.393 6.77497 8.65689 8.81251 8.65689 9.16146C8.65689 9.51041 8.82573 10.9315 8.59584 12.5844C8.29377 14.743 9.96906 16.5679 11.8977 16.3817" stroke="white" stroke-width="1.19512" stroke-linecap="round" stroke-linejoin="round"/>
<path d="M11.0274 9.10887C11.01 9.22778 11.246 9.54621 11.5523 9.58888C11.8584 9.63171 12.1198 9.38345 12.1372 9.26337C12.1544 9.1433 11.9184 9.01309 11.6123 8.97042C11.306 8.92774 11.0426 8.99081 11.0274 9.10887Z" fill="white" stroke="white" stroke-width="0.398847"/>
<path d="M20.3495 8.86472C20.3657 8.98364 20.1308 9.30192 19.8246 9.34474C19.5184 9.38742 19.2549 9.13931 19.2397 9.01923C19.2244 8.89916 19.4585 8.76895 19.7646 8.72628C20.0707 8.6836 20.3342 8.74667 20.3495 8.86472Z" fill="white" stroke="white" stroke-width="0.198711"/>
<path d="M21.4441 8.04102C21.4949 8.97689 21.2426 9.61258 21.21 10.6085C21.1633 12.0549 21.8998 13.711 20.7899 15.369" stroke="white" stroke-width="1.19512" stroke-linecap="round" stroke-linejoin="round"/>
</svg>
