<svg width="59" height="59" viewBox="0 0 59 59" fill="none" xmlns="http://www.w3.org/2000/svg">
<path d="M29.5611 0C13.5484 0 0.5 13.1818 0.5 29.3582C0.5 45.5345 13.5484 58.7163 29.5611 58.7163C45.5738 58.7163 58.6222 45.5345 58.6222 29.3582C58.6222 13.1818 45.5738 0 29.5611 0ZM41.1856 31.56H31.7407V41.1014C31.7407 42.3051 30.7526 43.3033 29.5611 43.3033C28.3696 43.3033 27.3815 42.3051 27.3815 41.1014V31.56H17.9367C16.7452 31.56 15.7571 30.5619 15.7571 29.3582C15.7571 28.1545 16.7452 27.1563 17.9367 27.1563H27.3815V17.6149C27.3815 16.4112 28.3696 15.413 29.5611 15.413C30.7526 15.413 31.7407 16.4112 31.7407 17.6149V27.1563H41.1856C42.3771 27.1563 43.3651 28.1545 43.3651 29.3582C43.3651 30.5619 42.3771 31.56 41.1856 31.56Z" fill="#1C63ED"/>
</svg>
