<svg width="312" height="263" viewBox="0 0 312 263" fill="none" xmlns="http://www.w3.org/2000/svg">
<path d="M56.376 250.858H58.0938C58.0043 251.681 57.7687 252.417 57.387 253.068C57.0053 253.718 56.4655 254.234 55.7676 254.615C55.0698 254.991 54.199 255.179 53.1552 255.179C52.3918 255.179 51.697 255.036 51.0707 254.749C50.4504 254.463 49.9166 254.058 49.4693 253.533C49.0219 253.002 48.676 252.367 48.4315 251.627C48.1929 250.882 48.0736 250.053 48.0736 249.14V247.843C48.0736 246.93 48.1929 246.104 48.4315 245.365C48.676 244.619 49.0249 243.981 49.4782 243.45C49.9375 242.919 50.4892 242.511 51.1333 242.224C51.7775 241.938 52.5021 241.795 53.3073 241.795C54.2915 241.795 55.1235 241.98 55.8034 242.35C56.4834 242.719 57.0112 243.232 57.387 243.888C57.7687 244.538 58.0043 245.293 58.0938 246.152H56.376C56.2925 245.543 56.1374 245.022 55.9108 244.586C55.6841 244.145 55.3621 243.805 54.9446 243.566C54.5271 243.328 53.9813 243.208 53.3073 243.208C52.7288 243.208 52.2188 243.319 51.7775 243.539C51.3421 243.76 50.9753 244.073 50.677 244.479C50.3848 244.884 50.1641 245.371 50.015 245.937C49.8659 246.504 49.7913 247.133 49.7913 247.825V249.14C49.7913 249.778 49.8569 250.378 49.9882 250.938C50.1253 251.499 50.3311 251.991 50.6055 252.414C50.8798 252.838 51.2287 253.172 51.6522 253.416C52.0757 253.655 52.5767 253.774 53.1552 253.774C53.8889 253.774 54.4734 253.658 54.9088 253.425C55.3442 253.193 55.6722 252.859 55.8929 252.423C56.1195 251.988 56.2806 251.466 56.376 250.858ZM61.9945 241.258V255H60.3304V241.258H61.9945ZM66.4498 245.32V255H64.7858V245.32H66.4498ZM64.6605 242.752C64.6605 242.484 64.7411 242.257 64.9021 242.072C65.0691 241.887 65.3136 241.795 65.6357 241.795C65.9518 241.795 66.1934 241.887 66.3604 242.072C66.5334 242.257 66.6198 242.484 66.6198 242.752C66.6198 243.009 66.5334 243.229 66.3604 243.414C66.1934 243.593 65.9518 243.683 65.6357 243.683C65.3136 243.683 65.0691 243.593 64.9021 243.414C64.7411 243.229 64.6605 243.009 64.6605 242.752ZM72.9808 253.819C73.3745 253.819 73.7383 253.739 74.0723 253.577C74.4063 253.416 74.6807 253.196 74.8954 252.915C75.1101 252.629 75.2324 252.304 75.2622 251.94H76.8368C76.807 252.513 76.6132 253.047 76.2553 253.542C75.9034 254.031 75.4412 254.427 74.8686 254.732C74.296 255.03 73.6668 255.179 72.9808 255.179C72.2532 255.179 71.618 255.051 71.0752 254.794C70.5384 254.538 70.0911 254.186 69.7332 253.739C69.3813 253.291 69.1159 252.778 68.937 252.2C68.764 251.615 68.6775 250.998 68.6775 250.348V249.972C68.6775 249.322 68.764 248.708 68.937 248.129C69.1159 247.545 69.3813 247.029 69.7332 246.581C70.0911 246.134 70.5384 245.782 71.0752 245.526C71.618 245.269 72.2532 245.141 72.9808 245.141C73.7383 245.141 74.4004 245.296 74.967 245.606C75.5336 245.91 75.978 246.328 76.3 246.859C76.6281 247.383 76.807 247.98 76.8368 248.648H75.2622C75.2324 248.248 75.1191 247.887 74.9223 247.565C74.7314 247.243 74.469 246.987 74.135 246.796C73.8069 246.599 73.4222 246.501 72.9808 246.501C72.4739 246.501 72.0474 246.602 71.7015 246.805C71.3615 247.002 71.0901 247.27 70.8874 247.61C70.6905 247.944 70.5474 248.317 70.4579 248.728C70.3744 249.134 70.3327 249.549 70.3327 249.972V250.348C70.3327 250.771 70.3744 251.189 70.4579 251.6C70.5414 252.012 70.6816 252.385 70.8784 252.719C71.0812 253.053 71.3526 253.321 71.6925 253.524C72.0385 253.721 72.4679 253.819 72.9808 253.819ZM80.3618 241.258V255H78.6977V241.258H80.3618ZM86.2755 245.32L82.0527 249.838L79.6908 252.289L79.5566 250.527L81.2475 248.505L84.2535 245.32H86.2755ZM84.7635 255L81.3101 250.384L82.169 248.907L86.7138 255H84.7635ZM94.1842 241.258V255H92.5291V241.258H94.1842ZM93.7906 249.793L93.1017 249.766C93.1077 249.104 93.2061 248.493 93.3969 247.932C93.5878 247.366 93.8562 246.874 94.2021 246.456C94.5481 246.039 94.9596 245.716 95.4367 245.49C95.9199 245.257 96.4537 245.141 97.0382 245.141C97.5153 245.141 97.9448 245.206 98.3265 245.338C98.7082 245.463 99.0333 245.666 99.3017 245.946C99.576 246.226 99.7848 246.59 99.9279 247.038C100.071 247.479 100.143 248.019 100.143 248.657V255H98.4786V248.639C98.4786 248.132 98.404 247.726 98.2549 247.422C98.1058 247.112 97.8881 246.888 97.6018 246.751C97.3155 246.608 96.9636 246.537 96.5461 246.537C96.1346 246.537 95.7588 246.623 95.4189 246.796C95.0848 246.969 94.7956 247.208 94.551 247.512C94.3125 247.816 94.1246 248.165 93.9874 248.558C93.8562 248.946 93.7906 249.358 93.7906 249.793ZM106.638 255.179C105.964 255.179 105.353 255.066 104.804 254.839C104.261 254.606 103.793 254.281 103.399 253.864C103.012 253.446 102.713 252.951 102.505 252.379C102.296 251.806 102.191 251.18 102.191 250.5V250.124C102.191 249.337 102.308 248.636 102.54 248.022C102.773 247.401 103.089 246.877 103.489 246.447C103.888 246.018 104.342 245.693 104.849 245.472C105.356 245.251 105.88 245.141 106.423 245.141C107.115 245.141 107.711 245.26 108.212 245.499C108.719 245.737 109.134 246.071 109.456 246.501C109.778 246.924 110.017 247.425 110.172 248.004C110.327 248.576 110.404 249.203 110.404 249.883V250.625H103.176V249.274H108.749V249.149C108.725 248.72 108.636 248.302 108.481 247.896C108.332 247.491 108.093 247.157 107.765 246.894C107.437 246.632 106.99 246.501 106.423 246.501C106.047 246.501 105.701 246.581 105.385 246.742C105.069 246.897 104.798 247.13 104.571 247.44C104.345 247.75 104.169 248.129 104.043 248.576C103.918 249.024 103.855 249.54 103.855 250.124V250.5C103.855 250.959 103.918 251.392 104.043 251.797C104.175 252.197 104.362 252.549 104.607 252.853C104.857 253.157 105.159 253.396 105.511 253.569C105.868 253.742 106.274 253.828 106.727 253.828C107.312 253.828 107.807 253.709 108.212 253.47C108.618 253.232 108.973 252.912 109.277 252.513L110.279 253.309C110.07 253.625 109.805 253.926 109.483 254.213C109.161 254.499 108.764 254.732 108.293 254.911C107.828 255.089 107.276 255.179 106.638 255.179ZM113.992 246.841V255H112.337V245.32H113.947L113.992 246.841ZM117.016 245.266L117.007 246.805C116.87 246.775 116.739 246.757 116.613 246.751C116.494 246.739 116.357 246.733 116.202 246.733C115.82 246.733 115.483 246.793 115.191 246.912C114.899 247.032 114.651 247.199 114.448 247.413C114.245 247.628 114.084 247.884 113.965 248.183C113.852 248.475 113.777 248.797 113.741 249.149L113.276 249.417C113.276 248.833 113.333 248.284 113.446 247.771C113.565 247.258 113.747 246.805 113.992 246.411C114.236 246.012 114.547 245.702 114.922 245.481C115.304 245.254 115.757 245.141 116.282 245.141C116.402 245.141 116.539 245.156 116.694 245.186C116.849 245.209 116.956 245.236 117.016 245.266ZM122.384 255.179C121.71 255.179 121.099 255.066 120.55 254.839C120.007 254.606 119.539 254.281 119.145 253.864C118.757 253.446 118.459 252.951 118.251 252.379C118.042 251.806 117.937 251.18 117.937 250.5V250.124C117.937 249.337 118.054 248.636 118.286 248.022C118.519 247.401 118.835 246.877 119.235 246.447C119.634 246.018 120.088 245.693 120.595 245.472C121.101 245.251 121.626 245.141 122.169 245.141C122.861 245.141 123.457 245.26 123.958 245.499C124.465 245.737 124.88 246.071 125.202 246.501C125.524 246.924 125.763 247.425 125.918 248.004C126.073 248.576 126.15 249.203 126.15 249.883V250.625H118.922V249.274H124.495V249.149C124.471 248.72 124.382 248.302 124.227 247.896C124.078 247.491 123.839 247.157 123.511 246.894C123.183 246.632 122.736 246.501 122.169 246.501C121.793 246.501 121.447 246.581 121.131 246.742C120.815 246.897 120.544 247.13 120.317 247.44C120.091 247.75 119.915 248.129 119.789 248.576C119.664 249.024 119.601 249.54 119.601 250.124V250.5C119.601 250.959 119.664 251.392 119.789 251.797C119.921 252.197 120.108 252.549 120.353 252.853C120.603 253.157 120.905 253.396 121.257 253.569C121.614 253.742 122.02 253.828 122.473 253.828C123.058 253.828 123.553 253.709 123.958 253.47C124.364 253.232 124.719 252.912 125.023 252.513L126.025 253.309C125.816 253.625 125.551 253.926 125.229 254.213C124.907 254.499 124.51 254.732 124.039 254.911C123.574 255.089 123.022 255.179 122.384 255.179ZM136.68 245.32V246.59H131.447V245.32H136.68ZM133.218 242.967H134.873V252.602C134.873 252.93 134.924 253.178 135.025 253.345C135.127 253.512 135.258 253.622 135.419 253.676C135.58 253.73 135.753 253.756 135.938 253.756C136.075 253.756 136.218 253.744 136.367 253.721C136.522 253.691 136.639 253.667 136.716 253.649L136.725 255C136.594 255.042 136.421 255.081 136.206 255.116C135.998 255.158 135.744 255.179 135.446 255.179C135.04 255.179 134.667 255.098 134.328 254.937C133.988 254.776 133.716 254.508 133.513 254.132C133.317 253.75 133.218 253.238 133.218 252.593V242.967ZM138.005 250.267V250.061C138.005 249.364 138.106 248.717 138.309 248.12C138.512 247.518 138.804 246.996 139.185 246.554C139.567 246.107 140.029 245.761 140.572 245.517C141.115 245.266 141.723 245.141 142.397 245.141C143.077 245.141 143.689 245.266 144.231 245.517C144.78 245.761 145.245 246.107 145.627 246.554C146.015 246.996 146.31 247.518 146.513 248.12C146.716 248.717 146.817 249.364 146.817 250.061V250.267C146.817 250.965 146.716 251.612 146.513 252.209C146.31 252.805 146.015 253.327 145.627 253.774C145.245 254.216 144.783 254.562 144.24 254.812C143.704 255.057 143.095 255.179 142.415 255.179C141.735 255.179 141.124 255.057 140.581 254.812C140.038 254.562 139.573 254.216 139.185 253.774C138.804 253.327 138.512 252.805 138.309 252.209C138.106 251.612 138.005 250.965 138.005 250.267ZM139.66 250.061V250.267C139.66 250.75 139.716 251.207 139.83 251.636C139.943 252.06 140.113 252.435 140.34 252.763C140.572 253.091 140.861 253.351 141.207 253.542C141.553 253.727 141.956 253.819 142.415 253.819C142.868 253.819 143.265 253.727 143.605 253.542C143.951 253.351 144.237 253.091 144.464 252.763C144.691 252.435 144.861 252.06 144.974 251.636C145.093 251.207 145.153 250.75 145.153 250.267V250.061C145.153 249.584 145.093 249.134 144.974 248.711C144.861 248.281 144.688 247.902 144.455 247.574C144.228 247.24 143.942 246.978 143.596 246.787C143.256 246.596 142.857 246.501 142.397 246.501C141.944 246.501 141.544 246.596 141.198 246.787C140.858 246.978 140.572 247.24 140.34 247.574C140.113 247.902 139.943 248.281 139.83 248.711C139.716 249.134 139.66 249.584 139.66 250.061ZM157.311 253.819C157.705 253.819 158.069 253.739 158.403 253.577C158.737 253.416 159.011 253.196 159.226 252.915C159.441 252.629 159.563 252.304 159.593 251.94H161.167C161.137 252.513 160.944 253.047 160.586 253.542C160.234 254.031 159.772 254.427 159.199 254.732C158.626 255.03 157.997 255.179 157.311 255.179C156.584 255.179 155.948 255.051 155.406 254.794C154.869 254.538 154.422 254.186 154.064 253.739C153.712 253.291 153.446 252.778 153.267 252.2C153.094 251.615 153.008 250.998 153.008 250.348V249.972C153.008 249.322 153.094 248.708 153.267 248.129C153.446 247.545 153.712 247.029 154.064 246.581C154.422 246.134 154.869 245.782 155.406 245.526C155.948 245.269 156.584 245.141 157.311 245.141C158.069 245.141 158.731 245.296 159.297 245.606C159.864 245.91 160.308 246.328 160.63 246.859C160.958 247.383 161.137 247.98 161.167 248.648H159.593C159.563 248.248 159.449 247.887 159.253 247.565C159.062 247.243 158.799 246.987 158.465 246.796C158.137 246.599 157.753 246.501 157.311 246.501C156.804 246.501 156.378 246.602 156.032 246.805C155.692 247.002 155.421 247.27 155.218 247.61C155.021 247.944 154.878 248.317 154.788 248.728C154.705 249.134 154.663 249.549 154.663 249.972V250.348C154.663 250.771 154.705 251.189 154.788 251.6C154.872 252.012 155.012 252.385 155.209 252.719C155.412 253.053 155.683 253.321 156.023 253.524C156.369 253.721 156.798 253.819 157.311 253.819ZM164.683 246.841V255H163.028V245.32H164.638L164.683 246.841ZM167.707 245.266L167.698 246.805C167.561 246.775 167.43 246.757 167.305 246.751C167.185 246.739 167.048 246.733 166.893 246.733C166.511 246.733 166.174 246.793 165.882 246.912C165.59 247.032 165.342 247.199 165.139 247.413C164.937 247.628 164.776 247.884 164.656 248.183C164.543 248.475 164.469 248.797 164.433 249.149L163.967 249.417C163.967 248.833 164.024 248.284 164.137 247.771C164.257 247.258 164.439 246.805 164.683 246.411C164.928 246.012 165.238 245.702 165.614 245.481C165.995 245.254 166.449 245.141 166.974 245.141C167.093 245.141 167.23 245.156 167.385 245.186C167.54 245.209 167.648 245.236 167.707 245.266ZM173.075 255.179C172.401 255.179 171.79 255.066 171.241 254.839C170.698 254.606 170.23 254.281 169.836 253.864C169.449 253.446 169.151 252.951 168.942 252.379C168.733 251.806 168.629 251.18 168.629 250.5V250.124C168.629 249.337 168.745 248.636 168.978 248.022C169.21 247.401 169.526 246.877 169.926 246.447C170.326 246.018 170.779 245.693 171.286 245.472C171.793 245.251 172.318 245.141 172.86 245.141C173.552 245.141 174.149 245.26 174.65 245.499C175.157 245.737 175.571 246.071 175.893 246.501C176.215 246.924 176.454 247.425 176.609 248.004C176.764 248.576 176.842 249.203 176.842 249.883V250.625H169.613V249.274H175.187V249.149C175.163 248.72 175.073 248.302 174.918 247.896C174.769 247.491 174.53 247.157 174.202 246.894C173.874 246.632 173.427 246.501 172.86 246.501C172.485 246.501 172.139 246.581 171.823 246.742C171.506 246.897 171.235 247.13 171.008 247.44C170.782 247.75 170.606 248.129 170.481 248.576C170.355 249.024 170.293 249.54 170.293 250.124V250.5C170.293 250.959 170.355 251.392 170.481 251.797C170.612 252.197 170.8 252.549 171.044 252.853C171.295 253.157 171.596 253.396 171.948 253.569C172.306 253.742 172.711 253.828 173.165 253.828C173.749 253.828 174.244 253.709 174.65 253.47C175.055 253.232 175.41 252.912 175.714 252.513L176.716 253.309C176.508 253.625 176.242 253.926 175.92 254.213C175.598 254.499 175.201 254.732 174.73 254.911C174.265 255.089 173.713 255.179 173.075 255.179ZM184.482 253.345V248.362C184.482 247.98 184.404 247.649 184.249 247.369C184.1 247.082 183.874 246.862 183.569 246.707C183.265 246.551 182.89 246.474 182.442 246.474C182.025 246.474 181.658 246.545 181.342 246.689C181.032 246.832 180.787 247.02 180.608 247.252C180.435 247.485 180.349 247.735 180.349 248.004H178.694C178.694 247.658 178.783 247.315 178.962 246.975C179.141 246.635 179.397 246.328 179.731 246.053C180.071 245.773 180.477 245.552 180.948 245.391C181.425 245.224 181.956 245.141 182.541 245.141C183.244 245.141 183.865 245.26 184.401 245.499C184.944 245.737 185.368 246.098 185.672 246.581C185.982 247.058 186.137 247.658 186.137 248.38V252.889C186.137 253.211 186.164 253.554 186.218 253.917C186.277 254.281 186.364 254.594 186.477 254.857V255H184.75C184.667 254.809 184.601 254.556 184.554 254.24C184.506 253.917 184.482 253.619 184.482 253.345ZM184.768 249.131L184.786 250.294H183.113C182.642 250.294 182.221 250.333 181.852 250.41C181.482 250.482 181.172 250.592 180.921 250.741C180.671 250.891 180.48 251.078 180.349 251.305C180.217 251.526 180.152 251.785 180.152 252.083C180.152 252.388 180.22 252.665 180.358 252.915C180.495 253.166 180.701 253.366 180.975 253.515C181.255 253.658 181.598 253.73 182.004 253.73C182.511 253.73 182.958 253.622 183.346 253.408C183.733 253.193 184.041 252.93 184.267 252.62C184.5 252.31 184.625 252.009 184.643 251.717L185.35 252.513C185.308 252.763 185.195 253.041 185.01 253.345C184.825 253.649 184.577 253.941 184.267 254.222C183.963 254.496 183.599 254.726 183.176 254.911C182.758 255.089 182.287 255.179 181.762 255.179C181.106 255.179 180.531 255.051 180.036 254.794C179.546 254.538 179.165 254.195 178.89 253.765C178.622 253.33 178.488 252.844 178.488 252.307C178.488 251.788 178.589 251.332 178.792 250.938C178.995 250.539 179.287 250.208 179.669 249.945C180.05 249.677 180.51 249.474 181.047 249.337C181.583 249.2 182.183 249.131 182.845 249.131H184.768ZM192.793 245.32V246.59H187.56V245.32H192.793ZM189.331 242.967H190.986V252.602C190.986 252.93 191.037 253.178 191.138 253.345C191.24 253.512 191.371 253.622 191.532 253.676C191.693 253.73 191.866 253.756 192.051 253.756C192.188 253.756 192.331 253.744 192.48 253.721C192.635 253.691 192.752 253.667 192.829 253.649L192.838 255C192.707 255.042 192.534 255.081 192.319 255.116C192.11 255.158 191.857 255.179 191.559 255.179C191.153 255.179 190.78 255.098 190.44 254.937C190.1 254.776 189.829 254.508 189.626 254.132C189.429 253.75 189.331 253.238 189.331 252.593V242.967ZM198.752 255.179C198.078 255.179 197.466 255.066 196.918 254.839C196.375 254.606 195.907 254.281 195.513 253.864C195.125 253.446 194.827 252.951 194.618 252.379C194.41 251.806 194.305 251.18 194.305 250.5V250.124C194.305 249.337 194.422 248.636 194.654 248.022C194.887 247.401 195.203 246.877 195.603 246.447C196.002 246.018 196.455 245.693 196.962 245.472C197.469 245.251 197.994 245.141 198.537 245.141C199.229 245.141 199.825 245.26 200.326 245.499C200.833 245.737 201.248 246.071 201.57 246.501C201.892 246.924 202.131 247.425 202.286 248.004C202.441 248.576 202.518 249.203 202.518 249.883V250.625H195.289V249.274H200.863V249.149C200.839 248.72 200.75 248.302 200.595 247.896C200.446 247.491 200.207 247.157 199.879 246.894C199.551 246.632 199.104 246.501 198.537 246.501C198.161 246.501 197.815 246.581 197.499 246.742C197.183 246.897 196.912 247.13 196.685 247.44C196.458 247.75 196.283 248.129 196.157 248.576C196.032 249.024 195.969 249.54 195.969 250.124V250.5C195.969 250.959 196.032 251.392 196.157 251.797C196.288 252.197 196.476 252.549 196.721 252.853C196.971 253.157 197.273 253.396 197.625 253.569C197.982 253.742 198.388 253.828 198.841 253.828C199.426 253.828 199.921 253.709 200.326 253.47C200.732 253.232 201.087 252.912 201.391 252.513L202.393 253.309C202.184 253.625 201.919 253.926 201.597 254.213C201.275 254.499 200.878 254.732 200.407 254.911C199.942 255.089 199.39 255.179 198.752 255.179ZM210.651 247.181V258.722H208.987V245.32H210.508L210.651 247.181ZM217.173 250.079V250.267C217.173 250.971 217.089 251.624 216.922 252.227C216.755 252.823 216.511 253.342 216.189 253.783C215.873 254.225 215.482 254.568 215.017 254.812C214.551 255.057 214.018 255.179 213.415 255.179C212.801 255.179 212.258 255.078 211.787 254.875C211.316 254.672 210.916 254.377 210.588 253.989C210.26 253.601 209.998 253.136 209.801 252.593C209.61 252.051 209.479 251.439 209.407 250.759V249.757C209.479 249.042 209.613 248.4 209.81 247.834C210.007 247.267 210.266 246.784 210.588 246.384C210.916 245.979 211.313 245.672 211.778 245.463C212.243 245.248 212.78 245.141 213.388 245.141C213.997 245.141 214.537 245.26 215.008 245.499C215.479 245.731 215.876 246.065 216.198 246.501C216.52 246.936 216.761 247.458 216.922 248.066C217.089 248.669 217.173 249.34 217.173 250.079ZM215.509 250.267V250.079C215.509 249.596 215.458 249.143 215.357 248.72C215.255 248.29 215.097 247.914 214.882 247.592C214.674 247.264 214.405 247.008 214.077 246.823C213.749 246.632 213.359 246.537 212.905 246.537C212.488 246.537 212.124 246.608 211.814 246.751C211.51 246.894 211.25 247.088 211.035 247.333C210.821 247.571 210.645 247.846 210.508 248.156C210.376 248.46 210.278 248.776 210.212 249.104V251.421C210.332 251.839 210.499 252.233 210.713 252.602C210.928 252.966 211.214 253.261 211.572 253.488C211.93 253.709 212.38 253.819 212.923 253.819C213.37 253.819 213.755 253.727 214.077 253.542C214.405 253.351 214.674 253.091 214.882 252.763C215.097 252.435 215.255 252.06 215.357 251.636C215.458 251.207 215.509 250.75 215.509 250.267ZM220.939 246.841V255H219.284V245.32H220.895L220.939 246.841ZM223.963 245.266L223.954 246.805C223.817 246.775 223.686 246.757 223.561 246.751C223.441 246.739 223.304 246.733 223.149 246.733C222.767 246.733 222.43 246.793 222.138 246.912C221.846 247.032 221.598 247.199 221.396 247.413C221.193 247.628 221.032 247.884 220.912 248.183C220.799 248.475 220.725 248.797 220.689 249.149L220.224 249.417C220.224 248.833 220.28 248.284 220.394 247.771C220.513 247.258 220.695 246.805 220.939 246.411C221.184 246.012 221.494 245.702 221.87 245.481C222.251 245.254 222.705 245.141 223.23 245.141C223.349 245.141 223.486 245.156 223.641 245.186C223.796 245.209 223.904 245.236 223.963 245.266ZM224.876 250.267V250.061C224.876 249.364 224.977 248.717 225.18 248.12C225.383 247.518 225.675 246.996 226.057 246.554C226.438 246.107 226.901 245.761 227.443 245.517C227.986 245.266 228.595 245.141 229.269 245.141C229.948 245.141 230.56 245.266 231.103 245.517C231.651 245.761 232.117 246.107 232.498 246.554C232.886 246.996 233.181 247.518 233.384 248.12C233.587 248.717 233.688 249.364 233.688 250.061V250.267C233.688 250.965 233.587 251.612 233.384 252.209C233.181 252.805 232.886 253.327 232.498 253.774C232.117 254.216 231.654 254.562 231.112 254.812C230.575 255.057 229.966 255.179 229.286 255.179C228.606 255.179 227.995 255.057 227.452 254.812C226.91 254.562 226.444 254.216 226.057 253.774C225.675 253.327 225.383 252.805 225.18 252.209C224.977 251.612 224.876 250.965 224.876 250.267ZM226.531 250.061V250.267C226.531 250.75 226.588 251.207 226.701 251.636C226.814 252.06 226.984 252.435 227.211 252.763C227.443 253.091 227.733 253.351 228.079 253.542C228.425 253.727 228.827 253.819 229.286 253.819C229.74 253.819 230.136 253.727 230.476 253.542C230.822 253.351 231.109 253.091 231.335 252.763C231.562 252.435 231.732 252.06 231.845 251.636C231.964 251.207 232.024 250.75 232.024 250.267V250.061C232.024 249.584 231.964 249.134 231.845 248.711C231.732 248.281 231.559 247.902 231.326 247.574C231.1 247.24 230.813 246.978 230.467 246.787C230.127 246.596 229.728 246.501 229.269 246.501C228.815 246.501 228.416 246.596 228.07 246.787C227.73 246.978 227.443 247.24 227.211 247.574C226.984 247.902 226.814 248.281 226.701 248.711C226.588 249.134 226.531 249.584 226.531 250.061ZM235.808 245.32H237.473V256.154C237.473 256.745 237.377 257.246 237.186 257.657C237.001 258.069 236.721 258.379 236.345 258.588C235.975 258.802 235.507 258.91 234.941 258.91C234.792 258.91 234.619 258.895 234.422 258.865C234.219 258.835 234.049 258.799 233.912 258.758L233.921 257.425C234.034 257.448 234.162 257.466 234.305 257.478C234.449 257.496 234.574 257.505 234.681 257.505C234.926 257.505 235.132 257.46 235.299 257.371C235.466 257.281 235.591 257.138 235.674 256.941C235.764 256.745 235.808 256.482 235.808 256.154V245.32ZM235.639 242.752C235.639 242.484 235.722 242.257 235.889 242.072C236.056 241.887 236.298 241.795 236.614 241.795C236.936 241.795 237.18 241.887 237.347 242.072C237.514 242.257 237.598 242.484 237.598 242.752C237.598 243.009 237.514 243.229 237.347 243.414C237.18 243.593 236.936 243.683 236.614 243.683C236.298 243.683 236.056 243.593 235.889 243.414C235.722 243.229 235.639 243.009 235.639 242.752ZM244.165 255.179C243.491 255.179 242.879 255.066 242.331 254.839C241.788 254.606 241.32 254.281 240.926 253.864C240.538 253.446 240.24 252.951 240.031 252.379C239.823 251.806 239.718 251.18 239.718 250.5V250.124C239.718 249.337 239.834 248.636 240.067 248.022C240.3 247.401 240.616 246.877 241.015 246.447C241.415 246.018 241.868 245.693 242.375 245.472C242.882 245.251 243.407 245.141 243.95 245.141C244.642 245.141 245.238 245.26 245.739 245.499C246.246 245.737 246.661 246.071 246.983 246.501C247.305 246.924 247.543 247.425 247.698 248.004C247.854 248.576 247.931 249.203 247.931 249.883V250.625H240.702V249.274H246.276V249.149C246.252 248.72 246.163 248.302 246.008 247.896C245.858 247.491 245.62 247.157 245.292 246.894C244.964 246.632 244.516 246.501 243.95 246.501C243.574 246.501 243.228 246.581 242.912 246.742C242.596 246.897 242.325 247.13 242.098 247.44C241.871 247.75 241.695 248.129 241.57 248.576C241.445 249.024 241.382 249.54 241.382 250.124V250.5C241.382 250.959 241.445 251.392 241.57 251.797C241.701 252.197 241.889 252.549 242.134 252.853C242.384 253.157 242.685 253.396 243.037 253.569C243.395 253.742 243.801 253.828 244.254 253.828C244.839 253.828 245.334 253.709 245.739 253.47C246.145 253.232 246.5 252.912 246.804 252.513L247.806 253.309C247.597 253.625 247.332 253.926 247.01 254.213C246.688 254.499 246.291 254.732 245.82 254.911C245.354 255.089 244.803 255.179 244.165 255.179ZM253.737 253.819C254.131 253.819 254.495 253.739 254.829 253.577C255.163 253.416 255.437 253.196 255.652 252.915C255.867 252.629 255.989 252.304 256.019 251.94H257.593C257.564 252.513 257.37 253.047 257.012 253.542C256.66 254.031 256.198 254.427 255.625 254.732C255.053 255.03 254.423 255.179 253.737 255.179C253.01 255.179 252.375 255.051 251.832 254.794C251.295 254.538 250.848 254.186 250.49 253.739C250.138 253.291 249.872 252.778 249.694 252.2C249.521 251.615 249.434 250.998 249.434 250.348V249.972C249.434 249.322 249.521 248.708 249.694 248.129C249.872 247.545 250.138 247.029 250.49 246.581C250.848 246.134 251.295 245.782 251.832 245.526C252.375 245.269 253.01 245.141 253.737 245.141C254.495 245.141 255.157 245.296 255.724 245.606C256.29 245.91 256.735 246.328 257.057 246.859C257.385 247.383 257.564 247.98 257.593 248.648H256.019C255.989 248.248 255.876 247.887 255.679 247.565C255.488 247.243 255.226 246.987 254.892 246.796C254.563 246.599 254.179 246.501 253.737 246.501C253.23 246.501 252.804 246.602 252.458 246.805C252.118 247.002 251.847 247.27 251.644 247.61C251.447 247.944 251.304 248.317 251.214 248.728C251.131 249.134 251.089 249.549 251.089 249.972V250.348C251.089 250.771 251.131 251.189 251.214 251.6C251.298 252.012 251.438 252.385 251.635 252.719C251.838 253.053 252.109 253.321 252.449 253.524C252.795 253.721 253.224 253.819 253.737 253.819ZM263.507 245.32V246.59H258.273V245.32H263.507ZM260.045 242.967H261.7V252.602C261.7 252.93 261.751 253.178 261.852 253.345C261.953 253.512 262.085 253.622 262.246 253.676C262.407 253.73 262.58 253.756 262.765 253.756C262.902 253.756 263.045 253.744 263.194 253.721C263.349 253.691 263.465 253.667 263.543 253.649L263.552 255C263.421 255.042 263.248 255.081 263.033 255.116C262.824 255.158 262.571 255.179 262.272 255.179C261.867 255.179 261.494 255.098 261.154 254.937C260.814 254.776 260.543 254.508 260.34 254.132C260.143 253.75 260.045 253.238 260.045 252.593V242.967Z" fill="#718096"/>
<path d="M95.7784 228H93.9205V212.938H95.7471L103.92 224.66H104.087V212.938H105.945V228H104.118L95.9454 216.32H95.7784V228ZM114.18 228.198C110.976 228.198 108.993 225.986 108.993 222.374C108.993 218.752 110.976 216.55 114.18 216.55C117.384 216.55 119.368 218.752 119.368 222.374C119.368 225.986 117.384 228.198 114.18 228.198ZM114.18 226.58C116.309 226.58 117.51 225.036 117.51 222.374C117.51 219.702 116.309 218.168 114.18 218.168C112.051 218.168 110.85 219.702 110.85 222.374C110.85 225.036 112.051 226.58 114.18 226.58ZM128.448 212.938H134.137C136.986 212.938 138.959 214.942 138.959 217.813C138.959 220.631 136.945 222.625 134.116 222.625H130.327V228H128.448V212.938ZM130.327 214.608V220.955H133.646C135.786 220.955 137.028 219.806 137.028 217.813C137.028 215.746 135.828 214.608 133.646 214.608H130.327ZM141.809 228V216.748H143.52V218.418H143.687C144.021 217.322 145.316 216.55 146.808 216.55C147.1 216.55 147.476 216.571 147.706 216.602V218.397C147.56 218.356 146.913 218.293 146.558 218.293C144.846 218.293 143.604 219.441 143.604 221.028V228H141.809ZM154.261 228.198C151.056 228.198 149.073 225.986 149.073 222.374C149.073 218.752 151.056 216.55 154.261 216.55C157.465 216.55 159.448 218.752 159.448 222.374C159.448 225.986 157.465 228.198 154.261 228.198ZM154.261 226.58C156.39 226.58 157.59 225.036 157.59 222.374C157.59 219.702 156.39 218.168 154.261 218.168C152.131 218.168 150.931 219.702 150.931 222.374C150.931 225.036 152.131 226.58 154.261 226.58ZM164.103 216.748V228.553C164.103 230.87 163.018 231.862 160.659 231.862H160.346V230.328H160.617C161.891 230.328 162.308 229.827 162.308 228.585V216.748H164.103ZM163.206 214.462C162.517 214.462 161.953 213.899 161.953 213.21C161.953 212.521 162.517 211.957 163.206 211.957C163.895 211.957 164.458 212.521 164.458 213.21C164.458 213.899 163.895 214.462 163.206 214.462ZM172.015 218.136C170.22 218.136 168.967 219.452 168.832 221.445H175.032C174.99 219.452 173.8 218.136 172.015 218.136ZM174.979 225.088H176.775C176.232 227.019 174.499 228.198 172.036 228.198C168.915 228.198 166.963 225.944 166.963 222.385C166.963 218.846 168.946 216.55 172.036 216.55C175.073 216.55 176.921 218.71 176.921 222.207V222.896H168.832V222.979C168.926 225.203 170.168 226.612 172.078 226.612C173.529 226.612 174.51 226.079 174.979 225.088ZM189.049 220.193H187.233C186.941 219.076 185.949 218.168 184.332 218.168C182.307 218.168 181.033 219.786 181.033 222.332C181.033 224.931 182.328 226.58 184.332 226.58C185.845 226.58 186.899 225.881 187.233 224.608H189.049C188.726 226.674 187.045 228.198 184.342 228.198C181.19 228.198 179.175 225.912 179.175 222.332C179.175 218.825 181.179 216.55 184.332 216.55C187.066 216.55 188.736 218.189 189.049 220.193ZM192.661 213.836H194.456V216.748H196.961V218.251H194.456V224.618C194.456 225.944 194.957 226.507 196.126 226.507C196.45 226.507 196.627 226.497 196.961 226.466V227.979C196.606 228.042 196.262 228.084 195.907 228.084C193.59 228.084 192.661 227.228 192.661 225.077V218.251H190.845V216.748H192.661V213.836ZM204.852 216.873C204.967 214.619 206.47 212.824 209.403 212.824C212.033 212.824 213.828 214.452 213.828 216.602C213.828 218.241 212.983 219.399 211.647 220.203C210.321 220.986 209.946 221.57 209.946 222.666V223.345H208.119V222.385C208.109 221.007 208.777 220.067 210.207 219.211C211.417 218.47 211.887 217.813 211.887 216.696C211.887 215.402 210.885 214.452 209.33 214.452C207.754 214.452 206.752 215.381 206.637 216.873H204.852ZM209.173 228.188C208.328 228.188 207.722 227.582 207.722 226.737C207.722 225.881 208.328 225.276 209.173 225.276C210.019 225.276 210.614 225.881 210.614 226.737C210.614 227.582 210.019 228.188 209.173 228.188Z" fill="#2D3748"/>
<g filter="url(#filter0_d_697_17618)">
<path d="M281.204 107.625L231.318 171.065C230.566 172.016 229.186 172.182 228.229 171.436L169.054 125.062C168.102 124.311 167.936 122.933 168.682 121.978L227.215 47.536C227.968 46.585 229.348 46.4191 230.305 47.1648L278.453 84.8984L279.335 92.2105L280.279 100.024L281.204 107.625Z" fill="black"/>
</g>
<path d="M281.204 107.625L231.318 171.065C230.566 172.016 229.186 172.182 228.229 171.436L169.054 125.062C168.102 124.311 167.936 122.933 168.682 121.978L227.215 47.536C227.968 46.585 229.348 46.4191 230.305 47.1648L278.453 84.8984L279.335 92.2105L280.279 100.024L281.204 107.625Z" fill="white"/>
<path d="M270.516 98.6121C270.564 99.009 269.692 100.838 281.359 110.827L282.731 109.161L270.516 98.6121Z" fill="#CECECE"/>
<path d="M271.24 95.8636C270.083 97.3514 270.34 99.5007 271.814 100.67L282.731 109.3L279.809 84.8704L271.24 95.8636Z" fill="#EDEDED"/>
<path d="M203.476 132.081C203.715 131.725 203.476 131.261 202.999 131.297C202.355 131.359 201.705 131.356 201.062 131.287L200.184 131.097C199.563 131.025 199.442 130.686 199.821 130.081C200.497 129.999 200.37 129.069 199.695 129.116C198.862 129.173 197.751 129.261 197.067 128.693C196.855 128.499 196.678 128.275 196.54 128.03C196.779 128.022 197.017 127.99 197.25 127.936C197.442 127.889 197.533 127.706 197.577 127.55C197.706 127.11 197.693 126.756 197.725 126.417C200.752 125.925 203.893 124.789 206.174 123.175C206.618 122.862 206.307 122.289 205.797 122.301C203.415 122.363 200.964 122.796 198.822 123.805C198.066 124.159 197.324 124.596 196.943 125.326C196.908 125.402 196.877 125.48 196.851 125.559C196.153 125.654 195.449 125.709 194.743 125.723C193.802 125.748 192.863 125.634 191.961 125.385C191.314 125.195 190.331 124.919 190.331 124.205C192.01 124.36 193.652 124.104 193.968 122.669C194.441 120.509 190.684 121.806 189.531 123.138C188.754 123.004 187.993 122.801 187.26 122.531C186.63 122.305 186.222 123.201 186.854 123.428C187.6 123.687 188.367 123.892 189.148 124.039C188.911 126.363 193.435 126.744 195.099 126.691C195.594 126.674 196.104 126.635 196.618 126.577C196.557 127.146 196.618 127.087 195.716 127.075C195.258 127.075 194.961 127.471 195.219 127.846C195.696 128.537 196.089 129.378 196.897 129.781C197.151 129.901 197.424 129.987 197.705 130.034C197.637 130.152 197.626 130.291 197.674 130.417C198.317 131.896 200.269 132.271 201.947 132.298C200.776 133.427 199.203 134.127 197.516 134.271C194.949 134.457 193.083 132.807 191.432 131.228C190.968 130.783 190.116 131.356 190.584 131.805C192.385 133.527 194.374 135.285 197.14 135.258C199.557 135.228 202.193 133.984 203.476 132.081ZM192.064 122.569C193.101 122.523 191.951 123.135 191.551 123.205C191.293 123.245 191.032 123.26 190.771 123.248C190.986 122.998 191.772 122.583 192.062 122.565L192.064 122.569ZM198.536 125.073C199.166 124.559 200.27 124.253 201.068 124.008C201.956 123.741 202.869 123.549 203.795 123.434C202.063 124.31 200.201 124.947 198.268 125.324C198.352 125.236 198.441 125.152 198.535 125.073H198.536Z" fill="#4684AF"/>
<path d="M240.958 70.8958L264.429 89.3191C265.34 90.0345 265.499 91.3531 264.784 92.2645C264.068 93.1758 262.75 93.3347 261.838 92.6193L238.368 74.196C237.456 73.4807 237.298 72.162 238.013 71.2507C238.728 70.3394 240.047 70.1805 240.958 70.8958Z" fill="#E1E9EE"/>
<path d="M264.82 109.243L220.229 73.0063C220.116 72.9139 220.096 72.7442 220.184 72.6265L222.4 69.7048C222.49 69.5877 222.654 69.5672 222.767 69.6588L267.363 105.891C267.476 105.984 267.495 106.153 267.406 106.271L265.19 109.194C265.148 109.252 265.085 109.289 265.015 109.298C264.946 109.307 264.876 109.288 264.82 109.243Z" fill="#E1E9EE"/>
<path d="M260.242 116.876L215.648 80.6408C215.535 80.5484 215.515 80.3788 215.604 80.261L217.82 77.3396C217.909 77.2225 218.073 77.2019 218.187 77.2936L262.782 113.532C262.895 113.624 262.915 113.794 262.826 113.912L260.61 116.835C260.519 116.95 260.355 116.969 260.242 116.876Z" fill="#E1E9EE"/>
<path d="M254.137 122.986L209.541 86.748C209.428 86.6561 209.408 86.4869 209.496 86.3696L211.714 83.4465C211.803 83.3294 211.967 83.3089 212.081 83.4005L256.674 119.638C256.729 119.682 256.764 119.747 256.772 119.818C256.781 119.889 256.761 119.96 256.718 120.017L254.502 122.94C254.413 123.056 254.25 123.076 254.137 122.986Z" fill="#E1E9EE"/>
<path d="M249.56 129.095L204.96 92.8573C204.847 92.7648 204.827 92.5952 204.915 92.4774L207.132 89.5542C207.221 89.4371 207.385 89.4165 207.499 89.5082L252.094 125.747C252.207 125.84 252.226 126.008 252.139 126.126L249.921 129.049C249.832 129.163 249.672 129.183 249.56 129.095Z" fill="#E1E9EE"/>
<path d="M244.974 138.254L200.379 102.017C200.266 101.925 200.246 101.755 200.335 101.637L202.551 98.7144C202.641 98.5978 202.805 98.5779 202.918 98.6699L247.514 134.905C247.627 134.998 247.646 135.168 247.557 135.285L245.341 138.207C245.252 138.324 245.088 138.346 244.974 138.254Z" fill="#E1E9EE"/>
<path d="M240.394 142.834L195.798 106.598C195.685 106.505 195.666 106.335 195.755 106.218L197.971 103.296C198.06 103.179 198.224 103.158 198.338 103.25L242.933 139.486C243.046 139.579 243.066 139.749 242.977 139.866L240.761 142.789C240.671 142.906 240.507 142.926 240.394 142.834Z" fill="#E1E9EE"/>
<path d="M216.652 153.645C214.465 151.929 213.527 149.065 214.275 146.388C215.023 143.711 217.31 141.749 220.069 141.415C222.828 141.082 225.516 142.444 226.879 144.866C228.243 147.287 228.014 150.292 226.298 152.479C223.955 155.462 219.639 155.983 216.652 153.645ZM224.219 144.004C221.881 142.166 218.496 142.572 216.659 144.911C214.821 147.249 215.227 150.635 217.565 152.473C219.903 154.311 223.288 153.905 225.126 151.566C226.96 149.227 226.555 145.844 224.219 144.004Z" fill="#E1E9EE"/>
<g filter="url(#filter1_d_697_17618)">
<path d="M152.745 121.377L86.3585 167.244C86.1531 167.384 85.8758 167.329 85.737 167.121L30.8719 84.12C30.7342 83.9108 30.7884 83.6271 30.993 83.4861L97.384 37.6146C97.5887 37.474 97.8662 37.5294 98.004 37.7385L152.869 120.739C152.936 120.84 152.961 120.965 152.938 121.085C152.914 121.205 152.845 121.31 152.745 121.377Z" fill="black"/>
</g>
<path d="M152.745 121.377L86.3585 167.244C86.1531 167.384 85.8758 167.329 85.737 167.121L30.8719 84.12C30.7342 83.9108 30.7884 83.6271 30.993 83.4861L97.384 37.6146C97.5887 37.474 97.8662 37.5294 98.004 37.7385L152.869 120.739C152.936 120.84 152.961 120.965 152.938 121.085C152.914 121.205 152.845 121.31 152.745 121.377Z" fill="white"/>
<path d="M67.3133 72.2167L45.7153 87.8711C45.5814 87.9677 45.4 87.93 45.3093 87.7868L43.0606 84.2186C42.9706 84.075 43.0057 83.8803 43.1393 83.7831L64.7372 68.1287C64.8711 68.0321 65.0526 68.0698 65.1432 68.213L67.3905 71.7812C67.4808 71.9245 67.4463 72.119 67.3133 72.2167Z" fill="#E1E9EE"/>
<path d="M103.951 61.3192L50.3776 97.0357C50.2393 97.1265 50.0527 97.0908 49.9587 96.9557L47.6434 93.5686C47.5502 93.4327 47.5858 93.2481 47.723 93.1554L101.298 57.4404C101.364 57.3947 101.445 57.3773 101.524 57.3921C101.603 57.4069 101.672 57.4527 101.716 57.519L104.036 60.906C104.128 61.043 104.09 61.2279 103.951 61.3192Z" fill="#E1E9EE"/>
<path d="M110.061 70.4796L56.4903 106.194C56.4246 106.24 56.3431 106.257 56.2643 106.242C56.1856 106.227 56.1165 106.18 56.0729 106.114L53.7533 102.729C53.7066 102.664 53.6889 102.583 53.7042 102.505C53.7196 102.427 53.7666 102.358 53.8344 102.315L107.405 66.6011C107.471 66.5555 107.552 66.5383 107.631 66.5534C107.71 66.5685 107.779 66.6146 107.822 66.6811L110.142 70.0664C110.235 70.2027 110.199 70.3874 110.061 70.4796Z" fill="#E1E9EE"/>
<path d="M117.697 79.6388L64.1218 115.355C64.0562 115.401 63.9746 115.418 63.8959 115.403C63.8171 115.388 63.748 115.342 63.7045 115.275L61.3848 111.89C61.292 111.753 61.3282 111.569 61.4659 111.476L115.035 75.76C115.174 75.6684 115.361 75.7041 115.454 75.84L117.772 79.227C117.819 79.291 117.837 79.371 117.823 79.4486C117.809 79.5263 117.764 79.5949 117.697 79.6388Z" fill="#E1E9EE"/>
<path d="M122.277 87.2756L68.7061 122.991C68.568 123.083 68.3808 123.047 68.2873 122.911L65.9676 119.524C65.9215 119.46 65.9041 119.379 65.9194 119.302C65.9347 119.224 65.9814 119.156 66.0487 119.113L119.619 83.3969C119.685 83.3509 119.767 83.3335 119.846 83.3486C119.925 83.3637 119.994 83.4101 120.038 83.477L122.358 86.8624C122.45 86.9989 122.414 87.1829 122.277 87.2756Z" fill="#E1E9EE"/>
<path d="M128.386 96.5073L90.0357 122.991C89.8998 123.085 89.7158 123.048 89.6239 122.91L87.3431 119.46C87.2977 119.394 87.2806 119.313 87.2956 119.233C87.3107 119.154 87.3566 119.085 87.4228 119.041L125.773 92.5571C125.909 92.4638 126.093 92.5002 126.185 92.6386L128.465 96.0865C128.557 96.2253 128.521 96.4134 128.386 96.5073Z" fill="#E1E9EE"/>
<path d="M134.49 105.593L80.919 141.314C80.7813 141.406 80.5941 141.371 80.5002 141.236L78.1805 137.848C78.0876 137.712 78.1239 137.527 78.2616 137.435L131.833 101.717C131.971 101.626 132.158 101.662 132.252 101.797L134.571 105.184C134.617 105.248 134.633 105.328 134.618 105.405C134.603 105.482 134.557 105.55 134.49 105.593Z" fill="#E1E9EE"/>
<path d="M140.599 114.756L87.0278 150.476C86.8896 150.567 86.7024 150.532 86.609 150.396L84.2907 147.01C84.2444 146.945 84.2268 146.865 84.2418 146.787C84.2568 146.71 84.3032 146.641 84.3704 146.598L137.942 110.878C138.08 110.787 138.267 110.823 138.361 110.958L140.68 114.344C140.772 114.48 140.736 114.664 140.599 114.756Z" fill="#E1E9EE"/>
<g filter="url(#filter2_d_697_17618)">
<path d="M99.8458 123.034C99.5551 123.085 99.2778 122.892 99.2248 122.602L81.1909 22.2838C81.14 21.9934 81.3332 21.7163 81.6235 21.6634L163.295 7.00745C163.585 6.95739 163.862 7.14923 163.916 7.43825L181.949 107.758C182 108.048 181.808 108.326 181.517 108.378L99.8458 123.034Z" fill="black"/>
</g>
<path d="M99.8458 123.034C99.5551 123.085 99.2778 122.892 99.2248 122.602L81.1909 22.2838C81.14 21.9934 81.3332 21.7163 81.6235 21.6634L163.295 7.00745C163.585 6.95739 163.862 7.14923 163.916 7.43825L181.949 107.758C182 108.048 181.808 108.326 181.517 108.378L99.8458 123.034Z" fill="white"/>
<path d="M109.113 65.5413L118.968 63.7716L123.975 91.6557L114.12 93.4254L109.113 65.5413Z" fill="#E1E9EE"/>
<path d="M122.234 70.9424L132.089 69.1727L135.747 89.5407L125.892 91.3103L122.234 70.9424Z" fill="#E1E9EE"/>
<path d="M134.949 74.8789L144.805 73.1092L147.38 87.4536L137.525 89.2233L134.949 74.8789Z" fill="#E1E9EE"/>
<path d="M144.761 63.2271L154.616 61.4574L158.912 85.3834L149.057 87.153L144.761 63.2271Z" fill="#E1E9EE"/>
<path d="M132.886 32.1984L92.8001 39.0612C92.661 39.0826 92.5294 38.9942 92.5038 38.8621L91.8743 35.5246C91.8519 35.392 91.9446 35.2666 92.0832 35.2422L132.169 28.3794C132.308 28.358 132.44 28.4464 132.465 28.5785L133.093 31.9146C133.117 32.0472 133.024 32.1733 132.886 32.1984Z" fill="#E1E9EE"/>
<path d="M151.212 36.717L92.787 46.6956C92.6498 46.7166 92.52 46.6297 92.4948 46.4997L91.8741 43.2175C91.8527 43.0873 91.9438 42.9644 92.08 42.9397L150.505 32.9597C150.642 32.9394 150.771 33.0261 150.797 33.1556L151.416 36.4392C151.438 36.5692 151.348 36.6924 151.212 36.717Z" fill="#E1E9EE"/>
<path d="M161.903 41.3614L95.8421 52.8032C95.7048 52.8238 95.5752 52.7357 95.5492 52.604L94.9281 49.2647C94.9059 49.132 94.9976 49.0066 95.1347 48.9822L161.189 37.5404C161.326 37.5197 161.456 37.6078 161.482 37.7395L162.104 41.0774C162.127 41.2086 162.038 41.3337 161.903 41.3614Z" fill="#E1E9EE"/>
<path d="M106.313 100.819L149.374 93.0868C150.467 92.8904 151.513 93.6177 151.709 94.7111C151.905 95.8045 151.178 96.85 150.085 97.0464L107.024 104.779C105.931 104.975 104.885 104.248 104.689 103.154C104.493 102.061 105.22 101.015 106.313 100.819Z" fill="#E1E9EE"/>
<path d="M172.592 102.436L106.53 113.878C106.393 113.899 106.263 113.81 106.237 113.679L105.616 110.339C105.594 110.207 105.686 110.081 105.823 110.057L171.877 98.6151C172.014 98.5944 172.144 98.6825 172.17 98.8142L172.792 102.152C172.815 102.283 172.726 102.408 172.592 102.436Z" fill="#E1E9EE"/>
<path d="M131.352 56.432L97.3779 61.9647C97.2392 61.985 97.108 61.9011 97.0825 61.7758L96.4547 58.6111C96.4331 58.4855 96.5252 58.367 96.663 58.3432L130.645 52.8092C130.783 52.7897 130.914 52.8732 130.94 52.9981L131.567 56.1642C131.589 56.2917 131.493 56.4115 131.352 56.432Z" fill="#E1E9EE"/>
<path d="M163.424 50.6232L134.013 55.8567C133.876 55.8779 133.747 55.7875 133.721 55.6523L133.1 52.2252C133.077 52.0888 133.169 51.9595 133.307 51.9352L162.718 46.7018C162.855 46.6798 162.985 46.7706 163.01 46.9062L163.631 50.3318C163.654 50.4685 163.562 50.5982 163.424 50.6232Z" fill="#E1E9EE"/>
<path d="M136.81 26.0669L156.751 22.4862C157.844 22.2898 158.89 23.0171 159.086 24.1105C159.283 25.2039 158.555 26.2494 157.462 26.4458L137.522 30.0264C136.428 30.2228 135.383 29.4956 135.186 28.4022C134.99 27.3087 135.717 26.2632 136.81 26.0669Z" fill="#E1E9EE"/>
<g opacity="0.2">
<path opacity="0.2" d="M215.152 145.921L136.518 120.384C136.383 120.34 136.272 120.246 136.208 120.121C136.144 119.997 136.133 119.852 136.177 119.719L167.938 24.1573C168.031 23.8812 168.332 23.7309 168.612 23.8207L247.246 49.3576C247.525 49.4495 247.678 49.7469 247.587 50.0236L215.821 145.581C215.73 145.856 215.431 146.007 215.152 145.921Z" fill="#3D3D3D"/>
<path opacity="0.2" d="M209.21 54.0376L197.814 73.5298L176.252 80.702C179.482 90.1885 188.663 96.4255 198.781 96.0062C208.898 95.587 217.519 88.6122 219.934 78.8918C222.35 69.1713 217.979 59.0424 209.21 54.0376Z" fill="#3D3D3D"/>
<path opacity="0.2" d="M208.012 50.267C201.446 46.5169 193.42 46.2497 186.613 49.5545L196.624 69.7476L208.012 50.267Z" fill="#3D3D3D"/>
<path opacity="0.2" d="M184.085 51.4744C173.813 56.4264 168.867 68.155 172.54 78.8526L194.102 71.6805L184.085 51.4744Z" fill="#3D3D3D"/>
<path opacity="0.2" d="M183.254 103.385L154.943 94.189C154.885 94.1714 154.837 94.1316 154.81 94.0787C154.782 94.0258 154.777 93.9641 154.796 93.9075L155.766 90.9853C155.785 90.9268 155.826 90.8783 155.882 90.8509C155.937 90.8235 156.001 90.8196 156.06 90.8402L184.371 100.035C184.431 100.053 184.48 100.094 184.508 100.149C184.536 100.204 184.539 100.267 184.518 100.325L183.548 103.247C183.528 103.304 183.485 103.351 183.43 103.377C183.375 103.403 183.312 103.406 183.254 103.385Z" fill="#3D3D3D"/>
<path opacity="0.2" d="M195.975 114.61L152.819 100.594C152.761 100.576 152.713 100.536 152.686 100.483C152.658 100.429 152.653 100.368 152.672 100.311L153.642 97.3885C153.66 97.3298 153.702 97.281 153.757 97.2536C153.813 97.2261 153.877 97.2225 153.936 97.2434L197.092 111.26C197.211 111.298 197.277 111.425 197.239 111.543L196.267 114.465C196.249 114.523 196.208 114.572 196.153 114.599C196.097 114.627 196.033 114.631 195.975 114.61Z" fill="#3D3D3D"/>
<path opacity="0.2" d="M179.293 117.346L150.375 107.951C150.256 107.913 150.191 107.787 150.228 107.669L151.2 104.747C151.218 104.69 151.258 104.643 151.312 104.616C151.365 104.589 151.428 104.584 151.485 104.602L180.402 113.997C180.522 114.035 180.588 114.162 180.549 114.28L179.578 117.202C179.538 117.319 179.411 117.383 179.293 117.346Z" fill="#3D3D3D"/>
<path opacity="0.2" d="M201.229 112.608L214.141 116.801C215.061 117.1 215.564 118.088 215.265 119.008C215.264 119.012 215.263 119.016 215.262 119.02C214.954 119.946 213.956 120.45 213.028 120.148L200.117 115.955C199.197 115.656 198.693 114.668 198.992 113.748C198.993 113.744 198.994 113.74 198.996 113.737C199.303 112.81 200.301 112.306 201.229 112.608Z" fill="#3D3D3D"/>
<path opacity="0.2" d="M188.831 101.484L216.268 110.396C217.188 110.695 217.691 111.683 217.393 112.602C217.391 112.606 217.39 112.61 217.389 112.614C217.081 113.54 216.083 114.044 215.155 113.743L187.718 104.831C186.798 104.532 186.295 103.544 186.593 102.624C186.595 102.621 186.596 102.617 186.597 102.613C186.905 101.687 187.903 101.183 188.831 101.484Z" fill="#3D3D3D"/>
</g>
<g filter="url(#filter3_d_697_17618)">
<path d="M218.202 135.232L139.57 109.694C139.291 109.603 139.139 109.305 139.231 109.028L170.995 13.4698C171.088 13.1937 171.389 13.0434 171.669 13.1332L250.301 38.6704C250.58 38.7622 250.732 39.06 250.64 39.3364L218.875 134.895C218.782 135.171 218.482 135.322 218.202 135.232Z" fill="black"/>
</g>
<path d="M218.202 135.232L139.57 109.694C139.291 109.603 139.139 109.305 139.231 109.028L170.995 13.4698C171.088 13.1937 171.389 13.0434 171.669 13.1332L250.301 38.6704C250.58 38.7622 250.732 39.06 250.64 39.3364L218.875 134.895C218.782 135.171 218.482 135.322 218.202 135.232Z" fill="white"/>
<path d="M212.206 43.645L201.22 63.4905L180.43 70.794C183.544 80.4534 192.397 86.8042 202.152 86.3774C211.907 85.9506 220.219 78.8488 222.548 68.9513C224.876 59.0538 220.662 48.7405 212.206 43.645Z" fill="#E1E9EE"/>
<path opacity="0.490782" d="M210.968 40.8152C209.514 39.9747 207.977 39.2858 206.383 38.7594C200.345 36.7649 193.768 37.2253 188.064 40.0417L198.779 61.9675L210.968 40.8152Z" fill="#A3A7AE"/>
<path d="M188.006 42.1179C176.984 47.088 171.678 58.8625 175.619 69.6018L198.753 62.402L188.006 42.1179Z" fill="#E1E9EE"/>
<path d="M188.279 92.4918L159.218 83.5629C159.157 83.5452 159.107 83.5052 159.078 83.452C159.05 83.3988 159.046 83.3371 159.067 83.2811L160.065 80.4433C160.084 80.3866 160.126 80.3394 160.183 80.3129C160.24 80.2863 160.306 80.2825 160.366 80.3024L189.428 89.2313C189.488 89.2493 189.538 89.2894 189.567 89.3425C189.595 89.3956 189.599 89.4571 189.578 89.5131L188.581 92.3509C188.562 92.4079 188.519 92.4553 188.462 92.4819C188.405 92.5086 188.339 92.5121 188.279 92.4918Z" fill="#D4E8E8"/>
<path d="M200.539 104.707L157.686 91.1771C157.627 91.1596 157.578 91.1198 157.551 91.0669C157.523 91.0141 157.519 90.9527 157.54 90.897L158.505 88.0764C158.523 88.02 158.565 87.9732 158.62 87.9467C158.675 87.9203 158.739 87.9166 158.796 87.9364L201.65 101.467C201.707 101.484 201.754 101.522 201.782 101.573C201.809 101.624 201.814 101.684 201.795 101.738L200.832 104.559C200.816 104.617 200.775 104.666 200.719 104.694C200.664 104.723 200.598 104.727 200.539 104.707Z" fill="#D4E8E8"/>
<path d="M182.201 107.761L153.105 98.7748C153.047 98.758 152.999 98.7199 152.971 98.6693C152.944 98.6187 152.939 98.5597 152.958 98.5056L153.934 95.7105C153.952 95.6543 153.994 95.6077 154.05 95.5814C154.106 95.5552 154.171 95.5516 154.229 95.5717L183.325 104.557C183.445 104.593 183.512 104.714 183.473 104.827L182.497 107.622C182.478 107.678 182.437 107.725 182.381 107.751C182.325 107.778 182.26 107.781 182.201 107.761Z" fill="#D4E8E8"/>
<path d="M205.001 102.668L217.833 106.884C218.764 107.19 219.271 108.193 218.965 109.125C218.659 110.056 217.656 110.563 216.724 110.257L203.893 106.041C202.961 105.735 202.454 104.732 202.761 103.8C203.067 102.869 204.07 102.362 205.001 102.668Z" fill="#D4E8E8"/>
<path d="M220.377 103.182L189.751 92.9399C189.693 92.9212 189.644 92.8797 189.616 92.8245C189.589 92.7693 189.584 92.7051 189.603 92.6462L190.581 89.6128C190.62 89.4902 190.75 89.4227 190.87 89.4622L221.496 99.7039C221.554 99.7226 221.603 99.7641 221.631 99.8193C221.659 99.8745 221.663 99.9387 221.644 99.9976L220.666 103.031C220.627 103.154 220.498 103.221 220.377 103.182Z" fill="#D4E8E8"/>
<g filter="url(#filter4_d_697_17618)">
<path d="M220.129 87.1977V179.75C220.129 182.167 218.097 184.118 215.587 184.118H104.059C101.55 184.118 99.5054 182.167 99.5054 179.75V73.9831C99.5054 71.5659 101.553 69.6016 104.059 69.6016H129.113C130.671 69.5927 132.127 70.3758 132.981 71.6817L138.758 80.726C139.607 82.0385 141.065 82.8253 142.626 82.8119H215.592C218.096 82.8222 220.129 84.7805 220.129 87.1977Z" fill="black"/>
</g>
<path d="M220.129 87.1977V179.75C220.129 182.167 218.097 184.118 215.587 184.118H104.059C101.55 184.118 99.5054 182.167 99.5054 179.75V73.9831C99.5054 71.5659 101.553 69.6016 104.059 69.6016H129.113C130.671 69.5927 132.127 70.3758 132.981 71.6817L138.758 80.726C139.607 82.0385 141.065 82.8253 142.626 82.8119H215.592C218.096 82.8222 220.129 84.7805 220.129 87.1977Z" fill="url(#paint0_linear_697_17618)"/>
<path d="M220.129 87.1977V179.75C220.129 182.167 218.097 184.118 215.587 184.118H104.059C101.55 184.118 99.5054 182.167 99.5054 179.75V73.9831C99.5054 71.5659 101.553 69.6016 104.059 69.6016H129.113C130.671 69.5927 132.127 70.3758 132.981 71.6817L138.758 80.726C139.607 82.0385 141.065 82.8253 142.626 82.8119H215.592C218.096 82.8222 220.129 84.7805 220.129 87.1977Z" fill="#B6BEC2"/>
<path d="M210.128 84.8704H107.98C105.829 84.8704 104.086 86.6136 104.086 88.7639V178.697C104.086 180.848 105.829 182.591 107.98 182.591H210.128C212.278 182.591 214.022 180.848 214.022 178.697V88.7639C214.022 86.6136 212.278 84.8704 210.128 84.8704Z" fill="#EFEFEF"/>
<path d="M210.128 86.3975H107.98C105.829 86.3975 104.086 88.1407 104.086 90.291V180.224C104.086 182.375 105.829 184.118 107.98 184.118H210.128C212.278 184.118 214.022 182.375 214.022 180.224V90.291C214.022 88.1407 212.278 86.3975 210.128 86.3975Z" fill="white"/>
<path opacity="0.2" d="M220.129 89.4509V171.938L219.296 179.063C219.018 181.452 217.348 183.443 215.055 184.118H104.059C101.55 184.118 99.5054 182.157 99.5054 179.729V103.937H119.028C121.416 103.938 123.577 102.508 124.523 100.299L127.608 93.1004C128.544 90.8866 130.703 89.45 133.092 89.4509H220.129Z" fill="#3D3D3D"/>
<path d="M221.169 180.341C220.817 183.366 218.285 185.645 215.276 185.645H104.209C101.2 185.645 98.6673 183.366 98.3162 180.341L90.3847 112.133C90.1866 110.43 90.7175 108.722 91.8434 107.44C92.9694 106.158 94.583 105.425 96.2775 105.425H121.671C124.041 105.425 126.184 103.998 127.121 101.794L130.179 94.6091C131.116 92.4056 133.259 90.9783 135.629 90.9783H224.879C226.574 90.977 228.189 91.7097 229.316 92.9916C230.443 94.2735 230.975 95.982 230.776 97.6862L221.169 180.341Z" fill="#B6BEC2"/>
<defs>
<filter id="filter0_d_697_17618" x="137.677" y="40.5907" width="174.064" height="186.28" filterUnits="userSpaceOnUse" color-interpolation-filters="sRGB">
<feFlood flood-opacity="0" result="BackgroundImageFix"/>
<feColorMatrix in="SourceAlpha" type="matrix" values="0 0 0 0 0 0 0 0 0 0 0 0 0 0 0 0 0 0 127 0" result="hardAlpha"/>
<feOffset dy="24.4301"/>
<feGaussianBlur stdDeviation="15.2688"/>
<feColorMatrix type="matrix" values="0 0 0 0 0 0 0 0 0 0 0 0 0 0 0 0 0 0 0.093482 0"/>
<feBlend mode="normal" in2="BackgroundImageFix" result="effect1_dropShadow_697_17618"/>
<feBlend mode="normal" in="SourceGraphic" in2="effect1_dropShadow_697_17618" result="shape"/>
</filter>
<filter id="filter1_d_697_17618" x="0.258144" y="31.4293" width="183.226" height="190.86" filterUnits="userSpaceOnUse" color-interpolation-filters="sRGB">
<feFlood flood-opacity="0" result="BackgroundImageFix"/>
<feColorMatrix in="SourceAlpha" type="matrix" values="0 0 0 0 0 0 0 0 0 0 0 0 0 0 0 0 0 0 127 0" result="hardAlpha"/>
<feOffset dy="24.4301"/>
<feGaussianBlur stdDeviation="15.2688"/>
<feColorMatrix type="matrix" values="0 0 0 0 0 0 0 0 0 0 0 0 0 0 0 0 0 0 0.093482 0"/>
<feBlend mode="normal" in2="BackgroundImageFix" result="effect1_dropShadow_697_17618"/>
<feBlend mode="normal" in="SourceGraphic" in2="effect1_dropShadow_697_17618" result="shape"/>
</filter>
<filter id="filter2_d_697_17618" x="50.6451" y="0.891987" width="161.85" height="177.118" filterUnits="userSpaceOnUse" color-interpolation-filters="sRGB">
<feFlood flood-opacity="0" result="BackgroundImageFix"/>
<feColorMatrix in="SourceAlpha" type="matrix" values="0 0 0 0 0 0 0 0 0 0 0 0 0 0 0 0 0 0 127 0" result="hardAlpha"/>
<feOffset dy="24.4301"/>
<feGaussianBlur stdDeviation="15.2688"/>
<feColorMatrix type="matrix" values="0 0 0 0 0 0 0 0 0 0 0 0 0 0 0 0 0 0 0.093482 0"/>
<feBlend mode="normal" in2="BackgroundImageFix" result="effect1_dropShadow_697_17618"/>
<feBlend mode="normal" in="SourceGraphic" in2="effect1_dropShadow_697_17618" result="shape"/>
</filter>
<filter id="filter3_d_697_17618" x="108.667" y="6.99965" width="172.538" height="183.226" filterUnits="userSpaceOnUse" color-interpolation-filters="sRGB">
<feFlood flood-opacity="0" result="BackgroundImageFix"/>
<feColorMatrix in="SourceAlpha" type="matrix" values="0 0 0 0 0 0 0 0 0 0 0 0 0 0 0 0 0 0 127 0" result="hardAlpha"/>
<feOffset dy="24.4301"/>
<feGaussianBlur stdDeviation="15.2688"/>
<feColorMatrix type="matrix" values="0 0 0 0 0 0 0 0 0 0 0 0 0 0 0 0 0 0 0.093482 0"/>
<feBlend mode="normal" in2="BackgroundImageFix" result="effect1_dropShadow_697_17618"/>
<feBlend mode="normal" in="SourceGraphic" in2="effect1_dropShadow_697_17618" result="shape"/>
</filter>
<filter id="filter4_d_697_17618" x="68.9677" y="63.494" width="181.699" height="175.591" filterUnits="userSpaceOnUse" color-interpolation-filters="sRGB">
<feFlood flood-opacity="0" result="BackgroundImageFix"/>
<feColorMatrix in="SourceAlpha" type="matrix" values="0 0 0 0 0 0 0 0 0 0 0 0 0 0 0 0 0 0 127 0" result="hardAlpha"/>
<feOffset dy="24.4301"/>
<feGaussianBlur stdDeviation="15.2688"/>
<feColorMatrix type="matrix" values="0 0 0 0 0.258824 0 0 0 0 0.6 0 0 0 0 0.882353 0 0 0 0.3 0"/>
<feBlend mode="normal" in2="BackgroundImageFix" result="effect1_dropShadow_697_17618"/>
<feBlend mode="normal" in="SourceGraphic" in2="effect1_dropShadow_697_17618" result="shape"/>
</filter>
<linearGradient id="paint0_linear_697_17618" x1="159.817" y1="69.6016" x2="159.817" y2="184.118" gradientUnits="userSpaceOnUse">
<stop stop-color="#7A62E4"/>
<stop offset="1" stop-color="#656EE4"/>
</linearGradient>
</defs>
</svg>
