<svg width="40" height="40" viewBox="0 0 40 40" fill="none" xmlns="http://www.w3.org/2000/svg">
<g filter="url(#filter0_d_1_45726)">
<path d="M19.7766 5C11.6167 5 5 11.7828 5 20.1506C5 26.8445 9.2339 32.5235 15.1052 34.5268C15.8436 34.6671 16.1147 34.1982 16.1147 33.7981C16.1147 33.4367 16.101 32.2434 16.0946 30.9774C11.9838 31.8938 11.1164 29.1898 11.1164 29.1898C10.4441 27.4385 9.47564 26.973 9.47564 26.973C8.13497 26.0326 9.57671 26.052 9.57671 26.052C11.0606 26.1588 11.8419 27.6132 11.8419 27.6132C13.1599 29.9294 15.2987 29.2598 16.1419 28.8727C16.2746 27.8934 16.6574 27.2251 17.08 26.8468C13.7979 26.4636 10.3479 25.1645 10.3479 19.3593C10.3479 17.7051 10.9251 16.3536 11.8703 15.2926C11.7168 14.911 11.211 13.37 12.0133 11.2832C12.0133 11.2832 13.2543 10.8759 16.0781 12.8361C17.2568 12.5005 18.5207 12.3322 19.7766 12.3264C21.0323 12.3322 22.2975 12.5005 23.4782 12.8363C26.2986 10.8759 27.5378 11.2833 27.5378 11.2833C28.3421 13.37 27.8361 14.9111 27.6826 15.2926C28.6301 16.3536 29.2034 17.7051 29.2034 19.3593C29.2034 25.1784 25.7466 26.4597 22.4562 26.8346C22.9862 27.3049 23.4584 28.2268 23.4584 29.6404C23.4584 31.6675 23.4413 33.299 23.4413 33.7981C23.4413 34.2012 23.7073 34.6736 24.4563 34.5249C30.3243 32.5192 34.5529 26.8422 34.5529 20.1506C34.5529 11.783 27.937 5 19.7766 5ZM10.5344 26.5822C10.5019 26.6575 10.3863 26.6801 10.2811 26.6284C10.1738 26.5791 10.1137 26.4763 10.1484 26.4009C10.1802 26.3233 10.296 26.3018 10.4029 26.3538C10.5103 26.4032 10.5715 26.5068 10.5344 26.5822ZM11.2612 27.2472C11.1907 27.3143 11.0529 27.2831 10.9595 27.1772C10.8629 27.0716 10.8447 26.9304 10.9162 26.8624C10.9887 26.7954 11.1225 26.8268 11.2193 26.9324C11.3159 27.0393 11.3348 27.1795 11.2612 27.2472ZM11.7598 28.098C11.6692 28.1626 11.5211 28.1021 11.4297 27.9673C11.3391 27.8326 11.3391 27.6711 11.4316 27.6063C11.5234 27.5416 11.6692 27.5997 11.762 27.7335C11.8523 27.8705 11.8523 28.0321 11.7598 28.098ZM12.6031 29.0834C12.5221 29.1749 12.3497 29.1504 12.2233 29.0254C12.0942 28.9033 12.0581 28.73 12.1394 28.6383C12.2214 28.5465 12.3949 28.5724 12.5221 28.6963C12.6504 28.8181 12.6895 28.9928 12.6031 29.0834ZM13.693 29.416C13.6572 29.5348 13.4911 29.5887 13.3237 29.5382C13.1567 29.4863 13.0473 29.3473 13.0811 29.2274C13.1158 29.108 13.2826 29.0518 13.4512 29.1057C13.6182 29.1574 13.7277 29.2954 13.693 29.416ZM14.9333 29.5572C14.9375 29.682 14.7956 29.7856 14.6199 29.7879C14.4432 29.792 14.3003 29.6908 14.2984 29.5679C14.2984 29.4417 14.4371 29.3392 14.6137 29.3361C14.7895 29.3327 14.9333 29.4329 14.9333 29.5572ZM16.1518 29.5093C16.1729 29.6311 16.0509 29.7564 15.8764 29.7897C15.7048 29.8219 15.546 29.7466 15.5242 29.6257C15.503 29.5007 15.6272 29.3755 15.7985 29.3431C15.9733 29.312 16.1296 29.3854 16.1518 29.5093Z" fill="#161614"/>
</g>
<defs>
<filter id="filter0_d_1_45726" x="0.0745158" y="0.0745158" width="39.4037" height="39.4037" filterUnits="userSpaceOnUse" color-interpolation-filters="sRGB">
<feFlood flood-opacity="0" result="BackgroundImageFix"/>
<feColorMatrix in="SourceAlpha" type="matrix" values="0 0 0 0 0 0 0 0 0 0 0 0 0 0 0 0 0 0 127 0" result="hardAlpha"/>
<feOffset/>
<feGaussianBlur stdDeviation="2.46274"/>
<feComposite in2="hardAlpha" operator="out"/>
<feColorMatrix type="matrix" values="0 0 0 0 0 0 0 0 0 0 0 0 0 0 0 0 0 0 0.25 0"/>
<feBlend mode="normal" in2="BackgroundImageFix" result="effect1_dropShadow_1_45726"/>
<feBlend mode="normal" in="SourceGraphic" in2="effect1_dropShadow_1_45726" result="shape"/>
</filter>
</defs>
</svg>
