<svg width="15" height="15" viewBox="0 0 15 15" fill="none" xmlns="http://www.w3.org/2000/svg">
<path d="M6.86087 3.28788C6.86087 2.89319 6.53968 2.56864 6.14808 2.61785C5.26992 2.72819 4.42594 3.04142 3.68464 3.53674C2.74447 4.16494 2.0117 5.05783 1.57899 6.10249C1.14627 7.14714 1.03306 8.29666 1.25365 9.40566C1.47425 10.5147 2.01874 11.5333 2.81829 12.3329C3.61784 13.1324 4.63652 13.6769 5.74553 13.8975C6.85453 14.1181 8.00404 14.0049 9.0487 13.5722C10.0934 13.1395 10.9862 12.4067 11.6144 11.4666C12.1098 10.7252 12.423 9.88126 12.5333 9.00311C12.5825 8.61151 12.258 8.29032 11.8633 8.29032H7.93282C7.3408 8.29032 6.86087 7.81039 6.86087 7.21836V3.28788Z" fill="#1C63ED" stroke="#1C63ED" stroke-width="1.07195"/>
<path d="M9.00489 1.85843C9.00489 1.46375 9.32644 1.13857 9.7171 1.19476C10.1291 1.25402 10.533 1.36459 10.9192 1.52459C11.5262 1.77598 12.0776 2.14446 12.5421 2.60898C13.0067 3.0735 13.3751 3.62496 13.6265 4.23189C13.7865 4.61814 13.8971 5.02205 13.9564 5.43403C14.0126 5.82469 13.6874 6.14624 13.2927 6.14624L9.14781 6.14624C9.06888 6.14624 9.00489 6.08225 9.00489 6.00331V1.85843Z" fill="#1C63ED" stroke="#1C63ED" stroke-width="1.07195"/>
</svg>
