<svg width="25" height="6" viewBox="0 0 25 6" fill="none" xmlns="http://www.w3.org/2000/svg">
<path d="M21.6628 0.131348C23.2837 0.131348 24.5956 1.38951 24.5956 2.94412C24.5956 4.49874 23.2852 5.75761 21.6628 5.75761C20.045 5.75761 18.7316 4.50087 18.7316 2.94412C18.7316 1.38951 20.045 0.131348 21.6628 0.131348ZM12.5978 0.131348C14.215 0.131348 15.5306 1.3888 15.5306 2.94341C15.5306 4.49803 14.2164 5.7569 12.5978 5.7569C10.9792 5.7569 9.66361 4.50016 9.66361 2.94341C9.66509 1.38951 10.9792 0.131348 12.5978 0.131348ZM3.83436 0.131348C5.45446 0.131348 6.76783 1.38951 6.76783 2.94483C6.76783 4.49803 5.45668 5.7569 3.83436 5.7569C2.21722 5.7569 0.903841 4.50016 0.903841 2.94483C0.903841 1.38951 2.21722 0.131348 3.83436 0.131348Z" fill="#324C5B"/>
</svg>
