<svg width="128" height="98" viewBox="0 0 128 98" fill="none" xmlns="http://www.w3.org/2000/svg">
<g filter="url(#filter0_d_1_46461)">
<path d="M115.376 44.1387L94.9806 70.0751C94.673 70.4639 94.1087 70.5317 93.7175 70.2269L69.5245 51.2676C69.1353 50.9605 69.0674 50.3973 69.3725 50.0067L93.303 19.5722C93.6106 19.1834 94.1749 19.1156 94.5661 19.4205L114.251 34.8473L114.611 37.8367L114.997 41.0313L115.376 44.1387Z" fill="black"/>
</g>
<path d="M115.376 44.1387L94.9806 70.0751C94.673 70.4639 94.1087 70.5317 93.7175 70.2269L69.5245 51.2676C69.1353 50.9605 69.0674 50.3973 69.3725 50.0067L93.303 19.5722C93.6106 19.1834 94.1749 19.1156 94.5661 19.4205L114.251 34.8473L114.611 37.8367L114.997 41.0313L115.376 44.1387Z" fill="white"/>
<path d="M111.006 40.4541C111.026 40.6164 110.669 41.3643 115.439 45.448L116 44.767L111.006 40.4541Z" fill="#CECECE"/>
<path d="M111.302 39.3301C110.829 39.9384 110.934 40.8171 111.537 41.2951L116 44.8236L114.805 34.8357L111.302 39.3301Z" fill="#EDEDED"/>
<path d="M83.5977 54.1371C83.6953 53.9918 83.5977 53.8017 83.4026 53.8168C83.1392 53.8422 82.8736 53.8407 82.6106 53.8124L82.2519 53.7347C81.9978 53.7052 81.9483 53.5668 82.1034 53.3194C82.3797 53.2859 82.3276 52.9058 82.0519 52.9248C81.7113 52.9483 81.2569 52.9841 80.9775 52.7522C80.8909 52.6726 80.8182 52.5811 80.7618 52.4811C80.8597 52.4775 80.957 52.4646 81.0521 52.4425C81.1308 52.4235 81.1678 52.3486 81.186 52.2849C81.2387 52.105 81.2332 51.9602 81.2466 51.8216C82.4839 51.6204 83.768 51.156 84.7005 50.4959C84.8823 50.3679 84.7551 50.1338 84.5466 50.1388C83.5729 50.1639 82.5706 50.3411 81.695 50.7536C81.3859 50.8983 81.0824 51.0772 80.9266 51.3756C80.9123 51.4067 80.8998 51.4384 80.8891 51.4706C80.6036 51.5095 80.3158 51.5319 80.0274 51.5377C79.6427 51.5482 79.2587 51.5015 78.89 51.3996C78.6252 51.322 78.2235 51.2091 78.2235 50.9173C78.91 50.9805 79.5814 50.876 79.7105 50.2891C79.9038 49.4061 78.3677 49.9365 77.8962 50.4808C77.5787 50.4264 77.2678 50.3433 76.9679 50.2327C76.7104 50.1405 76.5437 50.5065 76.8019 50.5993C77.1068 50.7056 77.4205 50.7891 77.7399 50.8491C77.6429 51.7992 79.4923 51.9552 80.1728 51.9334C80.3752 51.9267 80.5837 51.9105 80.7939 51.887C80.7691 52.1195 80.7939 52.0955 80.4249 52.0904C80.2377 52.0904 80.1165 52.2525 80.2219 52.4056C80.417 52.6884 80.5776 53.0322 80.9078 53.197C81.0119 53.246 81.1232 53.2809 81.2381 53.3004C81.2104 53.3487 81.2058 53.4054 81.2254 53.4569C81.4884 54.0616 82.2864 54.2148 82.9723 54.2259C82.4937 54.6873 81.8505 54.9737 81.1611 55.0324C80.1116 55.1084 79.3487 54.4338 78.6737 53.7883C78.484 53.6067 78.1356 53.8409 78.3271 54.0242C79.0633 54.7284 79.8765 55.4471 81.0072 55.4359C81.9955 55.4236 83.0729 54.915 83.5977 54.1371ZM78.9318 50.2483C79.356 50.2293 78.8858 50.4797 78.7222 50.5082C78.6169 50.5249 78.5101 50.5309 78.4034 50.5261C78.4913 50.4238 78.8124 50.2539 78.9312 50.2467L78.9318 50.2483ZM81.578 51.2722C81.8356 51.0621 82.287 50.9369 82.613 50.8368C82.9761 50.7274 83.3493 50.6488 83.728 50.6021C83.0198 50.9602 82.2585 51.2204 81.4684 51.3745C81.5027 51.3386 81.5391 51.3045 81.5774 51.2722H81.578Z" fill="#4684AF"/>
<path d="M98.9217 29.1226L108.517 36.6546C108.89 36.9471 108.955 37.4862 108.662 37.8588C108.37 38.2314 107.831 38.2963 107.458 38.0039L97.8626 30.4718C97.49 30.1793 97.4251 29.6402 97.7175 29.2676C98.01 28.8951 98.5491 28.8301 98.9217 29.1226Z" fill="#D2D4D8"/>
<path d="M108.677 44.7998L90.4468 29.985C90.4005 29.9472 90.3924 29.8778 90.4286 29.8297L91.3346 28.6352C91.3712 28.5874 91.4382 28.579 91.4847 28.6164L109.717 43.4294C109.763 43.4674 109.771 43.5367 109.735 43.5847L108.829 44.7798C108.811 44.8033 108.785 44.8187 108.757 44.8224C108.729 44.8262 108.7 44.818 108.677 44.7998Z" fill="#D2D4D8"/>
<path d="M106.805 47.921L88.574 33.1067C88.5277 33.0689 88.5196 32.9996 88.5558 32.9514L89.4619 31.7571C89.4984 31.7092 89.5654 31.7008 89.6119 31.7382L107.844 46.5537C107.89 46.5915 107.898 46.6609 107.862 46.709L106.956 47.904C106.919 47.9514 106.852 47.9589 106.805 47.921Z" fill="#D2D4D8"/>
<path d="M104.31 50.4186L86.0771 35.6034C86.0309 35.5658 86.0228 35.4967 86.0589 35.4487L86.9656 34.2536C87.0021 34.2058 87.0691 34.1974 87.1157 34.2348L105.347 49.05C105.369 49.068 105.384 49.0944 105.387 49.1235C105.391 49.1525 105.383 49.1818 105.365 49.2047L104.459 50.3998C104.423 50.4473 104.356 50.4557 104.31 50.4186Z" fill="#D2D4D8"/>
<path d="M102.438 52.9161L84.2044 38.1009C84.1581 38.0631 84.15 37.9937 84.1862 37.9456L85.0923 36.7505C85.1289 36.7026 85.1959 36.6942 85.2424 36.7317L103.475 51.5474C103.52 51.5852 103.529 51.6541 103.493 51.7021L102.586 52.8973C102.55 52.9439 102.484 52.9522 102.438 52.9161Z" fill="#D2D4D8"/>
<path d="M100.563 56.6612L82.3316 41.8463C82.2853 41.8085 82.2772 41.7391 82.3134 41.691L83.2195 40.4959C83.2562 40.4483 83.3231 40.4401 83.3695 40.4777L101.602 55.2921C101.648 55.3301 101.656 55.3994 101.619 55.4474L100.713 56.6418C100.677 56.6899 100.61 56.6985 100.563 56.6612Z" fill="#D2D4D8"/>
<path d="M98.691 58.5333L80.4586 43.7186C80.4126 43.6807 80.4047 43.6113 80.4411 43.5633L81.3471 42.3689C81.3837 42.321 81.4507 42.3126 81.4972 42.3501L99.7289 57.1648C99.7752 57.2026 99.7833 57.2719 99.7471 57.32L98.841 58.5151C98.8043 58.5628 98.7374 58.5709 98.691 58.5333Z" fill="#D2D4D8"/>
<path d="M88.9846 62.9533C88.0907 62.2519 87.7072 61.081 88.013 59.9866C88.3187 58.8922 89.2535 58.0897 90.3815 57.9535C91.5094 57.8172 92.6084 58.3739 93.1659 59.3641C93.7234 60.3542 93.6297 61.5827 92.9284 62.4768C91.9701 63.6962 90.2056 63.9094 88.9846 62.9533ZM92.0784 59.0119C91.1225 58.2605 89.7386 58.4264 88.9873 59.3825C88.2361 60.3385 88.4019 61.7227 89.3578 62.4741C90.3137 63.2255 91.6976 63.0596 92.4489 62.1036C93.199 61.1472 93.0332 59.7639 92.0784 59.0119Z" fill="#D2D4D8"/>
<g filter="url(#filter1_d_1_46461)">
<path d="M62.8571 49.7608L35.716 68.5129C35.632 68.5701 35.5187 68.5475 35.4619 68.4623L13.0311 34.5287C12.9748 34.4431 12.997 34.3272 13.0806 34.2695L40.2236 15.5157C40.3073 15.4582 40.4207 15.4808 40.4771 15.5663L62.9078 49.4999C62.9353 49.5412 62.9454 49.5921 62.9359 49.6412C62.9264 49.6902 62.898 49.7333 62.8571 49.7608Z" fill="black"/>
</g>
<path d="M62.8571 49.7608L35.716 68.5129C35.632 68.5701 35.5187 68.5475 35.4619 68.4623L13.0311 34.5287C12.9748 34.4431 12.997 34.3272 13.0806 34.2695L40.2236 15.5157C40.3073 15.4582 40.4207 15.4808 40.4771 15.5663L62.9078 49.4999C62.9353 49.5412 62.9454 49.5921 62.9359 49.6412C62.9264 49.6902 62.898 49.7333 62.8571 49.7608Z" fill="white"/>
<path d="M27.9296 29.6629L19.0996 36.063C19.0449 36.1025 18.9707 36.0871 18.9336 36.0285L18.0143 34.5697C17.9775 34.511 17.9919 34.4314 18.0464 34.3917L26.8764 27.9916C26.9312 27.9521 27.0054 27.9675 27.0424 28.0261L27.9612 29.4849C27.9981 29.5434 27.984 29.623 27.9296 29.6629Z" fill="#D2D4D8"/>
<path d="M42.9086 25.207L21.0058 39.8091C20.9492 39.8463 20.8729 39.8317 20.8345 39.7764L19.8879 38.3917C19.8498 38.3361 19.8644 38.2607 19.9205 38.2228L41.8239 23.6212C41.8507 23.6025 41.884 23.5954 41.9162 23.6015C41.9484 23.6075 41.9767 23.6263 41.9946 23.6533L42.943 25.0381C42.9807 25.0941 42.9654 25.1697 42.9086 25.207Z" fill="#D2D4D8"/>
<path d="M45.4063 28.9518L23.5047 43.5531C23.4779 43.5717 23.4446 43.5788 23.4124 43.5726C23.3802 43.5664 23.3519 43.5476 23.3341 43.5204L22.3858 42.1364C22.3667 42.1099 22.3595 42.0768 22.3657 42.0449C22.372 42.013 22.3912 41.985 22.4189 41.9674L44.3205 27.3661C44.3473 27.3475 44.3806 27.3405 44.4128 27.3467C44.445 27.3528 44.4733 27.3717 44.4911 27.3988L45.4395 28.7829C45.4774 28.8386 45.4626 28.9141 45.4063 28.9518Z" fill="#D2D4D8"/>
<path d="M48.5284 32.6971L26.6249 47.2992C26.598 47.3178 26.5647 47.3249 26.5325 47.3187C26.5003 47.3125 26.472 47.2937 26.4542 47.2665L25.5059 45.8824C25.4679 45.8267 25.4828 45.7511 25.5391 45.7134L47.4402 31.1113C47.4966 31.0739 47.5732 31.0885 47.6114 31.144L48.5591 32.5288C48.5782 32.5549 48.5857 32.5876 48.5799 32.6194C48.5741 32.6511 48.5555 32.6792 48.5284 32.6971Z" fill="#D2D4D8"/>
<path d="M50.4004 35.8191L28.499 50.421C28.4425 50.4584 28.3659 50.4438 28.3277 50.3883L27.3794 49.0036C27.3605 48.9771 27.3534 48.9442 27.3596 48.9124C27.3659 48.8807 27.385 48.8528 27.4125 48.8352L49.314 34.2334C49.3409 34.2146 49.3744 34.2074 49.4067 34.2136C49.439 34.2198 49.4674 34.2387 49.4852 34.2661L50.4336 35.6502C50.4712 35.706 50.4564 35.7812 50.4004 35.8191Z" fill="#D2D4D8"/>
<path d="M52.8982 39.5936L37.2193 50.4212C37.1638 50.4594 37.0885 50.4445 37.051 50.3879L36.1185 48.9777C36.1 48.9507 36.093 48.9172 36.0991 48.8849C36.1053 48.8525 36.124 48.8241 36.1511 48.8062L51.83 37.9787C51.8855 37.9405 51.9607 37.9554 51.9983 38.012L52.9308 39.4216C52.9681 39.4783 52.9535 39.5553 52.8982 39.5936Z" fill="#D2D4D8"/>
<path d="M55.394 43.3078L33.4922 57.912C33.4359 57.9496 33.3594 57.9352 33.321 57.8799L32.3726 56.4951C32.3346 56.4393 32.3495 56.3638 32.4058 56.3261L54.3076 41.7232C54.3641 41.686 54.4404 41.7006 54.4788 41.7559L55.4272 43.1407C55.4456 43.1671 55.4525 43.1997 55.4463 43.2312C55.44 43.2626 55.4212 43.2903 55.394 43.3078Z" fill="#D2D4D8"/>
<path d="M57.8914 47.0546L35.9895 61.658C35.9331 61.6955 35.8565 61.6809 35.8183 61.6253L34.8705 60.2411C34.8516 60.2147 34.8444 60.1818 34.8505 60.15C34.8567 60.1183 34.8756 60.0904 34.9031 60.0727L56.805 45.4692C56.8615 45.4318 56.938 45.4464 56.9762 45.502L57.9246 46.8862C57.9622 46.9418 57.9474 47.0169 57.8914 47.0546Z" fill="#D2D4D8"/>
<g filter="url(#filter2_d_1_46461)">
<path d="M41.23 50.4391C41.1111 50.4599 40.9977 50.381 40.9761 50.2624L33.6032 9.24876C33.5824 9.13001 33.6614 9.01674 33.7801 8.99509L67.1702 3.00325C67.2888 2.98278 67.4019 3.06121 67.4241 3.17937L74.7964 44.1936C74.8176 44.3122 74.7388 44.4256 74.6201 44.4472L41.23 50.4391Z" fill="black"/>
</g>
<path d="M41.23 50.4391C41.1111 50.4599 40.9977 50.381 40.9761 50.2624L33.6032 9.24876C33.5824 9.13001 33.6614 9.01674 33.7801 8.99509L67.1702 3.00325C67.2888 2.98278 67.4019 3.06121 67.4241 3.17937L74.7964 44.1936C74.8176 44.3122 74.7388 44.4256 74.6201 44.4472L41.23 50.4391Z" fill="white"/>
<path d="M45.019 26.9336L49.0481 26.2101L51.0952 37.6101L47.0661 38.3336L45.019 26.9336Z" fill="#D2D4D8"/>
<path d="M50.3833 29.1418L54.4124 28.4183L55.9077 36.7455L51.8786 37.469L50.3833 29.1418Z" fill="#D2D4D8"/>
<path d="M55.5815 30.7512L59.6106 30.0277L60.6637 35.8922L56.6346 36.6157L55.5815 30.7512Z" fill="#D2D4D8"/>
<path d="M59.5928 25.9868L63.6219 25.2633L65.3784 35.0451L61.3493 35.7686L59.5928 25.9868Z" fill="#D2D4D8"/>
<path d="M54.738 13.3016L38.3496 16.1074C38.2927 16.1162 38.2389 16.08 38.2285 16.026L37.9711 14.6615C37.9619 14.6073 37.9998 14.556 38.0565 14.5461L54.4449 11.7403C54.5018 11.7316 54.5556 11.7677 54.566 11.8217L54.8228 13.1856C54.8324 13.2398 54.7947 13.2914 54.738 13.3016Z" fill="#D2D4D8"/>
<path d="M62.2302 15.1489L38.3442 19.2285C38.2881 19.2371 38.2351 19.2015 38.2248 19.1484L37.971 17.8065C37.9623 17.7533 37.9995 17.703 38.0552 17.6929L61.9412 13.6128C61.9972 13.6045 62.05 13.6399 62.0606 13.6928L62.3138 15.0353C62.3229 15.0884 62.2858 15.1388 62.2302 15.1489Z" fill="#D2D4D8"/>
<path d="M66.6012 17.0485L39.5931 21.7263C39.5369 21.7347 39.4839 21.6987 39.4733 21.6449L39.2194 20.2796C39.2103 20.2254 39.2478 20.1741 39.3038 20.1641L66.309 15.4863C66.3651 15.4779 66.4181 15.5139 66.4287 15.5678L66.6832 16.9324C66.6925 16.986 66.6563 17.0372 66.6012 17.0485Z" fill="#D2D4D8"/>
<path d="M43.8741 41.3566L61.4787 38.1954C61.9257 38.1151 62.3532 38.4124 62.4334 38.8595C62.5137 39.3065 62.2164 39.7339 61.7694 39.8142L44.1648 42.9754C43.7178 43.0557 43.2903 42.7584 43.21 42.3114C43.1298 41.8643 43.4271 41.4369 43.8741 41.3566Z" fill="#D2D4D8"/>
<path d="M70.9711 42.0175L43.9629 46.6953C43.9068 46.7037 43.8538 46.6677 43.8432 46.6139L43.5892 45.2486C43.5802 45.1944 43.6177 45.1431 43.6737 45.1331L70.6788 40.4553C70.735 40.4469 70.788 40.4829 70.7986 40.5368L71.0531 41.9014C71.0624 41.955 71.0262 42.0062 70.9711 42.0175Z" fill="#D2D4D8"/>
<path d="M54.111 23.2091L40.221 25.471C40.1643 25.4793 40.1107 25.445 40.1002 25.3938L39.8436 24.1C39.8347 24.0486 39.8724 24.0002 39.9287 23.9904L53.8217 21.728C53.8783 21.72 53.9318 21.7541 53.9425 21.8052L54.1986 23.0996C54.2076 23.1517 54.1685 23.2007 54.111 23.2091Z" fill="#D2D4D8"/>
<path d="M67.2233 20.8348L55.199 22.9744C55.1429 22.9831 55.0899 22.9461 55.0793 22.8909L54.8257 21.4897C54.8162 21.434 54.8539 21.3811 54.91 21.3712L66.9343 19.2316C66.9905 19.2226 67.0436 19.2597 67.054 19.3151L67.3076 20.7157C67.317 20.7715 67.2795 20.8246 67.2233 20.8348Z" fill="#D2D4D8"/>
<path d="M56.3426 10.7948L64.495 9.33094C64.942 9.25067 65.3695 9.54798 65.4497 9.995C65.53 10.442 65.2327 10.8695 64.7857 10.9498L56.6333 12.4137C56.1863 12.4939 55.7588 12.1966 55.6785 11.7496C55.5983 11.3026 55.8956 10.8751 56.3426 10.7948Z" fill="#D2D4D8"/>
<g opacity="0.2">
<path opacity="0.2" d="M88.3712 59.7958L56.2228 49.3554C56.1679 49.3377 56.1224 49.2991 56.0963 49.2481C56.0702 49.1972 56.0656 49.138 56.0836 49.0838L69.0686 10.0147C69.1066 9.90182 69.2296 9.84037 69.3441 9.87708L101.492 20.3175C101.607 20.355 101.669 20.4766 101.632 20.5898L88.6449 59.657C88.6074 59.7695 88.4855 59.8313 88.3712 59.7958Z" fill="#3D3D3D"/>
<path opacity="0.2" d="M85.9419 22.2312L81.2831 30.2003L72.4678 33.1325C73.7883 37.0109 77.5419 39.5608 81.6783 39.3894C85.8146 39.218 89.3391 36.3665 90.3266 32.3924C91.3141 28.4184 89.5272 24.2773 85.9419 22.2312Z" fill="#3D3D3D"/>
<path opacity="0.2" d="M85.4523 20.6892C82.7677 19.1561 79.4865 19.0468 76.7036 20.398L80.7965 28.6536L85.4523 20.6892Z" fill="#3D3D3D"/>
<path opacity="0.2" d="M75.6702 21.1833C71.4705 23.2079 69.4485 28.003 70.9502 32.3765L79.7655 29.4443L75.6702 21.1833Z" fill="#3D3D3D"/>
<path opacity="0.2" d="M75.3303 42.4057L63.7555 38.6459C63.732 38.6387 63.7124 38.6225 63.7011 38.6008C63.6898 38.5792 63.6878 38.554 63.6955 38.5308L64.0922 37.3361C64.0997 37.3122 64.1168 37.2924 64.1394 37.2812C64.1621 37.27 64.1884 37.2684 64.2122 37.2768L75.787 41.0359C75.8112 41.0432 75.8314 41.0601 75.8428 41.0825C75.8541 41.1049 75.8556 41.131 75.847 41.1546L75.4503 42.3493C75.442 42.3726 75.4247 42.3916 75.4021 42.4022C75.3796 42.4128 75.3537 42.414 75.3303 42.4057Z" fill="#3D3D3D"/>
<path opacity="0.2" d="M80.531 46.9947L62.8872 41.2644C62.8636 41.257 62.844 41.2407 62.8327 41.2189C62.8214 41.1972 62.8194 41.1719 62.8271 41.1487L63.2238 39.954C63.2312 39.93 63.2482 39.91 63.2709 39.8988C63.2936 39.8876 63.32 39.8861 63.3439 39.8947L80.9877 45.625C81.0363 45.6409 81.0631 45.6924 81.0477 45.7407L80.6504 46.9354C80.643 46.9593 80.6261 46.9791 80.6035 46.9903C80.581 47.0015 80.5548 47.0031 80.531 46.9947Z" fill="#3D3D3D"/>
<path opacity="0.2" d="M73.7109 48.1137L61.8883 44.2727C61.8397 44.2571 61.813 44.2057 61.8283 44.1576L62.2256 42.9629C62.233 42.9397 62.2495 42.9205 62.2713 42.9093C62.2932 42.8982 62.3186 42.8961 62.342 42.9036L74.1646 46.7446C74.2135 46.7601 74.2403 46.8119 74.2246 46.8602L73.8273 48.055C73.8113 48.1027 73.7594 48.1289 73.7109 48.1137Z" fill="#3D3D3D"/>
<path opacity="0.2" d="M82.6792 46.177L87.9579 47.8915C88.334 48.0137 88.5398 48.4176 88.4177 48.7937C88.4172 48.7953 88.4167 48.7968 88.4161 48.7984C88.2903 49.177 87.8825 49.3831 87.503 49.2599L82.2243 47.5453C81.8482 47.4232 81.6423 47.0193 81.7645 46.6431C81.765 46.6416 81.7655 46.64 81.766 46.6385C81.8919 46.2599 82.2997 46.0538 82.6792 46.177Z" fill="#3D3D3D"/>
<path opacity="0.2" d="M77.6102 41.6285L88.8275 45.2718C89.2036 45.394 89.4095 45.7979 89.2873 46.174C89.2868 46.1756 89.2863 46.1772 89.2858 46.1787C89.1599 46.5573 88.7521 46.7634 88.3726 46.6402L77.1554 42.9968C76.7793 42.8747 76.5734 42.4707 76.6956 42.0946C76.6961 42.0931 76.6966 42.0915 76.6971 42.0899C76.823 41.7113 77.2308 41.5052 77.6102 41.6285Z" fill="#3D3D3D"/>
</g>
<g filter="url(#filter3_d_1_46461)">
<path d="M89.6179 55.4251L57.4706 44.9846C57.3564 44.9471 57.2945 44.8253 57.332 44.7123L70.3184 5.64459C70.3564 5.5317 70.4794 5.47025 70.5938 5.50696L102.741 15.9475C102.855 15.985 102.917 16.1068 102.88 16.2198L89.8934 55.2875C89.8554 55.4004 89.7324 55.4618 89.6179 55.4251Z" fill="black"/>
</g>
<path d="M89.6179 55.4251L57.4706 44.9846C57.3564 44.9471 57.2945 44.8253 57.332 44.7123L70.3184 5.64459C70.3564 5.5317 70.4794 5.47025 70.5938 5.50696L102.741 15.9475C102.855 15.985 102.917 16.1068 102.88 16.2198L89.8934 55.2875C89.8554 55.4004 89.7324 55.4618 89.6179 55.4251Z" fill="white"/>
<path d="M87.1669 17.9817L82.6753 26.0952L74.1758 29.0812C75.4489 33.0302 79.0681 35.6267 83.0563 35.4522C87.0445 35.2777 90.4428 32.3742 91.3949 28.3278C92.3469 24.2813 90.6239 20.0649 87.1669 17.9817Z" fill="#D2D4D8"/>
<path opacity="0.490782" d="M86.6605 16.8252C86.066 16.4816 85.438 16.1999 84.7862 15.9847C82.3176 15.1693 79.6285 15.3575 77.2969 16.509L81.6774 25.473L86.6605 16.8252Z" fill="#1C63ED"/>
<path d="M77.273 17.3567C72.767 19.3886 70.5973 24.2025 72.2086 28.5931L81.6666 25.6495L77.273 17.3567Z" fill="#D2D4D8"/>
<path d="M77.3848 37.9517L65.5034 34.3013C65.4786 34.2941 65.458 34.2777 65.4464 34.256C65.4347 34.2342 65.4331 34.209 65.4418 34.1861L65.8496 33.0259C65.8573 33.0027 65.8748 32.9834 65.8981 32.9726C65.9214 32.9617 65.9483 32.9602 65.9728 32.9683L77.8542 36.6187C77.8789 36.6261 77.8994 36.6425 77.911 36.6642C77.9226 36.6859 77.9243 36.711 77.9158 36.734L77.508 37.8941C77.5004 37.9174 77.4829 37.9368 77.4596 37.9477C77.4363 37.9586 77.4092 37.9601 77.3848 37.9517Z" fill="#D4E8E8"/>
<path d="M82.3968 42.9456L64.877 37.4141C64.8529 37.4069 64.833 37.3906 64.8218 37.369C64.8105 37.3474 64.8089 37.3223 64.8174 37.2995L65.2119 36.1464C65.2193 36.1233 65.2363 36.1042 65.2588 36.0934C65.2812 36.0825 65.3073 36.081 65.331 36.0891L82.8509 41.6207C82.8742 41.6277 82.8937 41.6434 82.9049 41.6643C82.9161 41.6851 82.9181 41.7095 82.9105 41.7318L82.5166 42.885C82.5099 42.9088 82.4932 42.9289 82.4705 42.9404C82.4477 42.9519 82.421 42.9538 82.3968 42.9456Z" fill="#D4E8E8"/>
<path d="M74.8999 44.1945L63.0045 40.5206C62.9808 40.5137 62.9611 40.4982 62.9497 40.4775C62.9384 40.4568 62.9363 40.4327 62.9441 40.4105L63.3432 39.2678C63.3506 39.2449 63.3678 39.2258 63.3906 39.215C63.4135 39.2043 63.44 39.2029 63.464 39.2111L75.3594 42.8844C75.4086 42.8993 75.4356 42.9488 75.4198 42.995L75.0206 44.1377C75.0132 44.1607 74.9961 44.1798 74.9732 44.1905C74.9504 44.2013 74.9239 44.2027 74.8999 44.1945Z" fill="#D4E8E8"/>
<path d="M84.2213 42.1118L89.4672 43.8356C89.848 43.9607 90.0553 44.3709 89.9301 44.7517C89.805 45.1325 89.3948 45.3398 89.014 45.2146L83.7681 43.4909C83.3873 43.3658 83.18 42.9556 83.3052 42.5748C83.4303 42.194 83.8405 41.9867 84.2213 42.1118Z" fill="#D4E8E8"/>
<path d="M90.5074 42.3218L77.9863 38.1347C77.9626 38.127 77.9428 38.11 77.9314 38.0875C77.92 38.0649 77.918 38.0387 77.9258 38.0146L78.3259 36.7744C78.3418 36.7243 78.3947 36.6967 78.444 36.7129L90.965 40.9C90.9888 40.9077 91.0086 40.9246 91.02 40.9472C91.0313 40.9698 91.0334 40.996 91.0256 41.0201L90.6254 42.2602C90.6095 42.3104 90.5567 42.338 90.5074 42.3218Z" fill="#D4E8E8"/>
<g filter="url(#filter4_d_1_46461)">
<path d="M90.406 35.7877V73.6261C90.406 74.6143 89.575 75.412 88.5491 75.412H42.9524C41.9266 75.412 41.0908 74.6143 41.0908 73.6261V30.3851C41.0908 29.3969 41.9278 28.5938 42.9524 28.5938H53.1954C53.8323 28.5901 54.4275 28.9103 54.7766 29.4442L57.1386 33.1418C57.4856 33.6784 58.082 34.0001 58.7199 33.9946H88.5509C89.575 33.9988 90.406 34.7994 90.406 35.7877Z" fill="black"/>
</g>
<path d="M90.406 35.7877V73.6261C90.406 74.6143 89.575 75.412 88.5491 75.412H42.9524C41.9266 75.412 41.0908 74.6143 41.0908 73.6261V30.3851C41.0908 29.3969 41.9278 28.5938 42.9524 28.5938H53.1954C53.8323 28.5901 54.4275 28.9103 54.7766 29.4442L57.1386 33.1418C57.4856 33.6784 58.082 34.0001 58.7199 33.9946H88.5509C89.575 33.9988 90.406 34.7994 90.406 35.7877Z" fill="url(#paint0_linear_1_46461)"/>
<path d="M90.406 35.7877V73.6261C90.406 74.6143 89.575 75.412 88.5491 75.412H42.9524C41.9266 75.412 41.0908 74.6143 41.0908 73.6261V30.3851C41.0908 29.3969 41.9278 28.5938 42.9524 28.5938H53.1954C53.8323 28.5901 54.4275 28.9103 54.7766 29.4442L57.1386 33.1418C57.4856 33.6784 58.082 34.0001 58.7199 33.9946H88.5509C89.575 33.9988 90.406 34.7994 90.406 35.7877Z" fill="#1C63ED"/>
<path d="M86.3173 34.8357H44.5554C43.6763 34.8357 42.9636 35.5484 42.9636 36.4275V73.1954C42.9636 74.0745 43.6763 74.7872 44.5554 74.7872H86.3173C87.1964 74.7872 87.9091 74.0745 87.9091 73.1954V36.4275C87.9091 35.5484 87.1964 34.8357 86.3173 34.8357Z" fill="#EFEFEF"/>
<path d="M86.3173 35.46H44.5554C43.6763 35.46 42.9636 36.1726 42.9636 37.0518V73.8197C42.9636 74.6988 43.6763 75.4115 44.5554 75.4115H86.3173C87.1964 75.4115 87.9091 74.6988 87.9091 73.8197V37.0518C87.9091 36.1726 87.1964 35.46 86.3173 35.46Z" fill="white"/>
<path opacity="0.2" d="M90.406 36.7083V70.4317L90.0652 73.3448C89.9515 74.3217 89.2689 75.1354 88.3315 75.4113H42.9524C41.9266 75.4113 41.0908 74.6099 41.0908 73.617V42.6307H49.0723C50.0488 42.6311 50.932 42.0465 51.3189 41.1435L52.5803 38.2003C52.9629 37.2952 53.8454 36.7079 54.8221 36.7083H90.406Z" fill="#3D3D3D"/>
<path d="M90.8312 73.8679C90.6875 75.1044 89.6521 76.0363 88.4221 76.0363H43.0139C41.7838 76.0363 40.7483 75.1046 40.6048 73.8679L37.3621 45.982C37.2811 45.2856 37.4982 44.5874 37.9585 44.0634C38.4188 43.5394 39.0785 43.2396 39.7713 43.2396H50.153C51.122 43.2397 51.9981 42.6561 52.3813 41.7552L53.6312 38.8177C54.0144 37.9168 54.8905 37.3333 55.8595 37.3333H92.3482C93.0412 37.3327 93.7014 37.6323 94.1621 38.1564C94.6229 38.6804 94.8401 39.379 94.7591 40.0757L90.8312 73.8679Z" fill="#1C63ED"/>
<defs>
<filter id="filter0_d_1_46461" x="56.6968" y="16.7328" width="71.1635" height="76.1577" filterUnits="userSpaceOnUse" color-interpolation-filters="sRGB">
<feFlood flood-opacity="0" result="BackgroundImageFix"/>
<feColorMatrix in="SourceAlpha" type="matrix" values="0 0 0 0 0 0 0 0 0 0 0 0 0 0 0 0 0 0 127 0" result="hardAlpha"/>
<feOffset dy="9.98788"/>
<feGaussianBlur stdDeviation="6.24242"/>
<feColorMatrix type="matrix" values="0 0 0 0 0 0 0 0 0 0 0 0 0 0 0 0 0 0 0.093482 0"/>
<feBlend mode="normal" in2="BackgroundImageFix" result="effect1_dropShadow_1_46461"/>
<feBlend mode="normal" in="SourceGraphic" in2="effect1_dropShadow_1_46461" result="shape"/>
</filter>
<filter id="filter1_d_1_46461" x="0.515154" y="12.9869" width="74.9091" height="78.0302" filterUnits="userSpaceOnUse" color-interpolation-filters="sRGB">
<feFlood flood-opacity="0" result="BackgroundImageFix"/>
<feColorMatrix in="SourceAlpha" type="matrix" values="0 0 0 0 0 0 0 0 0 0 0 0 0 0 0 0 0 0 127 0" result="hardAlpha"/>
<feOffset dy="9.98788"/>
<feGaussianBlur stdDeviation="6.24242"/>
<feColorMatrix type="matrix" values="0 0 0 0 0 0 0 0 0 0 0 0 0 0 0 0 0 0 0.093482 0"/>
<feBlend mode="normal" in2="BackgroundImageFix" result="effect1_dropShadow_1_46461"/>
<feBlend mode="normal" in="SourceGraphic" in2="effect1_dropShadow_1_46461" result="shape"/>
</filter>
<filter id="filter2_d_1_46461" x="21.115" y="0.503032" width="66.1696" height="72.4121" filterUnits="userSpaceOnUse" color-interpolation-filters="sRGB">
<feFlood flood-opacity="0" result="BackgroundImageFix"/>
<feColorMatrix in="SourceAlpha" type="matrix" values="0 0 0 0 0 0 0 0 0 0 0 0 0 0 0 0 0 0 127 0" result="hardAlpha"/>
<feOffset dy="9.98788"/>
<feGaussianBlur stdDeviation="6.24242"/>
<feColorMatrix type="matrix" values="0 0 0 0 0 0 0 0 0 0 0 0 0 0 0 0 0 0 0.093482 0"/>
<feBlend mode="normal" in2="BackgroundImageFix" result="effect1_dropShadow_1_46461"/>
<feBlend mode="normal" in="SourceGraphic" in2="effect1_dropShadow_1_46461" result="shape"/>
</filter>
<filter id="filter3_d_1_46461" x="44.8362" y="2.99937" width="70.5393" height="74.9091" filterUnits="userSpaceOnUse" color-interpolation-filters="sRGB">
<feFlood flood-opacity="0" result="BackgroundImageFix"/>
<feColorMatrix in="SourceAlpha" type="matrix" values="0 0 0 0 0 0 0 0 0 0 0 0 0 0 0 0 0 0 127 0" result="hardAlpha"/>
<feOffset dy="9.98788"/>
<feGaussianBlur stdDeviation="6.24242"/>
<feColorMatrix type="matrix" values="0 0 0 0 0 0 0 0 0 0 0 0 0 0 0 0 0 0 0.093482 0"/>
<feBlend mode="normal" in2="BackgroundImageFix" result="effect1_dropShadow_1_46461"/>
<feBlend mode="normal" in="SourceGraphic" in2="effect1_dropShadow_1_46461" result="shape"/>
</filter>
<filter id="filter4_d_1_46461" x="28.606" y="26.0968" width="74.2849" height="71.7878" filterUnits="userSpaceOnUse" color-interpolation-filters="sRGB">
<feFlood flood-opacity="0" result="BackgroundImageFix"/>
<feColorMatrix in="SourceAlpha" type="matrix" values="0 0 0 0 0 0 0 0 0 0 0 0 0 0 0 0 0 0 127 0" result="hardAlpha"/>
<feOffset dy="9.98788"/>
<feGaussianBlur stdDeviation="6.24242"/>
<feColorMatrix type="matrix" values="0 0 0 0 0.258824 0 0 0 0 0.6 0 0 0 0 0.882353 0 0 0 0.3 0"/>
<feBlend mode="normal" in2="BackgroundImageFix" result="effect1_dropShadow_1_46461"/>
<feBlend mode="normal" in="SourceGraphic" in2="effect1_dropShadow_1_46461" result="shape"/>
</filter>
<linearGradient id="paint0_linear_1_46461" x1="65.7484" y1="28.5938" x2="65.7484" y2="75.412" gradientUnits="userSpaceOnUse">
<stop stop-color="#7A62E4"/>
<stop offset="1" stop-color="#656EE4"/>
</linearGradient>
</defs>
</svg>
