<svg width="24" height="24" viewBox="0 0 24 24" fill="none" xmlns="http://www.w3.org/2000/svg">
<path d="M11.9793 21.9941C17.3739 21.9941 21.7471 17.6209 21.7471 12.2263C21.7471 6.83169 17.3739 2.4585 11.9793 2.4585C6.58468 2.4585 2.21149 6.83169 2.21149 12.2263C2.21149 17.6209 6.58468 21.9941 11.9793 21.9941Z" fill="#00AC4F"/>
<path d="M11.241 15.4959C10.9596 15.4959 10.6783 15.3885 10.4639 15.1741L7.49305 12.2027C7.06376 11.7739 7.06376 11.0779 7.49305 10.6486C7.92186 10.2193 8.6183 10.2193 9.04711 10.6486L12.018 13.62C12.4473 14.0488 12.4473 14.7448 12.018 15.1741C11.8036 15.3885 11.5223 15.4959 11.241 15.4959Z" fill="#C2FFFF"/>
<path d="M11.2426 15.4946C10.9612 15.4946 10.6799 15.3871 10.4655 15.1727C10.0362 14.7439 10.0362 14.048 10.4655 13.6187L15.1243 8.95991C15.5531 8.53062 16.2495 8.53062 16.6783 8.95991C17.1076 9.38872 17.1076 10.0847 16.6783 10.514L12.0196 15.1727C11.8052 15.3871 11.5239 15.4946 11.2426 15.4946Z" fill="#C2FFFF"/>
<path d="M12.0196 13.62L11.2426 12.843L10.4655 13.62C10.0362 14.0493 10.0362 14.7453 10.4655 15.1741C10.6799 15.3885 10.9612 15.496 11.2426 15.496C11.5239 15.496 11.8052 15.3885 12.0196 15.1741C12.4489 14.7448 12.4489 14.0489 12.0196 13.62Z" fill="#7DEBF5"/>
</svg>
