<svg width="80" height="80" viewBox="0 0 80 80" fill="none" xmlns="http://www.w3.org/2000/svg">
<rect width="80" height="80" rx="12" fill="#1C63ED" fill-opacity="0.1"/>
<rect x="11" y="11" width="58.3333" height="58.3333" rx="29.1667" fill="#1C63ED" fill-opacity="0.15"/>
<path opacity="0.1" d="M34.3924 38.2631C38.6352 38.2631 42.0745 41.7024 42.0745 45.9452C42.0745 50.1879 38.6352 53.6272 34.3924 53.6272C30.1498 53.6272 26.7104 50.1879 26.7104 45.9452C26.7104 41.7024 30.1498 38.2631 34.3924 38.2631Z" fill="#D57C7C" stroke="#1C63ED" stroke-width="2.78409"/>
<path d="M40.9902 39.3439L55.0138 25.3203" stroke="#1C63ED" stroke-width="2.78409" stroke-linecap="round" stroke-linejoin="round"/>
<path d="M34.3924 36.8711C39.404 36.8711 43.4665 40.9336 43.4665 45.9452C43.4665 50.9567 39.404 55.0192 34.3924 55.0192C29.381 55.0192 25.3184 50.9567 25.3184 45.9452C25.3184 40.9336 29.381 36.8711 34.3924 36.8711Z" stroke="#1C63ED" stroke-width="2.78409"/>
<path d="M45.9414 34.3958L48.4162 36.8705C49.3274 37.7817 50.8046 37.7817 51.7158 36.8705L53.3656 35.2207C54.2769 34.3095 54.2769 32.8322 53.3656 31.921L50.8909 29.4463" stroke="#1C63ED" stroke-width="2.78409" stroke-linecap="round" stroke-linejoin="round"/>
</svg>
