<svg width="312" height="240" viewBox="0 0 312 240" fill="none" xmlns="http://www.w3.org/2000/svg">
<g filter="url(#filter0_d_299_16554)">
<path d="M281.204 107.625L231.318 171.065C230.566 172.016 229.186 172.182 228.229 171.436L169.054 125.062C168.102 124.311 167.936 122.933 168.682 121.978L227.215 47.536C227.967 46.585 229.348 46.4191 230.305 47.1648L278.453 84.8984L279.335 92.2105L280.279 100.024L281.204 107.625Z" fill="black"/>
</g>
<path d="M281.204 107.625L231.318 171.065C230.566 172.016 229.186 172.182 228.229 171.436L169.054 125.062C168.102 124.311 167.936 122.933 168.682 121.978L227.215 47.536C227.967 46.585 229.348 46.4191 230.305 47.1648L278.453 84.8984L279.335 92.2105L280.279 100.024L281.204 107.625Z" fill="white"/>
<path d="M270.516 98.6121C270.564 99.009 269.692 100.838 281.359 110.827L282.731 109.161L270.516 98.6121Z" fill="#CECECE"/>
<path d="M271.24 95.8636C270.083 97.3514 270.34 99.5007 271.814 100.67L282.731 109.3L279.809 84.8704L271.24 95.8636Z" fill="#EDEDED"/>
<path d="M203.476 132.081C203.715 131.725 203.476 131.261 202.999 131.297C202.355 131.359 201.705 131.356 201.062 131.287L200.184 131.097C199.563 131.025 199.442 130.686 199.821 130.081C200.497 129.999 200.37 129.069 199.695 129.116C198.862 129.173 197.751 129.261 197.067 128.693C196.855 128.499 196.678 128.275 196.54 128.03C196.779 128.022 197.017 127.99 197.25 127.936C197.442 127.889 197.533 127.706 197.577 127.55C197.706 127.11 197.693 126.756 197.725 126.417C200.752 125.925 203.893 124.789 206.174 123.175C206.618 122.862 206.307 122.289 205.797 122.301C203.415 122.363 200.964 122.796 198.822 123.805C198.066 124.159 197.324 124.596 196.943 125.326C196.908 125.402 196.877 125.48 196.851 125.559C196.153 125.654 195.449 125.709 194.743 125.723C193.802 125.748 192.863 125.634 191.961 125.385C191.314 125.195 190.331 124.919 190.331 124.205C192.01 124.36 193.652 124.104 193.968 122.669C194.441 120.509 190.684 121.806 189.531 123.138C188.754 123.004 187.993 122.801 187.26 122.531C186.63 122.305 186.222 123.201 186.854 123.428C187.6 123.687 188.367 123.892 189.148 124.039C188.911 126.363 193.435 126.744 195.099 126.691C195.594 126.674 196.104 126.635 196.618 126.577C196.557 127.146 196.618 127.087 195.716 127.075C195.258 127.075 194.961 127.471 195.219 127.846C195.696 128.537 196.089 129.378 196.897 129.781C197.151 129.901 197.424 129.987 197.705 130.034C197.637 130.152 197.626 130.291 197.674 130.417C198.317 131.896 200.269 132.271 201.947 132.298C200.776 133.427 199.203 134.127 197.516 134.271C194.949 134.457 193.083 132.807 191.432 131.228C190.968 130.783 190.116 131.356 190.584 131.805C192.385 133.527 194.374 135.285 197.14 135.258C199.557 135.228 202.193 133.984 203.476 132.081ZM192.064 122.569C193.101 122.523 191.951 123.135 191.551 123.205C191.293 123.245 191.032 123.26 190.771 123.248C190.986 122.998 191.772 122.583 192.062 122.565L192.064 122.569ZM198.536 125.073C199.166 124.559 200.27 124.253 201.068 124.008C201.956 123.741 202.869 123.549 203.795 123.434C202.063 124.31 200.201 124.947 198.268 125.324C198.352 125.236 198.441 125.152 198.535 125.073H198.536Z" fill="#4684AF"/>
<path d="M240.958 70.8958L264.429 89.3191C265.34 90.0345 265.499 91.3531 264.784 92.2645C264.069 93.1758 262.75 93.3347 261.839 92.6193L238.368 74.196C237.456 73.4807 237.298 72.162 238.013 71.2507C238.728 70.3394 240.047 70.1805 240.958 70.8958Z" fill="#D2D4D8"/>
<path d="M264.821 109.243L220.229 73.0063C220.116 72.9139 220.096 72.7442 220.184 72.6265L222.4 69.7048C222.49 69.5877 222.654 69.5672 222.767 69.6588L267.363 105.891C267.476 105.984 267.495 106.153 267.406 106.271L265.19 109.194C265.148 109.252 265.085 109.289 265.015 109.298C264.946 109.307 264.876 109.288 264.821 109.243Z" fill="#D2D4D8"/>
<path d="M260.242 116.876L215.648 80.6408C215.535 80.5484 215.515 80.3788 215.604 80.261L217.82 77.3396C217.909 77.2225 218.073 77.2019 218.187 77.2936L262.782 113.532C262.895 113.624 262.915 113.794 262.826 113.912L260.61 116.835C260.519 116.95 260.355 116.969 260.242 116.876Z" fill="#D2D4D8"/>
<path d="M254.137 122.986L209.54 86.748C209.428 86.6561 209.408 86.4869 209.496 86.3696L211.714 83.4465C211.803 83.3294 211.967 83.3089 212.081 83.4005L256.674 119.638C256.729 119.682 256.764 119.747 256.772 119.818C256.781 119.889 256.761 119.96 256.718 120.017L254.502 122.94C254.413 123.056 254.25 123.076 254.137 122.986Z" fill="#D2D4D8"/>
<path d="M249.56 129.095L204.96 92.8573C204.847 92.7648 204.827 92.5952 204.915 92.4774L207.132 89.5542C207.221 89.4371 207.385 89.4165 207.499 89.5082L252.094 125.747C252.207 125.84 252.226 126.008 252.139 126.126L249.921 129.049C249.832 129.163 249.672 129.183 249.56 129.095Z" fill="#D2D4D8"/>
<path d="M244.974 138.254L200.379 102.017C200.266 101.925 200.246 101.755 200.335 101.637L202.551 98.7144C202.641 98.5978 202.805 98.5779 202.918 98.6699L247.514 134.905C247.627 134.998 247.646 135.168 247.557 135.285L245.341 138.207C245.252 138.324 245.088 138.346 244.974 138.254Z" fill="#D2D4D8"/>
<path d="M240.394 142.834L195.798 106.598C195.685 106.505 195.666 106.335 195.755 106.218L197.971 103.296C198.06 103.179 198.224 103.158 198.338 103.25L242.932 139.486C243.046 139.579 243.065 139.749 242.977 139.866L240.761 142.789C240.671 142.906 240.507 142.926 240.394 142.834Z" fill="#D2D4D8"/>
<path d="M216.652 153.645C214.465 151.929 213.527 149.065 214.275 146.388C215.023 143.711 217.31 141.749 220.069 141.415C222.828 141.082 225.516 142.444 226.879 144.866C228.243 147.287 228.014 150.292 226.298 152.479C223.954 155.462 219.639 155.983 216.652 153.645ZM224.219 144.004C221.881 142.166 218.496 142.572 216.659 144.911C214.821 147.249 215.227 150.635 217.565 152.473C219.903 154.311 223.288 153.905 225.125 151.566C226.96 149.227 226.555 145.844 224.219 144.004Z" fill="#D2D4D8"/>
<g filter="url(#filter1_d_299_16554)">
<path d="M152.745 121.377L86.3584 167.244C86.153 167.384 85.8758 167.329 85.7369 167.121L30.8718 84.12C30.7342 83.9108 30.7884 83.6271 30.9929 83.4861L97.3839 37.6146C97.5886 37.474 97.8661 37.5294 98.0039 37.7385L152.869 120.739C152.936 120.84 152.961 120.965 152.938 121.085C152.914 121.205 152.845 121.31 152.745 121.377Z" fill="black"/>
</g>
<path d="M152.745 121.377L86.3584 167.244C86.153 167.384 85.8758 167.329 85.7369 167.121L30.8718 84.12C30.7342 83.9108 30.7884 83.6271 30.9929 83.4861L97.3839 37.6146C97.5886 37.474 97.8661 37.5294 98.0039 37.7385L152.869 120.739C152.936 120.84 152.961 120.965 152.938 121.085C152.914 121.205 152.845 121.31 152.745 121.377Z" fill="white"/>
<path d="M67.3133 72.2167L45.7154 87.8711C45.5815 87.9677 45.4 87.93 45.3094 87.7868L43.0607 84.2186C42.9706 84.075 43.0058 83.8803 43.1393 83.7831L64.7373 68.1287C64.8712 68.0321 65.0526 68.0698 65.1433 68.213L67.3905 71.7812C67.4809 71.9245 67.4464 72.119 67.3133 72.2167Z" fill="#D2D4D8"/>
<path d="M103.951 61.3192L50.3775 97.0357C50.2392 97.1265 50.0526 97.0908 49.9587 96.9557L47.6433 93.5686C47.5501 93.4327 47.5857 93.2481 47.7229 93.1554L101.298 57.4404C101.364 57.3947 101.445 57.3773 101.524 57.3921C101.603 57.4069 101.672 57.4527 101.716 57.519L104.035 60.906C104.128 61.043 104.09 61.2279 103.951 61.3192Z" fill="#D2D4D8"/>
<path d="M110.061 70.4796L56.4903 106.194C56.4247 106.24 56.3431 106.257 56.2644 106.242C56.1856 106.227 56.1165 106.18 56.073 106.114L53.7533 102.729C53.7067 102.664 53.6889 102.583 53.7043 102.505C53.7196 102.427 53.7666 102.358 53.8344 102.315L107.405 66.6011C107.471 66.5555 107.552 66.5383 107.631 66.5534C107.71 66.5685 107.779 66.6146 107.822 66.6811L110.142 70.0664C110.235 70.2027 110.199 70.3874 110.061 70.4796Z" fill="#D2D4D8"/>
<path d="M117.697 79.6388L64.1218 115.355C64.0561 115.401 63.9746 115.418 63.8958 115.403C63.8171 115.388 63.748 115.342 63.7044 115.275L61.3848 111.89C61.2919 111.753 61.3282 111.569 61.4659 111.476L115.035 75.76C115.174 75.6684 115.361 75.7041 115.454 75.84L117.772 79.227C117.819 79.291 117.837 79.371 117.823 79.4486C117.809 79.5263 117.764 79.5949 117.697 79.6388Z" fill="#D2D4D8"/>
<path d="M122.277 87.2756L68.7061 122.991C68.568 123.083 68.3807 123.047 68.2873 122.911L65.9676 119.524C65.9215 119.46 65.904 119.379 65.9193 119.302C65.9346 119.224 65.9814 119.156 66.0487 119.113L119.619 83.3969C119.685 83.3509 119.767 83.3335 119.846 83.3486C119.925 83.3637 119.994 83.4101 120.038 83.477L122.358 86.8624C122.45 86.9989 122.414 87.1829 122.277 87.2756Z" fill="#D2D4D8"/>
<path d="M128.386 96.5073L90.0356 122.991C89.8998 123.085 89.7158 123.048 89.6238 122.91L87.3431 119.46C87.2977 119.394 87.2805 119.313 87.2956 119.233C87.3106 119.154 87.3566 119.085 87.4228 119.041L125.773 92.5571C125.909 92.4638 126.093 92.5002 126.185 92.6386L128.465 96.0865C128.557 96.2253 128.521 96.4134 128.386 96.5073Z" fill="#D2D4D8"/>
<path d="M134.49 105.593L80.9189 141.314C80.7812 141.406 80.5941 141.371 80.5001 141.236L78.1804 137.848C78.0876 137.712 78.1238 137.527 78.2615 137.435L131.833 101.717C131.971 101.626 132.158 101.662 132.252 101.797L134.571 105.184C134.617 105.248 134.633 105.328 134.618 105.405C134.603 105.482 134.557 105.55 134.49 105.593Z" fill="#D2D4D8"/>
<path d="M140.599 114.756L87.0277 150.476C86.8896 150.567 86.7024 150.532 86.6089 150.396L84.2906 147.01C84.2444 146.945 84.2267 146.865 84.2417 146.787C84.2567 146.71 84.3032 146.641 84.3703 146.598L137.942 110.878C138.08 110.787 138.267 110.823 138.361 110.958L140.68 114.344C140.772 114.48 140.736 114.664 140.599 114.756Z" fill="#D2D4D8"/>
<g filter="url(#filter2_d_299_16554)">
<path d="M99.8458 123.034C99.5551 123.085 99.2778 122.892 99.2248 122.602L81.1909 22.2838C81.14 21.9934 81.3332 21.7163 81.6235 21.6634L163.295 7.00745C163.585 6.95739 163.862 7.14923 163.916 7.43825L181.949 107.758C182 108.048 181.808 108.326 181.517 108.378L99.8458 123.034Z" fill="black"/>
</g>
<path d="M99.8458 123.034C99.5551 123.085 99.2778 122.892 99.2248 122.602L81.1909 22.2838C81.14 21.9934 81.3332 21.7163 81.6235 21.6634L163.295 7.00745C163.585 6.95739 163.862 7.14923 163.916 7.43825L181.949 107.758C182 108.048 181.808 108.326 181.517 108.378L99.8458 123.034Z" fill="white"/>
<path d="M109.113 65.5413L118.968 63.7716L123.975 91.6557L114.12 93.4254L109.113 65.5413Z" fill="#D2D4D8"/>
<path d="M122.234 70.9424L132.089 69.1727L135.747 89.5407L125.892 91.3103L122.234 70.9424Z" fill="#D2D4D8"/>
<path d="M134.949 74.8789L144.805 73.1092L147.38 87.4536L137.525 89.2233L134.949 74.8789Z" fill="#D2D4D8"/>
<path d="M144.761 63.2271L154.616 61.4574L158.912 85.3834L149.057 87.153L144.761 63.2271Z" fill="#D2D4D8"/>
<path d="M132.886 32.1984L92.8001 39.0612C92.661 39.0826 92.5294 38.9942 92.5038 38.8621L91.8743 35.5246C91.8518 35.392 91.9446 35.2666 92.0832 35.2422L132.169 28.3794C132.308 28.358 132.44 28.4464 132.465 28.5785L133.093 31.9146C133.117 32.0472 133.024 32.1733 132.886 32.1984Z" fill="#D2D4D8"/>
<path d="M151.212 36.717L92.7869 46.6956C92.6498 46.7166 92.52 46.6297 92.4948 46.4997L91.8741 43.2175C91.8527 43.0873 91.9438 42.9644 92.08 42.9397L150.505 32.9597C150.642 32.9394 150.771 33.0261 150.797 33.1556L151.416 36.4392C151.438 36.5692 151.348 36.6924 151.212 36.717Z" fill="#D2D4D8"/>
<path d="M161.903 41.3614L95.8421 52.8032C95.7047 52.8238 95.5751 52.7357 95.5491 52.604L94.928 49.2647C94.9058 49.132 94.9975 49.0066 95.1346 48.9822L161.189 37.5404C161.326 37.5197 161.455 37.6078 161.481 37.7395L162.104 41.0774C162.127 41.2086 162.038 41.3337 161.903 41.3614Z" fill="#D2D4D8"/>
<path d="M106.313 100.819L149.374 93.0868C150.467 92.8904 151.512 93.6177 151.709 94.7111C151.905 95.8045 151.178 96.85 150.085 97.0464L107.024 104.779C105.931 104.975 104.885 104.248 104.689 103.154C104.492 102.061 105.22 101.015 106.313 100.819Z" fill="#D2D4D8"/>
<path d="M172.591 102.436L106.53 113.878C106.393 113.899 106.263 113.81 106.237 113.679L105.616 110.339C105.594 110.207 105.686 110.081 105.823 110.057L171.877 98.6151C172.014 98.5944 172.144 98.6825 172.17 98.8142L172.792 102.152C172.815 102.283 172.726 102.408 172.591 102.436Z" fill="#D2D4D8"/>
<path d="M131.352 56.432L97.3779 61.9647C97.2392 61.985 97.108 61.9011 97.0825 61.7758L96.4547 58.6111C96.4331 58.4855 96.5252 58.367 96.663 58.3432L130.645 52.8092C130.783 52.7897 130.914 52.8732 130.94 52.9981L131.567 56.1642C131.589 56.2917 131.493 56.4115 131.352 56.432Z" fill="#D2D4D8"/>
<path d="M163.424 50.6232L134.013 55.8567C133.876 55.8779 133.747 55.7875 133.721 55.6523L133.1 52.2252C133.077 52.0888 133.169 51.9595 133.307 51.9352L162.718 46.7018C162.855 46.6798 162.985 46.7706 163.01 46.9062L163.631 50.3318C163.654 50.4685 163.562 50.5982 163.424 50.6232Z" fill="#D2D4D8"/>
<path d="M136.81 26.0669L156.751 22.4862C157.844 22.2898 158.89 23.0171 159.086 24.1105C159.283 25.2039 158.555 26.2494 157.462 26.4458L137.521 30.0264C136.428 30.2228 135.383 29.4956 135.186 28.4022C134.99 27.3087 135.717 26.2632 136.81 26.0669Z" fill="#D2D4D8"/>
<g opacity="0.2">
<path opacity="0.2" d="M215.152 145.921L136.518 120.384C136.383 120.34 136.272 120.246 136.208 120.121C136.144 119.997 136.133 119.852 136.177 119.719L167.938 24.1573C168.031 23.8812 168.332 23.7309 168.612 23.8207L247.246 49.3576C247.525 49.4495 247.677 49.7469 247.587 50.0236L215.821 145.581C215.729 145.856 215.431 146.007 215.152 145.921Z" fill="#3D3D3D"/>
<path opacity="0.2" d="M209.21 54.0376L197.814 73.5299L176.252 80.702C179.482 90.1885 188.663 96.4255 198.781 96.0062C208.898 95.587 217.519 88.6122 219.934 78.8918C222.35 69.1713 217.979 59.0424 209.21 54.0376Z" fill="#3D3D3D"/>
<path opacity="0.2" d="M208.012 50.267C201.446 46.5169 193.42 46.2497 186.613 49.5545L196.624 69.7476L208.012 50.267Z" fill="#3D3D3D"/>
<path opacity="0.2" d="M184.085 51.4744C173.813 56.4264 168.867 68.155 172.54 78.8526L194.102 71.6805L184.085 51.4744Z" fill="#3D3D3D"/>
<path opacity="0.2" d="M183.254 103.385L154.943 94.189C154.885 94.1714 154.837 94.1316 154.81 94.0787C154.782 94.0258 154.777 93.9641 154.796 93.9075L155.766 90.9853C155.785 90.9268 155.826 90.8783 155.882 90.8509C155.937 90.8235 156.001 90.8196 156.06 90.8402L184.371 100.035C184.431 100.053 184.48 100.094 184.508 100.149C184.536 100.204 184.539 100.267 184.518 100.325L183.548 103.247C183.527 103.304 183.485 103.351 183.43 103.377C183.375 103.403 183.312 103.406 183.254 103.385Z" fill="#3D3D3D"/>
<path opacity="0.2" d="M195.975 114.61L152.819 100.594C152.761 100.576 152.713 100.536 152.685 100.483C152.658 100.429 152.653 100.368 152.672 100.311L153.642 97.3885C153.66 97.3298 153.702 97.281 153.757 97.2536C153.813 97.2261 153.877 97.2225 153.936 97.2434L197.092 111.26C197.211 111.298 197.277 111.425 197.239 111.543L196.267 114.465C196.249 114.523 196.208 114.572 196.153 114.599C196.097 114.627 196.033 114.631 195.975 114.61Z" fill="#3D3D3D"/>
<path opacity="0.2" d="M179.293 117.346L150.375 107.951C150.256 107.913 150.191 107.787 150.228 107.669L151.2 104.747C151.218 104.69 151.258 104.643 151.312 104.616C151.365 104.589 151.427 104.584 151.485 104.602L180.402 113.997C180.522 114.035 180.588 114.162 180.549 114.28L179.577 117.202C179.538 117.319 179.411 117.383 179.293 117.346Z" fill="#3D3D3D"/>
<path opacity="0.2" d="M201.229 112.608L214.141 116.801C215.06 117.1 215.564 118.088 215.265 119.008C215.264 119.012 215.263 119.016 215.261 119.02C214.954 119.946 213.956 120.45 213.028 120.148L200.116 115.955C199.196 115.656 198.693 114.668 198.992 113.748C198.993 113.744 198.994 113.74 198.995 113.737C199.303 112.81 200.301 112.306 201.229 112.608Z" fill="#3D3D3D"/>
<path opacity="0.2" d="M188.831 101.484L216.268 110.396C217.188 110.695 217.691 111.683 217.393 112.602C217.391 112.606 217.39 112.61 217.389 112.614C217.081 113.54 216.083 114.044 215.155 113.743L187.718 104.831C186.798 104.532 186.295 103.544 186.593 102.624C186.595 102.621 186.596 102.617 186.597 102.613C186.905 101.687 187.902 101.183 188.831 101.484Z" fill="#3D3D3D"/>
</g>
<g filter="url(#filter3_d_299_16554)">
<path d="M218.202 135.232L139.57 109.694C139.291 109.603 139.139 109.305 139.231 109.028L170.995 13.4698C171.088 13.1937 171.389 13.0434 171.669 13.1332L250.301 38.6704C250.58 38.7622 250.732 39.06 250.64 39.3364L218.875 134.895C218.783 135.171 218.482 135.322 218.202 135.232Z" fill="black"/>
</g>
<path d="M218.202 135.232L139.57 109.694C139.291 109.603 139.139 109.305 139.231 109.028L170.995 13.4698C171.088 13.1937 171.389 13.0434 171.669 13.1332L250.301 38.6704C250.58 38.7622 250.732 39.06 250.64 39.3364L218.875 134.895C218.783 135.171 218.482 135.322 218.202 135.232Z" fill="white"/>
<path d="M212.206 43.645L201.22 63.4905L180.43 70.794C183.544 80.4534 192.396 86.8042 202.152 86.3774C211.907 85.9506 220.219 78.8488 222.548 68.9513C224.876 59.0538 220.662 48.7405 212.206 43.645Z" fill="#D2D4D8"/>
<path opacity="0.490782" d="M210.968 40.8152C209.514 39.9747 207.978 39.2858 206.383 38.7594C200.345 36.7649 193.768 37.2253 188.065 40.0417L198.779 61.9675L210.968 40.8152Z" fill="#1C63ED"/>
<path d="M188.006 42.1179C176.985 47.088 171.678 58.8625 175.619 69.6018L198.753 62.402L188.006 42.1179Z" fill="#D2D4D8"/>
<path d="M188.279 92.4918L159.218 83.5629C159.157 83.5452 159.107 83.5052 159.078 83.452C159.05 83.3988 159.046 83.3371 159.067 83.2811L160.065 80.4433C160.084 80.3866 160.126 80.3394 160.183 80.3129C160.24 80.2863 160.306 80.2825 160.366 80.3024L189.428 89.2313C189.488 89.2493 189.538 89.2894 189.567 89.3425C189.595 89.3956 189.599 89.4571 189.578 89.5131L188.581 92.3509C188.562 92.4079 188.519 92.4553 188.462 92.4819C188.406 92.5086 188.339 92.5121 188.279 92.4918Z" fill="#D4E8E8"/>
<path d="M200.539 104.707L157.686 91.1771C157.627 91.1596 157.578 91.1198 157.551 91.0669C157.523 91.0141 157.519 90.9527 157.54 90.897L158.505 88.0764C158.523 88.02 158.565 87.9732 158.62 87.9467C158.675 87.9203 158.738 87.9166 158.796 87.9364L201.65 101.467C201.707 101.484 201.754 101.522 201.782 101.573C201.809 101.624 201.814 101.684 201.795 101.738L200.832 104.559C200.815 104.617 200.775 104.666 200.719 104.694C200.663 104.723 200.598 104.727 200.539 104.707Z" fill="#D4E8E8"/>
<path d="M182.201 107.761L153.105 98.7748C153.047 98.758 152.999 98.7199 152.971 98.6693C152.944 98.6187 152.939 98.5597 152.958 98.5056L153.934 95.7105C153.952 95.6543 153.994 95.6077 154.05 95.5814C154.106 95.5552 154.17 95.5516 154.229 95.5717L183.325 104.557C183.445 104.593 183.511 104.714 183.473 104.827L182.497 107.622C182.478 107.678 182.436 107.725 182.381 107.751C182.325 107.778 182.26 107.781 182.201 107.761Z" fill="#D4E8E8"/>
<path d="M205.001 102.668L217.833 106.884C218.764 107.19 219.271 108.193 218.965 109.125C218.659 110.056 217.656 110.563 216.724 110.257L203.893 106.041C202.961 105.735 202.454 104.732 202.76 103.8C203.067 102.869 204.07 102.362 205.001 102.668Z" fill="#D4E8E8"/>
<path d="M220.377 103.182L189.751 92.9399C189.693 92.9212 189.644 92.8797 189.616 92.8245C189.589 92.7693 189.584 92.7051 189.603 92.6462L190.582 89.6128C190.62 89.4902 190.75 89.4227 190.87 89.4622L221.496 99.7039C221.555 99.7226 221.603 99.7641 221.631 99.8193C221.659 99.8745 221.664 99.9387 221.644 99.9976L220.666 103.031C220.627 103.154 220.498 103.221 220.377 103.182Z" fill="#D4E8E8"/>
<g filter="url(#filter4_d_299_16554)">
<path d="M220.129 87.1977V179.75C220.129 182.167 218.096 184.118 215.587 184.118H104.059C101.55 184.118 99.5053 182.167 99.5053 179.75V73.9831C99.5053 71.5659 101.552 69.6016 104.059 69.6016H129.113C130.671 69.5927 132.127 70.3758 132.981 71.6817L138.758 80.726C139.606 82.0385 141.065 82.8253 142.626 82.8119H215.592C218.096 82.8222 220.129 84.7805 220.129 87.1977Z" fill="black"/>
</g>
<path d="M220.129 87.1977V179.75C220.129 182.167 218.096 184.118 215.587 184.118H104.059C101.55 184.118 99.5053 182.167 99.5053 179.75V73.9831C99.5053 71.5659 101.552 69.6016 104.059 69.6016H129.113C130.671 69.5927 132.127 70.3758 132.981 71.6817L138.758 80.726C139.606 82.0385 141.065 82.8253 142.626 82.8119H215.592C218.096 82.8222 220.129 84.7805 220.129 87.1977Z" fill="url(#paint0_linear_299_16554)"/>
<path d="M220.129 87.1977V179.75C220.129 182.167 218.096 184.118 215.587 184.118H104.059C101.55 184.118 99.5053 182.167 99.5053 179.75V73.9831C99.5053 71.5659 101.552 69.6016 104.059 69.6016H129.113C130.671 69.5927 132.127 70.3758 132.981 71.6817L138.758 80.726C139.606 82.0385 141.065 82.8253 142.626 82.8119H215.592C218.096 82.8222 220.129 84.7805 220.129 87.1977Z" fill="#1C63ED"/>
<path d="M210.128 84.8704H107.98C105.829 84.8704 104.086 86.6136 104.086 88.7639V178.697C104.086 180.848 105.829 182.591 107.98 182.591H210.128C212.278 182.591 214.021 180.848 214.021 178.697V88.7639C214.021 86.6136 212.278 84.8704 210.128 84.8704Z" fill="#EFEFEF"/>
<path d="M210.128 86.3975H107.98C105.829 86.3975 104.086 88.1407 104.086 90.291V180.224C104.086 182.375 105.829 184.118 107.98 184.118H210.128C212.278 184.118 214.021 182.375 214.021 180.224V90.291C214.021 88.1407 212.278 86.3975 210.128 86.3975Z" fill="white"/>
<path opacity="0.2" d="M220.129 89.4509V171.938L219.295 179.063C219.017 181.452 217.348 183.443 215.055 184.118H104.059C101.55 184.118 99.5053 182.157 99.5053 179.729V103.937H119.028C121.416 103.938 123.576 102.508 124.523 100.299L127.608 93.1004C128.544 90.8866 130.703 89.45 133.092 89.4509H220.129Z" fill="#3D3D3D"/>
<path d="M221.169 180.341C220.817 183.366 218.285 185.645 215.276 185.645H104.209C101.2 185.645 98.6673 183.366 98.3162 180.341L90.3847 112.133C90.1867 110.43 90.7175 108.722 91.8435 107.44C92.9694 106.158 94.583 105.425 96.2775 105.425H121.671C124.041 105.425 126.184 103.998 127.121 101.794L130.179 94.6091C131.116 92.4056 133.259 90.9783 135.629 90.9783H224.879C226.575 90.977 228.189 91.7097 229.316 92.9916C230.443 94.2735 230.975 95.982 230.776 97.6862L221.169 180.341Z" fill="#1C63ED"/>
<defs>
<filter id="filter0_d_299_16554" x="137.677" y="40.5907" width="174.065" height="186.28" filterUnits="userSpaceOnUse" color-interpolation-filters="sRGB">
<feFlood flood-opacity="0" result="BackgroundImageFix"/>
<feColorMatrix in="SourceAlpha" type="matrix" values="0 0 0 0 0 0 0 0 0 0 0 0 0 0 0 0 0 0 127 0" result="hardAlpha"/>
<feOffset dy="24.4301"/>
<feGaussianBlur stdDeviation="15.2688"/>
<feColorMatrix type="matrix" values="0 0 0 0 0 0 0 0 0 0 0 0 0 0 0 0 0 0 0.093482 0"/>
<feBlend mode="normal" in2="BackgroundImageFix" result="effect1_dropShadow_299_16554"/>
<feBlend mode="normal" in="SourceGraphic" in2="effect1_dropShadow_299_16554" result="shape"/>
</filter>
<filter id="filter1_d_299_16554" x="0.258053" y="31.4293" width="183.226" height="190.86" filterUnits="userSpaceOnUse" color-interpolation-filters="sRGB">
<feFlood flood-opacity="0" result="BackgroundImageFix"/>
<feColorMatrix in="SourceAlpha" type="matrix" values="0 0 0 0 0 0 0 0 0 0 0 0 0 0 0 0 0 0 127 0" result="hardAlpha"/>
<feOffset dy="24.4301"/>
<feGaussianBlur stdDeviation="15.2688"/>
<feColorMatrix type="matrix" values="0 0 0 0 0 0 0 0 0 0 0 0 0 0 0 0 0 0 0.093482 0"/>
<feBlend mode="normal" in2="BackgroundImageFix" result="effect1_dropShadow_299_16554"/>
<feBlend mode="normal" in="SourceGraphic" in2="effect1_dropShadow_299_16554" result="shape"/>
</filter>
<filter id="filter2_d_299_16554" x="50.6451" y="0.891987" width="161.849" height="177.118" filterUnits="userSpaceOnUse" color-interpolation-filters="sRGB">
<feFlood flood-opacity="0" result="BackgroundImageFix"/>
<feColorMatrix in="SourceAlpha" type="matrix" values="0 0 0 0 0 0 0 0 0 0 0 0 0 0 0 0 0 0 127 0" result="hardAlpha"/>
<feOffset dy="24.4301"/>
<feGaussianBlur stdDeviation="15.2688"/>
<feColorMatrix type="matrix" values="0 0 0 0 0 0 0 0 0 0 0 0 0 0 0 0 0 0 0.093482 0"/>
<feBlend mode="normal" in2="BackgroundImageFix" result="effect1_dropShadow_299_16554"/>
<feBlend mode="normal" in="SourceGraphic" in2="effect1_dropShadow_299_16554" result="shape"/>
</filter>
<filter id="filter3_d_299_16554" x="108.667" y="6.99965" width="172.538" height="183.226" filterUnits="userSpaceOnUse" color-interpolation-filters="sRGB">
<feFlood flood-opacity="0" result="BackgroundImageFix"/>
<feColorMatrix in="SourceAlpha" type="matrix" values="0 0 0 0 0 0 0 0 0 0 0 0 0 0 0 0 0 0 127 0" result="hardAlpha"/>
<feOffset dy="24.4301"/>
<feGaussianBlur stdDeviation="15.2688"/>
<feColorMatrix type="matrix" values="0 0 0 0 0 0 0 0 0 0 0 0 0 0 0 0 0 0 0.093482 0"/>
<feBlend mode="normal" in2="BackgroundImageFix" result="effect1_dropShadow_299_16554"/>
<feBlend mode="normal" in="SourceGraphic" in2="effect1_dropShadow_299_16554" result="shape"/>
</filter>
<filter id="filter4_d_299_16554" x="68.9677" y="63.494" width="181.699" height="175.591" filterUnits="userSpaceOnUse" color-interpolation-filters="sRGB">
<feFlood flood-opacity="0" result="BackgroundImageFix"/>
<feColorMatrix in="SourceAlpha" type="matrix" values="0 0 0 0 0 0 0 0 0 0 0 0 0 0 0 0 0 0 127 0" result="hardAlpha"/>
<feOffset dy="24.4301"/>
<feGaussianBlur stdDeviation="15.2688"/>
<feColorMatrix type="matrix" values="0 0 0 0 0.258824 0 0 0 0 0.6 0 0 0 0 0.882353 0 0 0 0.3 0"/>
<feBlend mode="normal" in2="BackgroundImageFix" result="effect1_dropShadow_299_16554"/>
<feBlend mode="normal" in="SourceGraphic" in2="effect1_dropShadow_299_16554" result="shape"/>
</filter>
<linearGradient id="paint0_linear_299_16554" x1="159.817" y1="69.6016" x2="159.817" y2="184.118" gradientUnits="userSpaceOnUse">
<stop stop-color="#7A62E4"/>
<stop offset="1" stop-color="#656EE4"/>
</linearGradient>
</defs>
</svg>
