<svg width="15" height="15" viewBox="0 0 15 15" fill="none" xmlns="http://www.w3.org/2000/svg">
<path d="M3.75 8.125V7.23892C3.75 6.597 3.5418 5.9724 3.15665 5.45886V5.45886C2.62858 4.75477 3.13096 3.75 4.01108 3.75H10.9889C11.869 3.75 12.3714 4.75477 11.8434 5.45886V5.45886C11.4582 5.9724 11.25 6.597 11.25 7.23892V11.25C11.25 12.6307 10.1307 13.75 8.75 13.75H6.25C4.86929 13.75 3.75 12.6307 3.75 11.25V10.625" stroke="#F53838" stroke-width="0.9375" stroke-linecap="round"/>
<path d="M8.75 10.625L8.75 6.875" stroke="#F53838" stroke-width="0.9375" stroke-linecap="round" stroke-linejoin="round"/>
<path d="M6.25 10.625L6.25 6.875" stroke="#F53838" stroke-width="0.9375" stroke-linecap="round" stroke-linejoin="round"/>
<path d="M9.14802 2.07223C8.95143 1.94635 8.71901 1.875 8.47409 1.875H6.52599C6.28106 1.875 6.04864 1.94635 5.85205 2.07223" stroke="#F53838" stroke-width="0.9375" stroke-linecap="round"/>
</svg>
