<svg width="18" height="16" viewBox="0 0 18 16" fill="none" xmlns="http://www.w3.org/2000/svg">
<path fill-rule="evenodd" clip-rule="evenodd" d="M8.7071 0.29289C9.0976 0.68342 9.0976 1.31658 8.7071 1.70711L3.41421 7H17C17.5523 7 18 7.4477 18 8C18 8.5523 17.5523 9 17 9H3.41421L8.7071 14.2929C9.0976 14.6834 9.0976 15.3166 8.7071 15.7071C8.3166 16.0976 7.6834 16.0976 7.2929 15.7071L0.29289 8.7071C0.10536 8.5196 0 8.2652 0 8C0 7.7348 0.10536 7.4804 0.29289 7.2929L7.2929 0.29289C7.6834 -0.09763 8.3166 -0.09763 8.7071 0.29289Z" fill="#324C5B"/>
</svg>
