<svg width="80" height="80" viewBox="0 0 80 80" fill="none" xmlns="http://www.w3.org/2000/svg">
<rect width="79.9857" height="79.9857" rx="39.9928" fill="#00AC4F" fill-opacity="0.1"/>
<rect x="10.9988" y="10.9973" width="58.3229" height="58.3229" rx="29.1614" fill="#00AC4F" fill-opacity="0.15"/>
<path fill-rule="evenodd" clip-rule="evenodd" d="M26.7713 39.9952C26.7707 37.8844 27.2755 35.8041 28.2435 33.9284C29.2116 32.0527 30.6147 30.436 32.3355 29.2137C34.0564 27.9913 36.0449 27.1988 38.1348 26.9024C40.2247 26.606 42.3552 26.8143 44.348 27.51C44.8211 27.6748 45.3403 27.6449 45.7913 27.4269C46.2423 27.2089 46.5883 26.8207 46.7531 26.3476C46.9179 25.8745 46.888 25.3553 46.67 24.9043C46.452 24.4533 46.0638 24.1073 45.5907 23.9425C42.1107 22.7284 38.3305 22.6784 34.8196 23.8C31.3087 24.9215 28.2576 27.1539 26.126 30.1606C23.9944 33.1673 22.8978 36.7854 23.0016 40.4696C23.1054 44.1538 24.404 47.7044 26.7015 50.5863C28.999 53.4682 32.171 55.5252 35.7395 56.4473C39.3079 57.3694 43.0794 57.1066 46.4854 55.6985C49.8915 54.2904 52.7476 51.8133 54.6232 48.6406C56.4988 45.4679 57.2924 41.7715 56.8842 38.1085C56.8569 37.862 56.7814 37.6233 56.6618 37.406C56.5423 37.1887 56.3811 36.997 56.1875 36.842C55.9939 36.687 55.7716 36.5716 55.5335 36.5025C55.2953 36.4333 55.0458 36.4118 54.7993 36.4391C54.5527 36.4663 54.314 36.5419 54.0967 36.6614C53.8794 36.781 53.6877 36.9422 53.5327 37.1358C53.3777 37.3294 53.2623 37.5516 53.1932 37.7898C53.124 38.028 53.1025 38.2775 53.1298 38.524C53.3287 40.3104 53.1612 42.1186 52.6377 43.838C52.1141 45.5575 51.2453 47.1521 50.0846 48.5244C48.9238 49.8968 47.4954 51.018 45.8866 51.8195C44.2778 52.6211 42.5225 53.0862 40.7278 53.1864C38.9332 53.2865 37.137 53.0197 35.449 52.4021C33.7611 51.7846 32.2167 50.8293 30.9105 49.5946C29.6042 48.36 28.5634 46.8719 27.8517 45.2214C27.14 43.5709 26.7724 41.7926 26.7713 39.9952ZM54.6274 29.9141C54.959 29.5385 55.1277 29.0465 55.0966 28.5464C55.0654 28.0463 54.8369 27.5791 54.4612 27.2475C54.0856 26.9159 53.5936 26.7471 53.0935 26.7783C52.5934 26.8095 52.1262 27.038 51.7946 27.4137L39.6418 41.1623L33.6305 36.2653C33.4383 36.1086 33.2171 35.9912 32.9795 35.92C32.742 35.8487 32.4927 35.8249 32.246 35.85C31.7477 35.9007 31.2899 36.1472 30.9733 36.5354C30.8166 36.7276 30.6992 36.9488 30.628 37.1863C30.5567 37.4239 30.5329 37.6732 30.558 37.9199C30.6087 38.4182 30.8552 38.876 31.2434 39.1926L38.6635 45.2359C39.0415 45.5435 39.5238 45.693 40.0095 45.6532C40.4952 45.6135 40.9467 45.3875 41.2697 45.0225L54.6274 29.9141Z" fill="#00AC4F"/>
</svg>
