<svg width="50" height="48" viewBox="0 0 50 48" fill="none" xmlns="http://www.w3.org/2000/svg">
<ellipse cx="24.5106" cy="24" rx="24.5106" ry="24" fill="#FFE2E5"/>
<path fill-rule="evenodd" clip-rule="evenodd" d="M24.8261 14C21.4644 14 18.7391 16.7252 18.7391 20.087V22.1795C18.7391 23.2798 18.0301 24.2422 17.4665 25.1872C17.1702 25.684 17 26.2647 17 26.8851C17 28.488 18.1452 29.8633 19.7329 30.0834C21.3096 30.3021 23.2797 30.522 24.8261 30.522C26.3724 30.522 28.3426 30.3021 29.9193 30.0834C31.507 29.8633 32.6522 28.488 32.6522 26.8851C32.6522 26.2647 32.482 25.684 32.1857 25.1872C31.6221 24.2422 30.9131 23.2798 30.9131 22.1795V20.087C30.9131 16.7252 28.1878 14 24.8261 14Z" fill="#FF176B"/>
<path d="M17 26.8851L16.25 26.8851L17 26.8851ZM19.7329 30.0834L19.8359 29.3405L19.8359 29.3405L19.7329 30.0834ZM29.9193 30.0834L29.8163 29.3405L29.8163 29.3405L29.9193 30.0834ZM17.4665 25.1872L16.8223 24.8031L17.4665 25.1872ZM19.4891 20.087C19.4891 17.1394 21.8786 14.75 24.8261 14.75V13.25C21.0501 13.25 17.9891 16.311 17.9891 20.087H19.4891ZM19.4891 22.1795V20.087H17.9891V22.1795H19.4891ZM17.75 26.8851C17.75 26.4037 17.8817 25.9552 18.1106 25.5714L16.8223 24.8031C16.4587 25.4128 16.25 26.1257 16.25 26.8851L17.75 26.8851ZM19.8359 29.3405C18.6363 29.1742 17.75 28.1313 17.75 26.8851L16.25 26.8851C16.25 28.8448 17.6541 30.5524 19.6299 30.8263L19.8359 29.3405ZM24.8261 29.772C23.3341 29.772 21.4065 29.5583 19.8359 29.3405L19.6299 30.8263C21.2127 31.0458 23.2254 31.272 24.8261 31.272V29.772ZM29.8163 29.3405C28.2457 29.5583 26.3181 29.772 24.8261 29.772V31.272C26.4268 31.272 28.4395 31.0458 30.0223 30.8263L29.8163 29.3405ZM31.9022 26.8851C31.9022 28.1313 31.0159 29.1742 29.8163 29.3405L30.0223 30.8263C31.9981 30.5524 33.4022 28.8448 33.4022 26.8851H31.9022ZM31.5416 25.5714C31.7705 25.9552 31.9022 26.4037 31.9022 26.8851H33.4022C33.4022 26.1257 33.1935 25.4128 32.8299 24.8031L31.5416 25.5714ZM30.1631 20.087V22.1795H31.6631V20.087H30.1631ZM24.8261 14.75C27.7736 14.75 30.1631 17.1394 30.1631 20.087H31.6631C31.6631 16.311 28.602 13.25 24.8261 13.25V14.75ZM32.8299 24.8031C32.521 24.2851 32.2404 23.8701 32.0091 23.4066C31.7876 22.9629 31.6631 22.567 31.6631 22.1795H30.1631C30.1631 22.8924 30.3931 23.5278 30.667 24.0766C30.9311 24.6056 31.2869 25.1443 31.5416 25.5714L32.8299 24.8031ZM17.9891 22.1795C17.9891 22.567 17.8646 22.9629 17.6431 23.4066C17.4118 23.8701 17.1312 24.2851 16.8223 24.8031L18.1106 25.5714C18.3653 25.1443 18.7211 24.6056 18.9852 24.0766C19.2591 23.5278 19.4891 22.8923 19.4891 22.1795H17.9891Z" fill="#FF176B"/>
<path d="M27 32.8359C26.5326 33.5388 25.7335 34.0021 24.8261 34.0021C23.9187 34.0021 23.1195 33.5388 22.6522 32.8359" stroke="#FF176B" stroke-width="1.5" stroke-linecap="round"/>
</svg>
