<svg width="24" height="24" viewBox="0 0 24 24" fill="none" xmlns="http://www.w3.org/2000/svg">
<path d="M11.4794 1.1695L2.64237 4.245C1.97587 4.477 1.56087 5.1425 1.64637 5.8435L3.06037 17.437C3.11887 17.9185 3.40687 18.3415 3.83287 18.5735L11.2579 22.6095C11.7064 22.853 12.2479 22.852 12.6954 22.607L20.1714 18.5095C20.5949 18.2775 20.8809 17.855 20.9394 17.3755L22.3524 5.7885C22.4384 5.0835 22.0184 4.415 21.3459 4.1865L12.4549 1.166C12.1384 1.0585 11.7949 1.0595 11.4794 1.1695Z" fill="url(#paint0_linear_1_46677)"/>
<path d="M21.3102 6.06994L19.9802 16.9999C19.9402 17.3199 19.7502 17.5999 19.4652 17.7549L12.4702 21.4999C12.3202 21.5799 12.1602 21.6149 12.0002 21.6149C11.9752 21.6149 11.9552 21.6099 11.9302 21.6099C11.7952 21.6049 11.6602 21.5699 11.5302 21.4999L4.5352 17.8199C4.2552 17.6649 4.0602 17.3799 4.0202 17.0599L2.6902 6.11994C2.6302 5.65494 2.9102 5.20994 3.3502 5.05494L11.6602 2.11994C11.7502 2.08994 11.8402 2.06994 11.9302 2.06994C11.9552 2.06494 11.9752 2.06494 12.0002 2.06494C12.1102 2.06494 12.2202 2.08494 12.3302 2.11994C13.1202 2.40494 15.4302 3.23494 20.6402 4.99994C21.0852 5.15494 21.3702 5.59994 21.3102 6.06994Z" fill="url(#paint1_linear_1_46677)"/>
<path d="M5.50635 17H7.71085L11.9998 7.75205V2.99805L5.50635 17Z" fill="white"/>
<path d="M9 12H12V14H9V12Z" fill="white"/>
<path d="M21.31 6.06994L19.98 16.9999C19.94 17.3199 19.75 17.5999 19.465 17.7549L12.47 21.4999C12.32 21.5799 12.16 21.6149 12 21.6149V2.06494C12.11 2.06494 12.22 2.08494 12.33 2.11994C13.12 2.40494 15.43 3.23494 20.64 4.99994C21.085 5.15494 21.37 5.59994 21.31 6.06994Z" fill="#B31523"/>
<path d="M12 3V7.754L16.289 17.002H18.4935L12 3Z" fill="#BFC8D1"/>
<path d="M12 12.002H15V14.002H12V12.002Z" fill="#BFC8D1"/>
<path opacity="0.05" d="M12.0001 2.9979V2.9999L18.4936 17.0019H16.2891L14.8976 14.0019H12.0001V13.9999H9.10263L7.71113 16.9999H5.50663L12.0001 2.9979ZM10.0301 11.9999H12.0001V12.0019H13.9701L12.0001 7.7539V7.7519L10.0301 11.9999ZM12.5001 0.733398L11.5466 2.7874L5.05313 16.7894L4.72363 17.4999H5.50663H7.71113H8.03063L8.16513 17.2104L9.42163 14.4999H11.5001L12.0001 14.5019H14.5786L15.8356 17.2124L15.9701 17.5019H16.2896H18.4941H19.2771L18.9476 16.7914L12.5001 2.8894V0.733398ZM10.8131 11.4999L11.9996 8.9414L13.1871 11.5019H12.5001L12.0001 11.4999H10.8131Z" fill="black"/>
<path opacity="0.07" d="M12.0002 2.99795V2.99996L18.4937 17.002H16.2892L14.8977 14.002H12.0002V14H9.10273L7.71123 17H5.50673L12.0002 2.99795ZM10.0302 12H12.0002V12.002H13.9702L12.0002 7.75396V7.75196L10.0302 12ZM12.2502 1.86646L11.7732 2.89245L5.27973 16.895L5.11523 17.25H5.50673H7.71123H7.87073L7.93773 17.105L9.26173 14.25H11.7502L12.0002 14.252H14.7382L16.0622 17.107L16.1292 17.252H16.2887H18.4932H18.8847L18.7202 16.897L12.2502 2.94495V1.86646ZM10.4217 11.75L11.9997 8.34696L13.5787 11.752H12.2502L12.0002 11.75H10.4217Z" fill="black"/>
<defs>
<linearGradient id="paint0_linear_1_46677" x1="9.68437" y1="3.128" x2="16.4574" y2="21.736" gradientUnits="userSpaceOnUse">
<stop stop-color="#DFE9F2"/>
<stop offset="0.391" stop-color="#D6E0E9"/>
<stop offset="1" stop-color="#BFC8D1"/>
</linearGradient>
<linearGradient id="paint1_linear_1_46677" x1="12.0002" y1="1.07594" x2="12.0002" y2="19.9784" gradientUnits="userSpaceOnUse">
<stop stop-color="#F44F5A"/>
<stop offset="0.443" stop-color="#EE3D4A"/>
<stop offset="1" stop-color="#E52030"/>
</linearGradient>
</defs>
</svg>
