<svg width="27" height="27" viewBox="0 0 27 27" fill="none" xmlns="http://www.w3.org/2000/svg">
<path d="M6.75 14.625V13.0301C6.75 11.8746 6.37524 10.7503 5.68196 9.82595V9.82595C4.73144 8.55859 5.63574 6.75 7.21994 6.75H19.7801C21.3643 6.75 22.2686 8.55859 21.318 9.82595V9.82595C20.6248 10.7503 20.25 11.8746 20.25 13.0301V20.25C20.25 22.7353 18.2353 24.75 15.75 24.75H11.25C8.76472 24.75 6.75 22.7353 6.75 20.25V19.125" stroke="#F53838" stroke-width="1.6875" stroke-linecap="round"/>
<path d="M15.75 19.125L15.75 12.375" stroke="#F53838" stroke-width="1.6875" stroke-linecap="round" stroke-linejoin="round"/>
<path d="M11.25 19.125L11.25 12.375" stroke="#F53838" stroke-width="1.6875" stroke-linecap="round" stroke-linejoin="round"/>
<path d="M16.4664 3.73002C16.1126 3.50342 15.6942 3.375 15.2534 3.375H11.7468C11.3059 3.375 10.8876 3.50342 10.5337 3.73002" stroke="#F53838" stroke-width="1.6875" stroke-linecap="round"/>
</svg>
