<svg width="33" height="32" viewBox="0 0 33 32" fill="none" xmlns="http://www.w3.org/2000/svg">
<g clip-path="url(#clip0_426_16551)">
<path fill-rule="evenodd" clip-rule="evenodd" d="M5.90658 10.6667V19.0974C5.00991 19.2667 4.53924 19.3334 3.82524 19.3334C1.68658 19.3314 0.573242 18.3767 0.573242 16.544C0.573242 14.778 1.75391 13.632 3.58391 13.632C3.86791 13.632 4.08391 13.654 4.34591 13.7214V10.6667H5.90658ZM4.34591 15.1147C4.14058 15.048 3.97191 15.0254 3.75524 15.0254C2.86991 15.0254 2.35791 15.5647 2.35791 16.5107C2.35791 17.4314 2.84724 17.9394 3.74391 17.9394C3.93791 17.9394 4.09524 17.9287 4.34591 17.8947V15.1147Z" fill="#004D40"/>
<path fill-rule="evenodd" clip-rule="evenodd" d="M8.57271 13.364V17.776C8.57271 19.16 8.46937 19.9253 8.16471 20.4987C7.88071 21.05 7.50671 21.398 6.73404 21.782L5.10938 21.016C5.88204 20.6567 6.25671 20.3393 6.49538 19.8547C6.74538 19.3593 6.82471 18.6853 6.82471 17.1767V13.3627H8.57271V13.364Z" fill="#004D40"/>
<path d="M8.57289 10.6667H6.82422V12.4754H8.57289V10.6667Z" fill="#004D40"/>
<path fill-rule="evenodd" clip-rule="evenodd" d="M9.72931 13.9173C10.4866 13.5493 11.2113 13.3873 12.0013 13.3873C12.882 13.3873 13.4606 13.6293 13.7166 14.1027C13.86 14.3673 13.9066 14.712 13.9066 15.45V19.0547C13.1386 19.1687 12.1693 19.2507 11.458 19.2507C10.0206 19.2507 9.37598 18.732 9.37598 17.5807C9.37598 16.3353 10.2326 15.76 12.3366 15.5767V15.1867C12.3366 14.8647 12.18 14.748 11.7473 14.748C11.114 14.748 10.4006 14.9333 9.73131 15.2893L9.72931 13.9173ZM12.414 16.738C11.2793 16.852 10.9106 17.0373 10.9106 17.4987C10.9106 17.844 11.1226 18.006 11.5906 18.006C11.8466 18.006 12.0806 17.9833 12.414 17.926V16.738Z" fill="#004D40"/>
<path fill-rule="evenodd" clip-rule="evenodd" d="M14.8525 13.7953C15.8659 13.5147 16.7005 13.3867 17.5465 13.3867C18.4252 13.3867 19.0619 13.598 19.4392 14.0067C19.7939 14.392 19.9072 14.8147 19.9072 15.7153V19.2507H18.1912V15.7873C18.1912 15.0953 17.9679 14.838 17.3565 14.838C17.1225 14.838 16.9105 14.8613 16.5659 14.968V19.2513H14.8525V13.7953Z" fill="#004D40"/>
<path fill-rule="evenodd" clip-rule="evenodd" d="M20.6912 20.004C21.3039 20.328 21.9172 20.4773 22.5659 20.4773C23.7132 20.4773 24.2019 20.162 24.2019 19.0267V18.992C23.8619 19.164 23.5186 19.236 23.0659 19.236C21.5312 19.236 20.5732 18.2047 20.5732 16.5713C20.5732 14.5427 22.0006 13.3967 24.5559 13.3967C25.3066 13.3967 26.0006 13.4773 26.8406 13.652L26.2412 14.9387C25.7752 14.8467 26.2032 14.9247 25.8519 14.8907V15.0767L25.8746 15.83L25.8859 16.804C25.8972 17.048 25.8972 17.2907 25.9086 17.5347V18.0213C25.9086 19.5513 25.7819 20.1087 25.4079 20.7013C24.8626 21.5693 23.9186 21.9993 22.5772 21.9993C21.8946 21.9993 21.3039 21.896 20.6912 21.652V20.004ZM24.1679 14.834H24.1112H23.9846C23.6446 14.8227 23.2459 14.9147 22.9726 15.0893C22.5539 15.3327 22.3372 15.774 22.3372 16.3987C22.3372 17.29 22.7699 17.8 23.5426 17.8C23.7812 17.8 23.9752 17.754 24.2006 17.6853V17.5567V17.07C24.2006 16.8607 24.1892 16.6287 24.1892 16.3853L24.1779 15.5627L24.1666 14.972V14.834H24.1679Z" fill="#004D40"/>
<path fill-rule="evenodd" clip-rule="evenodd" d="M29.6172 13.364C31.4526 13.364 32.5732 14.4706 32.5732 16.2626C32.5732 18.1 31.4052 19.2513 29.5439 19.2513C27.7066 19.2513 26.5732 18.1453 26.5732 16.3646C26.5766 14.516 27.7446 13.364 29.6172 13.364ZM29.5792 17.8346C30.2839 17.8346 30.6999 17.276 30.6999 16.3053C30.6999 15.346 30.2952 14.776 29.5912 14.776C28.8626 14.776 28.4459 15.3346 28.4459 16.3053C28.4466 17.276 28.8652 17.8346 29.5792 17.8346Z" fill="#004D40"/>
</g>
<defs>
<clipPath id="clip0_426_16551">
<rect width="32" height="32" fill="white" transform="translate(0.573242)"/>
</clipPath>
</defs>
</svg>
