<svg width="27" height="27" viewBox="0 0 27 27" fill="none" xmlns="http://www.w3.org/2000/svg">
<path fill-rule="evenodd" clip-rule="evenodd" d="M15.2029 4.28158C16.4102 3.07248 18.3683 3.07174 19.5765 4.27992L22.3798 7.08326C23.5777 8.28113 23.5902 10.2204 22.4077 11.4335L12.0205 22.0909C11.2267 22.9053 10.1381 23.3645 9.00139 23.3645L5.90523 23.3643C4.46607 23.3643 3.31676 22.1646 3.37729 20.7256L3.51021 17.5655C3.55464 16.509 3.99371 15.5078 4.74052 14.7599L15.2029 4.28158ZM18.3842 5.47407C17.835 4.92489 16.9449 4.92523 16.3962 5.47482L14.5252 7.34862L19.34 12.1634L21.2002 10.2548C21.7376 9.70336 21.732 8.82189 21.1875 8.2774L18.3842 5.47407ZM5.93377 15.9531L13.3329 8.54277L18.1621 13.3719L10.8129 20.9122C10.3367 21.4008 9.68351 21.6763 9.00146 21.6763L5.9053 21.6762C5.42558 21.6762 5.04248 21.2763 5.06265 20.7966L5.19558 17.6365C5.22224 17.0026 5.48568 16.4019 5.93377 15.9531ZM23.0793 23.2819C23.5451 23.2819 23.9227 22.904 23.9227 22.4378C23.9227 21.9717 23.5451 21.5938 23.0793 21.5938H16.1924C15.7266 21.5938 15.3489 21.9717 15.3489 22.4378C15.3489 22.904 15.7266 23.2819 16.1924 23.2819H23.0793Z" fill="#002979"/>
</svg>
