<svg width="31" height="31" viewBox="0 0 31 31" fill="none" xmlns="http://www.w3.org/2000/svg">
<g clip-path="url(#clip0_426_16563)">
<path d="M2.32479 9.35058C2.07564 9.3715 1.85813 9.57182 2.16893 9.90722C2.76593 10.2444 1.58015 10.4926 1.92635 10.7182C2.03675 10.9558 1.91751 11.2205 1.59471 11.2631C1.12191 11.3039 1.16672 11.9495 1.62752 11.6111C2.14172 11.4479 1.71641 11.6757 1.47401 11.7225C0.929806 11.8809 0.558978 12.4245 0.875178 12.9213C1.17758 13.6053 1.25816 14.3683 1.49276 15.0799C1.88096 16.1743 2.44814 17.2156 3.18494 18.115C3.53474 18.625 4.04614 18.9874 4.52674 19.3654C4.99954 19.672 5.52604 19.9787 6.06424 20.1353C7.02004 20.4851 8.04578 20.5179 9.05018 20.5971C9.66218 20.5959 10.2764 20.5527 10.8806 20.4447C11.4242 20.5035 11.8154 20.0388 12.3068 20.2842C12.6044 20.0202 13.0381 20.1352 13.3357 19.9432C13.5559 19.1944 12.5795 19.7947 12.2705 19.4287C11.9345 19.8235 11.6525 19.3854 11.2451 19.5084C10.5515 19.5432 11.2977 19.1977 11.2803 18.8803C10.9125 18.5983 10.4971 19.2675 10.2619 19.4475C9.6811 19.3425 9.10602 19.1774 8.57323 18.926C7.96602 18.6098 7.37006 18.2336 6.93026 17.7002C6.47006 17.1554 5.96135 16.6045 5.75135 15.9049C5.30735 14.7499 5.33623 13.4993 5.22283 12.2861C5.26483 11.4647 6.13221 12.3745 6.50721 12.0775C6.37881 11.6515 5.69458 11.5167 5.31658 11.3463C4.95178 11.3211 4.81885 10.9942 4.43065 10.9678C4.44925 10.5118 3.71736 10.7627 3.45096 10.4381C3.71316 9.76128 2.58229 10.4541 2.67049 9.86855C2.85469 9.48785 2.57394 9.32965 2.32479 9.35058ZM2.3283 9.408C2.38744 9.39325 2.45546 9.40511 2.52401 9.45956C2.84921 9.89756 1.92587 9.40933 2.24627 9.82753C2.05142 9.73618 2.15089 9.45227 2.3283 9.408ZM25.9076 9.6248C25.8674 9.6248 25.7622 9.6796 25.5924 9.7912C25.3824 9.9268 25.1607 10.0337 24.9291 10.1111C24.7839 10.1609 24.7123 10.2303 24.7123 10.3197C24.7123 10.3815 24.7626 10.4297 24.8646 10.4639C25.0812 10.5353 25.2234 10.6337 25.2912 10.7603C25.341 10.8593 25.3662 11.0351 25.3662 11.2889V15.3424C25.3662 15.6976 25.2805 15.8968 25.1107 15.94C24.9217 15.9892 24.8271 16.062 24.8271 16.158C24.8271 16.1982 24.8305 16.2302 24.8365 16.2518C24.8515 16.3136 24.9523 16.3365 25.1377 16.3209C25.8739 16.2621 26.3966 16.2476 26.7056 16.2752C26.8046 16.2848 26.8651 16.2803 26.8885 16.2635C26.9119 16.2467 26.9236 16.2024 26.9236 16.131C26.9236 16.041 26.8508 15.9868 26.7056 15.9682C26.4704 15.9436 26.3204 15.9094 26.2556 15.8662C26.1632 15.8044 26.1128 15.6751 26.1068 15.4771C26.1008 15.2791 26.0986 15.1275 26.0986 15.0225C26.0986 14.8743 26.1714 14.7595 26.3166 14.6791C26.4462 14.5861 26.5368 14.5396 26.5896 14.5396C26.6328 14.5396 26.6687 14.5654 26.6963 14.6146C27.0365 15.19 27.4512 15.7402 27.9396 16.2658C28.0134 16.3432 28.1377 16.3645 28.3111 16.3303C28.6609 16.3027 28.943 16.2876 29.1596 16.2846C29.3048 16.2786 29.3775 16.2203 29.3775 16.1123C29.3775 16.0259 29.3602 15.9727 29.326 15.9529C29.2918 15.9331 29.2045 15.9225 29.0623 15.9225C28.8709 15.9225 28.6643 15.8284 28.4447 15.64C28.1015 15.3406 27.7366 14.8962 27.3502 14.3088C27.2452 14.145 27.1931 14.0414 27.1931 13.9982C27.1931 13.9706 27.2049 13.9477 27.2295 13.9291C27.5631 13.5955 27.8777 13.3615 28.1717 13.2283C28.3823 13.1293 28.6061 13.0744 28.8443 13.0654C28.9961 13.0564 29.0717 12.9993 29.0717 12.8943C29.0717 12.7827 29.0235 12.7251 28.9275 12.7221C28.6341 12.7221 28.3386 12.7204 28.0416 12.7174C27.615 12.7144 27.2904 12.6982 27.0678 12.667C26.9688 12.6514 26.9139 12.6984 26.9049 12.8064C26.8989 12.9144 26.9504 12.9743 27.0584 12.9869C27.3086 13.0211 27.4334 13.0793 27.4334 13.1627C27.4334 13.2089 27.3965 13.2716 27.3221 13.349C26.9477 13.6736 26.6332 13.9355 26.3764 14.1365C26.2804 14.2169 26.2093 14.2572 26.1631 14.2572C26.1199 14.2572 26.0974 14.2169 26.0974 14.1365L26.0892 11.2338C26.0892 10.8534 26.0909 10.55 26.0939 10.3244C26.0969 9.99681 26.0986 9.84343 26.0986 9.86503C26.0986 9.70423 26.0342 9.6248 25.9076 9.6248ZM15.3197 9.65761C15.2705 9.65761 15.1524 9.71242 14.967 9.82402C14.7414 9.96622 14.5231 10.0715 14.3131 10.1393C14.1739 10.1855 14.1045 10.256 14.1045 10.349C14.1045 10.4108 14.1526 10.4578 14.2486 10.492C14.431 10.5568 14.558 10.6486 14.6306 10.7662C14.7032 10.8838 14.7408 11.068 14.7408 11.3182V15.5146C14.7408 15.7678 14.6563 15.9207 14.4877 15.9717C14.3191 16.0227 14.2357 16.0848 14.2357 16.1592C14.2357 16.2426 14.2497 16.2941 14.2791 16.3127C14.3085 16.3307 14.3869 16.3335 14.5135 16.3209C15.1447 16.2681 15.6724 16.2631 16.099 16.3033C16.2382 16.3183 16.3076 16.264 16.3076 16.1404C16.3076 16.051 16.2388 15.9984 16.099 15.9834C15.8734 15.9558 15.7139 15.8987 15.6209 15.8135C15.5279 15.7283 15.4814 15.5917 15.4814 15.4033L15.4639 11.2619C15.4603 10.9655 15.4631 10.6632 15.4721 10.3572C15.4847 10.0356 15.4908 9.88056 15.4908 9.89316C15.4908 9.73536 15.4343 9.65761 15.3197 9.65761ZM9.15213 10.1451C9.11793 10.1511 9.0939 10.1836 9.0783 10.2424C9.0477 10.3384 9.09416 10.4139 9.21776 10.4697C9.41516 10.5597 9.55062 10.6599 9.62323 10.7697C9.69583 10.8795 9.73221 11.0368 9.73221 11.2408V15.2111C9.73221 15.7091 9.58052 15.975 9.27752 16.0092C9.14492 16.0218 9.0783 16.0671 9.0783 16.1475C9.0783 16.2747 9.14432 16.3289 9.27752 16.3103C9.75332 16.2455 10.3578 16.2433 11.0904 16.3021C11.3436 16.3237 11.4796 16.2834 11.4982 16.1814C11.5168 16.0644 11.4502 15.9978 11.299 15.9822C11.0026 15.945 10.8095 15.903 10.7201 15.8568C10.6055 15.801 10.5478 15.6952 10.5478 15.5404V13.4545C10.5478 13.4149 10.5752 13.3935 10.631 13.3935C11.1224 13.3935 11.4785 13.407 11.6963 13.4334C11.9141 13.4598 12.0635 13.6669 12.1439 14.0533C12.1661 14.1553 12.2192 14.2006 12.3056 14.1916C12.4106 14.1856 12.4622 14.1431 12.4592 14.0627C12.428 13.3889 12.456 12.8415 12.5424 12.4209C12.558 12.3465 12.5126 12.2984 12.4076 12.2768C12.284 12.2492 12.2124 12.2973 12.1908 12.4209C12.1566 12.6471 12.1219 12.7864 12.0865 12.8404C12.0511 12.8944 11.9811 12.9274 11.8791 12.94C11.3565 12.9742 10.958 12.9933 10.6826 12.9963C10.5932 12.9993 10.549 12.9657 10.549 12.8943V10.7932C10.549 10.7218 10.5635 10.6753 10.5947 10.6537C10.6445 10.6195 10.7503 10.6033 10.9111 10.6033C11.6131 10.6033 12.0507 10.6167 12.2271 10.6443C12.3909 10.6659 12.5231 10.7303 12.6221 10.8353C12.7061 10.9247 12.7939 11.082 12.8869 11.3076C12.9205 11.391 12.981 11.433 13.0674 11.433C13.1538 11.433 13.1963 11.3849 13.1963 11.2889C13.2083 10.8005 13.2407 10.4529 13.2935 10.2459C13.2965 10.2333 13.2982 10.2216 13.2994 10.206C13.2994 10.1598 13.1958 10.1419 12.9888 10.1545C12.3672 10.1917 11.6296 10.2107 10.7763 10.2107C10.0527 10.2107 9.59322 10.1951 9.39823 10.1639C9.26503 10.1423 9.18333 10.1361 9.15213 10.1451ZM3.03377 10.2553C3.11657 10.2728 3.14516 10.3222 2.91776 10.3525L2.82635 10.3478C2.81435 10.2521 2.95097 10.2377 3.03377 10.2553ZM2.94237 10.5752C3.10677 10.6472 3.44381 10.6805 3.49901 10.8611C3.16241 10.6859 3.56598 11.0722 3.28338 11.065C3.13098 11.0668 2.84877 10.7396 2.94237 10.5752ZM2.85799 10.8471C3.23899 11.1369 2.64568 10.8469 2.40448 11.0287C2.02467 11.0671 2.82079 10.8147 2.85799 10.8471ZM3.86463 11.0205C3.91325 11.0339 3.91324 11.0799 3.83299 11.1764C4.12819 11.5292 3.89922 11.4102 3.69822 11.16C3.87462 11.2818 3.73857 11.8077 3.46737 11.4459C3.27537 11.0883 3.15381 11.33 3.35721 11.5748C3.15741 11.1986 2.57904 11.3593 2.15604 11.5033C1.88304 11.4733 2.86546 11.2701 2.97166 11.2221C3.13591 11.2252 3.71877 10.9802 3.86463 11.0205ZM5.04822 11.4189C5.16889 11.4174 5.2879 11.4219 5.40565 11.4318C5.59465 11.652 5.26258 12.0248 4.91698 12.0494C4.49698 12.2066 4.06947 12.2451 3.67947 12.2967C3.17907 12.2337 2.81975 12.6838 2.30135 12.7408C2.43935 12.4852 2.18798 12.6526 1.92518 12.64C2.05898 13.156 0.999378 12.5029 1.62518 12.3787C1.15598 12.2119 1.14942 12.7049 1.19862 12.9857H1.16697C0.737375 12.4325 1.21517 12.2069 1.75877 12.1361C1.65557 12.3911 1.90721 12.4731 2.14901 12.5193C2.54081 12.4113 1.89128 12.3419 2.18768 12.2393C2.35028 12.2093 1.6693 12.0764 2.2369 12.0002C2.8189 11.9024 3.34251 11.6737 3.91971 11.5537C4.31031 11.4763 4.68623 11.4236 5.04822 11.4189ZM4.91932 11.5502C4.86794 11.5342 4.74849 11.5663 4.68729 11.7271C4.73169 11.8285 4.75371 11.6975 4.74471 11.6627C4.95441 11.6306 4.97069 11.5662 4.91932 11.5502ZM3.70877 11.7658C3.54085 11.7581 3.26574 11.7944 3.16854 11.9111C3.29214 11.9675 3.42805 11.7551 3.60565 11.8889C3.93715 11.8259 3.8767 11.7735 3.70877 11.7658ZM6.10643 11.7963C6.19036 11.7826 6.45026 11.8796 6.35838 12.0424C6.29538 12.0604 6.30614 11.9654 6.25994 11.9498C6.06959 11.8528 6.05607 11.8045 6.10643 11.7963ZM2.85096 12.0213C2.80707 12.0212 2.77196 12.0411 2.76776 12.0951L2.85213 12.1725C3.18918 12.1999 2.98261 12.0214 2.85096 12.0213ZM2.66229 12.176C2.59972 12.1668 2.54174 12.2015 2.50994 12.3189C2.56874 12.3045 2.66214 12.3384 2.71854 12.381C3.07404 12.624 2.84999 12.2034 2.66229 12.176ZM4.94862 12.2334C5.26063 12.1723 5.16959 12.98 5.06932 13.2283C5.25832 13.0993 5.22192 13.8278 5.16072 14.099C5.26393 13.9604 5.30639 14.3233 5.19119 14.5795C5.20079 14.5375 5.44085 14.5009 5.26385 14.8045C5.12885 14.5069 5.07021 15.4099 5.15721 15.0049C5.39541 14.6221 5.33305 14.9845 5.40565 15.1537C5.45245 15.5047 5.60903 15.8285 5.65643 16.1393C5.87663 16.3613 5.56265 16.2107 5.56385 16.5107C5.63525 16.4237 5.92659 16.6329 5.92479 16.9443C5.94879 16.4505 5.97716 16.8288 6.21776 16.9572C6.41876 17.2812 6.56932 17.5844 6.86932 17.8514C7.10332 18.122 6.85464 17.9319 6.95604 18.0975C7.20444 18.5379 7.77991 18.7932 8.27791 18.9084C8.49631 19.1928 8.82415 19.4757 9.26815 19.3467C8.89255 19.5783 10.326 19.6413 9.84119 19.7721C9.58919 19.9089 9.35008 19.6839 9.10408 19.6959C8.76208 19.5783 8.22147 19.2179 7.85487 19.4627C7.34787 19.7801 8.11469 19.1088 7.70369 19.4088C7.28729 19.9086 7.42083 19.0978 7.01463 19.3408C6.99123 19.2634 6.65356 19.2421 6.90916 19.1053C6.67996 19.0909 6.82285 19.0762 6.90565 18.8932C6.80725 18.8728 6.26029 18.8921 6.04549 18.7127C5.79229 18.3833 6.08969 18.517 6.35369 18.565C5.93009 18.6394 6.4994 18.8828 6.7826 18.7478C6.6554 18.6938 6.50982 18.4189 6.17322 18.1783C5.70282 17.8951 5.31571 17.76 4.82791 17.5338C4.29991 17.2206 4.94608 17.4227 5.12908 17.5877C5.65588 17.8199 5.44855 17.2618 5.14315 17.1166C4.80835 17.1304 4.72228 16.7458 4.45408 16.7674C4.87768 16.8352 5.17178 16.6578 4.70018 16.2318C4.25198 15.7086 4.88735 16.6266 4.62635 16.5084C4.50755 16.3518 4.59657 16.1265 4.21737 16.0455C4.21317 16.1901 4.1654 16.4142 4.0826 16.11C3.977 16.128 3.85611 16.2439 3.76971 15.9307C3.85131 15.5749 3.41738 15.4936 3.35018 15.2662C3.72518 15.5056 3.89488 15.3169 3.62908 15.0553C3.44608 14.7355 3.42054 14.9863 3.31854 15.0307C2.95074 15.4063 3.28486 14.3827 3.12166 14.6779C2.95726 14.6731 3.05187 14.8589 3.05487 15.0893C2.51727 14.9561 3.1854 15.3722 3.3408 15.6014C3.0954 15.3446 3.13702 15.7939 2.93182 15.5803C2.86222 15.3913 2.85252 15.0928 2.51112 15.04C2.89932 14.9056 2.28022 14.6326 2.33182 14.6182C2.55382 14.416 2.58219 14.1381 2.84979 14.5725C2.51079 14.5449 2.84022 15.132 2.92362 14.9568C2.91042 14.6562 3.06219 14.3407 2.54979 14.2021C2.39919 14.4049 2.1396 13.8048 2.4408 13.9314C2.4012 13.533 2.90797 13.7679 2.87557 13.5951C3.13717 13.4805 2.55888 13.1105 2.87088 12.9623C3.10968 13.1075 3.72908 12.7338 3.31268 12.6822C3.57308 12.6798 3.78195 12.7939 3.80955 12.5299C4.02015 12.5755 4.58985 12.7569 4.07205 12.4713C4.23765 12.3891 4.58764 12.3196 4.78924 12.3166C4.85142 12.2682 4.90404 12.2421 4.94862 12.2334ZM22.7318 12.5685C22.3334 12.5685 22.0149 12.6575 21.7767 12.8369C21.5199 13.0229 21.3924 13.282 21.3924 13.6162C21.3924 13.888 21.4747 14.1046 21.6385 14.2654C21.7897 14.4166 22.0908 14.5929 22.542 14.7939C22.854 14.9301 23.0644 15.0494 23.1724 15.1514C23.2714 15.2414 23.3213 15.3521 23.3213 15.4853C23.3213 15.7883 23.1036 15.94 22.6674 15.94C22.1508 15.94 21.7763 15.738 21.5447 15.333C21.4919 15.2436 21.4281 15.2033 21.3537 15.2123C21.2793 15.2183 21.2424 15.3028 21.2424 15.4666C21.2424 15.847 21.2553 16.0597 21.2799 16.1029C21.3201 16.1491 21.4656 16.1995 21.7158 16.2553C22.0062 16.3171 22.2973 16.349 22.5877 16.349C23.0239 16.349 23.3681 16.2516 23.6201 16.0584C23.8721 15.8652 23.9974 15.6055 23.9974 15.2779C23.9974 14.9815 23.9051 14.7448 23.7209 14.5666C23.5787 14.431 23.3095 14.277 22.9135 14.1072C22.5361 13.9434 22.2971 13.8225 22.1951 13.7451C22.0805 13.6551 22.0228 13.536 22.0228 13.3842C22.0228 13.1124 22.2344 12.9764 22.658 12.9764C23.0324 12.9764 23.3419 13.175 23.5861 13.574C23.6203 13.6298 23.688 13.6472 23.79 13.6256C23.8854 13.601 23.9291 13.5685 23.9201 13.5283C23.8427 13.2007 23.7912 12.9505 23.7666 12.7771C23.757 12.7183 23.6411 12.6685 23.4185 12.6283C23.2115 12.5887 22.982 12.5685 22.7318 12.5685ZM18.8717 12.5873C18.5069 12.5873 18.1274 12.692 17.7314 12.899C17.354 13.097 17.1654 13.27 17.1654 13.4182C17.1654 13.6558 17.2925 13.7627 17.5463 13.7381C17.7689 13.7195 17.9396 13.5907 18.0584 13.3525C18.1772 13.1143 18.3037 12.9951 18.4369 12.9951C18.9037 12.9951 19.127 13.2498 19.1084 13.7568L19.1002 14.0533C19.0972 14.1829 18.9903 14.2686 18.7803 14.3088C17.5557 14.541 16.9439 14.9238 16.9439 15.4584C16.9439 15.7398 17.0363 15.9626 17.2217 16.1264C17.3915 16.2746 17.603 16.349 17.8568 16.349C18.1256 16.349 18.3938 16.2858 18.6596 16.1592C18.9254 16.0326 19.0726 15.9682 19.1002 15.9682C19.1374 15.9682 19.2017 16.0275 19.2947 16.1451C19.3871 16.2627 19.494 16.3209 19.6146 16.3209C19.7568 16.3209 19.9466 16.2554 20.183 16.124C20.4194 15.9926 20.5381 15.8947 20.5381 15.8299C20.5381 15.7093 20.4927 15.6488 20.4021 15.6482C20.3865 15.6482 20.3317 15.6561 20.2357 15.6717C20.1397 15.6873 20.0754 15.6951 20.0412 15.6951C19.8684 15.6951 19.7827 15.5949 19.7857 15.3939L19.8045 13.4826C19.8105 12.8856 19.4993 12.5873 18.8717 12.5873ZM4.91463 12.7291C4.83574 12.7517 4.71239 13.171 4.79744 13.3209C4.98464 13.6191 5.17196 12.588 5.01776 12.9342C4.93496 13.3752 4.85031 13.1909 4.96971 12.8627C4.96251 12.7572 4.94093 12.7216 4.91463 12.7291ZM2.28026 13.1193C2.31008 13.118 2.36245 13.1204 2.44315 13.1287C2.85955 13.1143 2.72585 13.3598 2.48885 13.376C2.48345 13.3916 2.27174 13.3252 2.35994 13.267C2.93114 13.3394 2.0715 13.1287 2.28026 13.1193ZM3.32908 13.2646C3.36381 13.3425 3.4227 13.489 3.3783 13.5541C3.4953 13.6699 3.89501 13.876 3.57401 13.5928C3.77861 13.552 3.54698 13.4872 3.42518 13.39C3.28388 13.1779 3.29436 13.1868 3.32908 13.2646ZM1.97088 13.2752C2.06538 13.2715 2.16238 13.32 1.97908 13.4322C1.78438 13.3347 1.87638 13.2789 1.97088 13.2752ZM4.63455 13.5482C4.62849 13.5396 4.62531 13.5473 4.63221 13.5893C4.70286 13.7477 4.65275 13.5741 4.63455 13.5482ZM3.21541 13.7064C3.27061 13.7862 3.42003 13.7509 3.48963 13.8283C4.11843 14.0887 3.43321 13.6596 3.21541 13.7064ZM3.11697 13.7557C3.08604 13.7627 3.0916 13.8038 3.16033 13.8986C3.20353 13.9964 3.30771 14.0047 3.39471 14.0275C4.06941 14.3386 3.25102 13.7252 3.11697 13.7557ZM1.95565 13.8084C2.05817 13.8251 2.18148 13.8804 2.04588 13.9338L1.9908 13.9127C1.7715 13.8128 1.85312 13.7917 1.95565 13.8084ZM2.90955 13.8904C2.87883 13.892 2.90518 13.9381 3.04783 14.065L3.14041 14.16C3.60841 14.2882 3.00172 13.8856 2.90955 13.8904ZM2.84627 14.0158C2.82211 14.0151 3.0392 14.2472 2.93885 14.2432C2.59145 13.9894 2.73327 14.1689 2.92947 14.3639C3.14247 14.6801 3.31846 14.1755 2.97166 14.1119C2.88916 14.0426 2.85433 14.0161 2.84627 14.0158ZM4.32049 14.3463C4.31607 14.3608 4.31531 14.4097 4.32401 14.5162C4.38206 14.5689 4.33374 14.3028 4.32049 14.3463ZM4.62752 14.3732C4.55268 14.3737 4.49648 14.9043 4.68143 15.0154C4.75763 15.2344 4.83898 15.1443 4.86658 14.8959C4.68778 14.8995 4.94018 14.5068 4.70018 14.5842C4.67918 14.4313 4.65247 14.3731 4.62752 14.3732ZM5.14432 14.385C5.13089 14.3552 5.0986 14.4203 5.0869 14.6381V14.7002C5.1517 14.5391 5.15774 14.4147 5.14432 14.385ZM1.64041 14.4025C1.68783 14.3911 1.95811 14.9385 1.92166 15.0893C1.75606 15.0317 1.76409 14.7725 1.68729 14.6357C1.63404 14.4724 1.62461 14.4063 1.64041 14.4025ZM3.61502 14.4295C3.57122 14.5513 3.708 14.9507 3.7908 15.0869C4.002 15.4115 3.90725 14.9094 4.13885 15.2334C4.01165 14.949 4.19866 15.1038 4.17166 14.9826C4.11286 14.8602 3.54332 14.2124 3.80252 14.7014C4.03712 15.2846 3.65522 14.6281 3.61502 14.4295ZM1.52908 14.5244C1.59249 14.5653 1.76243 14.8418 1.79393 14.9955C2.06093 15.3171 1.95561 15.4943 2.23221 15.8885C1.87641 15.6641 1.80919 15.1284 1.58299 14.7822C1.49052 14.5601 1.49104 14.4999 1.52908 14.5244ZM18.9818 14.5971C19.0123 14.5994 19.0364 14.607 19.0556 14.6193C19.0946 14.6439 19.1126 14.6943 19.1096 14.7717L19.1002 15.5334C19.1002 15.6294 19.0045 15.7117 18.8131 15.7795C18.6493 15.8383 18.4897 15.8674 18.3349 15.8674C17.9485 15.8674 17.7549 15.69 17.7549 15.3342C17.7549 14.9814 18.1276 14.7385 18.8728 14.6053C18.9145 14.5975 18.9513 14.5947 18.9818 14.5971ZM3.49315 15.5322C3.63627 15.5771 3.54977 16.0453 3.76502 16.1088C4.24562 16.7358 3.43213 16.1272 3.16033 16.0666C3.19513 16.0648 2.91906 15.9881 3.03846 15.9611C2.95146 15.8717 2.75675 15.5471 3.20135 15.7643C3.55475 15.9413 3.5844 15.8218 3.4158 15.5404C3.44715 15.5271 3.4727 15.5258 3.49315 15.5322ZM1.87127 15.6236C1.88317 15.5638 2.12789 15.9574 2.17244 16.1217C2.30684 16.5495 2.7275 16.7959 2.7701 17.0791C3.2363 17.3479 2.99705 17.7864 3.38885 17.91C3.56285 17.8218 3.57998 18.438 3.95018 18.3096C3.74438 18.4062 4.03682 18.5204 4.14002 18.6998C4.37342 18.668 4.88497 19.214 4.37557 19.0256C4.16077 18.98 4.01409 18.7565 3.86229 18.6107C3.41169 18.3245 3.11925 17.8457 2.87205 17.3873C2.55345 16.9055 2.16993 16.4237 1.95213 15.8603C1.88823 15.7141 1.86731 15.6436 1.87127 15.6236ZM5.45135 15.9857C5.4276 15.9979 5.42636 16.0691 5.49588 16.2248L5.5369 16.2916C5.59352 16.1075 5.49094 15.9655 5.45135 15.9857ZM3.83065 16.5365C3.96325 16.5654 4.16275 16.6366 4.24315 16.6525C4.26535 16.7479 3.78865 16.7331 4.20565 16.9197C3.96265 16.9131 3.88932 16.8948 4.23612 17.1072C4.09992 17.2164 4.51071 17.3032 4.36971 17.467C4.78791 17.7934 4.29421 17.5498 4.11541 17.4166C4.00981 17.3434 3.57946 17.1979 3.64666 17.1025C4.15426 17.3689 3.77554 17.0909 3.55174 16.9139C3.96094 17.0141 3.22385 16.6108 3.61385 16.717C3.72965 16.7452 3.4385 16.4781 3.8201 16.6725C3.6323 16.5207 3.69805 16.5076 3.83065 16.5365ZM6.37596 17.5596C6.32367 17.5411 6.37542 17.7435 6.49197 17.8654C6.74037 18.1612 6.55142 17.6975 6.46502 17.6627C6.42302 17.5965 6.39339 17.5657 6.37596 17.5596ZM4.18455 17.8502C4.32285 17.8517 4.54896 17.9141 4.68846 17.9885C5.30046 18.1247 4.55826 18.2888 4.31346 18.101L4.21033 18.0787C3.99643 17.9089 4.04625 17.8487 4.18455 17.8502ZM4.9158 17.9146C4.9667 17.9038 5.19804 17.9989 5.29666 18.0904C5.59006 18.13 5.59137 18.2641 5.26737 18.1807C5.20977 18.1453 5.1169 18.1472 5.0869 18.0728C4.91995 17.9662 4.88526 17.9212 4.9158 17.9146ZM5.30604 17.9193C5.39859 17.9178 5.55013 17.9441 5.59783 18.0143C6.24043 18.1175 5.55718 18.1624 5.36698 17.9932C5.18008 17.9503 5.21349 17.9209 5.30604 17.9193ZM5.30604 18.2814C5.37551 18.2661 5.82916 18.4534 5.50291 18.4115L5.40799 18.381C5.30254 18.3149 5.28288 18.2866 5.30604 18.2814ZM7.46815 18.3904C7.4884 18.3975 7.50898 18.4161 7.52323 18.4525C7.35448 18.4498 7.4074 18.3691 7.46815 18.3904ZM5.30838 18.5662C5.4402 18.5789 5.94732 18.856 5.49822 18.7291L5.42908 18.7021L5.35057 18.6658C5.26162 18.5868 5.26444 18.562 5.30838 18.5662ZM6.3994 19.2963C6.46032 19.2866 6.96058 19.332 6.53533 19.3279C6.40738 19.3084 6.37909 19.2995 6.3994 19.2963ZM5.06932 19.3701C5.10534 19.3782 5.16242 19.3958 5.24627 19.4264C5.78327 19.7582 6.40236 19.9337 6.97596 20.1893C7.47996 20.2553 8.0114 20.3886 8.5076 20.2818C8.9216 20.4888 9.35099 20.2282 9.76619 20.4154C8.84879 20.5942 7.90499 20.3985 6.99119 20.2713C6.41519 20.1987 5.90078 19.9596 5.37518 19.7322C5.29898 19.6962 5.22689 19.6512 5.15369 19.6092C4.79249 19.4088 4.83725 19.3678 5.18885 19.5646C5.31305 19.6636 6.19419 20.0243 5.77479 19.7861C5.61624 19.7468 4.81719 19.3138 5.06932 19.3701ZM8.40916 19.5295C8.45026 19.5559 8.45168 19.6421 8.45018 19.751C8.17418 20.0558 8.33876 19.6264 8.16776 19.792C8.00996 19.918 8.0474 19.7169 8.1326 19.6689C8.2871 19.5366 8.36806 19.5031 8.40916 19.5295ZM10.7096 19.6268C10.9559 19.648 11.2378 19.7049 11.401 19.7088C11.302 19.917 10.6901 19.7257 10.4213 19.7803L10.3053 19.7732L10.2338 19.7615C10.2527 19.6199 10.4632 19.6055 10.7096 19.6268ZM12.8283 19.6935C13.4655 19.6929 12.8703 19.7862 12.5775 19.785C12.2451 19.707 12.7281 19.7091 12.8283 19.6935ZM8.99041 19.7768C9.04141 19.771 9.05884 19.8112 8.91424 19.9045L8.86151 19.9209C8.85431 19.8333 8.93941 19.7825 8.99041 19.7768ZM8.74783 19.8143C8.75721 19.8287 8.73626 19.8702 8.65526 19.956C8.41946 19.9713 8.71971 19.7708 8.74783 19.8143ZM6.44862 19.8799C6.50616 19.8654 7.126 20.0442 7.20565 20.0275C7.83745 20.2621 6.82851 20.1039 6.61971 19.9725C6.47316 19.9105 6.42943 19.8847 6.44862 19.8799ZM9.50135 19.9103C9.50272 19.9261 9.46983 19.963 9.37713 20.0299L9.29979 20.0803C9.18999 20.0042 9.49724 19.8631 9.50135 19.9103Z" fill="#F25081"/>
</g>
<defs>
<clipPath id="clip0_426_16563">
<rect width="30" height="30" fill="white" transform="translate(0.758789 0.573242)"/>
</clipPath>
</defs>
</svg>
