<svg width="31" height="31" viewBox="0 0 31 31" fill="none" xmlns="http://www.w3.org/2000/svg">
<path d="M6.38769 2.51246C6.14597 3.32032 6.01972 4.15831 6.0127 5.00153L7.35051 5.64934C7.32533 4.85406 7.35666 4.05799 7.44426 3.26715C7.44895 3.21278 7.45457 3.1809 7.45457 3.1809C7.45457 3.20996 7.44613 3.23809 7.44426 3.26715C7.38161 4.0493 7.38067 4.83517 7.44145 5.61746C8.13436 5.02751 8.7959 4.40165 9.42332 3.74246C9.29147 3.39152 9.09169 3.07002 8.83542 2.79638C8.57916 2.52274 8.27144 2.30234 7.92988 2.14778C7.92988 2.14778 6.74488 1.66965 6.38769 2.51246Z" fill="url(#paint0_linear_1_47532)"/>
<path d="M11.0264 12.7891C10.9636 12.8575 10.8989 12.9222 10.8333 12.9869C10.8671 12.9559 10.9017 12.9194 10.9336 12.8856C10.9664 12.8553 10.9974 12.823 11.0264 12.7891Z" fill="#BE202E"/>
<path opacity="0.35" d="M11.0264 12.7891C10.9636 12.8575 10.8989 12.9222 10.8333 12.9869C10.8671 12.9559 10.9017 12.9194 10.9336 12.8856C10.9664 12.8553 10.9974 12.823 11.0264 12.7891Z" fill="#BE202E"/>
<path d="M10.5352 11.7215C10.5465 11.7131 10.5549 11.7019 10.5652 11.6934C10.6074 11.6512 10.6496 11.609 10.6852 11.5659C10.6384 11.6175 10.5849 11.6672 10.5343 11.7215H10.5352Z" fill="#BE202E"/>
<path opacity="0.35" d="M10.5352 11.7215C10.5465 11.7131 10.5549 11.7019 10.5652 11.6934C10.6074 11.6512 10.6496 11.609 10.6852 11.5659C10.6384 11.6175 10.5849 11.6672 10.5343 11.7215H10.5352Z" fill="#BE202E"/>
<path d="M7.70395 9.59908C7.64145 9.15408 7.5852 8.71658 7.5352 8.28658C7.48364 7.83939 7.44145 7.40064 7.41239 6.96658C7.41239 6.94033 7.4077 6.91408 7.41239 6.89064C7.3777 6.46689 7.35708 6.05346 7.3477 5.64846L6.01177 5.00439C6.01177 5.08502 6.00239 5.16846 5.99958 5.25658C5.98645 5.57627 5.97614 5.91283 5.97333 6.27377C5.97333 6.67689 5.97333 7.09689 5.98083 7.53658C5.9902 7.94158 6.00708 8.36346 6.02864 8.79283C6.0502 9.16033 6.07458 9.53158 6.10458 9.91033C6.10458 9.92627 6.10458 9.93658 6.10458 9.95346L7.89145 10.8581C7.83239 10.4353 7.76677 10.0153 7.70395 9.59908Z" fill="url(#paint1_linear_1_47532)"/>
<path d="M10.3477 20.1647C10.4415 20.4985 10.5465 20.8425 10.6552 21.1913C10.6552 21.1913 10.6552 21.2016 10.6552 21.2053C10.6702 21.256 10.6824 21.3038 10.7012 21.3525C10.7724 21.5878 10.8408 21.7969 10.989 22.275C11.3477 22.2531 11.7048 22.3386 12.0146 22.5206C11.7715 22.2225 11.421 22.0319 11.0387 21.99C11.5533 21.7274 11.9855 21.328 12.2877 20.8355C12.5899 20.3431 12.7504 19.7768 12.7515 19.1991C12.7402 19.0997 12.7271 18.9966 12.7074 18.8935C12.6966 19.1216 12.624 19.3425 12.4976 19.5327C12.3711 19.7229 12.1955 19.8752 11.9893 19.9735C12.4226 19.3164 12.6238 18.5333 12.5612 17.7488C12.5471 17.5678 12.5237 17.3738 12.4908 17.1685C12.4388 17.6645 12.2582 18.1384 11.9668 18.5432C11.6755 18.948 11.2835 19.2697 10.8296 19.4766L10.2877 19.9753C10.3074 20.0381 10.3243 20.1 10.3477 20.1647Z" fill="url(#paint2_linear_1_47532)"/>
<path d="M9.64741 18.6393C9.53397 18.2156 9.42053 17.7853 9.30522 17.3512C9.19647 16.935 9.09241 16.515 8.98834 16.0893C8.88428 15.6637 8.78397 15.2353 8.68459 14.8068C8.58522 14.3784 8.48772 13.9312 8.39584 13.4943C8.30397 13.0575 8.21772 12.6215 8.13147 12.1884C8.10053 12.0309 8.07241 11.8771 8.04428 11.7196C7.99459 11.4515 7.95053 11.1815 7.90178 10.9106C7.90178 10.8965 7.89709 10.8806 7.89241 10.8665L6.11584 9.95996C6.11994 9.98822 6.12214 10.0167 6.12241 10.0453C6.15803 10.4475 6.19272 10.8562 6.24053 11.264C6.28834 11.6718 6.33991 12.0984 6.40178 12.5212C6.45428 12.8775 6.51053 13.2309 6.56959 13.5881C6.58178 13.6584 6.59584 13.7325 6.60803 13.8018C6.68959 14.2434 6.77772 14.67 6.87241 15.0684C6.97834 15.5203 7.09272 15.944 7.20709 16.3396C7.28397 16.5984 7.35991 16.8478 7.43772 17.084C7.50522 17.2828 7.57834 17.4825 7.64866 17.6793C7.81834 18.1415 8.00678 18.5896 8.21116 19.0275L10.0065 19.9368C9.91272 19.6068 9.81897 19.2712 9.72522 18.9309C9.69897 18.8325 9.67459 18.7378 9.64741 18.6393Z" fill="url(#paint3_linear_1_47532)"/>
<path d="M8.23551 19.0826C8.47887 19.6077 8.75472 20.1171 9.06145 20.6079C9.07176 20.6229 9.08207 20.6436 9.09238 20.6586C8.64706 20.5363 8.18246 20.5004 7.72363 20.5526C8.55717 20.7844 9.31691 21.2271 9.92957 21.8379C9.63245 22.0985 9.27354 22.2786 8.88707 22.3611C9.27076 22.4243 9.6642 22.3894 10.0308 22.2598C9.67848 22.6393 9.43776 23.1088 9.3352 23.6164C9.58796 23.1166 9.98041 22.701 10.4649 22.4201C11.0039 24.207 11.6527 26.1439 12.3718 28.1764C12.4268 28.1055 12.4633 28.022 12.4781 27.9334C12.4928 27.8449 12.4853 27.7541 12.4561 27.6692C12.3239 27.3045 11.468 24.8867 10.4921 21.6054C10.4639 21.5117 10.4396 21.4179 10.4086 21.3242C10.4002 21.297 10.3936 21.2736 10.3852 21.2454C10.2852 20.9017 10.1833 20.5479 10.0796 20.1842C10.0571 20.0998 10.0327 20.0211 10.0102 19.9357L8.21488 19.0264C8.22006 19.0457 8.22697 19.0645 8.23551 19.0826Z" fill="url(#paint4_linear_1_47532)"/>
<path d="M8.10332 10.8966C8.11363 10.9566 8.12488 11.01 8.13519 11.071C8.16988 11.2491 8.20082 11.4291 8.23738 11.61C8.27488 11.8079 8.31613 12.0094 8.35551 12.2166C8.37519 12.3207 8.39488 12.4247 8.41738 12.5316C8.48207 12.8504 8.55238 13.1766 8.62457 13.5132C8.71832 13.9266 8.81207 14.3513 8.91613 14.7938C9.00988 15.2119 9.12051 15.6479 9.23113 16.0913C9.33894 16.5141 9.44769 16.9472 9.56769 17.3954C9.67269 17.7919 9.78613 18.1997 9.9005 18.6141C9.9005 18.6338 9.91363 18.6554 9.91738 18.675C10.0327 19.0866 10.1536 19.5113 10.2793 19.9435C10.28 19.9531 10.2829 19.9623 10.2877 19.9707L10.8296 19.4719C10.8155 19.4719 10.8052 19.4841 10.7874 19.4916C11.5237 18.6816 11.9856 17.66 12.1074 16.5722C12.1651 16.0306 12.1594 15.4841 12.0905 14.9438C12.0332 14.4744 11.9461 14.0091 11.8299 13.5507C11.723 13.1213 11.5918 12.6657 11.4314 12.1857C11.321 12.4024 11.182 12.6032 11.018 12.7829L10.9243 12.886C10.8933 12.9207 10.8586 12.9507 10.8239 12.9872C11.255 12.2845 11.3949 11.4412 11.2139 10.6369C11.0929 10.9765 10.9112 11.2913 10.6777 11.566C10.6421 11.6091 10.5999 11.6513 10.5577 11.6935C10.5464 11.7019 10.538 11.7132 10.5239 11.7244C10.6719 11.4859 10.7887 11.2294 10.8718 10.9613C10.8883 10.909 10.9017 10.8558 10.9121 10.8019C10.9308 10.7204 10.9439 10.6379 10.9561 10.5554C10.9608 10.501 10.9693 10.4504 10.9739 10.395C10.9848 10.2662 10.9848 10.1367 10.9739 10.0079C10.9739 9.96473 10.9739 9.92629 10.9636 9.88598C10.9533 9.82598 10.9458 9.76973 10.9346 9.71535C10.8914 9.46504 10.8408 9.2466 10.7949 9.0591C10.7705 8.96535 10.748 8.8791 10.7236 8.80129C10.7124 8.77035 10.7068 8.74035 10.6955 8.70754C10.6664 8.62223 10.643 8.54348 10.6168 8.47785C10.588 8.40051 10.5552 8.32478 10.5183 8.25098C10.5094 8.28831 10.4962 8.32449 10.4789 8.35879C10.3216 8.67997 10.1161 8.97525 9.86957 9.23441L10.3693 8.77785L9.86676 9.2316C9.86451 9.23286 9.86259 9.23461 9.86113 9.23672C9.85966 9.23883 9.8587 9.24125 9.85832 9.24379C9.83249 9.26964 9.80808 9.29687 9.78519 9.32535C9.78519 9.31879 9.79363 9.31316 9.79457 9.30754L8.08832 10.8685C8.10238 10.8807 8.10426 10.89 8.10332 10.8966Z" fill="url(#paint5_linear_1_47532)"/>
<path d="M7.44147 5.61762C7.46209 5.99262 7.4949 6.41262 7.53522 6.87762C7.53605 6.90218 7.53887 6.92664 7.54365 6.95074C7.58209 7.35668 7.63178 7.79449 7.69553 8.27168C7.7499 8.68324 7.8099 9.11543 7.88303 9.58418C7.94397 9.99012 8.01897 10.4148 8.09584 10.8657L9.80209 9.30293C10.0923 8.84096 10.2412 8.3043 10.2305 7.75887C10.2305 7.6248 10.2202 7.48418 10.2099 7.3398C10.1831 6.8901 10.1336 6.44204 10.0618 5.9973C9.99839 5.59092 9.91359 5.18818 9.80772 4.79074C9.7527 4.58353 9.68731 4.37921 9.61178 4.17855C9.55084 4.02574 9.48709 3.88605 9.42428 3.75293C8.79511 4.40743 8.13333 5.02979 7.44147 5.61762Z" fill="url(#paint6_linear_1_47532)"/>
<path d="M10.9355 12.8877C10.9046 12.9224 10.8699 12.9524 10.8352 12.9889C10.8668 12.9534 10.9003 12.9196 10.9355 12.8877Z" fill="#BE202E"/>
<path opacity="0.35" d="M10.9355 12.8877C10.9046 12.9224 10.8699 12.9524 10.8352 12.9889C10.8668 12.9534 10.9003 12.9196 10.9355 12.8877Z" fill="#BE202E"/>
<path d="M10.9355 12.8877C10.9046 12.9224 10.8699 12.9524 10.8352 12.9889C10.8668 12.9534 10.9003 12.9196 10.9355 12.8877Z" fill="url(#paint7_linear_1_47532)"/>
<path d="M10.5352 11.7243C10.5465 11.7159 10.5549 11.7046 10.569 11.6934C10.5577 11.7018 10.5493 11.713 10.5352 11.7243Z" fill="#BE202E"/>
<path opacity="0.35" d="M10.5352 11.7243C10.5465 11.7159 10.5549 11.7046 10.569 11.6934C10.5577 11.7018 10.5493 11.713 10.5352 11.7243Z" fill="#BE202E"/>
<path d="M10.5352 11.7243C10.5465 11.7159 10.5549 11.7046 10.569 11.6934C10.5577 11.7018 10.5493 11.713 10.5352 11.7243Z" fill="url(#paint8_linear_1_47532)"/>
<path d="M23.873 2.84781C23.0379 3.30714 22.2719 3.88221 21.5977 4.55594L22.1602 6.14031C22.772 5.48043 23.4299 4.86482 24.129 4.29813C24.1768 4.25875 24.2058 4.23625 24.2058 4.23625C24.1815 4.25875 24.1533 4.27563 24.129 4.29813C23.4554 4.87695 22.8284 5.50797 22.254 6.18531C23.2796 6.26159 24.3085 6.28412 25.3365 6.25281C25.5099 5.86513 25.6051 5.44699 25.6165 5.02242C25.6279 4.59785 25.5554 4.17521 25.403 3.77875C25.403 3.77875 24.8293 2.45313 23.873 2.84781Z" fill="url(#paint9_linear_1_47532)"/>
<path d="M19.4415 14.8057C19.3365 14.8122 19.2324 14.8122 19.1284 14.8122C19.1799 14.8122 19.2371 14.8122 19.2896 14.8122C19.3403 14.8135 19.391 14.8113 19.4415 14.8057Z" fill="#BE202E"/>
<path opacity="0.35" d="M19.4415 14.8057C19.3365 14.8122 19.2324 14.8122 19.1284 14.8122C19.1799 14.8122 19.2371 14.8122 19.2896 14.8122C19.3403 14.8135 19.391 14.8113 19.4415 14.8057Z" fill="#BE202E"/>
<path d="M19.8952 13.5573C19.9102 13.5573 19.9261 13.5573 19.9421 13.5573C20.0096 13.5573 20.0771 13.5573 20.1408 13.5498C20.0621 13.5498 19.9796 13.5498 19.8961 13.5554L19.8952 13.5573Z" fill="#BE202E"/>
<path opacity="0.35" d="M19.8952 13.5573C19.9102 13.5573 19.9261 13.5573 19.9421 13.5573C20.0096 13.5573 20.0771 13.5573 20.1408 13.5498C20.0621 13.5498 19.9796 13.5498 19.8961 13.5554L19.8952 13.5573Z" fill="#BE202E"/>
<path d="M19.3018 9.59795C19.6055 9.19045 19.908 8.79295 20.2093 8.40545C20.5224 8.0042 20.8393 7.61982 21.159 7.24576C21.1777 7.22232 21.1974 7.19982 21.2152 7.18107C21.5283 6.81639 21.8396 6.46764 22.1527 6.13389L21.5902 4.5542C21.5236 4.61701 21.4524 4.67982 21.3802 4.74639C21.1149 4.99295 20.8374 5.2592 20.5515 5.5442C20.229 5.86576 19.8952 6.20701 19.554 6.56701C19.2399 6.90076 18.9183 7.25326 18.5949 7.61607C18.3202 7.9292 18.0446 8.24701 17.768 8.57607L17.7361 8.61264L18.4552 10.7604C18.7411 10.3733 19.0215 9.98139 19.3018 9.59795Z" fill="url(#paint10_linear_1_47532)"/>
<path d="M13.0318 20.2004C12.8443 20.5472 12.6568 20.9035 12.4646 21.271C12.4646 21.2757 12.458 21.2804 12.4571 21.2851C12.429 21.3385 12.4008 21.3863 12.3774 21.4397C12.248 21.6854 12.1374 21.9085 11.8768 22.411C12.1831 22.6782 12.4028 23.0308 12.5077 23.4235C12.5488 22.9907 12.4181 22.559 12.144 22.2216C13.6046 22.5029 14.9311 22.3154 15.7402 21.3357C15.8105 21.2476 15.8808 21.1538 15.9474 21.0544C15.7573 21.2293 15.5234 21.3494 15.2704 21.4019C15.0175 21.4544 14.7551 21.4373 14.5111 21.3526C15.3823 21.1669 16.1663 20.6953 16.7386 20.0129C16.8708 19.8554 17.0049 19.6829 17.1427 19.4897C16.7067 19.8478 16.1847 20.0858 15.6284 20.1802C15.0722 20.2746 14.5009 20.2221 13.9711 20.0279L13.1386 19.9988C13.103 20.0701 13.0665 20.1329 13.0318 20.2004Z" fill="url(#paint11_linear_1_47532)"/>
<path d="M13.6833 18.4187C13.9289 17.9865 14.1793 17.5506 14.4333 17.1062C14.6771 16.6843 14.9255 16.2625 15.1833 15.8387C15.4411 15.415 15.698 14.9893 15.9577 14.5646C16.2174 14.14 16.4949 13.7031 16.7705 13.2756C17.0461 12.8481 17.3208 12.4318 17.5946 12.0137C17.6949 11.8618 17.7943 11.7156 17.8993 11.5646C18.0718 11.3096 18.2499 11.0546 18.4271 10.8006C18.4346 10.7865 18.4468 10.7725 18.4543 10.7575L17.7446 8.61621C17.7253 8.64228 17.7043 8.66703 17.6818 8.69027C17.3911 9.04277 17.0949 9.39902 16.8061 9.76746C16.5174 10.1359 16.223 10.5175 15.9371 10.9084C15.6961 11.2365 15.4608 11.5646 15.2246 11.9003C15.1786 11.9659 15.1308 12.0371 15.0858 12.1037C14.8046 12.5246 14.5318 12.9371 14.2918 13.3337C14.018 13.7818 13.7724 14.214 13.5521 14.6228C13.4086 14.8928 13.2708 15.1534 13.1461 15.4056C13.0421 15.6193 12.9427 15.8378 12.8433 16.0525C12.6127 16.5587 12.4083 17.0696 12.2236 17.5834L12.9464 19.7396C13.1339 19.3975 13.3271 19.0571 13.5193 18.7084C13.5708 18.6156 13.6289 18.52 13.6833 18.4187Z" fill="url(#paint12_linear_1_47532)"/>
<path d="M12.1946 17.656C11.9734 18.2721 11.7909 18.9015 11.648 19.5403C11.648 19.561 11.6358 19.5853 11.633 19.606C11.3715 19.1537 11.0259 18.7556 10.6149 18.4331C11.1017 19.2819 11.3617 20.2419 11.3696 21.2203C10.9232 21.1939 10.491 21.0535 10.1143 20.8125C10.3728 21.1685 10.7173 21.4533 11.1155 21.6403C10.5304 21.6661 9.96374 21.8527 9.47769 22.1794C10.0783 21.9781 10.7245 21.9557 11.3377 22.1147C10.3477 23.9803 9.33519 26.055 8.29926 28.2628C8.39953 28.2492 8.49485 28.2109 8.57667 28.1513C8.65848 28.0918 8.72423 28.0128 8.76801 27.9216C8.95551 27.5222 10.1836 24.8972 12.0052 21.4791C12.0558 21.3853 12.1111 21.2869 12.1627 21.1847C12.1777 21.1556 12.1908 21.1313 12.2058 21.1031C12.3983 20.7469 12.5974 20.3813 12.803 20.0063C12.8518 19.92 12.8968 19.8375 12.9446 19.7513V19.7466L12.2218 17.5903C12.2106 17.6113 12.2015 17.6333 12.1946 17.656Z" fill="url(#paint13_linear_1_47532)"/>
<path d="M18.5921 10.9602C18.5527 11.0164 18.5189 11.0689 18.4796 11.1252C18.3661 11.2958 18.248 11.4655 18.1336 11.6408C18.0193 11.8161 17.8796 12.0242 17.7464 12.223C17.6799 12.3223 17.6133 12.4217 17.5458 12.5258C17.3443 12.8342 17.1418 13.153 16.9327 13.4802C16.6758 13.8842 16.4171 14.3033 16.1499 14.742C15.8968 15.1573 15.6352 15.5914 15.3727 16.0367C15.1233 16.4623 14.8674 16.8983 14.6077 17.3492C14.3771 17.7523 14.1446 18.1695 13.9046 18.597C13.8914 18.6158 13.883 18.6402 13.8699 18.6598C13.6364 19.0827 13.3955 19.5205 13.1527 19.9723C13.1456 19.9808 13.1404 19.9907 13.1377 20.0014L13.9702 20.0305C13.9561 20.023 13.9402 20.0211 13.9205 20.0127C15.1566 19.9453 16.34 19.4896 17.3021 18.7105C17.7796 18.3209 18.21 17.877 18.5846 17.3877C18.9111 16.9642 19.2105 16.5205 19.4808 16.0592C19.7358 15.6289 19.9927 15.1573 20.2449 14.6436C19.9839 14.7302 19.7124 14.7813 19.4377 14.7955L19.2802 14.8039C19.2277 14.8039 19.1761 14.8039 19.1189 14.8039C20.0241 14.5804 20.8064 14.0126 21.2996 13.2214C20.9323 13.3989 20.5359 13.5082 20.1296 13.5439C20.0658 13.5505 19.9983 13.5505 19.9308 13.5514C19.9158 13.5514 19.8999 13.5514 19.8793 13.5514C20.1877 13.477 20.4854 13.3636 20.7652 13.2139C20.8201 13.1858 20.8733 13.1545 20.9246 13.1202C21.0052 13.0695 21.0802 13.0133 21.1561 12.957C21.2039 12.9177 21.2499 12.882 21.2977 12.8427C21.4082 12.7467 21.5104 12.6417 21.6033 12.5286C21.6352 12.492 21.6652 12.4602 21.6914 12.4217C21.7308 12.3655 21.7693 12.3139 21.803 12.2614C21.9671 12.0261 22.103 11.8114 22.2146 11.6202C22.2699 11.5264 22.3196 11.4383 22.3627 11.3558C22.3777 11.322 22.3974 11.293 22.4133 11.262C22.4583 11.1683 22.5014 11.0877 22.5324 11.0145C22.5705 10.9295 22.604 10.8425 22.6327 10.7539C22.5959 10.7768 22.5566 10.7954 22.5155 10.8092C22.1338 10.9429 21.7338 11.0175 21.3296 11.0305L22.0946 11.0595L21.3296 11.0305C21.3271 11.0293 21.3244 11.0287 21.3216 11.0287C21.3188 11.0287 21.3161 11.0293 21.3136 11.0305C21.2737 11.0284 21.2336 11.0284 21.1936 11.0305C21.1993 11.0305 21.2096 11.0305 21.2152 11.023L18.5996 10.9292C18.6043 10.9461 18.5977 10.9555 18.5921 10.9602Z" fill="url(#paint14_linear_1_47532)"/>
<path d="M22.254 6.18652C21.9727 6.50434 21.6652 6.86902 21.3296 7.27777C21.3107 7.29821 21.2934 7.32016 21.278 7.3434C20.9865 7.70059 20.6799 8.0934 20.3509 8.52746C20.0696 8.90246 19.7696 9.29996 19.4565 9.73684C19.1827 10.1118 18.9062 10.514 18.6127 10.9378L21.2284 11.0315C21.8291 10.8904 22.3755 10.577 22.8005 10.1296C22.9046 10.02 23.0105 9.9009 23.1174 9.77621C23.4521 9.39199 23.7671 8.99117 24.0615 8.57527C24.3319 8.19779 24.5823 7.80631 24.8115 7.40246C24.9319 7.19217 25.0418 6.97596 25.1405 6.75465C25.2127 6.58309 25.2727 6.4209 25.328 6.26246C24.3027 6.28878 23.2767 6.26343 22.254 6.18652Z" fill="url(#paint15_linear_1_47532)"/>
<path d="M19.2896 14.8146C19.2371 14.8146 19.1855 14.8146 19.1284 14.8146C19.1821 14.8112 19.2359 14.8112 19.2896 14.8146Z" fill="#BE202E"/>
<path opacity="0.35" d="M19.2896 14.8146C19.2371 14.8146 19.1855 14.8146 19.1284 14.8146C19.1821 14.8112 19.2359 14.8112 19.2896 14.8146Z" fill="#BE202E"/>
<path d="M19.2896 14.8146C19.2371 14.8146 19.1855 14.8146 19.1284 14.8146C19.1821 14.8112 19.2359 14.8112 19.2896 14.8146Z" fill="url(#paint16_linear_1_47532)"/>
<defs>
<linearGradient id="paint0_linear_1_47532" x1="5.87543" y1="2.28508" x2="9.14138" y2="-1.85812" gradientUnits="userSpaceOnUse">
<stop stop-color="#F69923"/>
<stop offset="0.312" stop-color="#F79A23"/>
<stop offset="0.838" stop-color="#E97826"/>
</linearGradient>
<linearGradient id="paint1_linear_1_47532" x1="10.3663" y1="27.265" x2="5.60846" y2="3.26895" gradientUnits="userSpaceOnUse">
<stop offset="0.323" stop-color="#9E2064"/>
<stop offset="0.63" stop-color="#C92037"/>
<stop offset="0.751" stop-color="#CD2335"/>
<stop offset="1" stop-color="#E97826"/>
</linearGradient>
<linearGradient id="paint2_linear_1_47532" x1="12.2035" y1="23.8902" x2="9.36831" y2="9.59094" gradientUnits="userSpaceOnUse">
<stop stop-color="#282662"/>
<stop offset="0.095" stop-color="#662E8D"/>
<stop offset="0.788" stop-color="#9F2064"/>
<stop offset="0.949" stop-color="#CD2032"/>
</linearGradient>
<linearGradient id="paint3_linear_1_47532" x1="9.87745" y1="25.9611" x2="5.11962" y2="1.9651" gradientUnits="userSpaceOnUse">
<stop offset="0.323" stop-color="#9E2064"/>
<stop offset="0.63" stop-color="#C92037"/>
<stop offset="0.751" stop-color="#CD2335"/>
<stop offset="1" stop-color="#E97826"/>
</linearGradient>
<linearGradient id="paint4_linear_1_47532" x1="9.85917" y1="24.1457" x2="7.35881" y2="11.5351" gradientUnits="userSpaceOnUse">
<stop stop-color="#282662"/>
<stop offset="0.095" stop-color="#662E8D"/>
<stop offset="0.788" stop-color="#9F2064"/>
<stop offset="0.949" stop-color="#CD2032"/>
</linearGradient>
<linearGradient id="paint5_linear_1_47532" x1="12.3606" y1="25.4688" x2="7.60279" y2="1.47282" gradientUnits="userSpaceOnUse">
<stop offset="0.323" stop-color="#9E2064"/>
<stop offset="0.63" stop-color="#C92037"/>
<stop offset="0.751" stop-color="#CD2335"/>
<stop offset="1" stop-color="#E97826"/>
</linearGradient>
<linearGradient id="paint6_linear_1_47532" x1="12.5355" y1="26.9813" x2="7.77769" y2="2.98531" gradientUnits="userSpaceOnUse">
<stop offset="0.323" stop-color="#9E2064"/>
<stop offset="0.63" stop-color="#C92037"/>
<stop offset="0.751" stop-color="#CD2335"/>
<stop offset="1" stop-color="#E97826"/>
</linearGradient>
<linearGradient id="paint7_linear_1_47532" x1="13.1045" y1="25.3212" x2="8.34663" y2="1.3252" gradientUnits="userSpaceOnUse">
<stop offset="0.323" stop-color="#9E2064"/>
<stop offset="0.63" stop-color="#C92037"/>
<stop offset="0.751" stop-color="#CD2335"/>
<stop offset="1" stop-color="#E97826"/>
</linearGradient>
<linearGradient id="paint8_linear_1_47532" x1="13.0172" y1="25.3385" x2="8.25939" y2="1.34252" gradientUnits="userSpaceOnUse">
<stop offset="0.323" stop-color="#9E2064"/>
<stop offset="0.63" stop-color="#C92037"/>
<stop offset="0.751" stop-color="#CD2335"/>
<stop offset="1" stop-color="#E97826"/>
</linearGradient>
<linearGradient id="paint9_linear_1_47532" x1="20.3202" y1="3.87268" x2="26.2631" y2="3.13412" gradientUnits="userSpaceOnUse">
<stop stop-color="#F69923"/>
<stop offset="0.312" stop-color="#F79A23"/>
<stop offset="0.838" stop-color="#E97826"/>
</linearGradient>
<linearGradient id="paint10_linear_1_47532" x1="4.0118" y1="27.6226" x2="19.3196" y2="4.45399" gradientUnits="userSpaceOnUse">
<stop offset="0.323" stop-color="#9E2064"/>
<stop offset="0.63" stop-color="#C92037"/>
<stop offset="0.751" stop-color="#CD2335"/>
<stop offset="1" stop-color="#E97826"/>
</linearGradient>
<linearGradient id="paint11_linear_1_47532" x1="8.18804" y1="26.3644" x2="17.31" y2="12.5582" gradientUnits="userSpaceOnUse">
<stop stop-color="#282662"/>
<stop offset="0.095" stop-color="#662E8D"/>
<stop offset="0.788" stop-color="#9F2064"/>
<stop offset="0.949" stop-color="#CD2032"/>
</linearGradient>
<linearGradient id="paint12_linear_1_47532" x1="4.65756" y1="26.1797" x2="19.9654" y2="3.01116" gradientUnits="userSpaceOnUse">
<stop offset="0.323" stop-color="#9E2064"/>
<stop offset="0.63" stop-color="#C92037"/>
<stop offset="0.751" stop-color="#CD2335"/>
<stop offset="1" stop-color="#E97826"/>
</linearGradient>
<linearGradient id="paint13_linear_1_47532" x1="6.09142" y1="24.7001" x2="14.1361" y2="12.5244" gradientUnits="userSpaceOnUse">
<stop stop-color="#282662"/>
<stop offset="0.095" stop-color="#662E8D"/>
<stop offset="0.788" stop-color="#9F2064"/>
<stop offset="0.949" stop-color="#CD2032"/>
</linearGradient>
<linearGradient id="paint14_linear_1_47532" x1="7.05513" y1="27.764" x2="22.3629" y2="4.59547" gradientUnits="userSpaceOnUse">
<stop offset="0.323" stop-color="#9E2064"/>
<stop offset="0.63" stop-color="#C92037"/>
<stop offset="0.751" stop-color="#CD2335"/>
<stop offset="1" stop-color="#E97826"/>
</linearGradient>
<linearGradient id="paint15_linear_1_47532" x1="5.98932" y1="29.1246" x2="21.2971" y2="5.95603" gradientUnits="userSpaceOnUse">
<stop offset="0.323" stop-color="#9E2064"/>
<stop offset="0.63" stop-color="#C92037"/>
<stop offset="0.751" stop-color="#CD2335"/>
<stop offset="1" stop-color="#E97826"/>
</linearGradient>
<linearGradient id="paint16_linear_1_47532" x1="7.77331" y1="30.4763" x2="26.5486" y2="6.11909" gradientUnits="userSpaceOnUse">
<stop offset="0.323" stop-color="#9E2064"/>
<stop offset="0.63" stop-color="#C92037"/>
<stop offset="0.751" stop-color="#CD2335"/>
<stop offset="1" stop-color="#E97826"/>
</linearGradient>
</defs>
</svg>
