<svg width="24" height="24" viewBox="0 0 24 24" fill="none" xmlns="http://www.w3.org/2000/svg">
<path d="M12 16.9998C5.55 16.9998 0.5 14.7998 0.5 11.9998C0.5 9.19976 5.55 6.99976 12 6.99976C18.45 6.99976 23.5 9.19976 23.5 11.9998C23.5 14.7998 18.45 16.9998 12 16.9998ZM12 7.99976C5.7 7.99976 1.5 10.0498 1.5 11.9998C1.5 13.9498 5.7 15.9998 12 15.9998C18.3 15.9998 22.5 13.9498 22.5 11.9998C22.5 10.0498 18.3 7.99976 12 7.99976Z" fill="#14D8F1"/>
<path d="M7.5498 22.3C7.0498 22.3 6.6498 22.2 6.2498 21.95C3.7998 20.55 4.4498 15.1 7.6498 9.49998C9.1498 6.89998 10.9998 4.69998 12.7998 3.29998C14.7498 1.79998 16.4998 1.34998 17.6998 2.04998C18.9498 2.74998 19.3998 4.49998 19.0998 6.94998C18.7998 9.24998 17.7998 11.95 16.2998 14.55C14.7998 17.15 12.9498 19.35 11.1498 20.75C9.8498 21.75 8.5998 22.3 7.5498 22.3ZM16.4498 2.69998C15.6498 2.69998 14.5998 3.14998 13.4498 4.04998C11.7498 5.39998 9.9998 7.49998 8.5498 9.99998C5.3998 15.45 5.0998 20.15 6.7498 21.1C7.5998 21.6 8.9998 21.15 10.5498 19.95C12.2498 18.6 13.9998 16.5 15.4498 14C16.8998 11.5 17.8498 8.94998 18.1498 6.79998C18.3998 4.79998 18.0998 3.39998 17.2498 2.89998C16.9998 2.79998 16.7498 2.69998 16.4498 2.69998Z" fill="#14D8F1"/>
<path d="M16.4998 22.3C13.9998 22.3 10.3998 19.25 7.69978 14.5C4.44978 8.90004 3.79978 3.45004 6.24978 2.05004C8.69978 0.650035 13.0998 3.90004 16.3498 9.50004C17.8498 12.1 18.8498 14.8 19.1498 17.1C19.4998 19.55 18.9998 21.25 17.7498 22C17.3498 22.2 16.9498 22.3 16.4998 22.3ZM6.74978 2.90004C5.09978 3.85004 5.39978 8.55004 8.54978 14C11.6998 19.45 15.5998 22.05 17.2498 21.1C18.0998 20.6 18.3998 19.2 18.1498 17.2C17.8498 15.05 16.8998 12.5 15.4498 10C12.2998 4.55004 8.39978 1.95004 6.74978 2.90004Z" fill="#14D8F1"/>
<path d="M12 14C13.1046 14 14 13.1046 14 12C14 10.8954 13.1046 10 12 10C10.8954 10 10 10.8954 10 12C10 13.1046 10.8954 14 12 14Z" fill="#14D8F1"/>
</svg>
