<svg width="24" height="24" viewBox="0 0 24 24" fill="none" xmlns="http://www.w3.org/2000/svg">
<path d="M21.991 11.8176C22.0255 9.6871 21.5455 7.1536 20.5455 4.1811L19.7615 1.8501L18.6965 4.0666C18.6395 4.1851 18.5745 4.3011 18.5065 4.4156C16.757 2.9136 14.487 2.0001 12 2.0001C6.477 2.0001 2 6.4771 2 12.0001C2 17.5231 6.477 22.0001 12 22.0001C17.523 22.0001 22 17.5231 22 12.0001C22 11.9386 21.992 11.8791 21.991 11.8176Z" fill="#2BBC28"/>
<path d="M19.6931 16.279C18.1316 18.43 15.3676 18.5455 12.7661 18.5H9.37565H8.40665C10.6206 17.7035 11.9381 17.514 13.2836 16.8C15.8176 15.4675 18.3226 12.552 18.8441 9.519C17.8791 12.437 14.9546 14.944 12.2896 15.9635C10.4636 16.66 7.16565 17.336 7.16565 17.336L7.03215 17.2635C4.78714 16.134 4.71914 11.107 8.80065 9.484C10.5876 8.7725 12.2971 9.1635 14.2276 8.6875C16.2886 8.1815 18.6726 6.5835 19.6426 4.5C20.7286 7.8335 22.0356 13.053 19.6931 16.279ZM7.83465 19.2225C7.69365 19.3975 7.47815 19.5 7.25315 19.5C6.84165 19.5 6.50565 19.1615 6.50565 18.75C6.50565 18.3385 6.84415 18 7.25315 18C7.42365 18 7.59165 18.059 7.72365 18.168C8.04365 18.4275 8.09365 18.9025 7.83465 19.2225Z" fill="white"/>
</svg>
