<svg width="22" height="22" viewBox="0 0 22 22" fill="none" xmlns="http://www.w3.org/2000/svg">
<path fill-rule="evenodd" clip-rule="evenodd" d="M18.6716 0.636362C20.2855 0.425288 21.6155 1.75528 21.4044 3.36915C21.0959 5.72815 20.2488 9.73563 17.8533 12.3185C17.0911 13.1403 16.1704 13.8996 15.2236 14.5742L15.5003 16.5107C15.5782 17.056 15.3948 17.6061 15.0053 17.9956L11.8233 21.1776C10.8036 22.1973 9.05741 21.6152 8.85347 20.1876L8.4292 17.2178L8.43048 17.2176C8.15953 17.0865 7.90829 16.9091 7.68941 16.6902L5.35055 14.3513C5.13166 14.1325 4.95427 13.8812 4.82313 13.6102L4.82294 13.6116L1.85309 13.1873C0.425504 12.9834 -0.156565 11.2372 0.86314 10.2175L4.04512 7.03548C4.43461 6.64598 4.98475 6.4626 5.53004 6.5405L7.46651 6.81714C8.14115 5.87036 8.90047 4.9497 9.72228 4.1875C12.3051 1.792 16.3126 0.94489 18.6716 0.636362ZM3.33803 14.4601C3.63093 14.753 3.63093 15.2278 3.33803 15.5207L1.92382 16.9349C1.63093 17.2278 1.15605 17.2278 0.863161 16.9349C0.570268 16.6421 0.570268 16.1672 0.863161 15.8743L2.27737 14.4601C2.57027 14.1672 3.04514 14.1672 3.33803 14.4601ZM5.45935 16.5814C5.75225 16.8743 5.75225 17.3492 5.45935 17.6421L2.63093 20.4705C2.33804 20.7634 1.86316 20.7634 1.57027 20.4705C1.27737 20.1776 1.27737 19.7027 1.57027 19.4098L4.39869 16.5814C4.69159 16.2885 5.16646 16.2885 5.45935 16.5814ZM7.58067 18.7027C7.87357 18.9956 7.87357 19.4705 7.58067 19.7634L6.16646 21.1776C5.87357 21.4705 5.39869 21.4705 5.1058 21.1776C4.81291 20.8847 4.81291 20.4098 5.1058 20.1169L6.52001 18.7027C6.81291 18.4098 7.28778 18.4098 7.58067 18.7027ZM12.7069 9.33346C11.9258 8.55241 11.9258 7.28608 12.7069 6.50503C13.4879 5.72399 14.7543 5.72399 15.5353 6.50503C16.3164 7.28608 16.3164 8.55241 15.5353 9.33346C14.7543 10.1145 13.4879 10.1145 12.7069 9.33346Z" fill="white"/>
</svg>
