<svg width="20" height="21" viewBox="0 0 20 21" fill="none" xmlns="http://www.w3.org/2000/svg">
<path fill-rule="evenodd" clip-rule="evenodd" d="M0 4.9186C0 2.47828 2.43045 0.5 5.42857 0.5H14.5714C17.5695 0.5 20 2.47828 20 4.9186V16.0814C20 18.5217 17.5695 20.5 14.5714 20.5H5.42857C2.43045 20.5 0 18.5217 0 16.0814V4.9186ZM5.42857 5.15116C4.95518 5.15116 4.57143 5.46352 4.57143 5.84884C4.57143 6.23415 4.95518 6.54651 5.42857 6.54651H14.5714C15.0448 6.54651 15.4286 6.23415 15.4286 5.84884C15.4286 5.46352 15.0448 5.15116 14.5714 5.15116H5.42857ZM4.57143 10.5C4.57143 10.1147 4.95518 9.80233 5.42857 9.80233H14.5714C15.0448 9.80233 15.4286 10.1147 15.4286 10.5C15.4286 10.8853 15.0448 11.1977 14.5714 11.1977H5.42857C4.95518 11.1977 4.57143 10.8853 4.57143 10.5ZM5.42857 14.4535C4.95518 14.4535 4.57143 14.7658 4.57143 15.1512C4.57143 15.5365 4.95518 15.8488 5.42857 15.8488H10C10.4734 15.8488 10.8571 15.5365 10.8571 15.1512C10.8571 14.7658 10.4734 14.4535 10 14.4535H5.42857Z" fill="white"/>
</svg>
