<svg width="24" height="25" viewBox="0 0 24 25" fill="none" xmlns="http://www.w3.org/2000/svg">
<path fill-rule="evenodd" clip-rule="evenodd" d="M0 12.7139C0 6.08987 5.364 0.713867 11.988 0.713867C18.624 0.713867 24 6.08987 24 12.7139C24 19.3379 18.624 24.7139 11.988 24.7139C5.364 24.7139 0 19.3379 0 12.7139ZM16.764 7.91387H20.304C19.152 5.93387 17.316 4.39787 15.108 3.64187C15.828 4.97387 16.38 6.41387 16.764 7.91387ZM12 3.16187C12.996 4.60187 13.776 6.19787 14.292 7.91387H9.708C10.224 6.19787 11.004 4.60187 12 3.16187ZM2.4 12.7139C2.4 13.5419 2.52 14.3459 2.712 15.1139H6.768C6.672 14.3219 6.6 13.5299 6.6 12.7139C6.6 11.8979 6.672 11.1059 6.768 10.3139H2.712C2.52 11.0819 2.4 11.8859 2.4 12.7139ZM3.696 17.5139H7.236C7.62 19.0139 8.172 20.4539 8.892 21.7859C6.684 21.0299 4.848 19.5059 3.696 17.5139ZM3.696 7.91387H7.236C7.62 6.41387 8.172 4.97387 8.892 3.64187C6.684 4.39787 4.848 5.92187 3.696 7.91387ZM12 22.2659C11.004 20.8259 10.224 19.2299 9.708 17.5139H14.292C13.776 19.2299 12.996 20.8259 12 22.2659ZM9 12.7139C9 13.5299 9.084 14.3219 9.192 15.1139H14.808C14.916 14.3219 15 13.5299 15 12.7139C15 11.8979 14.916 11.0939 14.808 10.3139H9.192C9.084 11.0939 9 11.8979 9 12.7139ZM15.108 21.7859C15.828 20.4539 16.38 19.0139 16.764 17.5139H20.304C19.152 19.4939 17.316 21.0299 15.108 21.7859ZM17.4 12.7139C17.4 13.5299 17.328 14.3219 17.232 15.1139H21.288C21.48 14.3459 21.6 13.5419 21.6 12.7139C21.6 11.8859 21.48 11.0819 21.288 10.3139H17.232C17.328 11.1059 17.4 11.8979 17.4 12.7139Z" fill="white"/>
</svg>
