<svg width="24" height="26" viewBox="0 0 24 26" fill="none" xmlns="http://www.w3.org/2000/svg">
<path fill-rule="evenodd" clip-rule="evenodd" d="M0 14.0146C0 10.6567 2.91655 7.93457 6.51429 7.93457H17.4857C21.0835 7.93457 24 10.6567 24 14.0146V19.1346C24 22.4925 21.0835 25.2146 17.4857 25.2146H6.51429C2.91655 25.2146 0 22.4925 0 19.1346V14.0146ZM12.75 15.2943C12.75 14.8801 12.4142 14.5443 12 14.5443C11.5858 14.5443 11.25 14.8801 11.25 15.2943V17.8543C11.25 18.2685 11.5858 18.6043 12 18.6043C12.4142 18.6043 12.75 18.2685 12.75 17.8543V15.2943Z" fill="white"/>
<path d="M17.4861 8.89387V5.21387C17.4861 3.00473 15.6952 1.21387 13.4861 1.21387H10.5146C8.30551 1.21387 6.51465 3.00473 6.51465 5.21387L6.51465 8.89387" stroke="white" stroke-width="1.5"/>
</svg>
