<svg width="13" height="14" viewBox="0 0 13 14" fill="none" xmlns="http://www.w3.org/2000/svg">
<g id="Trash can">
<path id="Rectangle 74" d="M2.75 7.125V6.23892C2.75 5.597 2.5418 4.9724 2.15665 4.45886V4.45886C1.62858 3.75477 2.13096 2.75 3.01108 2.75H9.98892C10.869 2.75 11.3714 3.75477 10.8434 4.45886V4.45886C10.4582 4.9724 10.25 5.597 10.25 6.23892V10.25C10.25 11.6307 9.13071 12.75 7.75 12.75H5.25C3.86929 12.75 2.75 11.6307 2.75 10.25V9.625" stroke="#F53838" stroke-width="0.9375" stroke-linecap="round"/>
<path id="Line" d="M7.75 9.625L7.75 5.875" stroke="#F53838" stroke-width="0.9375" stroke-linecap="round" stroke-linejoin="round"/>
<path id="Line_2" d="M5.25 9.625L5.25 5.875" stroke="#F53838" stroke-width="0.9375" stroke-linecap="round" stroke-linejoin="round"/>
<path id="Rectangle 4" d="M8.14802 1.07223C7.95143 0.946345 7.71901 0.875 7.47409 0.875H5.52599C5.28106 0.875 5.04864 0.946345 4.85205 1.07223" stroke="#F53838" stroke-width="0.9375" stroke-linecap="round"/>
</g>
</svg>
