<svg width="25" height="23" viewBox="0 0 25 23" fill="none" xmlns="http://www.w3.org/2000/svg">
<g id="Iconex/Filled/Document">
<g id="Document">
<path id="Subtract" fill-rule="evenodd" clip-rule="evenodd" d="M5 4.9186C5 2.47828 7.43045 0.5 10.4286 0.5H19.5714C22.5695 0.5 25 2.47828 25 4.9186V16.0814C25 18.5217 22.5695 20.5 19.5714 20.5H10.4286C7.43045 20.5 5 18.5217 5 16.0814V4.9186ZM10.4286 5.15116C9.95518 5.15116 9.57143 5.46352 9.57143 5.84884C9.57143 6.23415 9.95518 6.54651 10.4286 6.54651H19.5714C20.0448 6.54651 20.4286 6.23415 20.4286 5.84884C20.4286 5.46352 20.0448 5.15116 19.5714 5.15116H10.4286ZM9.57143 10.5C9.57143 10.1147 9.95518 9.80233 10.4286 9.80233H19.5714C20.0448 9.80233 20.4286 10.1147 20.4286 10.5C20.4286 10.8853 20.0448 11.1977 19.5714 11.1977H10.4286C9.95518 11.1977 9.57143 10.8853 9.57143 10.5ZM10.4286 14.4535C9.95518 14.4535 9.57143 14.7658 9.57143 15.1512C9.57143 15.5365 9.95518 15.8488 10.4286 15.8488H15C15.4734 15.8488 15.8571 15.5365 15.8571 15.1512C15.8571 14.7658 15.4734 14.4535 15 14.4535H10.4286Z" fill="#1C63ED"/>
</g>
</g>
</svg>
