<svg width="24" height="25" viewBox="0 0 24 25" fill="none" xmlns="http://www.w3.org/2000/svg">
<path id="icon" fill-rule="evenodd" clip-rule="evenodd" d="M0 12.7144C0 6.09036 5.364 0.714355 11.988 0.714355C18.624 0.714355 24 6.09036 24 12.7144C24 19.3384 18.624 24.7144 11.988 24.7144C5.364 24.7144 0 19.3384 0 12.7144ZM16.764 7.91436H20.304C19.152 5.93436 17.316 4.39836 15.108 3.64236C15.828 4.97436 16.38 6.41436 16.764 7.91436ZM12 3.16236C12.996 4.60236 13.776 6.19836 14.292 7.91436H9.708C10.224 6.19836 11.004 4.60236 12 3.16236ZM2.4 12.7144C2.4 13.5424 2.52 14.3464 2.712 15.1144H6.768C6.672 14.3224 6.6 13.5304 6.6 12.7144C6.6 11.8984 6.672 11.1064 6.768 10.3144H2.712C2.52 11.0824 2.4 11.8864 2.4 12.7144ZM3.696 17.5144H7.236C7.62 19.0144 8.172 20.4544 8.892 21.7864C6.684 21.0304 4.848 19.5064 3.696 17.5144ZM3.696 7.91436H7.236C7.62 6.41436 8.172 4.97436 8.892 3.64236C6.684 4.39836 4.848 5.92236 3.696 7.91436ZM12 22.2664C11.004 20.8264 10.224 19.2304 9.708 17.5144H14.292C13.776 19.2304 12.996 20.8264 12 22.2664ZM9 12.7144C9 13.5304 9.084 14.3224 9.192 15.1144H14.808C14.916 14.3224 15 13.5304 15 12.7144C15 11.8984 14.916 11.0944 14.808 10.3144H9.192C9.084 11.0944 9 11.8984 9 12.7144ZM15.108 21.7864C15.828 20.4544 16.38 19.0144 16.764 17.5144H20.304C19.152 19.4944 17.316 21.0304 15.108 21.7864ZM17.4 12.7144C17.4 13.5304 17.328 14.3224 17.232 15.1144H21.288C21.48 14.3464 21.6 13.5424 21.6 12.7144C21.6 11.8864 21.48 11.0824 21.288 10.3144H17.232C17.328 11.1064 17.4 11.8984 17.4 12.7144Z" fill="#1C63ED"/>
</svg>
