<svg width="25" height="25" viewBox="0 0 25 25" fill="none" xmlns="http://www.w3.org/2000/svg">
<g id="Sign Out Icon">
<g id="Group 923">
<path id="Union" fill-rule="evenodd" clip-rule="evenodd" d="M16.5201 17.1712L19.9418 13.1786C20.1052 12.9922 20.1888 12.7569 20.189 12.5203C20.189 12.3585 20.1501 12.196 20.0708 12.0483C20.0356 11.9825 19.9925 11.9199 19.9418 11.8621L16.5201 7.86953C16.1607 7.45019 15.5294 7.40159 15.11 7.76099C14.6907 8.12039 14.6421 8.75168 15.0015 9.17103L17.0149 11.5203L9.27024 11.5203C8.71796 11.5203 8.27024 11.968 8.27024 12.5203C8.27024 13.0726 8.71796 13.5203 9.27024 13.5203L17.015 13.5203L15.0015 15.8697C14.6421 16.289 14.6907 16.9203 15.11 17.2797C15.5294 17.6391 16.1607 17.5905 16.5201 17.1712ZM10.189 6.52026C10.7412 6.52026 11.189 6.96798 11.189 7.52026L11.189 9.02026C11.189 9.57255 11.6367 10.0203 12.189 10.0203C12.7412 10.0203 13.189 9.57255 13.189 9.02026L13.189 7.52026C13.189 5.86341 11.8458 4.52026 10.189 4.52026L7.18896 4.52026C5.53211 4.52026 4.18896 5.86341 4.18896 7.52026L4.18896 17.5203C4.18896 19.1771 5.53211 20.5203 7.18896 20.5203L10.189 20.5203C11.8458 20.5203 13.189 19.1771 13.189 17.5203L13.189 16.0203C13.189 15.468 12.7412 15.0203 12.189 15.0203C11.6367 15.0203 11.189 15.468 11.189 16.0203L11.189 17.5203C11.189 18.0725 10.7412 18.5203 10.189 18.5203L7.18896 18.5203C6.63668 18.5203 6.18896 18.0725 6.18896 17.5203L6.18896 7.52026C6.18896 6.96798 6.63668 6.52026 7.18896 6.52026L10.189 6.52026Z" fill="#FF1212"/>
</g>
</g>
</svg>
