<svg width="24" height="24" viewBox="0 0 24 24" fill="none" xmlns="http://www.w3.org/2000/svg">
<path d="M7.90717 4.36067C7.00763 3.79874 5.82782 3.89183 5.06847 4.65118L3.7817 5.93795C1.82739 7.89227 3.66372 12.8972 7.88327 17.1167C12.1028 21.3363 17.1077 23.1726 19.0621 21.2183L20.3488 19.9315C21.2371 19.0432 21.2137 17.5795 20.2964 16.6622L18.3033 14.6691C17.386 13.7518 15.9222 13.7283 15.0339 14.6166L14.7575 14.893C14.2779 15.3726 13.5042 15.4196 12.9641 14.9739C12.4432 14.544 11.9244 14.0806 11.4219 13.5781C10.9194 13.0756 10.456 12.5568 10.0261 12.0359C9.58045 11.4958 9.62737 10.7221 10.107 10.2425L10.3834 9.96609C11.0837 9.26578 11.2173 8.20785 10.7931 7.34197" stroke="#2B3F6C" stroke-width="1.5" stroke-linecap="round"/>
<path d="M17.6262 9.7512C17.3822 9.15601 17.0186 8.59839 16.5353 8.11512C16.0793 7.65914 15.5572 7.30967 14.9997 7.06671" stroke="#2B3F6C" stroke-width="1.5" stroke-linecap="round"/>
<path d="M15.0002 3.66292C16.3348 4.14643 17.587 4.92316 18.657 5.99316C19.7539 7.09 20.5426 8.37834 21.0231 9.75064" stroke="#2B3F6C" stroke-width="1.5" stroke-linecap="round"/>
</svg>
