<svg width="45" height="45" viewBox="0 0 45 45" fill="none" xmlns="http://www.w3.org/2000/svg">
<circle cx="22.4995" cy="22.5" r="22.5" fill="#F4E0EB"/>
<path d="M29.1509 28.615C28.709 28.1908 28.322 27.7045 28.0005 27.1692C27.6495 26.4302 27.4392 25.6233 27.3818 24.7956V22.3579C27.3848 21.0579 26.9468 19.8015 26.1501 18.8247C25.3534 17.8479 24.2528 17.2179 23.0551 17.0532V16.4166C23.0551 16.2419 22.9906 16.0743 22.8759 15.9508C22.7611 15.8272 22.6055 15.7578 22.4432 15.7578C22.281 15.7578 22.1253 15.8272 22.0106 15.9508C21.8958 16.0743 21.8314 16.2419 21.8314 16.4166V17.063C20.6444 17.2396 19.5571 17.8734 18.7708 18.8469C17.9846 19.8205 17.5527 21.0678 17.5551 22.3579V24.7956C17.4977 25.6233 17.2873 26.4302 16.9364 27.1692C16.6205 27.7033 16.2398 28.1895 15.8043 28.615C15.7554 28.6613 15.7162 28.7182 15.6893 28.782C15.6625 28.8458 15.6485 28.915 15.6484 28.9851V29.6562C15.6484 29.7871 15.6967 29.9126 15.7827 30.0051C15.8686 30.0977 15.9852 30.1497 16.1068 30.1497H28.8484C28.97 30.1497 29.0866 30.0977 29.1725 30.0051C29.2585 29.9126 29.3068 29.7871 29.3068 29.6562V28.9851C29.3067 28.915 29.2928 28.8458 29.2659 28.782C29.239 28.7182 29.1998 28.6613 29.1509 28.615ZM16.6018 29.1628C17.0282 28.7192 17.4037 28.2222 17.7201 27.6824C18.1622 26.7899 18.4202 25.8052 18.4764 24.7956V22.3579C18.4582 21.7796 18.5483 21.2032 18.7413 20.6632C18.9343 20.1231 19.2263 19.6304 19.5998 19.2144C19.9734 18.7983 20.4209 18.4675 20.9157 18.2416C21.4105 18.0156 21.9424 17.8992 22.4799 17.8992C23.0174 17.8992 23.5493 18.0156 24.0441 18.2416C24.5389 18.4675 24.9864 18.7983 25.36 19.2144C25.7335 19.6304 26.0255 20.1231 26.2185 20.6632C26.4115 21.2032 26.5016 21.7796 26.4834 22.3579V24.7956C26.5396 25.8052 26.7976 26.7899 27.2397 27.6824C27.5561 28.2222 27.9316 28.7192 28.358 29.1628H16.6018Z" fill="#FF3459"/>
<path d="M22.4998 31.7989C22.7885 31.7918 23.0656 31.6749 23.282 31.469C23.4984 31.2631 23.6402 30.9814 23.6823 30.6738H21.2715C21.3148 30.9898 21.4632 31.2781 21.6892 31.485C21.9151 31.692 22.2032 31.8035 22.4998 31.7989V31.7989Z" fill="#FF3459"/>
<path d="M32.3542 15.376C33.6198 15.376 34.6458 14.2714 34.6458 12.9087C34.6458 11.5461 33.6198 10.4414 32.3542 10.4414C31.0885 10.4414 30.0625 11.5461 30.0625 12.9087C30.0625 14.2714 31.0885 15.376 32.3542 15.376Z" fill="#F53838"/>
</svg>
