<svg width="41" height="41" viewBox="0 0 41 41" fill="none" xmlns="http://www.w3.org/2000/svg">
<circle cx="20.5" cy="20.5" r="20.5" fill="#E8F2FE"/>
<path d="M20 14C20 13.4477 19.5506 12.9936 19.0026 13.0624C17.7738 13.2168 16.5928 13.6551 15.5554 14.3482C14.2398 15.2273 13.2145 16.4767 12.609 17.9385C12.0035 19.4003 11.845 21.0089 12.1537 22.5607C12.4624 24.1126 13.2243 25.538 14.3431 26.6569C15.462 27.7757 16.8874 28.5376 18.4393 28.8463C19.9911 29.155 21.5997 28.9965 23.0615 28.391C24.5233 27.7855 25.7727 26.7602 26.6518 25.4446C27.3449 24.4072 27.7832 23.2262 27.9376 21.9974C28.0064 21.4494 27.5523 21 27 21H21.5C20.6716 21 20 20.3284 20 19.5V14Z" fill="#1C63ED" stroke="#1C63ED" stroke-width="1.5"/>
<path d="M23 12C23 11.4477 23.45 10.9927 23.9966 11.0713C24.5731 11.1542 25.1383 11.309 25.6788 11.5328C26.5281 11.8846 27.2997 12.4002 27.9497 13.0503C28.5998 13.7003 29.1154 14.4719 29.4672 15.3212C29.691 15.8617 29.8458 16.4269 29.9287 17.0034C30.0073 17.55 29.5523 18 29 18L23.2 18C23.0895 18 23 17.9105 23 17.8V12Z" fill="#1C63ED" stroke="#1C63ED" stroke-width="1.5"/>
</svg>
