<svg width="60" height="60" viewBox="0 0 60 60" fill="none" xmlns="http://www.w3.org/2000/svg">
<circle cx="30" cy="30" r="30" fill="#F3F8FB"/>
<path d="M33.2748 15.4201C31.2396 14.2766 28.7604 14.2766 26.7252 15.4201L19.1795 19.6595C17.3569 20.6835 17.3568 23.3178 19.1795 24.3418L26.7252 28.5813C28.7604 29.7247 31.2396 29.7247 33.2748 28.5813L40.8205 24.3418C42.6431 23.3179 42.6432 20.6835 40.8206 19.6595L33.2748 15.4201Z" fill="#1C63ED"/>
<path d="M18.719 32.1711C17.3726 33.3461 17.5261 35.6003 19.1795 36.5292L26.7252 40.7687C28.7604 41.9121 31.2396 41.9121 33.2748 40.7687L40.8205 36.5292C42.4739 35.6003 42.6274 33.3461 41.281 32.1711L34.1932 36.1533C31.5876 37.6172 28.4123 37.6172 25.8068 36.1533L18.719 32.1711Z" fill="#1C63ED"/>
<path d="M18.5152 26.1191C17.3933 27.3341 17.6147 29.4001 19.1795 30.2792L26.7252 34.5186C28.7604 35.662 31.2396 35.662 33.2748 34.5186L40.8205 30.2792C42.3852 29.4001 42.6067 27.3341 41.4848 26.1191L34.1932 30.2158C31.5876 31.6797 28.4123 31.6797 25.8068 30.2158L18.5152 26.1191Z" fill="#1C63ED"/>
</svg>
