<svg width="60" height="60" viewBox="0 0 60 60" fill="none" xmlns="http://www.w3.org/2000/svg">
<circle cx="30" cy="30" r="30" fill="#3CC5D8"/>
<path d="M21.8623 20.9331C21.8623 20.8795 21.8898 20.6886 22.2543 20.3808C22.614 20.0771 23.1958 19.757 24.0054 19.4678C25.6156 18.8927 27.9081 18.5173 30.4899 18.5173C33.0718 18.5173 35.3643 18.8927 36.9745 19.4678C37.7841 19.757 38.3659 20.0771 38.7256 20.3808C39.0901 20.6886 39.1176 20.8795 39.1176 20.9331C39.1176 20.9866 39.0901 21.1776 38.7256 21.4853C38.3659 21.789 37.7841 22.1092 36.9745 22.3983C35.3643 22.9734 33.0718 23.3488 30.4899 23.3488C27.9081 23.3488 25.6156 22.9734 24.0054 22.3983C23.1958 22.1092 22.614 21.789 22.2543 21.4853C21.8898 21.1776 21.8623 20.9866 21.8623 20.9331Z" fill="white"/>
<path d="M37.6709 24.3483C38.0321 24.2193 38.3776 24.0773 38.7013 23.9217C38.8909 23.8305 39.1176 23.9651 39.1176 24.1754V26.4548C39.1176 26.5083 39.0901 26.6993 38.7256 27.007C38.3659 27.3107 37.7841 27.6309 36.9745 27.92C35.3643 28.4951 33.0718 28.8705 30.4899 28.8705C27.9081 28.8705 25.6156 28.4951 24.0054 27.92C23.1958 27.6309 22.614 27.3107 22.2543 27.007C21.8898 26.6993 21.8623 26.5083 21.8623 26.4548V24.1754C21.8623 23.9651 22.089 23.8305 22.2786 23.9217C22.6023 24.0773 22.9478 24.2193 23.309 24.3483C25.1961 25.0223 27.735 25.4194 30.4899 25.4194C33.2448 25.4194 35.7838 25.0223 37.6709 24.3483Z" fill="white"/>
<path d="M37.6709 29.87C38.0321 29.741 38.3776 29.599 38.7013 29.4433C38.8909 29.3522 39.1176 29.4868 39.1176 29.6971V31.9765C39.1176 32.03 39.0901 32.221 38.7256 32.5287C38.3659 32.8324 37.7841 33.1526 36.9745 33.4417C35.3643 34.0168 33.0718 34.3922 30.4899 34.3922C27.9081 34.3922 25.6156 34.0168 24.0054 33.4417C23.1958 33.1526 22.614 32.8324 22.2543 32.5287C21.8898 32.221 21.8623 32.03 21.8623 31.9765V29.6971C21.8623 29.4868 22.089 29.3522 22.2786 29.4433C22.6023 29.599 22.9478 29.741 23.309 29.87C25.1961 30.544 27.735 30.9411 30.4899 30.9411C33.2448 30.9411 35.7838 30.544 37.6709 29.87Z" fill="white"/>
<path d="M37.6709 35.3917C38.0321 35.2627 38.3776 35.1207 38.7013 34.965C38.8909 34.8739 39.1176 35.0085 39.1176 35.2188V37.4981C39.1176 37.5517 39.0901 37.7427 38.7256 38.0504C38.3659 38.3541 37.7841 38.6743 36.9745 38.9634C35.3643 39.5385 33.0718 39.9139 30.4899 39.9139C27.9081 39.9139 25.6156 39.5385 24.0054 38.9634C23.1958 38.6743 22.614 38.3541 22.2543 38.0504C21.8898 37.7427 21.8623 37.5517 21.8623 37.4981V35.2188C21.8623 35.0085 22.089 34.8739 22.2786 34.965C22.6023 35.1207 22.9478 35.2627 23.309 35.3917C25.1961 36.0657 27.735 36.4628 30.4899 36.4628C33.2448 36.4628 35.7838 36.0657 37.6709 35.3917Z" fill="white"/>
</svg>
