<svg width="60" height="60" viewBox="0 0 60 60" fill="none" xmlns="http://www.w3.org/2000/svg">
<circle cx="30" cy="30" r="30" fill="#FA5A7D"/>
<path d="M42.1399 17.2109C42.1295 17.1598 42.105 17.1128 42.0693 17.0753C42.0336 17.0379 41.9881 17.0116 41.9382 16.9995C38.6102 16.1725 30.9206 19.1196 26.7545 23.3523C26.0114 24.1014 25.334 24.9149 24.7299 25.7836C23.4452 25.6681 22.1605 25.7646 21.0655 26.2497C17.9762 27.6317 17.0767 31.2378 16.8261 32.789C16.8119 32.8739 16.8173 32.961 16.8418 33.0435C16.8663 33.1259 16.9093 33.2015 16.9674 33.2642C17.0255 33.3268 17.0971 33.375 17.1766 33.4048C17.2561 33.4346 17.3413 33.4452 17.4256 33.4359L22.3866 32.8797C22.3902 33.2599 22.4127 33.6396 22.4542 34.0174C22.4792 34.2798 22.5938 34.525 22.7781 34.7105L24.6992 36.6585C24.8819 36.8456 25.123 36.962 25.3811 36.9876C25.7508 37.0297 26.1223 37.0526 26.4942 37.0564L25.9499 42.0924C25.9408 42.178 25.9513 42.2645 25.9807 42.3453C26.0101 42.426 26.0574 42.4988 26.1191 42.5578C26.1807 42.6168 26.255 42.6605 26.3361 42.6855C26.4171 42.7105 26.5028 42.716 26.5863 42.7017C28.1096 42.4533 31.6638 41.5391 33.0156 38.3991C33.4929 37.2862 33.5906 35.9868 33.4804 34.6874C34.3371 34.0734 35.1396 33.3846 35.8788 32.6291C40.058 28.4027 42.9411 20.7615 42.1399 17.2109ZM31.7093 27.5873C31.3276 27.1996 31.0677 26.7057 30.9623 26.1679C30.8569 25.6301 30.9108 25.0727 31.1172 24.566C31.3236 24.0594 31.6732 23.6263 32.1217 23.3216C32.5703 23.0169 33.0977 22.8543 33.6372 22.8543C34.1767 22.8543 34.7041 23.0169 35.1527 23.3216C35.6012 23.6263 35.9508 24.0594 36.1572 24.566C36.3635 25.0727 36.4175 25.6301 36.3121 26.1679C36.2067 26.7057 35.9467 27.1996 35.5651 27.5873C35.3121 27.8448 35.0116 28.0492 34.6807 28.1886C34.3499 28.328 33.9953 28.3998 33.6372 28.3998C33.2791 28.3998 32.9245 28.328 32.5936 28.1886C32.2628 28.0492 31.9623 27.8448 31.7093 27.5873Z" fill="#EAECF0"/>
<path d="M24.5683 38.0695C24.2569 38.3866 23.7575 38.5101 23.1563 38.6158C21.8057 38.8497 20.613 37.6635 20.8556 36.2757C20.9482 35.7496 21.2221 35.0121 21.3926 34.8388C21.4298 34.8017 21.4546 34.7536 21.4635 34.7013C21.4723 34.649 21.4647 34.5952 21.4417 34.5476C21.4187 34.5 21.3816 34.4609 21.3356 34.4359C21.2895 34.411 21.2369 34.4014 21.1852 34.4086C20.4299 34.5025 19.7272 34.8505 19.1891 35.3973C17.8532 36.7562 17.7271 41.7986 17.7271 41.7986C17.7271 41.7986 22.6909 41.6704 24.0268 40.3114C24.5664 39.7649 24.9093 39.0496 25.0001 38.2809C25.0212 38.0395 24.7319 37.8957 24.5683 38.0695Z" fill="#EAECF0"/>
</svg>
