<svg width="60" height="60" viewBox="0 0 60 60" fill="none" xmlns="http://www.w3.org/2000/svg">
<circle cx="30" cy="30" r="30" fill="#BF83FF"/>
<path fill-rule="evenodd" clip-rule="evenodd" d="M14 30C14 21.168 21.152 14 29.984 14C38.832 14 46 21.168 46 30C46 38.832 38.832 46 29.984 46C21.152 46 14 38.832 14 30ZM36.352 23.6H41.072C39.536 20.96 37.088 18.912 34.144 17.904C35.104 19.68 35.84 21.6 36.352 23.6ZM30 17.264C31.328 19.184 32.368 21.312 33.056 23.6H26.944C27.632 21.312 28.672 19.184 30 17.264ZM17.2 30C17.2 31.104 17.36 32.176 17.616 33.2H23.024C22.896 32.144 22.8 31.088 22.8 30C22.8 28.912 22.896 27.856 23.024 26.8H17.616C17.36 27.824 17.2 28.896 17.2 30ZM18.928 36.4H23.648C24.16 38.4 24.896 40.32 25.856 42.096C22.912 41.088 20.464 39.056 18.928 36.4ZM18.928 23.6H23.648C24.16 21.6 24.896 19.68 25.856 17.904C22.912 18.912 20.464 20.944 18.928 23.6ZM30 42.736C28.672 40.816 27.632 38.688 26.944 36.4H33.056C32.368 38.688 31.328 40.816 30 42.736ZM26 30C26 31.088 26.112 32.144 26.256 33.2H33.744C33.888 32.144 34 31.088 34 30C34 28.912 33.888 27.84 33.744 26.8H26.256C26.112 27.84 26 28.912 26 30ZM34.144 42.096C35.104 40.32 35.84 38.4 36.352 36.4H41.072C39.536 39.04 37.088 41.088 34.144 42.096ZM37.2 30C37.2 31.088 37.104 32.144 36.976 33.2H42.384C42.64 32.176 42.8 31.104 42.8 30C42.8 28.896 42.64 27.824 42.384 26.8H36.976C37.104 27.856 37.2 28.912 37.2 30Z" fill="white"/>
</svg>
