<svg width="60" height="60" viewBox="0 0 60 60" fill="none" xmlns="http://www.w3.org/2000/svg">
<circle cx="30" cy="30" r="30" fill="#3CD856"/>
<path fill-rule="evenodd" clip-rule="evenodd" d="M16 29.3993C16 25.6217 19.2811 22.5593 23.3286 22.5593H35.6714C39.7189 22.5593 43 25.6217 43 29.3993V35.1593C43 38.937 39.7189 41.9993 35.6714 41.9993H23.3286C19.2811 41.9993 16 38.937 16 35.1593V29.3993ZM25.9038 32.756L28.2181 34.916C28.5 35.1791 28.9571 35.1791 29.239 34.916L33.8676 30.596C34.1495 30.3329 34.1495 29.9062 33.8676 29.6431C33.5857 29.38 33.1286 29.38 32.8466 29.6431L28.7285 33.4867L26.9247 31.8031C26.6428 31.54 26.1857 31.54 25.9038 31.8031C25.6218 32.0662 25.6218 32.4929 25.9038 32.756Z" fill="white"/>
<path d="M35.6715 23.64V18.7241C35.6715 16.6674 34.0041 15 31.9473 15H27.0528C24.996 15 23.3286 16.6674 23.3286 18.7241L23.3286 23.64" stroke="white" stroke-width="1.39655"/>
</svg>
