<svg width="18" height="18" viewBox="0 0 18 18" fill="none" xmlns="http://www.w3.org/2000/svg">
<path fill-rule="evenodd" clip-rule="evenodd" d="M5.25 0.9375C2.86827 0.9375 0.9375 2.86827 0.9375 5.25V12.75C0.9375 15.1317 2.86827 17.0625 5.25 17.0625H12.75C15.1317 17.0625 17.0625 15.1317 17.0625 12.75V5.25C17.0625 2.86827 15.1317 0.9375 12.75 0.9375H5.25ZM11.8125 9C11.8125 9.31066 11.5607 9.5625 11.25 9.5625H9.5625V11.25C9.5625 11.5607 9.31066 11.8125 9 11.8125C8.68934 11.8125 8.4375 11.5607 8.4375 11.25V9.5625H6.75C6.43934 9.5625 6.1875 9.31066 6.1875 9C6.1875 8.68934 6.43934 8.4375 6.75 8.4375H8.4375V6.75C8.4375 6.43934 8.68934 6.1875 9 6.1875C9.31066 6.1875 9.5625 6.43934 9.5625 6.75V8.4375H11.25C11.5607 8.4375 11.8125 8.68934 11.8125 9Z" fill="#BF83FF"/>
</svg>
